<svg xmlns="http://www.w3.org/2000/svg" xmlns:xlink="http://www.w3.org/1999/xlink" width="44" height="44" viewBox="0 0 44 44">
  <defs>
    <clipPath id="clip-path">
      <rect id="Rectangle_1" data-name="Rectangle 1" width="44" height="44"/>
    </clipPath>
  </defs>
  <g id="Biology" clip-path="url(#clip-path)">
    <path id="Path_1" data-name="Path 1" d="M44,9.512a2.081,2.081,0,0,0-3.281-1.7L36.186,3.28a2.08,2.08,0,0,0-3.17-2.67A15.23,15.23,0,0,0,28.4,11.485a19.963,19.963,0,0,0-6.5.95.648.648,0,1,0,.426,1.224,18.712,18.712,0,0,1,6.04-.878c-.007.492-.007.977-.007,1.456v.114c-3.569.045-6.82.439-10.194,3.813-3.43,3.43-3.764,6.858-3.811,10.075a.655.655,0,0,0,.01.12h-.126c-.472,0-.958,0-1.455.008.056-3.841.56-7.6,4.272-11.313a15.2,15.2,0,0,1,2.644-2.13.648.648,0,1,0-.689-1.1,16.483,16.483,0,0,0-2.871,2.311c-4.06,4.06-4.6,8.272-4.652,12.269a18.773,18.773,0,0,0-4.505.711.648.648,0,0,0,.372,1.241,23.286,23.286,0,0,1,6.884-.7c4,0,7.779,0,11.6-3.818s3.819-7.6,3.818-11.6c0-3.951,0-8.43,4.278-12.711a.785.785,0,0,1,1.111,1.111c-3.821,3.821-3.819,7.6-3.818,11.6,0,3.951,0,8.429-4.278,12.71s-8.758,4.282-12.711,4.278c-4,0-7.779,0-11.6,3.818a.785.785,0,0,1-1.11-1.111,14.281,14.281,0,0,1,3.832-2.793.648.648,0,1,0-.571-1.163A15.553,15.553,0,0,0,.61,33.016a2.08,2.08,0,0,0,2.856,3.022l4.5,4.5a2.08,2.08,0,0,0,3.022,2.856A15.27,15.27,0,0,0,15.6,32.516c3.853-.045,8.1-.489,12.267-4.653s4.606-8.411,4.652-12.267a15.321,15.321,0,0,0,10.875-4.612A2.068,2.068,0,0,0,44,9.512ZM19.636,18.553a10.565,10.565,0,0,1,3.607-2.2L23.2,16.4,27.589,20.8l.066-.066a10.547,10.547,0,0,1-2.208,3.633ZM24.6,15.979a19.419,19.419,0,0,1,3.75-.332,19.429,19.429,0,0,1-.331,3.751Zm-5.89,3.483,5.825,5.825a10.928,10.928,0,0,1-3.24,2.149l-4.725-4.725A11,11,0,0,1,18.713,19.463Zm-2.6,4.617L19.928,27.9a17.747,17.747,0,0,1-4.288.455.66.66,0,0,0,.009-.095A17.177,17.177,0,0,1,16.109,24.08ZM8.84,39.58,4.419,35.16a10.811,10.811,0,0,1,2.307-1.517l3.628,3.628A10.758,10.758,0,0,1,8.84,39.58Zm2.031-3.625L8.04,33.124a13.614,13.614,0,0,1,3.39-.556A13.766,13.766,0,0,1,10.871,35.955Zm-.8,6.519a.785.785,0,1,1-1.111-1.111,12.308,12.308,0,0,0,3.772-8.837c.49-.007.991-.007,1.506-.006H14.3A14.052,14.052,0,0,1,10.068,42.474ZM37.494,10.243,33.754,6.5a11.092,11.092,0,0,1,1.56-2.264L39.76,8.685A11.038,11.038,0,0,1,37.494,10.243Zm-1.288.545a13.38,13.38,0,0,1-3.637.642,13.244,13.244,0,0,1,.639-3.64Zm6.268-.72A14.1,14.1,0,0,1,32.521,14.3v-.063c0-.515,0-1.016.007-1.506a12.32,12.32,0,0,0,8.837-3.772.785.785,0,0,1,1.11,1.111Z"/>
  </g>
</svg>
