<svg xmlns="http://www.w3.org/2000/svg" width="36.476" height="45" viewBox="0 0 36.476 45">
  <g id="Chemistry" transform="translate(-4.262)">
    <path id="Path_2" data-name="Path 2" d="M26.016,20.391a.879.879,0,1,0,.879.879A.879.879,0,0,0,26.016,20.391Z"/>
    <path id="Path_3" data-name="Path 3" d="M22.5,15.117a.879.879,0,1,0,.879.879A.879.879,0,0,0,22.5,15.117Z"/>
    <path id="Path_4" data-name="Path 4" d="M11.953,37.969a.879.879,0,1,0,.879.879A.879.879,0,0,0,11.953,37.969Z"/>
    <path id="Path_5" data-name="Path 5" d="M39.939,35.831,28.652,15.766V5.123A2.637,2.637,0,0,0,27.774,0H17.227a2.637,2.637,0,0,0-.879,5.123V15.766L5.061,35.831A6.152,6.152,0,0,0,10.423,45H34.577a6.152,6.152,0,0,0,5.362-9.169Zm-21.946-19.4A.879.879,0,0,0,18.106,16V5.273h.879a.879.879,0,0,0,0-1.758H17.227a.879.879,0,0,1,0-1.758H27.774a.879.879,0,0,1,0,1.758H26.016a.879.879,0,0,0,0,1.758h.879V16a.878.878,0,0,0,.113.431l5.18,9.21a16.947,16.947,0,0,0-9.213,1.884,15.1,15.1,0,0,1-11.777.987ZM38.37,41.066a4.352,4.352,0,0,1-3.793,2.176H10.423a4.395,4.395,0,0,1-3.83-6.549l3.727-6.626a16.843,16.843,0,0,0,5.576.95q.421,0,.845-.021a17.066,17.066,0,0,0,7.042-1.915,15.174,15.174,0,0,1,9.473-1.545l5.151,9.157A4.354,4.354,0,0,1,38.37,41.066Z"/>
    <path id="Path_6" data-name="Path 6" d="M18.984,20.391a2.637,2.637,0,1,0,2.637,2.637A2.64,2.64,0,0,0,18.984,20.391Zm0,3.516a.879.879,0,1,1,.879-.879A.88.88,0,0,1,18.984,23.906Z"/>
    <path id="Path_7" data-name="Path 7" d="M33.047,37.969H15.469a.879.879,0,1,0,0,1.758H33.047a.879.879,0,0,0,0-1.758Z"/>
  </g>
</svg>
