<svg xmlns="http://www.w3.org/2000/svg" width="43.594" height="43.594" viewBox="0 0 43.594 43.594">
  <g id="economics" transform="translate(-0.703 -0.703)">
    <path id="Path_14" data-name="Path 14" d="M38.672,34.453H37.265v1.406h-.7a.7.7,0,0,0-.5,1.2l1.612,1.612H35.859v1.406h1.406v1.406h1.406V40.078h.7a.7.7,0,0,0,.5-1.2L38.26,37.266h1.818V35.859H38.672Z"/>
    <path id="Path_15" data-name="Path 15" d="M42.89,40.208V36.563a4.927,4.927,0,0,0-3.234-4.617l1.05-2.1a.7.7,0,0,0-.629-1.017H35.859a.7.7,0,0,0-.629,1.018l1.05,2.1a4.925,4.925,0,0,0-3.233,4.617v3.645a2.1,2.1,0,0,0,.7,4.089h8.438a2.1,2.1,0,0,0,.7-4.089ZM37,30.234H38.94l-.709,1.42c-.088,0-.174-.013-.262-.013s-.174.008-.262.013Zm5.191,12.656H33.75a.7.7,0,1,1,0-1.406h1.406V40.078h-.7V36.563a3.516,3.516,0,0,1,7.031,0v3.516h-.7v1.406h1.406a.7.7,0,1,1,0,1.406Z"/>
    <path id="Path_16" data-name="Path 16" d="M22,31.847a.7.7,0,0,0,.5,1.2h9.844a.7.7,0,0,0,.7-.7V22.5a.7.7,0,0,0-1.2-.5l-2.739,2.739L24.566,12.414a.7.7,0,0,0-.951-.4l-7.05,3.2L12.612,4.675a.7.7,0,0,0-.659-.456H5.879L1.856.866a.7.7,0,0,0-1.079.854L3.589,7.346a.7.7,0,0,0,.551.384L10,8.381l3.388,12.2a.7.7,0,0,0,.939.465l6.374-2.55L24.84,29.008ZM21.747,17.32a.7.7,0,0,0-.375-.388.711.711,0,0,0-.54-.008l-6.3,2.521-3.306-11.9a.7.7,0,0,0-.6-.51L4.676,6.375,3.538,4.1,5.175,5.462a.7.7,0,0,0,.45.163h5.841l4.047,10.794a.706.706,0,0,0,.39.4.7.7,0,0,0,.56-.01l7.045-3.2,4.66,12.649a.7.7,0,0,0,1.157.254L31.64,24.2v7.443H24.2l1.964-1.964a.7.7,0,0,0,.157-.754Z"/>
    <path id="Path_17" data-name="Path 17" d="M5.625,14.766H1.406a.7.7,0,0,0-.7.7V43.594a.7.7,0,0,0,.7.7H5.625a.7.7,0,0,0,.7-.7V15.469A.7.7,0,0,0,5.625,14.766Zm-.7,28.125H2.109V16.172H4.922Z"/>
    <path id="Path_18" data-name="Path 18" d="M12.656,21.8H8.438a.7.7,0,0,0-.7.7V43.594a.7.7,0,0,0,.7.7h4.219a.7.7,0,0,0,.7-.7V22.5A.7.7,0,0,0,12.656,21.8Zm-.7,21.094H9.141V23.2h2.812Z"/>
    <path id="Path_19" data-name="Path 19" d="M19.688,28.828H15.469a.7.7,0,0,0-.7.7V43.594a.7.7,0,0,0,.7.7h4.219a.7.7,0,0,0,.7-.7V29.531A.7.7,0,0,0,19.688,28.828Zm-.7,14.062H16.172V30.234h2.813Z"/>
    <path id="Path_20" data-name="Path 20" d="M26.719,35.859H22.5a.7.7,0,0,0-.7.7v7.031a.7.7,0,0,0,.7.7h4.219a.7.7,0,0,0,.7-.7V36.563A.7.7,0,0,0,26.719,35.859Zm-.7,7.031H23.2V37.266h2.813Z"/>
  </g>
</svg>
