<svg xmlns="http://www.w3.org/2000/svg" width="44.723" height="45" viewBox="0 0 44.723 45">
  <g id="english" transform="translate(-0.139)">
    <path id="Path_21" data-name="Path 21" d="M19.735,8.71H18.429L16.643,2.9H14.118L12.332,8.71H11.026v1.452h.86l-.828,2.69,1.387.427.96-3.117h3.953l.959,3.117,1.387-.427-.827-2.69h.86Zm-5.885,0,1.34-4.355h.379L16.91,8.71Z"/>
    <path id="Path_22" data-name="Path 22" d="M26.734,7.984A2.9,2.9,0,0,0,24.816,2.9h-2.9V13.064h2.9a2.9,2.9,0,0,0,1.918-5.081Zm-1.918,3.629H23.365V8.71h1.452a1.452,1.452,0,0,1,0,2.9Zm0-4.355H23.365v-2.9h1.452a1.452,1.452,0,0,1,0,2.9Z"/>
    <path id="Path_23" data-name="Path 23" d="M34.251,4.355V2.9a5.081,5.081,0,0,0,0,10.161V11.613a3.629,3.629,0,0,1,0-7.258Z"/>
    <path id="Path_24" data-name="Path 24" d="M8.848,14.516V27.581H36.429V14.516ZM34.977,26.129H10.3V15.968H34.977Z"/>
    <path id="Path_25" data-name="Path 25" d="M35.7,29.032H9.574v1.452H35.7Z"/>
    <path id="Path_26" data-name="Path 26" d="M35.7,31.935H9.574v1.452H35.7Z"/>
    <path id="Path_27" data-name="Path 27" d="M35.7,34.839H34.251V36.29H35.7Z"/>
    <path id="Path_28" data-name="Path 28" d="M32.8,34.839H9.574V36.29H32.8Z"/>
    <path id="Path_29" data-name="Path 29" d="M44.861,2.9H39.332V0H3.768A3.633,3.633,0,0,0,.139,3.629V41.371A3.633,3.633,0,0,0,3.768,45H39.332V43.548H37.155a2.177,2.177,0,0,1,0-4.355h2.177V10.161h5.529L43.047,6.532ZM34.27,43.548H3.768a2.177,2.177,0,1,1,0-4.355h30.5a3.556,3.556,0,0,0,0,4.355Zm3.61-5.806H7.4v-2.9H5.945v2.9H3.768a3.615,3.615,0,0,0-2.177.727V3.629A2.18,2.18,0,0,1,3.768,1.452H5.945V33.387H7.4V1.452H37.881ZM42.513,8.71H39.332V4.355h3.181L41.424,6.532Z"/>
    <path id="Path_30" data-name="Path 30" d="M32.074,40.645H5.945V42.1H32.074Z"/>
    <path id="Path_31" data-name="Path 31" d="M4.493,40.645H3.042V42.1H4.493Z"/>
  </g>
</svg>
