<svg xmlns="http://www.w3.org/2000/svg" xmlns:xlink="http://www.w3.org/1999/xlink" width="45" height="45" viewBox="0 0 45 45">
  <defs>
    <clipPath id="clip-path">
      <rect id="Rectangle_2" data-name="Rectangle 2" width="45" height="45"/>
    </clipPath>
  </defs>
  <g id="geography" clip-path="url(#clip-path)">
    <path id="Path_32" data-name="Path 32" d="M22.508,0A22.5,22.5,0,0,0,1.825,13.646l-.28.093.109.326A22.494,22.494,0,1,0,22.508,0ZM40.153,33.842,39,32.687V30a.749.749,0,0,0-.075-.335L36,23.823V21a.75.75,0,0,0-.334-.624l-2.25-1.5a.75.75,0,0,0-.6-.1l-2.755.688-4.627-1.986-.637-4.46,1.764-1.764h3.787l1.275,1.916a.749.749,0,0,0,.5.323l4.5.75a.744.744,0,0,0,.36-.029l4.144-1.381A20.92,20.92,0,0,1,40.153,33.842ZM37.06,7.394l-1.219.813-3.4-.68-2.205-.734a.736.736,0,0,0-.418-.016l-2.788.7-1.222-.407.906-1.812H29.25a.75.75,0,0,0,.335-.079l2.594-1.3A21.073,21.073,0,0,1,37.06,7.394ZM14.288,3.179l1.8,1.2a.749.749,0,0,0,.293.115l3.634.606L19.66,6.161l-1.893.632a.75.75,0,0,0-.406.325l-2.153,3.589-3.459,2.076-5.1.728A.75.75,0,0,0,6,14.252V16.5a.75.75,0,0,0,.22.53l1.28,1.28V19.6L4.385,17.52,3.254,14.125A21.116,21.116,0,0,1,14.288,3.179ZM12.153,27.764l-3.389-.679L7.5,24.573V22.81L10.3,20.017l1.034,2.069A.75.75,0,0,0,12,22.5h4.824l2.031,3.385a.75.75,0,0,0,.643.364h2.085l-.525,2.63-2.839,2.839a.75.75,0,0,0-.221.53v1.875l-2.7,2.025a.75.75,0,0,0-.3.6v2.708l-.933-.309-1.317-3.293V28.5A.75.75,0,0,0,12.153,27.764ZM9.9,39.291A20.99,20.99,0,0,1,2.421,16.369l.623,1.869a.749.749,0,0,0,.295.387l3.738,2.492-.853.853A.75.75,0,0,0,6,22.5v2.25a.75.75,0,0,0,.079.335l1.5,3a.75.75,0,0,0,.525.4l3.149.629V36a.75.75,0,0,0,.053.278l1.5,3.749a.75.75,0,0,0,.46.433l2.249.75a.734.734,0,0,0,.233.039.75.75,0,0,0,.75-.75V37.122L19.2,35.1a.75.75,0,0,0,.3-.6V32.558l2.78-2.78a.75.75,0,0,0,.2-.383l.75-3.749a.75.75,0,0,0-.735-.9H19.926L17.9,21.364A.75.75,0,0,0,17.252,21H12.467l-1.288-2.585a.75.75,0,0,0-.551-.405.735.735,0,0,0-.65.21L9,19.19V18a.75.75,0,0,0-.22-.53L7.5,16.191V14.9l4.606-.658a.754.754,0,0,0,.28-.1l3.749-2.249a.749.749,0,0,0,.256-.256L18.5,8.127l1.986-.663a.742.742,0,0,0,.474-.474l.75-2.25a.75.75,0,0,0-.588-.975l-4.34-.724-.763-.508a20.938,20.938,0,0,1,14.421.536l-1.37.684H26.25a.75.75,0,0,0-.675.415l-1.5,3a.75.75,0,0,0,.434,1.046l2.25.75a.736.736,0,0,0,.418.017l2.788-.7,2.043.68a.549.549,0,0,0,.09.024l3.749.75a.744.744,0,0,0,.563-.111l1.707-1.138A21.153,21.153,0,0,1,40.373,11.5l-3.689,1.23-3.994-.666-1.32-1.98a.75.75,0,0,0-.62-.334h-4.5a.75.75,0,0,0-.53.22l-2.25,2.249a.75.75,0,0,0-.212.637l.75,5.249a.75.75,0,0,0,.45.583l5.249,2.25a.741.741,0,0,0,.477.038l2.678-.67L34.5,21.4V24a.749.749,0,0,0,.075.335L37.5,30.175V33a.75.75,0,0,0,.22.53L39.287,35.1A20.99,20.99,0,0,1,9.9,39.291Z"/>
  </g>
</svg>
