<svg xmlns="http://www.w3.org/2000/svg" xmlns:xlink="http://www.w3.org/1999/xlink" width="45" height="45" viewBox="0 0 45 45">
  <defs>
    <clipPath id="clip-path">
      <rect id="Rectangle_3" data-name="Rectangle 3" width="45" height="45"/>
    </clipPath>
  </defs>
  <g id="history" clip-path="url(#clip-path)">
    <path id="Path_33" data-name="Path 33" d="M13.155,15.862h1.311V21.3a.659.659,0,0,0,1.318,0V15.862H29.216v1.517a.659.659,0,0,0,1.318,0V15.862h1.311a1.639,1.639,0,0,0,1.316-2.616L29.614,8.469a.659.659,0,0,0-1.058.786L32.1,14.032a.321.321,0,0,1-.257.512H13.155a.321.321,0,0,1-.257-.512L22.243,1.448a.321.321,0,0,1,.515,0L26.881,7a.659.659,0,1,0,1.058-.786L23.816.662a1.639,1.639,0,0,0-2.631,0L11.839,13.246a1.639,1.639,0,0,0,1.316,2.616Z"/>
    <path id="Path_34" data-name="Path 34" d="M20.6,30.736v2.673a1.049,1.049,0,0,0,1.048,1.048h1.7A1.049,1.049,0,0,0,24.4,33.409V30.736a1.9,1.9,0,0,0-3.793,0Zm2.475,0v2.4H21.922v-2.4a.578.578,0,0,1,1.157,0Z"/>
    <path id="Path_35" data-name="Path 35" d="M32.522,32.886v1.39a1.049,1.049,0,0,0,1.048,1.048h1.7a1.049,1.049,0,0,0,1.048-1.048v-1.39a1.9,1.9,0,0,0-3.793,0Zm2.475,0v1.12H33.84v-1.12a.579.579,0,1,1,1.157,0Z"/>
    <path id="Path_36" data-name="Path 36" d="M8.685,32.886v1.39a1.049,1.049,0,0,0,1.048,1.048h1.7a1.049,1.049,0,0,0,1.048-1.048v-1.39a1.9,1.9,0,0,0-3.793,0Zm2.475,0v1.12H10v-1.12a.579.579,0,1,1,1.157,0Z"/>
    <path id="Path_37" data-name="Path 37" d="M42.744,40.947h-.424V36.069a.659.659,0,1,0-1.318,0v4.878H27.836V27.42H41v5.84a.659.659,0,0,0,1.318,0V27.419a1.875,1.875,0,0,0,1.856-1.873V20.692A1.393,1.393,0,0,0,42.784,19.3H40.645a1.393,1.393,0,0,0-1.392,1.392v.9H37.984V20.4a1.392,1.392,0,0,0-1.328-1.389V15.165H40.78a1.031,1.031,0,0,0,.883-1.562L40.817,12.2l.847-1.407a1.031,1.031,0,0,0-.883-1.562H36.158a.821.821,0,0,0-.82.82V19.01H32.245A1.393,1.393,0,0,0,30.853,20.4v1.2H29.584v-.9A1.393,1.393,0,0,0,28.192,19.3H26.053a1.393,1.393,0,0,0-1.392,1.392v4.854a1.875,1.875,0,0,0,1.856,1.873V40.947H25.2V39.566a2.7,2.7,0,1,0-5.4,0v1.381H15.784V24.106a.659.659,0,1,0-1.318,0V40.947H4.087V27.42h8.4a.659.659,0,1,0,0-1.318h-9.7a.556.556,0,0,1-.556-.556V20.692a.074.074,0,0,1,.074-.074H4.443a.074.074,0,0,1,.074.074v1.174a1.05,1.05,0,0,0,1.049,1.049H7.373a1.05,1.05,0,0,0,1.049-1.049V20.4a.074.074,0,0,1,.074-.074h3.993a.659.659,0,1,0,0-1.318H8.5A1.393,1.393,0,0,0,7.1,20.4v1.2H5.835v-.9A1.393,1.393,0,0,0,4.443,19.3H2.3A1.393,1.393,0,0,0,.912,20.692v4.854a1.875,1.875,0,0,0,1.856,1.873V40.947H2.256A1.651,1.651,0,0,0,.607,42.6v1.6A.808.808,0,0,0,1.414,45H43.586a.808.808,0,0,0,.807-.807V42.6A1.651,1.651,0,0,0,42.744,40.947Zm-6.087-30.4h3.616L39.6,11.664a1.028,1.028,0,0,0,0,1.063l.674,1.12H36.656v-3.3Zm-10.677,15V20.692a.074.074,0,0,1,.074-.074h2.139a.074.074,0,0,1,.074.074v1.174a1.05,1.05,0,0,0,1.049,1.049h1.808a1.05,1.05,0,0,0,1.049-1.049V20.4a.074.074,0,0,1,.074-.074h4.348a.074.074,0,0,1,.074.074v1.464a1.05,1.05,0,0,0,1.049,1.049h1.807a1.05,1.05,0,0,0,1.049-1.049V20.692a.074.074,0,0,1,.074-.074h2.139a.074.074,0,0,1,.074.074v4.854a.556.556,0,0,1-.556.556H26.535A.556.556,0,0,1,25.98,25.546ZM21.119,39.566a1.381,1.381,0,1,1,2.762,0v1.381H21.119Zm21.956,4.116H1.925V42.6a.331.331,0,0,1,.331-.331H42.744a.331.331,0,0,1,.331.331v1.086Z"/>
  </g>
</svg>
