<svg xmlns="http://www.w3.org/2000/svg" width="35.332" height="45" viewBox="0 0 35.332 45">
  <g id="maths" transform="translate(-4.834)">
    <path id="Path_38" data-name="Path 38" d="M37.441,0H7.559A2.728,2.728,0,0,0,4.834,2.725V42.275A2.728,2.728,0,0,0,7.559,45H37.441a2.728,2.728,0,0,0,2.725-2.725V2.724A2.728,2.728,0,0,0,37.441,0Zm1.494,42.275a1.5,1.5,0,0,1-1.494,1.494H7.559a1.5,1.5,0,0,1-1.494-1.494V2.724A1.5,1.5,0,0,1,7.559,1.23H37.441a1.5,1.5,0,0,1,1.494,1.494Z"/>
    <path id="Path_39" data-name="Path 39" d="M36.035,3.516H8.965a.615.615,0,0,0-.615.615v7.734a.615.615,0,0,0,.615.615h27.07a.615.615,0,0,0,.615-.615V4.131a.615.615,0,0,0-.615-.615ZM35.42,11.25H9.58v-6.5H35.42Z"/>
    <path id="Path_40" data-name="Path 40" d="M25.84,34.285H19.16a.615.615,0,0,0-.615.615v5.967a.615.615,0,0,0,.615.617h6.68a.615.615,0,0,0,.615-.615V34.9a.615.615,0,0,0-.615-.615Zm-.615,5.968H19.775V35.516h5.449Z"/>
    <path id="Path_41" data-name="Path 41" d="M15.655,34.285H8.965a.615.615,0,0,0-.615.615v5.967a.615.615,0,0,0,.615.617h6.69a.615.615,0,0,0,.615-.615V34.9a.615.615,0,0,0-.615-.615Zm-.615,5.968H9.58V35.516H15.04Z"/>
    <path id="Path_42" data-name="Path 42" d="M25.84,24.527H19.16a.615.615,0,0,0-.615.615v5.967a.615.615,0,0,0,.615.615h6.68a.615.615,0,0,0,.615-.615V25.142a.615.615,0,0,0-.615-.615Zm-.615,5.967H19.775V25.758h5.449Z"/>
    <path id="Path_43" data-name="Path 43" d="M15.655,24.527H8.965a.615.615,0,0,0-.615.615v5.967a.615.615,0,0,0,.615.615h6.69a.615.615,0,0,0,.615-.615V25.142a.615.615,0,0,0-.615-.615Zm-.615,5.967H9.58V25.758H15.04Z"/>
    <path id="Path_44" data-name="Path 44" d="M36.035,24.527h-6.69a.615.615,0,0,0-.615.615V40.868a.615.615,0,0,0,.615.615h6.69a.615.615,0,0,0,.615-.615V25.142a.615.615,0,0,0-.615-.615ZM35.42,40.252H29.96V25.758H35.42Z"/>
    <path id="Path_45" data-name="Path 45" d="M25.84,14.768H19.16a.615.615,0,0,0-.615.615V21.35a.615.615,0,0,0,.615.615h6.68a.615.615,0,0,0,.615-.615V15.384a.615.615,0,0,0-.615-.615Zm-.615,5.967H19.775V16h5.449Z"/>
    <path id="Path_46" data-name="Path 46" d="M15.655,14.768H8.965a.615.615,0,0,0-.615.615V21.35a.615.615,0,0,0,.615.615h6.69a.615.615,0,0,0,.615-.615V15.384a.615.615,0,0,0-.615-.615Zm-.615,5.967H9.58V16H15.04Z"/>
    <path id="Path_47" data-name="Path 47" d="M36.035,14.768h-6.69a.615.615,0,0,0-.615.615V21.35a.615.615,0,0,0,.615.615h6.69a.615.615,0,0,0,.615-.615V15.384a.615.615,0,0,0-.615-.615Zm-.615,5.967H29.96V16H35.42Z"/>
  </g>
</svg>
