<svg xmlns="http://www.w3.org/2000/svg" width="41.645" height="45" viewBox="0 0 41.645 45">
  <g id="other" transform="translate(-1.677)">
    <path id="Path_8" data-name="Path 8" d="M28.344,20h-20v1.667h20Z"/>
    <path id="Path_9" data-name="Path 9" d="M8.344,25v1.667h16.22L26.231,25Z"/>
    <path id="Path_10" data-name="Path 10" d="M8.344,30v1.667h11.22L21.231,30Z"/>
    <path id="Path_11" data-name="Path 11" d="M16.677,35H8.344v1.667h8.333Z"/>
    <path id="Path_12" data-name="Path 12" d="M42.835,17.824l-2.357-2.357a1.667,1.667,0,0,0-2.357,0l-18.11,18.11v4.757c4.012,0,3,0,4.679-.007l8.655-8.655v12a1.667,1.667,0,0,1-1.667,1.667H5.011a1.667,1.667,0,0,1-1.667-1.667v-30A1.667,1.667,0,0,1,5.011,10H8.344v3.333h20V10h3.333a1.667,1.667,0,0,1,1.667,1.667v6.19l1.667-1.678V11.667a3.333,3.333,0,0,0-3.333-3.333H28.056a5.009,5.009,0,0,0-3.327-3.139A2.294,2.294,0,0,1,23.15,3.616a5,5,0,0,0-9.612,0,2.3,2.3,0,0,1-1.581,1.58A5.011,5.011,0,0,0,8.63,8.333H5.011a3.333,3.333,0,0,0-3.333,3.333v30A3.333,3.333,0,0,0,5.011,45H31.677a3.333,3.333,0,0,0,3.333-3.333V28l7.824-7.824A1.667,1.667,0,0,0,42.835,17.824ZM10.011,9.973A3.352,3.352,0,0,1,12.418,6.8a3.955,3.955,0,0,0,2.722-2.72,3.335,3.335,0,0,1,6.408,0,3.95,3.95,0,0,0,2.72,2.72A3.348,3.348,0,0,1,26.677,10v1.667H10.011ZM24,36.663c-.432,0-.609,0-1.207,0l-1.111-1.111V34.267L22.8,33.144,25.157,35.5Zm2.34-2.34-2.357-2.357L34.585,21.359l2.357,2.357ZM38.121,22.538l-2.357-2.357L36.942,19,39.3,21.359Zm2.357-2.357-2.357-2.357L39.3,16.645,41.656,19Z"/>
    <path id="Path_13" data-name="Path 13" d="M18.369,6.25A1.25,1.25,0,1,0,17.119,5,1.25,1.25,0,0,0,18.369,6.25Z"/>
  </g>
</svg>
