<svg xmlns="http://www.w3.org/2000/svg" width="42.201" height="32.344" viewBox="0 0 42.201 32.344">
  <path id="Physics" d="M42.891,33.047h-.7V30.938a.7.7,0,0,0-.7-.7h-.7V9.844a3.519,3.519,0,0,0-3.516-3.516H11.953A3.52,3.52,0,0,0,8.438,9.844v8.819l-3.289,4.7a2.819,2.819,0,1,0,1.168.783l2.121-3.03v9.12h-.7a.7.7,0,0,0-.7.7v2.109h-.7a.7.7,0,0,0-.7.7v4.219a.7.7,0,0,0,.7.7H42.891a.7.7,0,0,0,.7-.7V33.75a.7.7,0,0,0-.7-.7ZM4.219,27.422a1.408,1.408,0,1,1,.994-.412A1.406,1.406,0,0,1,4.219,27.422Zm32.344,5.625V31.641h4.219v1.406Zm-23.2-2.813h-.7V15.087l3.179-4.541h4.556V26.1a2.813,2.813,0,1,0,1.406,0V10.547h4.219V26.1a2.813,2.813,0,1,0,1.406,0V10.547h4.219V26.1a2.813,2.813,0,1,0,1.406,0V10.547h2.813a.7.7,0,0,1,.7.7V30.234h-.7a.7.7,0,0,0-.7.7v2.109H14.063V30.938a.7.7,0,0,0-.7-.7Zm-.7-17.6V11.25a.7.7,0,0,1,.7-.7h.759Zm8.438,14.787a1.408,1.408,0,1,1-.994.412A1.406,1.406,0,0,1,21.094,27.422Zm5.625,0a1.408,1.408,0,1,1-.994.412A1.406,1.406,0,0,1,26.719,27.422Zm5.625,0a1.408,1.408,0,1,1-.994.412A1.406,1.406,0,0,1,32.344,27.422ZM9.844,9.844a2.112,2.112,0,0,1,2.109-2.109H37.266a2.112,2.112,0,0,1,2.109,2.109V30.234H37.969V11.25a2.112,2.112,0,0,0-2.109-2.109h-22.5A2.112,2.112,0,0,0,11.25,11.25V30.234H9.844Zm-1.406,21.8h4.219v1.406H8.438Zm33.75,5.625H7.031V34.453H42.188Z" transform="translate(-1.393 -6.328)"/>
</svg>
