<svg id="Bed" xmlns="http://www.w3.org/2000/svg" width="45" height="40.5" viewBox="0 0 45 40.5">
  <path id="Path_1" data-name="Path 1" d="M42.5,28.5a2.609,2.609,0,0,0,.255-1.128v-3.75A2.628,2.628,0,0,0,40.125,21H38.99a1.69,1.69,0,0,0-1.677-1.5H13.5a.75.75,0,0,0-.75.75V21h-2a2.627,2.627,0,0,0,.233-1.451L9.95,11.3A2.629,2.629,0,0,0,7.345,9h-.97a2.61,2.61,0,0,0-1.128.255,2.628,2.628,0,0,0-2.622-2.5H.75A.75.75,0,0,0,0,7.5v3.75H1.5v-3H2.625A1.126,1.126,0,0,1,3.75,9.375V34.5H1.5V12.75H0v27a.75.75,0,0,0,.75.75h1.8a4.494,4.494,0,0,0,4.269-3.077L7.291,36H33V34.5H5.25V30H42.375A1.126,1.126,0,0,1,43.5,31.125V34.5h-9V36h3.209l.474,1.423A4.494,4.494,0,0,0,42.453,40.5h1.8a.75.75,0,0,0,.75-.75V31.125A2.628,2.628,0,0,0,42.5,28.5ZM5.709,36l-.316.949A3,3,0,0,1,2.547,39H1.5V36ZM37.5,21.188V25.5H18.75V21H37.313a.187.187,0,0,1,.188.188ZM14.25,21h3v4.5h-3ZM6.375,10.5h.97a1.127,1.127,0,0,1,1.116.986l1.031,8.25A1.125,1.125,0,0,1,8.376,21H5.25V11.625A1.126,1.126,0,0,1,6.375,10.5ZM5.25,28.5v-6h7.5v3.75a.75.75,0,0,0,.75.75H38.25a.75.75,0,0,0,.75-.75V22.5h1.125a1.126,1.126,0,0,1,1.125,1.125v3.75A1.126,1.126,0,0,1,40.125,28.5ZM43.5,39H42.453a3,3,0,0,1-2.846-2.051L39.291,36H43.5Z"/>
  <path id="Path_2" data-name="Path 2" d="M25.3,15.2l1.555.851L27.7,17.61a.75.75,0,0,0,1.316,0l.851-1.555,1.555-.851a.75.75,0,0,0,0-1.316l-1.555-.851-.851-1.555a.75.75,0,0,0-1.316,0l-.851,1.555-1.555.851a.75.75,0,0,0,0,1.316Zm2.468-.956a.75.75,0,0,0,.3-.3l.3-.545.3.545a.75.75,0,0,0,.3.3l.545.3-.545.3a.748.748,0,0,0-.3.3l-.3.545-.3-.545a.75.75,0,0,0-.3-.3l-.545-.3Z"/>
  <path id="Path_3" data-name="Path 3" d="M16.14,7.112l1.555.851.851,1.555a.75.75,0,0,0,1.316,0l.851-1.555,1.555-.851a.75.75,0,0,0,0-1.316l-1.555-.851L19.862,3.39a.75.75,0,0,0-1.316,0L17.7,4.945,16.14,5.8a.75.75,0,0,0,0,1.316Zm2.468-.956a.749.749,0,0,0,.3-.3l.3-.545.3.545a.75.75,0,0,0,.3.3l.545.3-.545.3a.75.75,0,0,0-.3.3l-.3.545-.3-.545a.75.75,0,0,0-.3-.3l-.545-.3Z"/>
  <path id="Path_4" data-name="Path 4" d="M30.232,4.112l1.555.851.851,1.555a.75.75,0,0,0,1.316,0L34.8,4.963l1.555-.851a.75.75,0,0,0,0-1.316L34.8,1.945,33.954.39a.75.75,0,0,0-1.316,0l-.851,1.555L30.232,2.8a.75.75,0,0,0,0,1.316ZM32.7,3.156a.75.75,0,0,0,.3-.3l.3-.545.3.545a.749.749,0,0,0,.3.3l.545.3-.545.3a.75.75,0,0,0-.3.3l-.3.545L33,4.05a.75.75,0,0,0-.3-.3l-.545-.3Z"/>
</svg>
