<svg id="Capa_1" enable-background="new 0 0 512.118 512.118" height="512" viewBox="0 0 512.118 512.118" width="512" xmlns="http://www.w3.org/2000/svg"><g><path d="m149.705 180.516h14.922v61.852c0 4.143 3.357 7.5 7.5 7.5s7.5-3.357 7.5-7.5v-61.852h152.865v17.268c0 4.143 3.357 7.5 7.5 7.5s7.5-3.357 7.5-7.5v-17.268h14.922c7.091 0 13.475-3.936 16.66-10.27 3.187-6.335 2.54-13.807-1.688-19.499l-40.37-54.362c-2.469-3.324-7.166-4.019-10.493-1.55-3.325 2.47-4.02 7.168-1.55 10.493l40.37 54.362c1.211 1.63.635 3.211.33 3.815-.304.604-1.229 2.01-3.26 2.01h-212.708c-2.03 0-2.956-1.405-3.26-2.01-.305-.604-.881-2.186.33-3.815l106.354-143.216c.952-1.282 2.244-1.474 2.93-1.474s1.978.191 2.93 1.474l46.927 63.192c2.469 3.324 7.167 4.019 10.493 1.55 3.325-2.47 4.02-7.167 1.55-10.493l-46.927-63.193c-3.555-4.786-9.012-7.53-14.973-7.53s-11.418 2.744-14.973 7.53l-106.354 143.217c-4.228 5.692-4.874 13.164-1.688 19.499 3.186 6.334 9.57 10.27 16.661 10.27z"/><path d="m234.475 349.785v30.425c0 6.577 5.352 11.929 11.929 11.929h19.311c6.577 0 11.929-5.352 11.929-11.929v-30.425c0-11.901-9.683-21.583-21.584-21.583s-21.585 9.682-21.585 21.583zm28.168 0v27.354h-13.168v-27.354c0-3.63 2.953-6.583 6.584-6.583s6.584 2.953 6.584 6.583z"/><path d="m370.112 374.254v15.815c0 6.577 5.352 11.929 11.929 11.929h19.311c6.577 0 11.929-5.352 11.929-11.929v-15.815c0-11.901-9.683-21.584-21.584-21.584s-21.585 9.683-21.585 21.584zm28.168 0v12.744h-13.168v-12.744c0-3.631 2.953-6.584 6.584-6.584s6.584 2.953 6.584 6.584z"/><path d="m98.838 374.254v15.815c0 6.577 5.352 11.929 11.929 11.929h19.311c6.577 0 11.929-5.352 11.929-11.929v-15.815c0-11.901-9.683-21.584-21.584-21.584s-21.585 9.683-21.585 21.584zm28.168 0v12.744h-13.168v-12.744c0-3.631 2.953-6.584 6.584-6.584s6.584 2.953 6.584 6.584z"/><path d="m486.441 465.989h-4.831v-55.51c0-4.143-3.357-7.5-7.5-7.5s-7.5 3.357-7.5 7.5v55.51h-149.828v-153.937h149.828v66.465c0 4.143 3.357 7.5 7.5 7.5s7.5-3.357 7.5-7.5v-66.475c11.665-.109 21.124-9.623 21.124-21.312v-55.244c0-8.733-7.105-15.839-15.839-15.839h-24.341c-8.733 0-15.839 7.105-15.839 15.839v10.294h-14.44v-13.602c0-8.488-6.717-15.418-15.112-15.802v-43.788h46.93c4.222 0 8.135-2.283 10.213-5.959 2.077-3.675 2.015-8.205-.162-11.82l-9.636-16.011 9.636-16.01c2.177-3.616 2.239-8.146.162-11.821-2.078-3.676-5.991-5.959-10.213-5.959h-52.603c-5.143 0-9.327 4.184-9.327 9.326v20.756 29.998 51.251h-35.207c-8.733 0-15.839 7.105-15.839 15.839v13.602h-14.44v-10.294c0-8.733-7.105-15.839-15.839-15.839h-24.341c-8.733 0-15.839 7.105-15.839 15.839v55.244c0 11.689 9.459 21.204 21.124 21.312v153.948h-15.006v-15.718c0-16.938-13.779-30.717-30.717-30.717s-30.717 13.779-30.717 30.717v15.718h-21.506-24.21v-191.66c0-4.143-3.357-7.5-7.5-7.5s-7.5 3.357-7.5 7.5v191.66h-118.118v-153.938h95.618c4.143 0 7.5-3.357 7.5-7.5s-3.357-7.5-7.5-7.5h-110.418c-3.486 0-6.323-2.836-6.323-6.322v-55.244c0-.463.376-.839.839-.839h24.34c.463 0 .84.376.84.839v13.358c0 6.581 5.354 11.936 11.936 11.936h20.569c6.581 0 11.936-5.354 11.936-11.936v-16.666c0-.463.376-.839.839-.839h45.444c4.143 0 7.5-3.357 7.5-7.5s-3.357-7.5-7.5-7.5h-45.446c-8.733 0-15.839 7.105-15.839 15.839v13.602h-14.44v-10.294c0-8.733-7.105-15.839-15.84-15.839h-24.34c-8.733 0-15.839 7.105-15.839 15.839v55.244c0 11.689 9.459 21.204 21.124 21.312v153.948h-5.831c-10.348 0-18.767 8.418-18.767 18.766v18.18c0 5.063 4.12 9.184 9.184 9.184h479.93c5.063 0 9.184-4.12 9.184-9.184v-18.18c0-10.349-8.419-18.767-18.767-18.767zm-69.278-345.981h41.146l-7.666 12.737c-2.25 3.733-2.25 8.372-.002 12.102l7.668 12.741h-41.146v-22.498zm-121.505 170.721v-55.244c0-.463.376-.839.839-.839h24.341c.463 0 .839.376.839.839v13.358c0 6.581 5.354 11.936 11.935 11.936h20.57c6.581 0 11.936-5.354 11.936-11.936v-16.666c0-.463.376-.839.839-.839h49.48c.463 0 .839.376.839.839v16.666c0 6.581 5.354 11.936 11.936 11.936h20.57c6.581 0 11.935-5.354 11.935-11.936v-13.358c0-.463.376-.839.839-.839h24.341c.463 0 .839.376.839.839v55.244c0 3.486-2.837 6.322-6.323 6.322h-179.43c-3.488.001-6.325-2.835-6.325-6.322zm-55.316 159.542c0-8.666 7.051-15.717 15.717-15.717s15.717 7.051 15.717 15.717v15.718h-31.434zm249.866 46.847h-468.297v-12.363c0-2.076 1.689-3.766 3.767-3.766h460.764c2.077 0 3.767 1.689 3.767 3.766v12.363z"/></g></svg>