<svg viewBox="0 -20 512 512" xmlns="http://www.w3.org/2000/svg"><path d="m112.613281 373.523438c-21.910156 0-39.671875-17.761719-39.671875-39.671876v-326.351562h79.34375v326.351562c0 21.910157-17.761718 39.671876-39.671875 39.671876zm0 0" fill="#fff"/><path d="m103.304688 7.5v326.351562c0 12.664063-5.941407 23.933594-15.183594 31.199219 6.746094 5.300781 15.246094 8.472657 24.492187 8.472657 21.910157 0 39.671875-17.761719 39.671875-39.671876v-326.351562zm0 0" fill="#e2ebf9"/><path d="m157.476562 44.726562h-89.726562c-6.007812 0-10.878906-4.867187-10.878906-10.875v-15.472656c0-6.007812 4.871094-10.878906 10.878906-10.878906h89.726562c6.007813 0 10.875 4.871094 10.875 10.878906v15.472656c.003907 6.003907-4.867187 10.875-10.875 10.875zm0 0" fill="#c1c8d2"/><path d="m256 373.523438c-21.910156 0-39.671875-17.761719-39.671875-39.671876v-326.351562h79.34375v326.351562c0 21.910157-17.761719 39.671876-39.671875 39.671876zm0 0" fill="#fff"/><path d="m246.359375 7.5v326.351562c0 12.589844-5.871094 23.800782-15.015625 31.070313 6.769531 5.378906 15.335938 8.601563 24.65625 8.601563 21.910156 0 39.671875-17.761719 39.671875-39.671876v-326.351562zm0 0" fill="#e2ebf9"/><path d="m300.863281 44.726562h-89.726562c-6.007813 0-10.875-4.867187-10.875-10.875v-15.472656c0-6.007812 4.867187-10.878906 10.875-10.878906h89.726562c6.007813 0 10.878907 4.871094 10.878907 10.878906v15.472656c0 6.003907-4.871094 10.875-10.878907 10.875zm0 0" fill="#c1c8d2"/><path d="m399.386719 373.523438c-21.910157 0-39.671875-17.761719-39.671875-39.671876v-326.351562h79.34375v326.351562c0 21.910157-17.761719 39.671876-39.671875 39.671876zm0 0" fill="#fff"/><path d="m389.828125 7.5v326.351562c0 12.609376-5.886719 23.835938-15.054687 31.101563 6.761718 5.363281 15.3125 8.570313 24.613281 8.570313 21.910156 0 39.671875-17.761719 39.671875-39.671876v-326.351562zm0 0" fill="#e2ebf9"/><path d="m444.25 44.726562h-89.726562c-6.007813 0-10.875-4.867187-10.875-10.875v-15.472656c0-6.007812 4.867187-10.878906 10.875-10.878906h89.726562c6.007812 0 10.878906 4.871094 10.878906 10.878906v15.472656c0 6.003907-4.871094 10.875-10.878906 10.875zm0 0" fill="#c1c8d2"/><path d="m498.808594 464.824219h-485.617188c-3.144531 0-5.691406-2.546875-5.691406-5.691407v-32.472656c0-3.140625 2.546875-5.6875 5.691406-5.6875h485.617188c3.144531 0 5.691406 2.546875 5.691406 5.6875v32.472656c0 3.144532-2.546875 5.691407-5.691406 5.691407zm0 0" fill="#ffaa16"/><path d="m498.808594 420.972656h-43.621094v43.851563h43.621094c3.144531 0 5.691406-2.546875 5.691406-5.691407v-32.472656c0-3.140625-2.546875-5.6875-5.691406-5.6875zm0 0" fill="#ff914d"/><path d="m489.015625 134.984375h-466.03125c-8.550781 0-15.484375-6.929687-15.484375-15.480469 0-8.550781 6.933594-15.484375 15.484375-15.484375h466.035156c8.550781 0 15.480469 6.933594 15.480469 15.484375 0 8.550782-6.933594 15.480469-15.484375 15.480469zm0 0" fill="#ffaa16"/><path d="m489.015625 104.019531h-33.746094v30.964844h33.746094c8.550781 0 15.484375-6.929687 15.484375-15.480469 0-8.554687-6.933594-15.484375-15.484375-15.484375zm0 0" fill="#ff914d"/><path d="m359.714844 214.234375v119.617187c0 21.910157 17.761718 39.671876 39.671875 39.671876 21.914062 0 39.675781-17.761719 39.675781-39.671876v-119.617187zm0 0" fill="#76ffda"/><path d="m389.828125 333.851562c0 12.609376-5.886719 23.835938-15.054687 31.101563 2.070312 1.640625 4.304687 3.078125 6.679687 4.285156.078125.035157.152344.074219.226563.113281.398437.199219.800781.390626 1.203124.574219.132813.0625.265626.121094.398438.179688.382812.171875.765625.335937 1.152344.496093.164062.0625.328125.128907.488281.191407.375.148437.753906.292969 1.132813.429687.171874.058594.347656.117188.519531.175782.671875.230468 1.355469.441406 2.039062.632812.238281.066406.46875.140625.707031.203125.277344.074219.5625.132813.84375.203125.320313.074219.636719.152344.957032.21875.273437.058594.546875.109375.820312.160156.339844.066406.679688.128906 1.023438.183594.261718.042969.527344.085938.792968.121094.367188.050781.734376.097656 1.105469.140625.246094.027343.492188.054687.742188.082031.417969.039062.835937.066406 1.257812.09375.207031.011719.410157.03125.617188.039062.632812.03125 1.265625.046876 1.90625.046876 21.910156 0 39.671875-17.761719 39.671875-39.671876v-119.617187h-49.230469zm0 0" fill="#5de1c0"/><path d="m216.328125 214.234375v119.617187c0 21.910157 17.761719 39.671876 39.671875 39.671876s39.671875-17.761719 39.671875-39.671876v-119.617187zm0 0" fill="#76ffda"/><path d="m246.359375 333.851562c0 12.589844-5.871094 23.800782-15.015625 31.070313h.003906c2.0625 1.640625 4.296875 3.078125 6.667969 4.289063.085937.042968.171875.089843.261719.132812.390625.195312.789062.386719 1.1875.570312.140625.0625.277344.125.417968.1875.378907.167969.757813.332032 1.140626.488282.167968.066406.332031.132812.5.199218.375.144532.746093.292969 1.128906.425782.171875.0625.347656.117187.519531.175781.648437.222656 1.304687.425781 1.964844.617187.261719.074219.523437.152344.789062.222657.277344.074219.5625.136719.84375.203125.320313.074218.636719.152344.957031.21875.273438.058594.546876.109375.824219.164062.339844.0625.679688.125 1.019531.179688.265626.042968.53125.085937.796876.121094.367187.054687.734374.101562 1.105468.140624.246094.027344.496094.058594.742188.082032.417968.039062.839844.070312 1.257812.09375.207032.015625.414063.03125.621094.042968.632812.027344 1.265625.046876 1.90625.046876 21.910156 0 39.671875-17.761719 39.671875-39.671876v-119.617187h-49.3125zm0 0" fill="#5de1c0"/><path d="m72.941406 214.234375v119.617187c0 21.910157 17.761719 39.671876 39.671875 39.671876 21.910157 0 39.671875-17.761719 39.671875-39.671876v-119.617187zm0 0" fill="#76ffda"/><path d="m103.304688 333.851562c0 12.664063-5.941407 23.933594-15.183594 31.199219 0 0 .003906.003907.003906.003907 2.082031 1.632812 4.328125 3.0625 6.714844 4.261718.039062.023438.082031.042969.121094.0625.402343.203125.8125.394532 1.226562.582032.125.058593.25.117187.378906.171874.378906.167969.761719.332032 1.148438.488282.164062.066406.332031.128906.496094.195312.367187.144532.738281.285156 1.113281.417969.1875.066406.375.128906.5625.191406 1.148437.386719 2.316406.726563 3.511719 1.007813.324218.078125.644531.15625.972656.226562.269531.058594.539062.105469.808594.15625.34375.066406.683593.128906 1.03125.183594.261718.042969.523437.082031.785156.121094.367187.050781.734375.097656 1.105468.140625.246094.027343.492188.054687.738282.078125.417968.039062.835937.066406 1.257812.09375.207032.011718.410156.03125.617188.039062.628906.03125 1.261718.050782 1.898437.050782 21.910157 0 39.671875-17.761719 39.671875-39.675782v-119.613281h-48.980468zm0 0" fill="#5de1c0"/><path d="m498.808594 413.472656h-14.488282v-270.988281h4.699219c12.671875 0 22.980469-10.308594 22.980469-22.980469s-10.308594-22.984375-22.980469-22.984375h-42.457031v-44.453125c9.042969-1.140625 16.066406-8.867187 16.066406-18.214844v-15.472656c0-10.132812-8.246094-18.378906-18.378906-18.378906h-89.726562c-10.132813 0-18.378907 8.246094-18.378907 18.378906v15.472656c0 9.347657 7.023438 17.074219 16.070313 18.214844v44.453125h-49.042969v-44.453125c9.046875-1.140625 16.066406-8.867187 16.066406-18.214844v-15.472656c0-10.132812-8.242187-18.378906-18.378906-18.378906h-89.722656c-10.132813 0-18.378907 8.246094-18.378907 18.378906v15.472656c0 9.347657 7.023438 17.074219 16.066407 18.214844v44.453125h-49.042969v-44.453125c9.046875-1.140625 16.070312-8.867187 16.070312-18.21875v-15.46875c0-10.132812-8.246093-18.378906-18.378906-18.378906h-89.722656c-10.132812 0-18.378906 8.246094-18.378906 18.378906v15.472656c0 9.347657 7.023437 17.074219 16.066406 18.214844v44.453125h-42.457031c-12.671875 0-22.980469 10.308594-22.980469 22.984375 0 12.671875 10.308594 22.980469 22.980469 22.980469h4.699219v270.984375h-14.488282c-7.273437.003906-13.191406 5.921875-13.191406 13.191406v32.472656c0 7.273438 5.917969 13.191407 13.191406 13.191407h485.617188c7.273437 0 13.191406-5.917969 13.191406-13.191407v-32.472656c0-7.269531-5.917969-13.1875-13.191406-13.1875zm-147.664063-379.621094v-15.472656c0-1.863281 1.515625-3.378906 3.378907-3.378906h89.726562c1.863281 0 3.378906 1.515625 3.378906 3.378906v15.472656c0 1.859376-1.515625 3.375-3.378906 3.375h-89.726562c-1.863282 0-3.378907-1.515624-3.378907-3.375zm16.070313 18.375h64.347656v44.292969h-64.347656zm-159.457032-18.375v-15.472656c0-1.863281 1.515626-3.378906 3.378907-3.378906h89.726562c1.863281 0 3.378907 1.515625 3.378907 3.378906v15.472656c0 1.859376-1.515626 3.375-3.378907 3.375h-89.726562c-1.863281 0-3.378907-1.515624-3.378907-3.375zm16.070313 18.375h64.34375v44.292969h-64.34375zm-159.457031-18.375v-15.472656c0-1.863281 1.515625-3.378906 3.378906-3.378906h89.726562c1.863282 0 3.378907 1.515625 3.378907 3.378906v15.472656c0 1.859376-1.515625 3.375-3.378907 3.375h-89.726562c-1.863281 0-3.378906-1.515624-3.378906-3.375zm16.066406 18.375h64.347656v44.292969h-64.347656zm-65.4375 67.277344c0-4.402344 3.582031-7.984375 7.980469-7.984375h466.035156c4.402344 0 7.984375 3.582031 7.984375 7.984375 0 4.398438-3.582031 7.980469-7.984375 7.980469h-466.035156c-4.398438 0-7.980469-3.582031-7.980469-7.980469zm352.214844 22.980469h64.347656v191.367187c0 17.742188-14.433594 32.171876-32.175781 32.171876-17.738281 0-32.171875-14.429688-32.171875-32.171876zm-143.386719 0h64.34375v191.367187c0 17.742188-14.433594 32.171876-32.171875 32.171876s-32.171875-14.429688-32.171875-32.171876zm273.171875 314.839844h-482v-28.855469h373.199219c4.144531 0 7.5-3.355469 7.5-7.5 0-4.140625-3.355469-7.5-7.5-7.5h-345.519531v-270.984375h22.761718v95.925781c0 4.144532 3.355469 7.5 7.5 7.5 4.140625 0 7.5-3.355468 7.5-7.5v-95.925781h64.34375v191.367187c0 17.742188-14.433594 32.171876-32.171875 32.171876-17.742187 0-32.171875-14.429688-32.171875-32.171876v-59.953124c0-4.144532-3.359375-7.5-7.5-7.5-4.144531 0-7.5 3.355468-7.5 7.5v59.953124c0 26.011719 21.160156 47.171876 47.171875 47.171876s47.171875-21.160157 47.171875-47.171876v-191.367187h49.042969v191.367187c0 26.011719 21.160156 47.171876 47.171875 47.171876s47.175781-21.160157 47.175781-47.171876v-191.367187h49.039063v191.367187c0 26.011719 21.164062 47.171876 47.175781 47.171876 26.007813 0 47.171875-21.160157 47.171875-47.171876v-191.367187h22.757812v270.984375h-45.96875c-4.140624 0-7.5 3.359375-7.5 7.5 0 4.144531 3.359376 7.5 7.5 7.5h73.648438zm0 0" fill="#434c54"/></svg>