<svg xmlns="http://www.w3.org/2000/svg" width="143.633" height="143.652" viewBox="0 0 143.633 143.652">
  <g id="Group_1" data-name="Group 1" transform="matrix(0.999, -0.035, 0.035, 0.999, 0, 4.846)">
    <path id="Path_1" data-name="Path 1" d="M138.87,81.008V71.75a2.315,2.315,0,0,0-2.314-2.315H106.467V67.121a6.965,6.965,0,0,0-6.944-6.944H97.209V55.548h11.573a6.965,6.965,0,0,0,6.944-6.944V6.944A6.964,6.964,0,0,0,108.782,0H30.089a6.964,6.964,0,0,0-6.944,6.944V48.6a6.964,6.964,0,0,0,6.944,6.944H41.661v4.629H39.347A6.965,6.965,0,0,0,32.4,67.121v2.315H2.315A2.315,2.315,0,0,0,0,71.75v9.258a2.315,2.315,0,0,0,2.315,2.315H6.643L.023,136.278a2.24,2.24,0,0,0,.555,1.805,2.27,2.27,0,0,0,1.736.787H6.944A2.315,2.315,0,0,0,9.165,137.2L24.881,83.322H32.4v6.944a2.315,2.315,0,0,0,2.315,2.315h6.944v4.629a2.315,2.315,0,0,0,2.315,2.315H62.492v13.887H46.29a2.315,2.315,0,0,0-2.315,2.315V125.4a6.943,6.943,0,1,0,4.629,0v-7.36H67.121v7.36a6.943,6.943,0,1,0,4.629,0v-7.36H90.266v7.36a6.943,6.943,0,1,0,4.629,0v-9.675a2.315,2.315,0,0,0-2.315-2.315h-16.2V99.524H94.895a2.315,2.315,0,0,0,2.315-2.315V92.58h6.944a2.315,2.315,0,0,0,2.315-2.315V83.322h7.522L129.705,137.2a2.315,2.315,0,0,0,2.222,1.666h4.629a2.27,2.27,0,0,0,1.736-.787,2.239,2.239,0,0,0,.555-1.805l-6.619-52.956h4.328a2.315,2.315,0,0,0,2.314-2.315ZM5.208,134.241H4.93l6.365-50.919h8.772ZM32.4,78.693H4.629V74.064H32.4Zm9.258,9.258H37.032V67.121a2.315,2.315,0,0,1,2.315-2.315h2.315Zm4.629,46.29a2.315,2.315,0,1,1,1.637-.678A2.316,2.316,0,0,1,46.29,134.241Zm46.29-4.629a2.315,2.315,0,1,1-1.637.678A2.316,2.316,0,0,1,92.58,129.612Zm-23.145,4.629a2.315,2.315,0,1,1,1.637-.678A2.316,2.316,0,0,1,69.435,134.241Zm2.315-20.831H67.121V99.524H71.75ZM92.58,94.895H46.29V48.6A2.315,2.315,0,0,1,48.6,46.29H90.266A2.315,2.315,0,0,1,92.58,48.6ZM55.548,41.661V37.032a13.887,13.887,0,1,1,27.774,0v4.629Zm34.718,0H87.951V37.032a18.516,18.516,0,0,0-37.032,0v4.629H48.6A6.965,6.965,0,0,0,41.661,48.6v2.315H30.089A2.315,2.315,0,0,1,27.774,48.6V6.944a2.315,2.315,0,0,1,2.315-2.315h78.693A2.315,2.315,0,0,1,111.1,6.944V48.6a2.315,2.315,0,0,1-2.315,2.315H97.209V48.6a6.965,6.965,0,0,0-6.944-6.944Zm11.573,46.29H97.209V64.806h2.315a2.315,2.315,0,0,1,2.315,2.315Zm32.1,46.29h-.278L118.8,83.322h8.772Zm.3-55.548H106.467V74.064h27.774Z"/>
    <path id="Path_2" data-name="Path 2" d="M37.694,14.573h4.629V5.314A2.315,2.315,0,0,0,40.008,3H30.75V7.629h6.944Z" transform="translate(64.145 6.258)"/>
    <path id="Path_3" data-name="Path 3" d="M37.629,8.25H33v4.629h4.629Z" transform="translate(68.838 17.21)"/>
  </g>
</svg>
