<svg id="Capa_1" enable-background="new 0 0 509.403 509.403" height="512" viewBox="0 0 509.403 509.403" width="512" xmlns="http://www.w3.org/2000/svg"><g><path d="m509.397 110.126c0-6.435-2.506-12.485-7.056-17.035-4.551-4.55-10.601-7.056-17.035-7.056-5.05 0-9.859 1.549-13.897 4.413l-52.477-52.477c6.638-9.397 5.779-22.509-2.626-30.915-4.549-4.55-10.599-7.056-17.035-7.056s-12.485 2.506-17.036 7.056c-42.481 42.482-51.503 85.702-53.413 125.913-23.857.287-49.135 1.887-75.3 11-3.912 1.362-5.979 5.638-4.616 9.549 1.078 3.096 3.98 5.035 7.083 5.035.818 0 1.65-.135 2.467-.419 23.878-8.317 47.508-9.864 69.93-10.159-.078 5.693-.077 11.315-.075 16.852v1.322c-41.322.515-78.961 5.078-118.026 44.142-39.712 39.712-43.572 79.397-44.123 116.642-.007.473.035.934.112 1.384-.486 0-.969 0-1.457 0-5.464 0-11.095.005-16.845.09.648-44.466 6.483-88.002 49.454-130.973 9.711-9.71 20.009-18.008 30.605-24.663 3.508-2.203 4.566-6.833 2.363-10.34s-6.832-4.564-10.34-2.363c-11.549 7.252-22.73 16.255-33.235 26.76-47.006 47.006-53.21 95.765-53.854 142.041-16.817.828-34.434 2.916-52.159 8.23-3.967 1.189-6.22 5.37-5.029 9.338 1.188 3.968 5.367 6.222 9.338 5.03 27.237-8.166 53.882-8.145 79.698-8.149 46.306.021 90.058.029 134.292-44.205 44.233-44.233 44.22-87.977 44.205-134.292-.016-45.745-.032-97.593 49.53-147.156 1.718-1.717 4.001-2.663 6.43-2.663s4.711.946 6.428 2.663c3.545 3.545 3.545 9.313 0 12.858-44.234 44.234-44.22 87.979-44.204 134.295.015 45.745.03 97.592-49.531 147.153-49.562 49.562-101.396 49.578-147.156 49.531-46.3-.007-90.059-.028-134.293 44.205-3.545 3.545-9.313 3.545-12.856 0-3.545-3.545-3.545-9.313 0-12.858 13.956-13.957 28.468-24.535 44.362-32.34 3.718-1.826 5.252-6.32 3.427-10.038s-6.318-5.253-10.038-3.426c-17.399 8.541-33.217 20.055-48.358 35.196-9.393 9.393-9.393 24.678 0 34.071 4.697 4.697 10.866 7.045 17.036 7.045 5.743 0 11.471-2.063 16.027-6.134l52.061 52.062c-8.443 9.448-8.158 23.993.911 33.063 4.55 4.55 10.6 7.056 17.035 7.056s12.485-2.506 17.036-7.056c43.564-43.565 51.557-88.015 53.394-125.901 44.607-.521 93.81-5.66 142.02-53.87 48.212-48.213 53.33-97.378 53.863-142.016 38.264-1.852 82.757-10.248 125.907-53.398 4.55-4.551 7.056-10.601 7.056-17.037zm-282.069 104.668c13.989-12.594 27.737-20.479 41.754-25.417l-.539.539 50.859 50.86.761-.761c-4.933 14.128-12.853 27.957-25.558 42.058zm57.511-29.796c13.877-2.906 28.191-3.653 43.409-3.845-.188 15.282-.934 29.589-3.827 43.428zm-68.194 40.327 67.433 67.434c-12.608 11.747-24.979 19.613-37.516 24.879l-54.704-54.704c5.241-12.481 13.074-24.995 24.787-37.609zm-30.155 53.455 44.212 44.212c-15.771 4.101-32.065 5.047-49.647 5.261.058-.359.1-.724.106-1.098.24-16.217 1.095-32.294 5.329-48.375zm-84.155 179.451-51.177-51.177c8.944-7.573 17.797-13.276 26.706-17.562l42.006 42.006c-4.292 8.965-9.997 17.819-17.535 26.733zm23.517-41.965-32.778-32.778c12.665-3.983 25.61-5.701 39.246-6.439-.766 13.75-2.54 26.677-6.468 39.217zm-9.301 75.474c-1.718 1.717-4.001 2.663-6.43 2.663s-4.711-.946-6.428-2.663c-1.718-1.717-2.663-4-2.663-6.429s.945-4.712 2.663-6.429c35.374-35.375 42.034-70.051 43.674-102.311 5.669-.079 11.473-.076 17.438-.071h.726c-1.776 34.851-9.318 75.576-48.98 115.24zm317.521-373.149-43.295-43.295c4.474-8.73 10.348-17.419 18.061-26.207l51.465 51.465c-8.754 7.676-17.445 13.554-26.231 18.037zm-14.909 6.305c-13.443 4.6-27.302 6.604-42.111 7.431.796-14.673 2.729-28.553 7.396-42.146zm72.571-8.341c-39.262 39.263-80.028 47.181-115.239 48.98 0-.242 0-.485 0-.727-.002-5.963-.003-11.766.077-17.437 32.32-1.642 67.019-8.388 102.306-43.674 3.543-3.545 9.312-3.545 12.856 0 1.718 1.717 2.663 4 2.663 6.429s-.945 4.712-2.663 6.429z"/></g></svg>