<svg id="Layer_3" enable-background="new 0 0 64 64" height="512" viewBox="0 0 64 64" width="512" xmlns="http://www.w3.org/2000/svg"><g><path d="m55 49h-2v2h-1c-.404 0-.769.243-.924.617s-.069.804.217 1.09l2.293 2.293h-2.586v2h2v2h2v-2h1c.404 0 .769-.243.924-.617s.069-.804-.217-1.09l-2.293-2.293h2.586v-2h-2z"/><path d="m61 57.184v-5.184c0-3.015-1.92-5.583-4.599-6.567l1.493-2.986c.155-.31.138-.678-.044-.973s-.503-.474-.85-.474h-6c-.347 0-.668.18-.851.475s-.199.663-.044.973l1.493 2.986c-2.678.983-4.598 3.551-4.598 6.566v5.184c-1.161.414-2 1.514-2 2.816 0 1.654 1.346 3 3 3h12c1.654 0 3-1.346 3-3 0-1.302-.839-2.402-2-2.816zm-8.382-14.184h2.764l-1.009 2.019c-.125-.007-.247-.019-.373-.019s-.248.012-.372.019zm7.382 18h-12c-.551 0-1-.448-1-1s.449-1 1-1h2v-2h-1v-5c0-2.757 2.243-5 5-5s5 2.243 5 5v5h-1v2h2c.551 0 1 .448 1 1s-.449 1-1 1z"/><path d="m31.293 45.293c-.286.286-.372.716-.217 1.09s.52.617.924.617h14c.552 0 1-.447 1-1v-14c0-.404-.244-.769-.617-.924-.375-.155-.804-.07-1.09.217l-3.895 3.895-6.459-17.533c-.096-.261-.296-.47-.553-.577-.257-.106-.546-.103-.799.013l-10.026 4.557-5.624-14.999c-.147-.39-.52-.649-.937-.649h-8.638l-5.722-4.768c-.363-.303-.89-.311-1.261-.016-.371.294-.485.808-.274 1.231l4 8c.152.303.447.509.784.546l8.328.926 4.819 17.348c.076.274.265.502.52.628s.551.137.815.033l9.066-3.627 5.891 14.955zm-.363-20.66c-.097-.248-.29-.446-.534-.551s-.519-.108-.768-.011l-8.963 3.586-4.702-16.925c-.109-.394-.447-.681-.853-.726l-8.459-.94-1.619-3.237 2.328 1.939c.18.15.406.232.64.232h8.307l5.756 15.351c.098.259.298.467.554.573s.545.103.796-.014l10.02-4.554 6.628 17.99c.118.32.391.558.724.631s.681-.028.921-.27l3.294-3.293v10.586h-10.586l2.793-2.793c.282-.281.369-.703.223-1.073z"/><path d="m8 21h-6c-.552 0-1 .448-1 1v40c0 .553.448 1 1 1h6c.552 0 1-.447 1-1v-40c0-.552-.448-1-1-1zm-1 40h-4v-38h4z"/><path d="m18 31h-6c-.552 0-1 .448-1 1v30c0 .553.448 1 1 1h6c.552 0 1-.447 1-1v-30c0-.552-.448-1-1-1zm-1 30h-4v-28h4z"/><path d="m28 41h-6c-.552 0-1 .447-1 1v20c0 .553.448 1 1 1h6c.552 0 1-.447 1-1v-20c0-.553-.448-1-1-1zm-1 20h-4v-18h4z"/><path d="m38 51h-6c-.552 0-1 .447-1 1v10c0 .553.448 1 1 1h6c.552 0 1-.447 1-1v-10c0-.553-.448-1-1-1zm-1 10h-4v-8h4z"/></g></svg>