<svg id="library" xmlns="http://www.w3.org/2000/svg" width="52.826" height="54" viewBox="0 0 52.826 54">
  <path id="Path_1" data-name="Path 1" d="M9.642,5.694H4.383a.877.877,0,0,0,0,1.753H9.642a.877.877,0,0,0,0-1.753Z"/>
  <path id="Path_2" data-name="Path 2" d="M9.642,9.2H4.383a.877.877,0,0,0,0,1.753H9.642a.877.877,0,0,0,0-1.753Z"/>
  <path id="Path_3" data-name="Path 3" d="M21.913,5.694H16.654a.877.877,0,0,0,0,1.753h5.259a.877.877,0,0,0,0-1.753Z"/>
  <path id="Path_4" data-name="Path 4" d="M21.913,9.2H16.654a.877.877,0,0,0,0,1.753h5.259a.877.877,0,0,0,0-1.753Z"/>
  <path id="Path_5" data-name="Path 5" d="M37.638,6.366a.876.876,0,0,0-1.056-.648l-.046.012L31.452,7.09A.876.876,0,1,0,31.9,8.784l.008,0,5.085-1.36A.876.876,0,0,0,37.638,6.366Z"/>
  <path id="Path_6" data-name="Path 6" d="M38.524,9.733a.877.877,0,0,0-1.074-.619h0l-5.079,1.36a.876.876,0,1,0,.445,1.694l.008,0,5.084-1.36A.876.876,0,0,0,38.524,9.733Z"/>
  <path id="Path_7" data-name="Path 7" d="M52.8,49.725v0L39.639.649A.877.877,0,0,0,38.567.029L26.711,3.2a.856.856,0,0,0-.415.274V1.6a.876.876,0,0,0-.877-.876H.877A.876.876,0,0,0,0,1.6V52.4a.876.876,0,0,0,.877.876H25.419A.876.876,0,0,0,26.3,52.4V5.038L39.249,53.351A.877.877,0,0,0,40.1,54a.9.9,0,0,0,.224-.03L52.174,50.8A.876.876,0,0,0,52.8,49.725Zm-40.525,1.8H1.753V2.473H12.271Zm12.271,0H14.024V2.473H24.543Zm16.173.526L28.012,4.669l10.16-2.722,12.7,47.382Z"/>
  <path id="Path_8" data-name="Path 8" d="M52.8,49.725v0L39.639.649A.877.877,0,0,0,38.567.029L26.711,3.2a.856.856,0,0,0-.415.274V1.6a.876.876,0,0,0-.877-.876H.877A.876.876,0,0,0,0,1.6V52.4a.876.876,0,0,0,.877.876H25.419A.876.876,0,0,0,26.3,52.4V5.038L39.249,53.351A.877.877,0,0,0,40.1,54a.9.9,0,0,0,.224-.03L52.174,50.8A.876.876,0,0,0,52.8,49.725Zm-40.525,1.8H1.753V2.473H12.271Zm12.271,0H14.024V2.473H24.543Zm16.173.526L28.012,4.669l10.16-2.722,12.7,47.382Z"/>
  <path id="Path_9" data-name="Path 9" d="M47.136,42.166a.876.876,0,0,0-1.068-.617l-5.084,1.36a.876.876,0,0,0,.227,1.722h0a.887.887,0,0,0,.227-.03l5.08-1.36A.876.876,0,0,0,47.136,42.166Z"/>
  <path id="Path_10" data-name="Path 10" d="M48.051,45.551a.877.877,0,0,0-1.068-.617L41.9,46.294a.876.876,0,0,0,.227,1.722.845.845,0,0,0,.227-.031l5.084-1.359A.876.876,0,0,0,48.051,45.551Z"/>
  <path id="Path_11" data-name="Path 11" d="M21.913,42.767H16.654a.877.877,0,0,0,0,1.753h5.259a.877.877,0,0,0,0-1.753Z"/>
  <path id="Path_12" data-name="Path 12" d="M21.913,46.271H16.654a.877.877,0,0,0,0,1.753h5.259a.877.877,0,0,0,0-1.753Z"/>
  <path id="Path_13" data-name="Path 13" d="M9.642,42.767H4.383a.877.877,0,0,0,0,1.753H9.642a.877.877,0,0,0,0-1.753Z"/>
  <path id="Path_14" data-name="Path 14" d="M9.642,46.271H4.383a.877.877,0,0,0,0,1.753H9.642a.877.877,0,0,0,0-1.753Z"/>
</svg>
