<svg id="Capa_1" enable-background="new 0 0 512 512" height="512" viewBox="0 0 512 512" width="512" xmlns="http://www.w3.org/2000/svg"><g><g><path d="m301.019 241h-45-45l-30 30v60h75 75v-60z" fill="#efe2dd"/><path d="m331.019 271-30-30h-45v90h75z" fill="#cdbfba"/><path d="m289.564 45c-7.412-3.691-16.406-.703-20.127 6.709-2.563 5.112-7.705 8.291-13.418 8.291-8.276 0-15-6.724-15-15s6.724-15 15-15c8.291 0 15-6.709 15-15s-6.709-15-15-15c-24.814 0-45 20.186-45 45 0 19.53 12.578 36.024 30 42.237v17.763c0 8.291 6.709 15 15 15s15-6.709 15-15v-17.858c10.754-3.81 19.924-11.376 25.254-22.015 3.706-7.398.703-16.406-6.709-20.127z" fill="#fed843"/><g fill="#fabe2c"><path d="m271.019 15c0-8.291-6.709-15-15-15v30c8.291 0 15-6.709 15-15z"/><path d="m271.019 105v-17.858c10.754-3.81 19.924-11.376 25.254-22.015 3.706-7.397.703-16.406-6.709-20.127-7.412-3.691-16.406-.703-20.127 6.709-2.563 5.112-7.705 8.291-13.418 8.291v60c8.291 0 15-6.709 15-15z"/></g></g><path d="m346.019 301h-90-90c-8.284 0-15 6.716-15 15v75h105 105v-75c0-8.284-6.716-15-15-15z" fill="#fff5f5"/><path d="m361.019 316c0-8.284-6.716-15-15-15h-90v90h105z" fill="#efe2dd"/><path d="m263.944 92.271c-2.417-1.509-5.171-2.263-7.925-2.263s-5.508.754-7.925 2.263c-16.216 10.093-97.075 63.871-97.075 111.229 0 25.327 5.757 49.409 30 67.5h75 75c24.243-18.091 30-42.173 30-67.5 0-47.358-80.859-101.137-97.075-111.229z" fill="#ff6c6c"/><path d="m361.019 203.5c0-47.358-80.859-101.137-97.075-111.229-2.417-1.509-5.171-2.263-7.925-2.263v180.992h75c24.243-18.091 30-42.173 30-67.5z" fill="#e63950"/><path d="m256.019 361h-180v119.374l30 31.626h30l15-31 15 31h30l30-15h30 30l30 15h30l15-31 15 31h30l30-31v-120z" fill="#efe2dd"/><path d="m316.019 512h30l15-31 15 31h30l30-31v-120h-180v136h30z" fill="#cdbfba"/><path d="m151.019 421c-8.284 0-15 6.714-15 15v76h30v-76c0-8.286-6.716-15-15-15z" fill="#613d5c"/><path d="m361.019 421c-8.284 0-15 6.714-15 15v76h30v-76c0-8.286-6.716-15-15-15z" fill="#4b2746"/><path d="m271.019 421h-15-15c-24.853 0-45 20.147-45 45v46h60 60v-46c0-24.853-20.147-45-45-45z" fill="#613d5c"/><path d="m316.019 466c0-24.853-20.147-45-45-45h-15v91h60z" fill="#4b2746"/><path d="m61.019 181c-8.291 0-15-6.709-15-15v-30c0-8.291 6.709-15 15-15s15 6.709 15 15v30c0 8.291-6.709 15-15 15z" fill="#fed843"/><path d="m76.019 241h-30l-31 30v226c0 8.284 6.716 15 15 15h76v-241z" fill="#fff5f5"/><path d="m68.871 153.227c-4.805-2.988-10.898-2.944-15.703-.015-32.153 19.761-50.541 41.909-52.68 65.83-1.875 20.947 3.867 42.422 14.531 51.958h91c10.649-9.521 16.377-31.011 14.487-51.973-2.138-23.935-19.511-46.069-51.635-65.8z" fill="#ff6c6c"/><path d="m451.019 181c-8.291 0-15-6.709-15-15v-30c0-8.291 6.709-15 15-15s15 6.709 15 15v30c0 8.291-6.709 15-15 15z" fill="#fabe2c"/><path d="m466.019 241h-30l-30 30v241h76c8.284 0 15-6.716 15-15v-226z" fill="#efe2dd"/><path d="m458.871 153.227c-4.805-2.988-10.898-2.944-15.703-.015-32.153 19.761-49.541 41.909-51.68 65.83-1.875 20.947 3.867 42.422 14.531 51.958h91c10.649-9.521 16.377-31.011 14.487-51.973-2.138-23.935-20.511-46.069-52.635-65.8z" fill="#e63950"/></g></svg>