<svg id="Layer_1" enable-background="new 0 0 512 512" height="512" viewBox="0 0 512 512" width="512" xmlns="http://www.w3.org/2000/svg"><g><g><g><path d="m293.782 32.697-22.782-10.356v-22.341h-15l-10.667 117.333 10.667 85.334 127.68-17v-13.358c0-59.988-35.287-114.789-89.898-139.612z" fill="#ffcc7b"/><path d="m241.001 22.341-22.782 10.355c-54.611 24.823-89.898 79.624-89.898 139.612v13.358l127.679 17v-202.666h-15v22.341z" fill="#ffdf8e"/></g><g><path d="m256 256h127.68v-70.333h-127.68l-10.667 38.333z" fill="#dc4b4b"/><path d="m128.321 185.667h127.679v70.333h-127.679z" fill="#e07037"/></g></g><g><g><path d="m0 362.667v149.333h102.607l25.394-149.333-64.001-10.667z" fill="#ffdf8e"/><path d="m0 298.667h128.001v64h-128.001z" fill="#ffcc7b"/></g><g><path d="m512 362.667v149.333h-102.607l-25.393-149.333 64-10.667z" fill="#ffcc7b"/><path d="m384 298.667h128v64h-128z" fill="#eab065"/></g></g><g><path d="m409.667 230.334h-153.667l-10.667 142.999 10.667 117.334 76.936 21.333h76.731z" fill="#ffdf8e"/><path d="m102.334 230.334v281.666h76.731l76.935-21.333v-260.333z" fill="#ffecbb"/></g><g><path d="m332.936 400.754c0-45.722-29.144-86.156-72.52-100.616l-4.416-1.471-11.852 130.37 11.852 82.963h76.936z" fill="#d88a55"/><path d="m251.584 300.139c-43.376 14.459-72.519 54.893-72.519 100.616v111.245h76.935v-213.333z" fill="#ea9b58"/></g></g></svg>