<svg xmlns="http://www.w3.org/2000/svg" xmlns:xlink="http://www.w3.org/1999/xlink" version="1.1" x="0px" y="0px" viewBox="0 0 512 640" style="enable-background:new 0 0 512 512;" xml:space="preserve"><g><path d="M379.629,152.858c9.707-9.682,15.057-22.564,15.065-36.274s-5.326-26.599-15.02-36.293   c-0.019-0.019-0.038-0.037-0.056-0.057c-9.68-9.651-22.535-14.966-36.206-14.966c-0.011,0-0.022,0-0.033,0   c-13.71,0.009-26.593,5.359-36.275,15.065l-36.164,36.254l72.435,72.435L379.629,152.858z"/><polygon points="102.963,356.999 180.044,340.225 119.738,279.918  "/><polygon points="329.215,203.147 256.815,130.748 127.994,259.89 200.073,331.969  "/><path d="M428.137,426.731H83.863c-5.523,0-10,4.478-10,10s4.477,10,10,10h344.274c5.523,0,10-4.478,10-10   S433.66,426.731,428.137,426.731z"/></g><text x="0" y="527" fill="#000000" font-size="5px" font-weight="bold" font-family="'Helvetica Neue', Helvetica, Arial-Unicode, Arial, Sans-serif">Created by Amelia</text><text x="0" y="532" fill="#000000" font-size="5px" font-weight="bold" font-family="'Helvetica Neue', Helvetica, Arial-Unicode, Arial, Sans-serif">from the Noun Project</text></svg>