<svg xmlns="http://www.w3.org/2000/svg" xmlns:xlink="http://www.w3.org/1999/xlink" viewBox="0 0 100 125" version="1.1" x="0px" y="0px"><title>flag copy</title><desc>Created with Sketch.</desc><g stroke="none" stroke-width="1" fill="none" fill-rule="evenodd"><path d="M44.71,27.9592027 C44.9476923,30.359972 46.9373077,32.349972 49.3380769,32.5876643 C50.9115385,32.7438181 52.4423077,32.1984335 53.5473077,31.0938181 C54.6523077,29.9888181 55.1965385,28.4545873 55.0407692,26.884972 C54.8030769,24.4842027 52.8130769,22.4945873 50.4123077,22.256895 C48.8434615,22.099972 47.3088462,22.6461258 46.2042308,23.7511258 C45.0992308,24.8557412 44.5546154,26.3895873 44.71,27.9592027 L44.71,27.9592027 Z M76.0342308,56.5084335 L74.1119231,60.276895 C69.5619231,57.9561258 65.6246154,53.999972 62.6657692,50.3465104 C62.3746154,52.7626643 61.6923077,55.4095873 60.6157692,58.279972 C60.6061538,58.304972 60.5819231,58.3711258 60.6319231,58.4561258 C60.6711538,58.521895 60.7307692,58.5607412 60.8088462,58.571895 C61.2538462,58.634972 61.7234615,58.6884335 62.2042308,58.7430489 C65.5834615,59.1292027 71.2384615,59.7753566 71.2384615,65.3580489 C71.2384615,67.444972 69.4496154,69.4376643 65.6096154,71.6292027 C62.77,73.249972 58.8534615,74.9557412 54.2846154,76.5626643 C44.785,79.9030489 34.7092308,82.0611258 28.6146154,82.0611258 L28.6146154,77.8303566 C34.0146154,77.8303566 43.1796154,75.8907412 51.9634615,72.8892027 C62.3646154,69.3353566 66.5373077,66.259972 67.0057692,65.2580489 C66.9542308,63.8984335 65.8219231,63.414972 61.7242308,62.946895 C61.2046154,62.8872796 60.6965385,62.8288181 60.2165385,62.7607412 C58.8646154,62.569972 57.69,61.7880489 56.9938462,60.6157412 C56.3038462,59.4526643 56.1796154,58.059972 56.6546154,56.7945873 C58.8726923,50.8780489 59.1996154,46.3007412 57.6396154,43.1615104 C57.4184615,42.7915104 57.2434615,42.4895873 57.1188462,42.2695873 C55.7561538,40.2630489 53.3692308,38.8661258 49.9969231,38.0945873 C46.7842308,38.8295873 44.4642308,40.1311258 43.0738462,41.9876643 C42.9469231,42.2172796 42.6569231,42.7311258 42.2188462,43.4530489 C40.8180769,46.581895 41.1888462,51.0580489 43.3396154,56.794972 C43.8142308,58.059972 43.6903846,59.4526643 43,60.6157412 C42.3038462,61.7880489 41.1292308,62.569972 39.7769231,62.7611258 C39.2973077,62.8288181 38.7892308,62.8872796 38.2696154,62.946895 C34.1730769,63.4145873 33.0403846,63.8980489 32.9880769,65.2565104 C33.2823077,65.8588181 35.3807692,67.8457412 42.0980769,70.6530489 L39.4080769,74.104972 C28.9111538,69.7184335 28.7557692,67.2057412 28.7557692,65.3580489 C28.7557692,59.7753566 34.4107692,59.1292027 37.7896154,58.7430489 C38.2703846,58.6884335 38.7403846,58.634972 39.1846154,58.5722796 C39.2630769,58.5607412 39.3226923,58.521895 39.3619231,58.4561258 C39.4123077,58.3711258 39.3876923,58.304972 39.3784615,58.2803566 C38.3080769,55.4261258 37.6284615,52.7934335 37.3342308,50.3888181 C34.3792308,54.0307412 30.455,57.964972 25.9223077,60.276895 L24,56.5084335 C30.8623077,53.0080489 36.4238462,44.7922796 38.5203846,41.379972 C38.7276923,40.9530489 38.9503846,40.5357412 39.2053846,40.1388181 C40.5023077,38.1195873 42.3880769,36.5326643 44.8434615,35.384972 C42.4584615,33.8742027 40.7919231,31.3265104 40.4996154,28.3761258 C40.2188462,25.5403566 41.2076923,22.7638181 43.2123077,20.7592027 C45.2169231,18.7545873 47.9934615,17.7672796 50.8292308,18.0465104 C55.2696154,18.4861258 58.8115385,22.0280489 59.2515385,26.4680489 C59.5323077,29.3042027 58.5434615,32.0807412 56.5384615,34.0853566 C56.0688462,34.554972 55.5557692,34.9672796 55.0103846,35.3222796 C57.4169231,36.4215104 59.2811538,37.9392027 60.595,39.861895 L60.6142308,39.8515104 C60.6184615,39.8595873 60.6561538,39.9276643 60.7196154,40.0407412 C60.7419231,40.0738181 60.7669231,40.104972 60.7884615,40.1388181 C60.9803846,40.4380489 61.1561538,40.7480489 61.3211538,41.0642027 C63.2530769,44.256895 68.9519231,52.8957412 76.0342308,56.5084335 L76.0342308,56.5084335 Z M60.4992308,76.279972 C65.3961538,77.4122796 68.3280769,77.8303566 71.3792308,77.8303566 L71.3792308,82.0611258 C68.0123077,82.0611258 63.4819231,81.424972 58.2773077,80.2211258 L60.4992308,76.279972 Z" fill="#000000"/></g><text x="0" y="115" fill="#000000" font-size="5px" font-weight="bold" font-family="'Helvetica Neue', Helvetica, Arial-Unicode, Arial, Sans-serif">Created by Marek Polakovic</text><text x="0" y="120" fill="#000000" font-size="5px" font-weight="bold" font-family="'Helvetica Neue', Helvetica, Arial-Unicode, Arial, Sans-serif">from the Noun Project</text></svg>