<svg xmlns="http://www.w3.org/2000/svg" xmlns:xlink="http://www.w3.org/1999/xlink" version="1.1" x="0px" y="0px" viewBox="0 0 512 640" style="enable-background:new 0 0 512 512;" xml:space="preserve"><g><g><g><g><path d="M256,487.397c-1.792,0-3.583-0.684-4.95-2.051l-63.674-63.674H97.327c-3.866,0-7-3.134-7-7v-90.049l-63.674-63.675      c-2.734-2.733-2.734-7.166,0-9.899l63.674-63.674V97.327c0-3.866,3.134-7,7-7h90.049l63.674-63.674      c2.733-2.733,7.165-2.733,9.899,0l63.675,63.674h90.049c3.866,0,7,3.134,7,7v90.049l63.674,63.674      c2.734,2.733,2.734,7.166,0.001,9.899l-63.675,63.675v90.049c0,3.866-3.134,7-7,7h-90.049l-63.675,63.675      C259.583,486.714,257.791,487.397,256,487.397z M104.327,407.673h85.949c1.856,0,3.637,0.737,4.95,2.05L256,470.498      l60.776-60.775c1.313-1.313,3.093-2.05,4.949-2.05h85.948v-85.948c0-1.856,0.737-3.637,2.05-4.949L470.498,256l-60.775-60.774      c-1.313-1.313-2.05-3.093-2.05-4.95v-85.949h-85.948c-1.856,0-3.637-0.737-4.949-2.05L256,41.502l-60.774,60.774      c-1.313,1.313-3.093,2.05-4.95,2.05h-85.949v85.949c0,1.856-0.737,3.637-2.05,4.95L41.502,256l60.774,60.776      c1.313,1.313,2.05,3.093,2.05,4.949V407.673z"/></g><g><path d="M260,227c-31.43,0-57-25.57-57-57s25.57-57,57-57c2.95,0,5.928,0.231,8.85,0.688c3.372,0.526,5.872,3.408,5.919,6.82      s-2.373,6.361-5.729,6.98c-13.598,2.508-23.468,14.379-23.468,28.227c0,15.833,12.882,28.714,28.715,28.714      c13.847,0,25.718-9.87,28.227-23.468c0.619-3.356,3.601-5.788,6.981-5.729c3.412,0.048,6.293,2.549,6.819,5.922      c0.455,2.926,0.687,5.902,0.687,8.847C317,201.43,291.43,227,260,227z M238.103,133.004C225.479,140.504,217,154.281,217,170      c0,23.71,19.29,43,43,43c15.719,0,29.495-8.479,36.996-21.103c-6.618,4.156-14.427,6.531-22.71,6.531      c-23.553,0-42.715-19.162-42.715-42.714C231.571,147.431,233.947,139.623,238.103,133.004z"/></g><g><path d="M480,487H310c-3.866,0-7-3.134-7-7s3.134-7,7-7h170c3.866,0,7,3.134,7,7S483.866,487,480,487z"/></g><g><path d="M210,487H40c-3.866,0-7-3.134-7-7s3.134-7,7-7h170c3.866,0,7,3.134,7,7S213.866,487,210,487z"/></g><g><path d="M480,457H380c-3.866,0-7-3.134-7-7s3.134-7,7-7h100c3.866,0,7,3.134,7,7S483.866,457,480,457z"/></g><g><path d="M140,457H40c-3.866,0-7-3.134-7-7s3.134-7,7-7h100c3.866,0,7,3.134,7,7S143.866,457,140,457z"/></g><g><path d="M370,317H150c-3.866,0-7-3.134-7-7s3.134-7,7-7h220c3.866,0,7,3.134,7,7S373.866,317,370,317z"/></g><g><path d="M320,317c-3.866,0-7-3.134-7-7v-45c0-17.645,14.355-32,32-32s32,14.355,32,32c0,3.866-3.134,7-7,7s-7-3.134-7-7      c0-9.925-8.075-18-18-18s-18,8.075-18,18v45C327,313.866,323.866,317,320,317z"/></g><g><path d="M200,317c-3.866,0-7-3.134-7-7v-45c0-9.925-8.075-18-18-18s-18,8.075-18,18c0,3.866-3.134,7-7,7s-7-3.134-7-7      c0-17.645,14.355-32,32-32s32,14.355,32,32v45C207,313.866,203.866,317,200,317z"/></g><g><path d="M260,317c-3.866,0-7-3.134-7-7v-50c0-3.866,3.134-7,7-7s7,3.134,7,7v50C267,313.866,263.866,317,260,317z"/></g><g><path d="M235,377c-12.131,0-22-9.869-22-22s9.869-22,22-22s22,9.869,22,22S247.131,377,235,377z M235,347c-4.411,0-8,3.589-8,8      s3.589,8,8,8s8-3.589,8-8S239.411,347,235,347z"/></g><g><path d="M285,377c-12.131,0-22-9.869-22-22s9.869-22,22-22s22,9.869,22,22S297.131,377,285,377z M285,347c-4.411,0-8,3.589-8,8      s3.589,8,8,8s8-3.589,8-8S289.411,347,285,347z"/></g><path d="M136.838,209.487L136.838,209.487c-5.24-1.747-8.071-7.41-6.325-12.649l0,0c1.747-5.24,7.41-8.071,12.649-6.325l0,0     c5.239,1.747,8.071,7.41,6.324,12.649l0,0C147.74,208.402,142.077,211.234,136.838,209.487z"/><path d="M356.838,179.487L356.838,179.487c-5.239-1.747-8.071-7.41-6.325-12.649l0,0c1.747-5.24,7.41-8.071,12.649-6.325l0,0     c5.239,1.747,8.071,7.41,6.324,12.649l0,0C367.74,178.402,362.077,181.234,356.838,179.487z"/><path d="M176.838,149.487L176.838,149.487c-5.24-1.747-8.071-7.41-6.325-12.649l0,0c1.747-5.24,7.41-8.071,12.649-6.325l0,0     c5.239,1.747,8.071,7.41,6.324,12.649l0,0C187.74,148.402,182.077,151.234,176.838,149.487z"/><path d="M46.838,119.487L46.838,119.487c-5.24-1.747-8.071-7.41-6.325-12.649l0,0c1.747-5.24,7.41-8.071,12.649-6.325l0,0     c5.239,1.747,8.071,7.41,6.324,12.649l0,0C57.74,118.402,52.077,121.234,46.838,119.487z"/><path d="M456.835,89.49L456.835,89.49c-5.239-1.747-8.071-7.41-6.324-12.649l0,0c1.746-5.239,7.409-8.071,12.648-6.324l0,0     c5.24,1.746,8.071,7.41,6.325,12.649l0,0C467.737,88.405,462.074,91.236,456.835,89.49z"/><path d="M376.838,59.487L376.838,59.487c-5.239-1.747-8.071-7.41-6.325-12.649l0,0c1.747-5.24,7.41-8.071,12.649-6.325l0,0     c5.239,1.747,8.071,7.41,6.324,12.649l0,0C387.74,58.402,382.077,61.234,376.838,59.487z"/></g></g></g><text x="0" y="527" fill="#000000" font-size="5px" font-weight="bold" font-family="'Helvetica Neue', Helvetica, Arial-Unicode, Arial, Sans-serif">Created by Flatart</text><text x="0" y="532" fill="#000000" font-size="5px" font-weight="bold" font-family="'Helvetica Neue', Helvetica, Arial-Unicode, Arial, Sans-serif">from the Noun Project</text></svg>