<svg xmlns="http://www.w3.org/2000/svg" xmlns:xlink="http://www.w3.org/1999/xlink" version="1.1" x="0px" y="0px" viewBox="0 0 100 125" style="enable-background:new 0 0 100 100;" xml:space="preserve"><path d="M73.3,25.8c0.6,0,1,0.4,1,1v46.5h0.1c0,0.6-0.4,1-1,1H54c-0.4,0-0.8,0.3-1,0.7c-0.2,0.4,0,0.9,0.4,1.1  c2.6,1.9,4.5,5.6,4.5,8.7c0,4.4-4.2,6-7.8,6c-3.6,0-7.8-1.6-7.8-6c0-3.1,1.9-6.8,4.5-8.7c0.3-0.3,0.5-0.7,0.4-1.1  c-0.1-0.4-0.5-0.7-1-0.7H26.9c-0.6,0-1-0.4-1-1V53.9c0-0.4-0.3-0.8-0.7-1c-0.1,0-0.2,0-0.3,0c-0.3,0-0.6,0.1-0.8,0.4  c-1.9,2.6-5.6,4.5-8.7,4.5c-4.4,0-6-4.2-6-7.8c0-3.6,1.6-7.8,6-7.8c3.1,0,6.8,1.9,8.7,4.5c0.2,0.2,0.6,0.4,0.9,0.4  c0.1,0,0.1,0,0.2,0c0.4-0.1,0.7-0.5,0.7-1V26.8c0-0.6,0.4-1,1-1h16.8c-2,2.4-3.4,5.6-3.4,8.5c0,4.8,3.9,8,9.8,8s9.8-3.2,9.8-8  c0-2.9-1.3-6.1-3.4-8.5H73.3 M43.7,25.8L43.7,25.8 M73.3,21.8H56.5c-1.6,0-3,0.9-3.6,2.3c-0.6,1.4-0.4,3.1,0.6,4.3  c1.5,1.7,2.4,4,2.4,5.9c0,3.7-4.4,4-5.8,4s-5.8-0.3-5.8-4c0-1.8,0.9-4.1,2.4-5.9c0.6-0.7,1-1.6,1-2.6c0-2.2-1.8-4-4-4h0H26.9  c-2.8,0-5,2.2-5,5v13.1c-2.1-1-4.3-1.7-6.5-1.7c-5.9,0-10,4.9-10,11.8s4.1,11.8,10,11.8c2.2,0,4.4-0.6,6.5-1.7v13.2c0,2.8,2.2,5,5,5  H40c-1,2.1-1.7,4.3-1.7,6.5c0,5.9,4.9,10,11.8,10s11.8-4.1,11.8-10c0-2.2-0.6-4.4-1.7-6.5h13.2c2.8,0,5-2.2,5-5c0-0.3,0-0.6-0.1-0.9  V26.8C78.3,24,76.1,21.8,73.3,21.8L73.3,21.8z"/><text x="0" y="115" fill="#000000" font-size="5px" font-weight="bold" font-family="'Helvetica Neue', Helvetica, Arial-Unicode, Arial, Sans-serif">Created by Michael Weibel</text><text x="0" y="120" fill="#000000" font-size="5px" font-weight="bold" font-family="'Helvetica Neue', Helvetica, Arial-Unicode, Arial, Sans-serif">from the Noun Project</text></svg>