<svg xmlns="http://www.w3.org/2000/svg" xmlns:xlink="http://www.w3.org/1999/xlink" version="1.1" x="0px" y="0px" viewBox="0 0 100 125" enable-background="new 0 0 100 100" xml:space="preserve"><circle cx="67.924" cy="14.759" r="3.002"/><circle cx="76.614" cy="19.88" r="1.877"/><circle cx="68.769" cy="29.766" r="2.157"/><circle cx="47.848" cy="32.232" r="2.515"/><circle cx="39.191" cy="49.323" r="2.08"/><circle cx="45.696" cy="51.572" r="2.152"/><circle cx="42.649" cy="36.58" r="1.62"/><circle cx="24.925" cy="33.857" r="1.934"/><circle cx="23.16" cy="25.553" r="2.055"/><circle cx="18.323" cy="18.057" r="1.62"/><circle cx="25.336" cy="13.85" r="1.523"/><circle cx="29.93" cy="15.833" r="1.378"/><circle cx="34.573" cy="22.7" r="1.523"/><circle cx="28.383" cy="40.013" r="2.104"/><circle cx="13.173" cy="33.016" r="2.515"/><circle cx="7.249" cy="38.2" r="2.249"/><circle cx="14.914" cy="46.083" r="2.273"/><circle cx="26.654" cy="45.539" r="1.729"/><circle cx="38.442" cy="59.019" r="1.33"/><circle cx="52.853" cy="65.983" r="1.814"/><circle cx="60.011" cy="60.615" r="1.233"/><circle cx="57.278" cy="52.805" r="2.176"/><circle cx="55.513" cy="39.675" r="2.007"/><circle cx="67.265" cy="40.207" r="1.668"/><circle cx="70.568" cy="46.963" r="1.799"/><circle cx="78.683" cy="45.58" r="1.383"/><circle cx="93.259" cy="51.814" r="1.741"/><circle cx="81.735" cy="56.118" r="2.104"/><circle cx="85.993" cy="39.058" r="1.149"/><circle cx="92.328" cy="42.033" r="1.826"/><circle cx="85.763" cy="27.899" r="1.112"/><circle cx="78.34" cy="38.306" r="1.726"/><circle cx="61.002" cy="28.624" r="1.838"/><circle cx="53.627" cy="20.234" r="1.523"/><circle cx="41.089" cy="17.175" r="1.56"/><circle cx="49.613" cy="11.287" r="1.765"/><circle cx="35.879" cy="30.728" r="1.717"/><circle cx="28.334" cy="29.181" r="1.282"/><circle cx="49.782" cy="44.874" r="1.644"/><circle cx="61.824" cy="48.269" r="1.306"/><circle cx="68.916" cy="52.667" r="1.652"/><circle cx="72.072" cy="68.721" r="1.504"/><circle cx="50.991" cy="75.148" r="1.209"/><circle cx="56.021" cy="87.915" r="0.967"/><circle cx="59.672" cy="89.584" r="1.185"/><circle cx="60.398" cy="82.644" r="0.725"/><circle cx="57.883" cy="75.027" r="1.088"/><circle cx="58.415" cy="69.615" r="0.895"/><circle cx="50.145" cy="70.848" r="1.233"/><circle cx="48.67" cy="59.43" r="0.822"/><circle cx="32.44" cy="50.851" r="1.277"/><circle cx="33.516" cy="41.283" r="1.076"/><circle cx="42.637" cy="21.092" r="1.608"/><circle cx="39.965" cy="10.296" r="1.064"/><circle cx="88.29" cy="33.884" r="1.149"/><circle cx="88.955" cy="56.722" r="1.548"/><circle cx="76.013" cy="48.143" r="1.18"/><circle cx="65.536" cy="33.884" r="1.149"/><circle cx="64.956" cy="21.672" r="1.439"/><circle cx="78.683" cy="30.394" r="1.383"/><circle cx="46.895" cy="63.41" r="1.562"/><circle cx="24.279" cy="50.694" r="1.12"/><circle cx="18.215" cy="51.1" r="1.028"/><circle cx="13.778" cy="23.837" r="1.136"/><circle cx="59.648" cy="10.586" r="1.354"/><circle cx="61.244" cy="67.217" r="0.752"/><path d="M59.673,89.759c-0.005,0-0.012,0-0.018-0.001c-0.098-0.01-0.168-0.097-0.157-0.194l0.726-6.94  c0.011-0.095,0.102-0.166,0.192-0.157c0.098,0.01,0.168,0.097,0.157,0.194l-0.726,6.94C59.838,89.692,59.762,89.759,59.673,89.759z"/><path d="M56.022,88.091c-0.04,0-0.08-0.013-0.113-0.041c-0.074-0.062-0.085-0.173-0.022-0.248l4.377-5.272  c0.062-0.075,0.172-0.086,0.247-0.023c0.074,0.062,0.085,0.173,0.022,0.248l-4.377,5.272C56.122,88.07,56.072,88.091,56.022,88.091z  "/><path d="M56.022,88.091c-0.07,0-0.136-0.042-0.164-0.111l-5.031-12.768c-0.036-0.091,0.008-0.192,0.099-0.228  c0.087-0.036,0.192,0.008,0.228,0.099l5.031,12.768c0.036,0.091-0.008,0.192-0.099,0.228C56.066,88.087,56.044,88.091,56.022,88.091  z"/><path d="M50.991,75.324c-0.096,0-0.175-0.077-0.176-0.173c-0.001-0.097,0.076-0.177,0.173-0.179l6.891-0.121  c0.111,0.005,0.177,0.076,0.179,0.173c0.001,0.097-0.076,0.177-0.173,0.179l-6.891,0.121C50.992,75.324,50.992,75.324,50.991,75.324  z"/><path d="M60.398,82.819c-0.074,0-0.143-0.047-0.168-0.121l-2.516-7.617c-0.03-0.092,0.021-0.192,0.113-0.222  c0.092-0.032,0.192,0.02,0.223,0.112l2.516,7.617c0.03,0.092-0.021,0.192-0.113,0.222C60.435,82.817,60.416,82.819,60.398,82.819z"/><path d="M60.398,82.819c-0.038,0-0.077-0.012-0.11-0.038l-9.407-7.496c-0.076-0.06-0.088-0.171-0.027-0.247  c0.06-0.076,0.17-0.089,0.247-0.027l9.407,7.496c0.076,0.06,0.088,0.171,0.027,0.247C60.501,82.797,60.45,82.819,60.398,82.819z"/><path d="M59.673,89.759c-0.059,0-0.118-0.03-0.151-0.085L50.84,75.238c-0.049-0.083-0.023-0.192,0.06-0.241  c0.084-0.049,0.192-0.024,0.242,0.06l8.682,14.436c0.049,0.083,0.023,0.192-0.06,0.241C59.734,89.751,59.704,89.759,59.673,89.759z"/><path d="M59.673,89.759c-0.025,0-0.049-0.005-0.073-0.016l-3.651-1.668c-0.088-0.041-0.128-0.145-0.087-0.233  c0.04-0.088,0.148-0.127,0.232-0.087l3.651,1.668c0.088,0.041,0.128,0.145,0.087,0.233C59.803,89.721,59.739,89.759,59.673,89.759z"/><path d="M56.022,88.091c-0.087,0-0.161-0.063-0.175-0.15l-3.169-21.932c-0.014-0.096,0.054-0.186,0.15-0.199  c0.095-0.016,0.184,0.052,0.199,0.148l3.169,21.932c0.014,0.096-0.054,0.186-0.15,0.199C56.038,88.09,56.03,88.091,56.022,88.091z"/><path d="M58.415,69.791c-0.033,0-0.066-0.009-0.096-0.029l-5.562-3.632c-0.081-0.053-0.104-0.162-0.051-0.243  c0.051-0.08,0.159-0.105,0.243-0.051l5.562,3.632c0.081,0.053,0.104,0.162,0.051,0.243C58.529,69.763,58.473,69.791,58.415,69.791z"/><path d="M57.882,75.203c-0.005,0-0.011,0-0.018-0.001c-0.096-0.01-0.166-0.096-0.157-0.192l0.533-5.411  c0.008-0.091,0.085-0.159,0.175-0.159c0.005,0,0.011,0,0.018,0.001c0.096,0.01,0.166,0.096,0.157,0.192l-0.533,5.411  C58.048,75.135,57.971,75.203,57.882,75.203z"/><path d="M56.022,88.091c-0.008,0-0.016-0.001-0.025-0.002c-0.096-0.014-0.164-0.103-0.15-0.199l1.861-12.889  c0.015-0.096,0.099-0.169,0.199-0.148c0.096,0.014,0.164,0.103,0.15,0.199l-1.861,12.889C56.182,88.028,56.108,88.091,56.022,88.091  z"/><path d="M59.673,89.759c-0.088,0-0.164-0.065-0.175-0.155l-1.79-14.557c-0.012-0.096,0.056-0.184,0.153-0.196  c0.109-0.008,0.184,0.057,0.196,0.153l1.79,14.557c0.012,0.096-0.056,0.184-0.153,0.196C59.686,89.759,59.68,89.759,59.673,89.759z"/><path d="M57.882,75.203c-0.029,0-0.056-0.007-0.084-0.021l-7.738-4.178c-0.085-0.046-0.117-0.153-0.071-0.238  c0.048-0.085,0.153-0.115,0.239-0.071l7.738,4.178c0.085,0.046,0.117,0.153,0.071,0.238C58.004,75.169,57.944,75.203,57.882,75.203z  "/><path d="M50.145,71.025c-0.029,0-0.059-0.007-0.085-0.022c-0.085-0.047-0.115-0.155-0.069-0.24l2.708-4.866  c0.048-0.085,0.158-0.117,0.239-0.068c0.085,0.047,0.115,0.155,0.069,0.24l-2.708,4.866C50.265,70.992,50.206,71.025,50.145,71.025z  "/><path d="M52.853,66.159c-0.054,0-0.106-0.025-0.142-0.071c-0.058-0.078-0.041-0.188,0.036-0.246l7.158-5.343  c0.078-0.056,0.188-0.042,0.247,0.036c0.058,0.078,0.041,0.188-0.036,0.246l-7.158,5.343C52.927,66.147,52.89,66.159,52.853,66.159z  "/><path d="M72.071,68.896c-0.034,0-0.067-0.01-0.098-0.03l-12.061-8.08c-0.081-0.054-0.103-0.164-0.048-0.244  c0.052-0.082,0.165-0.102,0.243-0.049l12.061,8.08c0.081,0.054,0.103,0.164,0.048,0.244C72.184,68.869,72.128,68.896,72.071,68.896z  "/><path d="M72.071,68.896c-0.008,0-0.016-0.001-0.025-0.001L61.22,67.391c-0.096-0.014-0.164-0.102-0.15-0.199  c0.014-0.097,0.102-0.158,0.199-0.15l10.827,1.504c0.096,0.014,0.164,0.102,0.15,0.199C72.233,68.832,72.158,68.896,72.071,68.896z"/><path d="M58.415,69.791c-0.049,0-0.099-0.021-0.135-0.062c-0.062-0.074-0.054-0.186,0.021-0.248l2.829-2.399  c0.074-0.062,0.186-0.053,0.249,0.02c0.062,0.074,0.054,0.186-0.021,0.248l-2.829,2.399C58.496,69.778,58.455,69.791,58.415,69.791z  "/><path d="M58.415,69.791c-0.01,0-0.021-0.001-0.03-0.003c-0.096-0.017-0.159-0.109-0.143-0.204l1.595-8.976  c0.016-0.095,0.106-0.166,0.203-0.142c0.096,0.017,0.159,0.109,0.143,0.204l-1.595,8.976C58.573,69.732,58.499,69.791,58.415,69.791  z"/><path d="M50.991,75.324c-0.032,0-0.065-0.008-0.093-0.027c-0.082-0.051-0.107-0.159-0.056-0.242l9.02-14.508  c0.052-0.082,0.159-0.111,0.243-0.056c0.082,0.051,0.107,0.159,0.056,0.242l-9.02,14.508C51.106,75.294,51.05,75.324,50.991,75.324z  "/><path d="M50.991,75.324c-0.082,0-0.157-0.058-0.173-0.142l-0.846-4.299c-0.018-0.095,0.044-0.188,0.139-0.206  c0.107-0.021,0.188,0.044,0.207,0.139l0.846,4.299c0.018,0.095-0.044,0.188-0.139,0.206C51.013,75.322,51.002,75.324,50.991,75.324z  "/><path d="M50.145,71.025c-0.067,0-0.132-0.039-0.161-0.106l-3.25-7.439c-0.04-0.089,0.001-0.192,0.091-0.232  c0.085-0.038,0.191,0.001,0.231,0.091l3.25,7.439c0.04,0.089-0.001,0.192-0.091,0.232C50.193,71.02,50.168,71.025,50.145,71.025z"/><path d="M46.895,63.586c-0.025,0-0.048-0.005-0.071-0.015c-0.089-0.04-0.129-0.144-0.089-0.232l1.775-3.979  c0.04-0.091,0.144-0.129,0.232-0.089c0.089,0.04,0.129,0.144,0.089,0.232l-1.775,3.979C47.027,63.547,46.962,63.586,46.895,63.586z"/><path d="M48.67,59.606c-0.052,0-0.104-0.023-0.139-0.069c-0.06-0.077-0.045-0.188,0.032-0.247l8.609-6.625  c0.076-0.06,0.187-0.046,0.246,0.032c0.06,0.077,0.045,0.188-0.032,0.247l-8.609,6.625C48.746,59.595,48.707,59.606,48.67,59.606z"/><path d="M57.279,52.981c-0.096,0-0.175-0.078-0.176-0.174c-0.001-0.097,0.077-0.177,0.173-0.178l11.637-0.138  c0.001,0,0.003,0,0.003,0c0.096,0,0.175,0.078,0.176,0.174c0.001,0.097-0.077,0.177-0.173,0.178l-11.637,0.138  C57.28,52.981,57.279,52.981,57.279,52.981z"/><path d="M81.734,56.293c-0.015,0-0.03-0.002-0.045-0.006l-12.818-3.45c-0.095-0.025-0.15-0.122-0.125-0.216  c0.027-0.093,0.125-0.148,0.216-0.124l12.818,3.45c0.095,0.025,0.15,0.122,0.125,0.216C81.882,56.242,81.812,56.293,81.734,56.293z"/><path d="M72.071,68.896c-0.037,0-0.076-0.012-0.107-0.036c-0.077-0.059-0.092-0.17-0.033-0.247l9.663-12.603  c0.06-0.078,0.17-0.093,0.247-0.032c0.077,0.059,0.092,0.17,0.033,0.247l-9.663,12.603C72.176,68.873,72.124,68.896,72.071,68.896z"/><path d="M72.071,68.896c-0.082,0-0.157-0.058-0.173-0.142l-3.155-16.053c-0.018-0.095,0.044-0.188,0.139-0.206  c0.104-0.019,0.188,0.044,0.207,0.139l3.155,16.053c0.018,0.095-0.044,0.188-0.139,0.206C72.093,68.895,72.082,68.896,72.071,68.896  z"/><path d="M60.011,60.816c-0.048,0-0.096-0.02-0.131-0.058c-0.066-0.073-0.059-0.183,0.014-0.249l8.906-7.973  c0.07-0.065,0.184-0.059,0.247,0.014c0.066,0.073,0.059,0.183-0.014,0.249l-8.906,7.973C60.095,60.801,60.052,60.816,60.011,60.816z  "/><path d="M60.011,60.816c-0.073,0-0.14-0.045-0.166-0.118l-2.732-7.835c-0.032-0.091,0.016-0.192,0.109-0.224  c0.093-0.03,0.191,0.016,0.224,0.109l2.732,7.835c0.032,0.091-0.016,0.192-0.109,0.224C60.049,60.812,60.03,60.816,60.011,60.816z"/><path d="M88.955,56.898c-0.004,0-0.01,0-0.015-0.001l-7.221-0.605c-0.096-0.008-0.168-0.093-0.161-0.19  c0.008-0.096,0.073-0.175,0.191-0.161l7.221,0.605c0.096,0.008,0.168,0.093,0.161,0.19C89.123,56.829,89.046,56.898,88.955,56.898z"/><path d="M88.955,56.898c-0.041,0-0.082-0.014-0.115-0.044c-0.074-0.064-0.081-0.175-0.016-0.248l4.304-4.908  c0.062-0.073,0.175-0.08,0.247-0.016c0.074,0.064,0.081,0.175,0.016,0.248l-4.304,4.908C89.053,56.877,89.005,56.898,88.955,56.898z  "/><path d="M93.259,51.99c-0.089,0-0.166-0.068-0.175-0.159l-0.93-9.782c-0.01-0.097,0.062-0.182,0.158-0.192  c0.093-0.016,0.183,0.061,0.191,0.159l0.93,9.782c0.01,0.097-0.062,0.182-0.158,0.192C93.27,51.99,93.264,51.99,93.259,51.99z"/><path d="M92.329,42.208c-0.025,0-0.051-0.005-0.074-0.016l-6.336-2.974c-0.088-0.041-0.126-0.146-0.085-0.234  c0.043-0.087,0.148-0.124,0.234-0.085l6.336,2.974c0.088,0.041,0.126,0.146,0.085,0.234C92.458,42.171,92.394,42.208,92.329,42.208z  "/><path d="M85.992,39.234c-0.023,0-0.048-0.005-0.071-0.015c-0.089-0.039-0.129-0.144-0.089-0.232l2.298-5.175  c0.038-0.088,0.142-0.131,0.232-0.089c0.089,0.039,0.129,0.144,0.089,0.232l-2.298,5.175C86.124,39.195,86.06,39.234,85.992,39.234z  "/><path d="M88.29,34.06c-0.069,0-0.133-0.041-0.162-0.107l-2.527-5.985c-0.037-0.09,0.004-0.193,0.093-0.231  c0.089-0.037,0.192,0.005,0.231,0.093l2.527,5.985c0.037,0.09-0.004,0.193-0.093,0.231C88.337,34.055,88.313,34.06,88.29,34.06z"/><path d="M78.684,30.57c-0.073,0-0.14-0.045-0.166-0.117c-0.032-0.091,0.016-0.192,0.107-0.224l7.079-2.495  c0.099-0.034,0.192,0.016,0.225,0.107c0.032,0.091-0.016,0.192-0.107,0.224l-7.079,2.495C78.722,30.567,78.703,30.57,78.684,30.57z"/><path d="M78.684,30.57c-0.082,0-0.157-0.058-0.173-0.142l-2.069-10.514c-0.018-0.095,0.044-0.188,0.139-0.206  c0.104-0.018,0.188,0.043,0.207,0.139l2.069,10.514c0.018,0.095-0.044,0.188-0.139,0.206C78.706,30.569,78.695,30.57,78.684,30.57z"/><path d="M68.769,29.941c-0.038,0-0.077-0.012-0.11-0.038c-0.076-0.06-0.088-0.171-0.027-0.247l7.845-9.885  c0.059-0.076,0.17-0.089,0.247-0.029c0.076,0.06,0.088,0.171,0.027,0.247l-7.845,9.885C68.872,29.919,68.822,29.941,68.769,29.941z"/><path d="M68.769,29.941c-0.093,0-0.17-0.072-0.176-0.166l-0.845-15.006c-0.005-0.097,0.069-0.18,0.166-0.186  c0.091,0.007,0.18,0.069,0.186,0.166l0.845,15.006c0.006,0.097-0.069,0.18-0.166,0.186C68.776,29.941,68.772,29.941,68.769,29.941z"/><path d="M64.971,21.848c-0.023,0-0.047-0.005-0.069-0.014c-0.089-0.038-0.131-0.142-0.093-0.231l2.953-6.913  c0.038-0.089,0.144-0.129,0.231-0.092c0.089,0.038,0.131,0.142,0.093,0.231l-2.953,6.913C65.105,21.809,65.04,21.848,64.971,21.848z  "/><path d="M61.003,28.8c-0.03,0-0.059-0.008-0.087-0.023c-0.085-0.048-0.114-0.155-0.066-0.24l3.968-6.952  c0.047-0.085,0.157-0.114,0.239-0.065c0.085,0.048,0.114,0.155,0.066,0.24l-3.968,6.952C61.124,28.769,61.063,28.8,61.003,28.8z"/><path d="M64.971,21.848c-0.066,0-0.128-0.036-0.158-0.1L59.49,10.662c-0.043-0.088-0.005-0.193,0.082-0.235  c0.082-0.04,0.191-0.006,0.234,0.082l5.323,11.087c0.043,0.088,0.005,0.193-0.082,0.235C65.023,21.843,64.997,21.848,64.971,21.848z  "/><path d="M67.924,14.935c-0.026,0-0.054-0.006-0.08-0.019l-8.276-4.174c-0.087-0.044-0.121-0.15-0.077-0.236  c0.043-0.087,0.147-0.119,0.236-0.078l8.276,4.174c0.087,0.044,0.121,0.15,0.077,0.236C68.051,14.9,67.989,14.935,67.924,14.935z"/><path d="M76.614,20.056c-0.03,0-0.062-0.008-0.089-0.024l-8.69-5.121c-0.084-0.049-0.111-0.157-0.062-0.241  c0.048-0.083,0.158-0.112,0.24-0.063l8.69,5.121c0.084,0.049,0.111,0.157,0.062,0.241C76.732,20.025,76.675,20.056,76.614,20.056z"/><path d="M85.763,28.075c-0.041,0-0.082-0.014-0.115-0.043l-9.149-8.019c-0.074-0.065-0.081-0.175-0.016-0.249  c0.062-0.072,0.175-0.079,0.247-0.016l9.149,8.019c0.074,0.065,0.081,0.175,0.016,0.249C85.861,28.054,85.812,28.075,85.763,28.075z  "/><path d="M92.329,42.208c-0.065,0-0.126-0.036-0.158-0.098l-4.039-8.149c-0.043-0.087-0.007-0.193,0.08-0.236  c0.088-0.041,0.192-0.007,0.236,0.079l4.039,8.149c0.043,0.087,0.007,0.193-0.08,0.236C92.382,42.202,92.355,42.208,92.329,42.208z"/><path d="M49.613,11.463c-0.092,0-0.169-0.071-0.176-0.164c-0.007-0.097,0.067-0.181,0.164-0.188l10.035-0.701  c0.113-0.012,0.181,0.066,0.188,0.163s-0.067,0.181-0.164,0.188l-10.035,0.701C49.621,11.463,49.617,11.463,49.613,11.463z"/><path d="M49.613,11.463c-0.005,0-0.012,0-0.018-0.001l-9.648-0.991c-0.096-0.01-0.168-0.097-0.157-0.193  c0.01-0.097,0.102-0.173,0.192-0.157l9.648,0.991c0.096,0.01,0.168,0.097,0.157,0.193C49.779,11.396,49.702,11.463,49.613,11.463z"/><path d="M25.336,14.026c-0.08,0-0.151-0.054-0.17-0.135c-0.023-0.094,0.034-0.189,0.129-0.212l14.629-3.554  c0.093-0.025,0.19,0.035,0.212,0.13c0.023,0.094-0.034,0.189-0.129,0.212l-14.629,3.554C25.364,14.024,25.35,14.026,25.336,14.026z"/><path d="M18.323,18.224c-0.059,0-0.118-0.03-0.151-0.086c-0.049-0.083-0.022-0.191,0.06-0.241l7.013-4.198  c0.084-0.051,0.191-0.023,0.242,0.061c0.049,0.083,0.022,0.191-0.06,0.241l-7.013,4.198C18.385,18.215,18.353,18.224,18.323,18.224z  "/><path d="M13.777,24.013c-0.038,0-0.077-0.012-0.109-0.038c-0.077-0.06-0.089-0.17-0.03-0.247l4.546-5.789  c0.062-0.077,0.173-0.09,0.247-0.03c0.077,0.06,0.089,0.17,0.03,0.247l-4.546,5.789C13.88,23.989,13.829,24.013,13.777,24.013z"/><path d="M13.173,33.192c-0.004,0-0.008,0-0.011-0.001c-0.098-0.006-0.17-0.09-0.165-0.187l0.605-9.179  c0.007-0.093,0.084-0.164,0.176-0.164c0.004,0,0.008,0,0.011,0.001c0.098,0.006,0.17,0.09,0.165,0.187l-0.605,9.179  C13.342,33.12,13.265,33.192,13.173,33.192z"/><path d="M7.249,38.376c-0.049,0-0.098-0.021-0.132-0.06c-0.065-0.074-0.056-0.185,0.016-0.249l5.924-5.184  c0.073-0.064,0.183-0.056,0.247,0.016c0.065,0.074,0.056,0.185-0.016,0.249l-5.924,5.184C7.331,38.361,7.29,38.376,7.249,38.376z"/><path d="M14.914,46.259c-0.045,0-0.092-0.018-0.126-0.054l-7.665-7.883c-0.067-0.069-0.066-0.181,0.004-0.249  c0.071-0.066,0.181-0.065,0.249,0.004l7.665,7.883c0.067,0.069,0.066,0.181-0.004,0.249C15.002,46.242,14.958,46.259,14.914,46.259z  "/><path d="M18.214,51.276c-0.058,0-0.113-0.028-0.147-0.079l-3.301-5.017c-0.054-0.081-0.03-0.19,0.051-0.244  c0.081-0.053,0.19-0.03,0.243,0.05l3.301,5.017c0.054,0.081,0.03,0.19-0.051,0.244C18.282,51.266,18.247,51.276,18.214,51.276z"/><path d="M18.214,51.276c-0.092,0-0.169-0.071-0.176-0.164c-0.005-0.097,0.067-0.181,0.164-0.187l6.065-0.406  c0.117-0.01,0.181,0.067,0.188,0.164c0.005,0.097-0.067,0.181-0.164,0.187l-6.065,0.406C18.222,51.276,18.218,51.276,18.214,51.276z  "/><path d="M32.44,51.027c-0.001,0-0.003,0-0.003,0l-8.161-0.157c-0.098-0.002-0.175-0.082-0.173-0.179  c0.001-0.096,0.08-0.172,0.176-0.172c0.001,0,0.003,0,0.003,0l8.161,0.157c0.098,0.002,0.175,0.082,0.173,0.179  C32.615,50.951,32.537,51.027,32.44,51.027z"/><path d="M38.441,59.195c-0.054,0-0.107-0.025-0.142-0.071l-6.001-8.168c-0.058-0.078-0.041-0.189,0.037-0.246  c0.078-0.059,0.188-0.041,0.246,0.037l6.001,8.168c0.058,0.078,0.041,0.189-0.037,0.246C38.514,59.184,38.477,59.195,38.441,59.195z  "/><path d="M46.895,63.586c-0.027,0-0.055-0.006-0.081-0.02l-8.454-4.391c-0.087-0.045-0.12-0.151-0.076-0.237  c0.047-0.086,0.154-0.12,0.238-0.075l8.454,4.391c0.087,0.045,0.12,0.151,0.076,0.237C47.02,63.552,46.958,63.586,46.895,63.586z"/><path d="M46.895,63.586c-0.089,0-0.166-0.067-0.175-0.158L45.522,51.59c-0.01-0.097,0.06-0.183,0.157-0.193  c0.089-0.015,0.183,0.06,0.192,0.157l1.198,11.838c0.01,0.097-0.06,0.183-0.157,0.193C46.907,63.586,46.9,63.586,46.895,63.586z"/><path d="M45.697,51.748c-0.019,0-0.038-0.003-0.058-0.01l-6.505-2.249c-0.092-0.032-0.14-0.132-0.109-0.224  c0.032-0.092,0.133-0.141,0.224-0.109l6.505,2.249c0.092,0.032,0.14,0.132,0.109,0.224C45.838,51.703,45.769,51.748,45.697,51.748z"/><path d="M32.44,51.027c-0.081,0-0.153-0.056-0.172-0.137c-0.021-0.095,0.038-0.189,0.133-0.211l6.751-1.528  c0.096-0.021,0.188,0.039,0.21,0.133c0.021,0.095-0.038,0.189-0.133,0.211l-6.751,1.528C32.467,51.026,32.453,51.027,32.44,51.027z"/><path d="M32.44,51.027c-0.043,0-0.085-0.015-0.12-0.046l-5.786-5.312c-0.071-0.066-0.076-0.177-0.01-0.249  c0.066-0.07,0.176-0.077,0.249-0.011l5.786,5.312c0.071,0.066,0.076,0.177,0.01,0.249C32.535,51.008,32.489,51.027,32.44,51.027z"/><path d="M24.28,50.87c-0.025,0-0.049-0.005-0.074-0.016c-0.088-0.041-0.126-0.146-0.085-0.234l2.374-5.155  c0.041-0.089,0.144-0.126,0.234-0.087c0.088,0.041,0.126,0.146,0.085,0.234l-2.374,5.155C24.41,50.832,24.345,50.87,24.28,50.87z"/><path d="M24.28,50.87c-0.026,0-0.052-0.005-0.078-0.018l-9.366-4.611c-0.087-0.043-0.122-0.148-0.08-0.236  c0.043-0.087,0.146-0.122,0.236-0.08l9.366,4.611c0.087,0.043,0.122,0.148,0.08,0.236C24.407,50.834,24.344,50.87,24.28,50.87z"/><path d="M14.914,46.259c-0.067,0-0.131-0.038-0.161-0.104c-0.04-0.089,0-0.192,0.088-0.232l13.469-6.069  c0.087-0.041,0.191-0.001,0.234,0.088c0.04,0.089,0,0.192-0.088,0.232l-13.469,6.069C14.963,46.254,14.938,46.259,14.914,46.259z"/><path d="M28.383,40.189c-0.062,0-0.121-0.032-0.154-0.09l-3.457-6.157c-0.047-0.085-0.016-0.192,0.067-0.239  c0.087-0.047,0.192-0.017,0.24,0.067l3.457,6.157c0.047,0.085,0.016,0.192-0.067,0.239C28.442,40.182,28.412,40.189,28.383,40.189z"/><path d="M24.925,34.033c-0.004,0-0.008,0-0.012-0.001L13.16,33.191c-0.098-0.007-0.17-0.091-0.164-0.188  c0.007-0.096,0.1-0.179,0.188-0.163l11.753,0.841c0.098,0.007,0.17,0.091,0.164,0.188C25.094,33.962,25.017,34.033,24.925,34.033z"/><path d="M85.992,39.234c-0.049,0-0.1-0.021-0.135-0.063l-7.309-8.664c-0.062-0.074-0.054-0.186,0.021-0.248  c0.074-0.06,0.187-0.054,0.249,0.021l7.309,8.664c0.062,0.074,0.054,0.186-0.021,0.248C86.074,39.221,86.032,39.234,85.992,39.234z"/><path d="M78.34,38.482c-0.003,0-0.005,0-0.008,0c-0.096-0.004-0.172-0.087-0.168-0.183l0.344-7.912  c0.004-0.098,0.082-0.161,0.184-0.168c0.096,0.004,0.172,0.087,0.168,0.183l-0.344,7.912C78.512,38.409,78.433,38.482,78.34,38.482z  "/><path d="M85.992,39.234c-0.005,0-0.011,0-0.018-0.001l-7.652-0.752c-0.096-0.01-0.166-0.096-0.157-0.192  c0.008-0.091,0.085-0.159,0.175-0.159c0.005,0,0.011,0,0.018,0.001l7.652,0.752c0.096,0.01,0.166,0.096,0.157,0.192  C86.159,39.166,86.082,39.234,85.992,39.234z"/><path d="M85.992,39.234c-0.096,0-0.175-0.076-0.176-0.172l-0.229-11.16c-0.001-0.097,0.076-0.177,0.172-0.179  c0.001,0,0.003,0,0.004,0c0.096,0,0.175,0.076,0.176,0.172l0.229,11.16c0.001,0.097-0.076,0.177-0.172,0.179  C85.995,39.234,85.994,39.234,85.992,39.234z"/><path d="M68.769,29.941c-0.089,0-0.165-0.067-0.175-0.157c-0.011-0.097,0.059-0.183,0.155-0.194l16.994-1.867  c0.106-0.018,0.184,0.058,0.194,0.155c0.011,0.097-0.059,0.183-0.155,0.194L68.789,29.94C68.782,29.941,68.776,29.941,68.769,29.941  z"/><path d="M65.536,34.06c-0.038,0-0.077-0.012-0.109-0.038c-0.077-0.06-0.089-0.17-0.03-0.247l3.233-4.118  c0.062-0.076,0.173-0.089,0.247-0.03c0.077,0.06,0.089,0.17,0.03,0.247l-3.233,4.118C65.639,34.036,65.588,34.06,65.536,34.06z"/><path d="M65.536,34.06c-0.078,0-0.148-0.052-0.17-0.131c-0.025-0.094,0.032-0.19,0.125-0.215l13.148-3.49  c0.092-0.027,0.19,0.03,0.216,0.124c0.025,0.094-0.032,0.19-0.125,0.215l-13.148,3.49C65.566,34.057,65.551,34.06,65.536,34.06z"/><path d="M67.265,40.383c-0.049,0-0.099-0.021-0.133-0.061c-0.063-0.074-0.055-0.185,0.019-0.248l11.419-9.813  c0.071-0.064,0.184-0.056,0.247,0.019c0.063,0.074,0.055,0.185-0.019,0.248L67.379,40.34C67.346,40.369,67.306,40.383,67.265,40.383  z"/><path d="M67.265,40.383c-0.077,0-0.148-0.052-0.169-0.129l-1.729-6.323c-0.026-0.094,0.029-0.191,0.122-0.216  c0.098-0.025,0.191,0.03,0.216,0.123l1.729,6.323c0.026,0.094-0.029,0.191-0.122,0.216C67.295,40.38,67.28,40.383,67.265,40.383z"/><path d="M55.513,39.851c-0.06,0-0.12-0.032-0.153-0.088c-0.048-0.084-0.019-0.192,0.065-0.24l10.023-5.791  c0.081-0.047,0.191-0.021,0.24,0.065c0.048,0.084,0.019,0.192-0.065,0.24l-10.023,5.791C55.574,39.843,55.543,39.851,55.513,39.851z  "/><path d="M67.265,40.383c-0.003,0-0.005,0-0.008,0l-11.751-0.532c-0.096-0.005-0.172-0.087-0.168-0.184  c0.005-0.097,0.071-0.159,0.184-0.168l11.751,0.532c0.096,0.005,0.172,0.087,0.168,0.184C67.436,40.309,67.358,40.383,67.265,40.383  z"/><path d="M70.568,47.139c-0.065,0-0.128-0.036-0.158-0.099l-3.303-6.757c-0.043-0.087-0.007-0.192,0.081-0.235  c0.087-0.041,0.194-0.006,0.235,0.081l3.303,6.757c0.043,0.087,0.007,0.192-0.081,0.235C70.62,47.134,70.594,47.139,70.568,47.139z"/><path d="M70.568,47.139c-0.043,0-0.084-0.015-0.118-0.045c-0.071-0.065-0.077-0.177-0.012-0.249l7.772-8.657  c0.066-0.072,0.177-0.076,0.249-0.014c0.071,0.065,0.077,0.177,0.012,0.249l-7.772,8.657C70.664,47.119,70.616,47.139,70.568,47.139  z"/><path d="M67.265,40.383c-0.084,0-0.158-0.06-0.173-0.146c-0.016-0.096,0.048-0.186,0.143-0.203l11.075-1.9  c0.106-0.024,0.186,0.047,0.203,0.144c0.016,0.096-0.048,0.186-0.143,0.203l-11.075,1.9C67.284,40.382,67.274,40.383,67.265,40.383z  "/><path d="M61.825,48.444c-0.034,0-0.069-0.01-0.099-0.03c-0.08-0.054-0.102-0.164-0.047-0.244l5.44-8.062  c0.056-0.08,0.166-0.101,0.245-0.047c0.08,0.054,0.102,0.164,0.047,0.244l-5.44,8.062C61.936,48.417,61.881,48.444,61.825,48.444z"/><path d="M61.825,48.444c-0.085,0-0.161-0.063-0.175-0.15c-0.014-0.096,0.052-0.186,0.148-0.2l8.743-1.305  c0.099-0.014,0.186,0.052,0.201,0.148c0.014,0.096-0.052,0.186-0.148,0.2l-8.743,1.305C61.841,48.444,61.833,48.444,61.825,48.444z"/><path d="M76.014,48.319c-0.012,0-0.025-0.001-0.037-0.004l-5.446-1.18c-0.095-0.021-0.155-0.114-0.135-0.209  c0.021-0.095,0.12-0.153,0.209-0.135l5.446,1.18c0.095,0.021,0.155,0.114,0.135,0.209C76.168,48.262,76.095,48.319,76.014,48.319z"/><path d="M76.014,48.319c-0.047,0-0.092-0.018-0.126-0.054c-0.067-0.07-0.066-0.181,0.004-0.249l2.67-2.563  c0.071-0.066,0.183-0.064,0.249,0.005c0.067,0.07,0.066,0.181-0.004,0.249l-2.67,2.563C76.102,48.302,76.058,48.319,76.014,48.319z"/><path d="M78.684,45.756c-0.093,0-0.172-0.074-0.176-0.168l-0.344-7.274c-0.004-0.097,0.07-0.179,0.168-0.184  c0.11,0.002,0.179,0.071,0.184,0.168l0.344,7.274c0.004,0.097-0.07,0.179-0.168,0.184C78.689,45.756,78.686,45.756,78.684,45.756z"/><path d="M93.259,51.99c-0.043,0-0.084-0.015-0.118-0.045L78.222,38.437c-0.071-0.065-0.077-0.177-0.012-0.249  c0.066-0.073,0.177-0.076,0.249-0.012l14.919,13.508c0.071,0.065,0.077,0.177,0.012,0.249C93.355,51.97,93.307,51.99,93.259,51.99z"/><path d="M93.259,51.99c-0.023,0-0.047-0.005-0.069-0.014l-14.575-6.234c-0.089-0.038-0.131-0.142-0.093-0.231  c0.04-0.089,0.146-0.129,0.231-0.092l14.575,6.234c0.089,0.038,0.131,0.142,0.093,0.231C93.392,51.95,93.328,51.99,93.259,51.99z"/><path d="M78.684,45.756c-0.025,0-0.051-0.005-0.076-0.016l-11.419-5.373c-0.087-0.042-0.125-0.146-0.084-0.234  c0.043-0.088,0.146-0.123,0.235-0.085l11.419,5.373c0.087,0.042,0.125,0.146,0.084,0.234C78.813,45.719,78.75,45.756,78.684,45.756z  "/><path d="M67.265,40.383c-0.025,0-0.049-0.005-0.073-0.016c-0.089-0.041-0.128-0.146-0.087-0.234l9.349-20.327  c0.04-0.088,0.148-0.125,0.232-0.087c0.089,0.041,0.128,0.146,0.087,0.234L67.424,40.28C67.395,40.345,67.331,40.383,67.265,40.383z  "/><path d="M64.971,21.848c-0.085,0-0.161-0.063-0.175-0.149c-0.014-0.096,0.052-0.186,0.148-0.201l11.643-1.793  c0.096-0.013,0.186,0.053,0.201,0.147c0.014,0.096-0.052,0.186-0.148,0.201l-11.643,1.793  C64.989,21.848,64.979,21.848,64.971,21.848z"/><path d="M65.536,34.06c-0.093,0-0.172-0.074-0.176-0.168l-0.565-12.211c-0.004-0.097,0.07-0.179,0.168-0.184  c0.109-0.005,0.179,0.071,0.184,0.168l0.565,12.211c0.004,0.097-0.07,0.179-0.168,0.184C65.541,34.06,65.539,34.06,65.536,34.06z"/><path d="M65.536,34.06c-0.049,0-0.099-0.021-0.133-0.061l-4.533-5.259c-0.063-0.074-0.055-0.185,0.018-0.248  c0.074-0.065,0.184-0.056,0.249,0.019l4.533,5.259c0.063,0.074,0.055,0.185-0.018,0.248C65.617,34.046,65.577,34.06,65.536,34.06z"/><path d="M68.769,29.941c-0.008,0-0.016-0.001-0.026-0.002l-7.767-1.141c-0.096-0.014-0.162-0.103-0.148-0.199  c0.014-0.096,0.091-0.17,0.201-0.148l7.767,1.141c0.096,0.014,0.162,0.103,0.148,0.199C68.93,29.878,68.856,29.941,68.769,29.941z"/><path d="M47.848,32.408c-0.088,0-0.164-0.066-0.175-0.155c-0.011-0.096,0.058-0.184,0.154-0.195l20.921-2.467  c0.096-0.011,0.183,0.058,0.195,0.154c0.011,0.096-0.058,0.184-0.154,0.195l-20.921,2.467  C47.862,32.407,47.855,32.408,47.848,32.408z"/><path d="M55.513,39.851c-0.044,0-0.088-0.016-0.122-0.049l-7.665-7.443c-0.07-0.068-0.071-0.179-0.004-0.249  c0.069-0.069,0.18-0.07,0.249-0.004l7.665,7.443c0.07,0.068,0.071,0.179,0.004,0.249C55.605,39.833,55.559,39.851,55.513,39.851z"/><path d="M49.782,45.05c-0.048,0-0.096-0.019-0.131-0.058c-0.065-0.072-0.059-0.183,0.012-0.249l5.731-5.199  c0.073-0.065,0.183-0.061,0.249,0.012c0.065,0.072,0.059,0.183-0.012,0.249L49.9,45.004C49.866,45.035,49.824,45.05,49.782,45.05z"/><path d="M49.782,45.05c-0.085,0-0.161-0.063-0.175-0.149l-1.933-12.642c-0.014-0.096,0.052-0.186,0.148-0.201  c0.098-0.015,0.186,0.052,0.201,0.147l1.933,12.642c0.014,0.096-0.052,0.186-0.148,0.201C49.8,45.049,49.79,45.05,49.782,45.05z"/><path d="M47.848,32.408c-0.026,0-0.052-0.005-0.077-0.018c-0.087-0.042-0.124-0.147-0.081-0.235l5.818-11.998  c0.043-0.087,0.15-0.123,0.235-0.081c0.087,0.042,0.124,0.147,0.081,0.235l-5.818,11.998C47.976,32.371,47.913,32.408,47.848,32.408  z"/><path d="M61.003,28.8c-0.049,0-0.098-0.021-0.132-0.06l-7.336-8.39c-0.065-0.074-0.056-0.185,0.016-0.249  c0.073-0.064,0.183-0.056,0.247,0.016l7.336,8.39c0.065,0.074,0.056,0.185-0.016,0.249C61.085,28.786,61.044,28.8,61.003,28.8z"/><path d="M61.003,28.8c-0.022,0-0.045-0.004-0.067-0.013l-18.366-7.532c-0.089-0.037-0.132-0.139-0.095-0.229  c0.036-0.089,0.139-0.134,0.229-0.096l18.366,7.532c0.089,0.037,0.132,0.139,0.095,0.229C61.137,28.759,61.071,28.8,61.003,28.8z"/><path d="M47.848,32.408c-0.066,0-0.129-0.038-0.159-0.102l-5.212-11.14c-0.041-0.088-0.003-0.192,0.085-0.234  c0.084-0.042,0.191-0.003,0.234,0.085l5.212,11.14c0.041,0.088,0.003,0.192-0.085,0.234C47.899,32.402,47.873,32.408,47.848,32.408z  "/><path d="M42.636,36.756c-0.051,0-0.1-0.021-0.135-0.063c-0.063-0.075-0.052-0.186,0.022-0.248l5.212-4.348  c0.074-0.062,0.187-0.052,0.247,0.023c0.063,0.075,0.052,0.186-0.022,0.248l-5.212,4.348C42.716,36.743,42.676,36.756,42.636,36.756  z"/><path d="M42.636,36.756c-0.041,0-0.082-0.014-0.115-0.043l-6.758-5.852c-0.073-0.064-0.081-0.175-0.018-0.249  c0.066-0.074,0.176-0.08,0.249-0.018l6.758,5.852c0.073,0.064,0.081,0.175,0.018,0.249C42.734,36.735,42.686,36.756,42.636,36.756z"/><path d="M35.878,30.904c-0.036,0-0.07-0.01-0.1-0.032c-0.08-0.056-0.099-0.166-0.044-0.245l6.758-9.636  c0.055-0.08,0.166-0.098,0.245-0.043c0.08,0.056,0.099,0.166,0.044,0.245l-6.758,9.636C35.988,30.878,35.933,30.904,35.878,30.904z"/><path d="M42.636,21.268c-0.07,0-0.136-0.042-0.164-0.111l-1.547-3.917c-0.036-0.09,0.008-0.192,0.099-0.228  c0.085-0.034,0.191,0.008,0.228,0.099l1.547,3.917c0.036,0.09-0.008,0.192-0.099,0.228C42.68,21.264,42.658,21.268,42.636,21.268z"/><path d="M34.573,22.876c-0.049,0-0.099-0.021-0.135-0.062c-0.062-0.074-0.054-0.186,0.021-0.248l6.516-5.525  c0.076-0.063,0.186-0.053,0.249,0.02c0.062,0.074,0.054,0.186-0.021,0.248l-6.516,5.525C34.654,22.863,34.613,22.876,34.573,22.876z  "/><path d="M35.878,30.904c-0.085,0-0.159-0.061-0.173-0.148L34.4,22.729c-0.016-0.096,0.049-0.186,0.144-0.202  c0.092-0.019,0.187,0.049,0.202,0.146l1.305,8.028c0.016,0.096-0.049,0.186-0.144,0.202C35.898,30.903,35.888,30.904,35.878,30.904z  "/><path d="M35.878,30.904c-0.021,0-0.043-0.003-0.063-0.012c-0.091-0.035-0.136-0.137-0.1-0.227l5.211-13.553  c0.033-0.091,0.135-0.136,0.227-0.101c0.091,0.035,0.136,0.137,0.1,0.227l-5.211,13.553C36.016,30.861,35.949,30.904,35.878,30.904z  "/><path d="M41.089,17.351c-0.056,0-0.11-0.027-0.144-0.076c-0.055-0.08-0.036-0.189,0.044-0.245l8.524-5.888  c0.08-0.054,0.19-0.034,0.245,0.045c0.055,0.08,0.036,0.189-0.044,0.245l-8.524,5.888C41.159,17.341,41.123,17.351,41.089,17.351z"/><path d="M53.666,20.41c-0.067,0-0.131-0.038-0.161-0.103l-4.054-8.947c-0.04-0.089,0-0.193,0.088-0.233  c0.085-0.042,0.192-0.001,0.234,0.087l4.054,8.947c0.04,0.089,0,0.193-0.088,0.233C53.716,20.405,53.691,20.41,53.666,20.41z"/><path d="M53.666,20.41c-0.032,0-0.063-0.008-0.092-0.026c-0.084-0.052-0.109-0.16-0.058-0.243l5.982-9.648  c0.049-0.083,0.159-0.109,0.242-0.057c0.084,0.052,0.109,0.16,0.058,0.243l-5.982,9.648C53.783,20.38,53.725,20.41,53.666,20.41z"/><path d="M42.649,21.268c-0.059,0-0.117-0.03-0.15-0.083c-0.051-0.083-0.025-0.191,0.058-0.243l16.999-10.506  c0.084-0.05,0.191-0.025,0.242,0.057c0.051,0.083,0.025,0.191-0.058,0.243L42.741,21.242C42.712,21.26,42.68,21.268,42.649,21.268z"/><path d="M42.649,21.268c-0.091,0-0.168-0.07-0.176-0.162c-0.007-0.097,0.066-0.181,0.162-0.189l11.018-0.858  c0.1-0.021,0.18,0.065,0.19,0.161c0.007,0.097-0.066,0.181-0.162,0.189l-11.018,0.858C42.658,21.268,42.653,21.268,42.649,21.268z"/><path d="M64.971,21.848c-0.007,0-0.015-0.001-0.022-0.001l-11.305-1.439c-0.096-0.012-0.165-0.1-0.153-0.196  c0.011-0.096,0.099-0.159,0.196-0.153l11.305,1.439c0.096,0.012,0.165,0.1,0.153,0.196C65.135,21.784,65.059,21.848,64.971,21.848z"/><path d="M47.848,32.408c-0.059,0-0.117-0.03-0.15-0.084c-0.051-0.082-0.025-0.191,0.058-0.242l17.123-10.559  c0.084-0.052,0.191-0.025,0.242,0.058s0.025,0.191-0.058,0.242L47.94,32.382C47.912,32.4,47.88,32.408,47.848,32.408z"/><path d="M39.191,49.499c-0.027,0-0.054-0.006-0.08-0.019c-0.087-0.044-0.121-0.15-0.077-0.236l8.657-17.091  c0.043-0.087,0.15-0.121,0.236-0.077c0.087,0.044,0.121,0.15,0.077,0.236l-8.657,17.091C39.318,49.464,39.256,49.499,39.191,49.499z  "/><path d="M39.191,49.499c-0.015,0-0.03-0.002-0.045-0.006c-0.095-0.025-0.15-0.122-0.125-0.216l3.445-12.744  c0.026-0.094,0.122-0.149,0.216-0.124c0.095,0.025,0.15,0.122,0.125,0.216l-3.445,12.744C39.34,49.448,39.268,49.499,39.191,49.499z  "/><path d="M33.516,41.458c-0.063,0-0.125-0.035-0.157-0.096c-0.044-0.086-0.01-0.192,0.076-0.237l9.12-4.703  c0.085-0.043,0.192-0.011,0.238,0.076c0.044,0.086,0.01,0.192-0.076,0.237l-9.12,4.703C33.571,41.452,33.544,41.458,33.516,41.458z"/><path d="M33.516,41.458c-0.012,0-0.026-0.001-0.038-0.004c-0.095-0.021-0.154-0.115-0.133-0.21l2.362-10.555  c0.021-0.093,0.117-0.154,0.21-0.133c0.095,0.021,0.154,0.115,0.133,0.21l-2.362,10.555C33.67,41.403,33.597,41.458,33.516,41.458z"/><path d="M28.383,40.189c-0.038,0-0.078-0.013-0.11-0.039c-0.076-0.061-0.088-0.172-0.027-0.247l7.496-9.286  c0.062-0.076,0.173-0.087,0.247-0.026c0.076,0.061,0.088,0.172,0.027,0.247l-7.496,9.286C28.484,40.167,28.433,40.189,28.383,40.189  z"/><path d="M26.654,45.715c-0.018,0-0.034-0.003-0.052-0.008c-0.093-0.029-0.144-0.128-0.115-0.22l1.729-5.525  c0.029-0.094,0.126-0.146,0.22-0.115c0.093,0.029,0.144,0.128,0.115,0.22l-1.729,5.525C26.798,45.667,26.73,45.715,26.654,45.715z"/><path d="M26.654,45.715c-0.059,0-0.117-0.03-0.15-0.083c-0.051-0.082-0.026-0.191,0.058-0.243l6.862-4.256  c0.084-0.05,0.192-0.024,0.242,0.057c0.051,0.082,0.026,0.191-0.058,0.243l-6.862,4.256C26.717,45.707,26.686,45.715,26.654,45.715z  "/><path d="M39.191,49.499c-0.055,0-0.11-0.026-0.144-0.074l-5.675-8.041c-0.055-0.08-0.037-0.19,0.043-0.245  c0.078-0.057,0.188-0.038,0.246,0.042l5.675,8.041c0.055,0.08,0.037,0.19-0.043,0.245C39.262,49.489,39.227,49.499,39.191,49.499z"/><path d="M39.191,49.499c-0.069,0-0.133-0.041-0.162-0.108c-0.037-0.089,0.004-0.192,0.093-0.23l10.59-4.449  c0.095-0.037,0.192,0.004,0.231,0.094c0.037,0.089-0.004,0.192-0.093,0.23l-10.59,4.449C39.237,49.495,39.215,49.499,39.191,49.499z  "/><path d="M45.697,51.748c-0.032,0-0.063-0.008-0.092-0.025c-0.082-0.051-0.109-0.159-0.058-0.242l4.085-6.698  c0.051-0.083,0.158-0.109,0.242-0.059c0.082,0.051,0.109,0.159,0.058,0.242l-4.085,6.698C45.813,51.718,45.756,51.748,45.697,51.748  z"/><path d="M57.279,52.981c-0.005,0-0.012,0-0.019-0.001l-11.582-1.233c-0.096-0.01-0.166-0.098-0.155-0.194  c0.01-0.096,0.071-0.17,0.194-0.157l11.582,1.233c0.096,0.01,0.166,0.098,0.155,0.194C57.444,52.914,57.368,52.981,57.279,52.981z"/><path d="M57.279,52.981c-0.087,0-0.162-0.064-0.175-0.153l-1.766-13.13c-0.012-0.096,0.055-0.185,0.151-0.198  c0.088-0.01,0.184,0.054,0.198,0.151l1.766,13.13c0.012,0.096-0.055,0.185-0.151,0.198C57.294,52.98,57.287,52.981,57.279,52.981z"/><path d="M61.825,48.444c-0.054,0-0.107-0.025-0.142-0.071l-6.311-8.594c-0.058-0.078-0.041-0.189,0.037-0.246  c0.078-0.06,0.188-0.041,0.246,0.037l6.311,8.594c0.058,0.078,0.041,0.189-0.037,0.246C61.897,48.433,61.86,48.444,61.825,48.444z"/><path d="M45.697,51.748c-0.082,0-0.155-0.057-0.172-0.141c-0.021-0.095,0.041-0.188,0.136-0.207l16.128-3.303  c0.103-0.019,0.188,0.042,0.207,0.137c0.021,0.095-0.041,0.188-0.136,0.207l-16.128,3.303C45.72,51.746,45.708,51.748,45.697,51.748  z"/><path d="M45.697,51.748c-0.063,0-0.124-0.034-0.155-0.094c-0.045-0.086-0.012-0.192,0.073-0.237l21.568-11.365  c0.085-0.048,0.192-0.012,0.238,0.074c0.045,0.086,0.012,0.192-0.073,0.237L45.779,51.727  C45.753,51.742,45.724,51.748,45.697,51.748z"/><path d="M68.916,52.843c-0.016,0-0.033-0.002-0.049-0.007c-0.093-0.027-0.147-0.124-0.12-0.218l1.652-5.704  c0.027-0.093,0.128-0.145,0.218-0.12c0.093,0.027,0.147,0.124,0.12,0.218l-1.652,5.704C69.063,52.793,68.993,52.843,68.916,52.843z"/><path d="M81.734,56.293c-0.04,0-0.078-0.013-0.111-0.04l-11.166-9.154c-0.076-0.062-0.087-0.172-0.025-0.247  c0.062-0.076,0.172-0.086,0.247-0.025l11.166,9.154c0.076,0.062,0.087,0.172,0.025,0.247C81.836,56.271,81.785,56.293,81.734,56.293  z"/><path d="M81.734,56.293c-0.055,0-0.109-0.025-0.143-0.074l-5.72-7.975c-0.056-0.079-0.038-0.189,0.04-0.245  c0.08-0.057,0.188-0.04,0.246,0.041l5.72,7.975c0.056,0.079,0.038,0.189-0.04,0.245C81.806,56.282,81.77,56.293,81.734,56.293z"/><path d="M72.071,68.896c-0.011,0-0.022-0.001-0.033-0.003c-0.096-0.018-0.158-0.11-0.14-0.205L75.84,48.11  c0.018-0.096,0.113-0.168,0.206-0.139c0.096,0.018,0.158,0.11,0.14,0.205l-3.942,20.577C72.228,68.838,72.154,68.896,72.071,68.896z  "/><path d="M72.071,68.896c-0.065,0-0.126-0.036-0.157-0.097L61.668,48.348c-0.044-0.087-0.01-0.193,0.078-0.236  c0.087-0.041,0.194-0.007,0.235,0.078l10.247,20.452c0.044,0.087,0.01,0.193-0.078,0.236C72.125,68.89,72.097,68.896,72.071,68.896z  "/><path d="M52.853,66.159c-0.058,0-0.114-0.029-0.148-0.081l-4.183-6.552c-0.052-0.082-0.027-0.191,0.054-0.243  c0.08-0.05,0.19-0.028,0.243,0.054l4.183,6.552c0.052,0.082,0.027,0.191-0.054,0.243C52.919,66.15,52.886,66.159,52.853,66.159z"/><path d="M60.011,60.816c-0.005,0-0.012,0-0.019-0.001l-11.341-1.209c-0.096-0.01-0.166-0.098-0.155-0.194  c0.01-0.096,0.073-0.17,0.194-0.157l11.341,1.209c0.096,0.01,0.166,0.098,0.155,0.194C60.176,60.749,60.1,60.816,60.011,60.816z"/><path d="M48.67,59.606c-0.071,0-0.137-0.043-0.165-0.113l-2.974-7.859c-0.034-0.091,0.012-0.192,0.103-0.227  c0.092-0.036,0.191,0.011,0.227,0.102l2.974,7.859c0.034,0.091-0.012,0.192-0.103,0.227C48.711,59.603,48.691,59.606,48.67,59.606z"/><path d="M38.441,59.195c-0.004,0-0.01,0-0.014-0.001c-0.096-0.008-0.169-0.092-0.162-0.189l0.75-9.696  c0.008-0.096,0.107-0.177,0.19-0.161c0.096,0.008,0.169,0.092,0.162,0.189l-0.75,9.696C38.609,59.125,38.532,59.195,38.441,59.195z"/><path d="M46.895,63.586c-0.062,0-0.122-0.033-0.154-0.091l-7.703-14.087c-0.047-0.085-0.015-0.192,0.07-0.239  c0.082-0.045,0.191-0.015,0.238,0.07l7.703,14.087c0.047,0.085,0.015,0.192-0.07,0.239C46.952,63.579,46.924,63.586,46.895,63.586z"/><path d="M35.878,30.904c-0.011,0-0.023-0.001-0.036-0.003l-7.544-1.547c-0.095-0.02-0.157-0.113-0.136-0.207  c0.018-0.095,0.1-0.155,0.207-0.137l7.544,1.547c0.095,0.02,0.157,0.113,0.136,0.207C36.034,30.847,35.961,30.904,35.878,30.904z"/><path d="M28.383,40.189c-0.096,0-0.176-0.078-0.176-0.175l-0.048-10.833c0-0.097,0.078-0.176,0.175-0.177c0.001,0,0.001,0,0.001,0  c0.096,0,0.176,0.078,0.176,0.175l0.048,10.833c0,0.097-0.078,0.176-0.175,0.177C28.383,40.189,28.383,40.189,28.383,40.189z"/><path d="M28.335,29.357c-0.034,0-0.07-0.01-0.1-0.032l-5.175-3.627c-0.08-0.056-0.099-0.166-0.044-0.245  c0.055-0.08,0.165-0.099,0.245-0.043l5.175,3.627c0.08,0.056,0.099,0.166,0.044,0.245C28.444,29.331,28.39,29.357,28.335,29.357z"/><path d="M23.16,25.73c-0.034,0-0.07-0.01-0.1-0.032c-0.08-0.056-0.099-0.165-0.044-0.245l6.77-9.721  c0.055-0.081,0.165-0.1,0.245-0.044s0.099,0.165,0.044,0.245l-6.77,9.721C23.27,25.704,23.215,25.73,23.16,25.73z"/><path d="M29.93,16.008c-0.023,0-0.047-0.005-0.07-0.014l-4.594-1.983c-0.089-0.038-0.131-0.142-0.092-0.231  c0.04-0.09,0.14-0.128,0.232-0.092L30,15.671c0.089,0.038,0.131,0.142,0.092,0.231C30.063,15.969,29.997,16.008,29.93,16.008z"/><path d="M28.358,29.371c-0.082,0-0.157-0.058-0.173-0.142l-3.022-15.345c-0.018-0.095,0.044-0.188,0.139-0.206  c0.107-0.021,0.188,0.044,0.207,0.139l3.022,15.345c0.018,0.095-0.044,0.188-0.139,0.206C28.38,29.37,28.369,29.371,28.358,29.371z"/><path d="M28.358,29.371c-0.044,0-0.088-0.016-0.121-0.049c-0.071-0.067-0.073-0.179-0.005-0.249l6.215-6.495  c0.067-0.071,0.18-0.071,0.247-0.005c0.071,0.067,0.073,0.179,0.005,0.249l-6.215,6.495C28.45,29.353,28.405,29.371,28.358,29.371z"/><path d="M34.573,22.876c-0.056,0-0.111-0.027-0.146-0.078l-4.643-6.868c-0.055-0.08-0.033-0.19,0.047-0.244  c0.08-0.054,0.19-0.034,0.245,0.047l4.643,6.868c0.055,0.08,0.033,0.19-0.047,0.244C34.642,22.867,34.607,22.876,34.573,22.876z"/><path d="M29.93,16.008c-0.062,0-0.122-0.033-0.154-0.091c-0.047-0.085-0.016-0.192,0.069-0.239l10.035-5.537  c0.085-0.048,0.192-0.016,0.239,0.069c0.047,0.085,0.016,0.192-0.069,0.239l-10.035,5.537C29.988,16.002,29.959,16.008,29.93,16.008  z"/><path d="M41.089,17.351c-0.085,0-0.159-0.061-0.173-0.148l-1.124-6.88c-0.016-0.096,0.049-0.186,0.144-0.202  c0.092-0.014,0.187,0.049,0.202,0.146l1.124,6.88c0.016,0.096-0.049,0.186-0.144,0.202C41.108,17.35,41.099,17.351,41.089,17.351z"/><path d="M53.666,20.41c-0.014,0-0.027-0.001-0.041-0.005l-12.577-3.059c-0.095-0.023-0.153-0.118-0.129-0.212  c0.022-0.094,0.12-0.151,0.212-0.13l12.577,3.059c0.095,0.023,0.153,0.118,0.129,0.212C53.818,20.356,53.746,20.41,53.666,20.41z"/><path d="M53.666,20.41c-0.036,0-0.071-0.011-0.103-0.034l-13.701-9.938c-0.078-0.057-0.096-0.167-0.04-0.245  c0.056-0.079,0.165-0.098,0.246-0.039l13.701,9.938c0.078,0.057,0.096,0.167,0.04,0.245C53.775,20.384,53.721,20.41,53.666,20.41z"/><path d="M34.573,22.876c-0.023,0-0.047-0.005-0.07-0.014c-0.089-0.039-0.131-0.142-0.091-0.232l5.392-12.405  c0.038-0.089,0.142-0.129,0.231-0.091c0.089,0.039,0.131,0.142,0.091,0.232l-5.392,12.405C34.705,22.836,34.64,22.876,34.573,22.876  z"/><path d="M34.573,22.876c-0.016,0-0.032-0.002-0.048-0.007l-16.25-4.653c-0.093-0.027-0.148-0.124-0.121-0.217  c0.027-0.093,0.125-0.146,0.217-0.121l16.25,4.653c0.093,0.027,0.148,0.124,0.121,0.217C34.72,22.826,34.65,22.876,34.573,22.876z"/><path d="M23.16,25.73c-0.058,0-0.114-0.028-0.148-0.08l-4.837-7.506c-0.052-0.082-0.029-0.191,0.054-0.243  c0.081-0.052,0.19-0.03,0.243,0.052l4.837,7.506c0.052,0.082,0.029,0.191-0.054,0.243C23.226,25.721,23.193,25.73,23.16,25.73z"/><path d="M13.173,33.192c-0.054,0-0.106-0.024-0.142-0.071c-0.058-0.078-0.041-0.188,0.036-0.246l9.987-7.462  c0.078-0.056,0.188-0.043,0.247,0.036c0.058,0.078,0.041,0.188-0.036,0.246l-9.987,7.462C13.247,33.18,13.21,33.192,13.173,33.192z"/><path d="M23.16,25.73c-0.011,0-0.021-0.001-0.032-0.003l-9.382-1.717c-0.096-0.018-0.159-0.109-0.142-0.205  c0.016-0.096,0.107-0.161,0.205-0.142l9.382,1.717c0.096,0.018,0.159,0.109,0.142,0.205C23.318,25.671,23.243,25.73,23.16,25.73z"/><path d="M24.925,34.033c-0.043,0-0.084-0.015-0.118-0.045l-11.148-10.02c-0.071-0.065-0.077-0.176-0.012-0.248  c0.066-0.072,0.176-0.076,0.249-0.013l11.148,10.02c0.071,0.065,0.077,0.176,0.012,0.248C25.022,34.013,24.973,34.033,24.925,34.033  z"/><path d="M13.777,24.013c-0.065,0-0.126-0.036-0.158-0.098c-0.043-0.087-0.007-0.193,0.08-0.236l16.153-8.004  c0.088-0.042,0.192-0.007,0.236,0.079c0.043,0.087,0.007,0.193-0.08,0.236l-16.153,8.004C13.831,24.007,13.803,24.013,13.777,24.013  z"/><path d="M13.173,33.192c-0.019,0-0.038-0.003-0.058-0.01c-0.091-0.032-0.14-0.132-0.109-0.223l5.15-14.968  c0.032-0.092,0.133-0.142,0.224-0.109c0.091,0.032,0.14,0.132,0.109,0.223l-5.15,14.968C13.314,33.146,13.245,33.192,13.173,33.192z  "/><path d="M7.249,38.376c-0.08,0-0.151-0.054-0.17-0.134c-0.023-0.094,0.034-0.19,0.128-0.213l17.677-4.343  c0.106-0.02,0.191,0.035,0.213,0.129c0.023,0.094-0.034,0.19-0.128,0.213L7.291,38.371C7.276,38.374,7.262,38.376,7.249,38.376z"/><path d="M28.383,40.189c-0.005,0-0.01,0-0.015-0.001L7.234,38.375c-0.096-0.008-0.169-0.093-0.161-0.19  c0.008-0.097,0.096-0.17,0.191-0.16l21.134,1.814c0.096,0.008,0.169,0.093,0.161,0.19C28.55,40.12,28.473,40.189,28.383,40.189z"/><path d="M26.654,45.715c-0.021,0-0.041-0.003-0.062-0.012L7.187,38.364c-0.091-0.034-0.137-0.135-0.103-0.227  c0.036-0.091,0.135-0.14,0.227-0.102l19.405,7.339c0.091,0.034,0.137,0.135,0.103,0.227C26.791,45.672,26.725,45.715,26.654,45.715z  "/><path d="M24.28,50.87c-0.058,0-0.115-0.029-0.148-0.082L13.024,33.109c-0.052-0.082-0.027-0.191,0.055-0.243  c0.081-0.052,0.191-0.027,0.242,0.056L24.428,50.6c0.052,0.082,0.027,0.191-0.055,0.243C24.344,50.861,24.311,50.87,24.28,50.87z"/><path d="M24.28,50.87c-0.003,0-0.004,0-0.007,0c-0.098-0.004-0.173-0.086-0.169-0.183l0.646-16.837  c0.004-0.095,0.081-0.169,0.176-0.169c0.003,0,0.004,0,0.007,0c0.098,0.004,0.173,0.086,0.169,0.183l-0.646,16.837  C24.451,50.796,24.374,50.87,24.28,50.87z"/><path d="M18.214,51.276c-0.021,0-0.043-0.004-0.063-0.012c-0.091-0.036-0.136-0.137-0.1-0.228l6.711-17.243  c0.033-0.09,0.137-0.133,0.227-0.1c0.091,0.036,0.136,0.137,0.1,0.228l-6.711,17.243C18.352,51.233,18.284,51.276,18.214,51.276z"/><path d="M24.925,34.033c-0.036,0-0.073-0.011-0.104-0.034c-0.078-0.058-0.095-0.168-0.037-0.246l3.433-4.662  c0.056-0.078,0.168-0.096,0.246-0.037c0.078,0.058,0.095,0.168,0.037,0.246l-3.433,4.662C25.033,34.008,24.979,34.033,24.925,34.033  z"/><path d="M24.925,34.033c-0.077,0-0.147-0.05-0.169-0.128c-0.026-0.093,0.027-0.19,0.121-0.217l10.953-3.129  c0.095-0.027,0.191,0.026,0.217,0.121c0.026,0.093-0.027,0.19-0.121,0.217l-10.953,3.129C24.957,34.031,24.942,34.033,24.925,34.033  z"/><path d="M24.925,34.033c-0.081,0-0.154-0.056-0.172-0.139l-1.766-8.303c-0.021-0.095,0.04-0.188,0.135-0.208  c0.096-0.021,0.188,0.04,0.209,0.135l1.766,8.303c0.021,0.095-0.04,0.188-0.135,0.208C24.95,34.031,24.938,34.033,24.925,34.033z"/><path d="M42.636,36.756c-0.008,0-0.018-0.001-0.026-0.002l-17.711-2.723c-0.096-0.014-0.162-0.104-0.148-0.201  c0.015-0.095,0.111-0.161,0.201-0.147l17.711,2.723c0.096,0.014,0.162,0.104,0.148,0.201C42.797,36.693,42.722,36.756,42.636,36.756  z"/><path d="M49.782,45.05c-0.012,0-0.025-0.001-0.038-0.004l-16.265-3.591c-0.095-0.021-0.154-0.115-0.133-0.21  c0.021-0.095,0.106-0.155,0.21-0.134l16.265,3.591c0.095,0.021,0.154,0.115,0.133,0.21C49.936,44.994,49.863,45.05,49.782,45.05z"/><path d="M32.44,51.027c-0.007,0-0.012-0.001-0.019-0.001c-0.098-0.01-0.166-0.098-0.155-0.194l1.076-9.569  c0.011-0.096,0.102-0.161,0.194-0.155c0.098,0.01,0.166,0.098,0.155,0.194l-1.076,9.569C32.605,50.96,32.528,51.027,32.44,51.027z"/><path d="M32.44,51.027c-0.036,0-0.071-0.01-0.102-0.033c-0.08-0.056-0.098-0.166-0.041-0.245l10.196-14.272  c0.056-0.08,0.168-0.099,0.245-0.041c0.08,0.056,0.098,0.166,0.041,0.245L32.583,50.954C32.549,51.002,32.495,51.027,32.44,51.027z"/><path d="M33.516,41.458c-0.014,0-0.027-0.001-0.043-0.005l-5.134-1.269c-0.093-0.023-0.151-0.119-0.128-0.213  c0.023-0.093,0.113-0.152,0.213-0.129l5.134,1.269c0.093,0.023,0.151,0.119,0.128,0.213C33.667,41.405,33.596,41.458,33.516,41.458z  "/><path d="M26.654,45.715c-0.095,0-0.173-0.076-0.176-0.171c-0.003-0.097,0.074-0.178,0.17-0.181l23.128-0.665  c0.003,0,0.004,0,0.005,0c0.095,0,0.173,0.076,0.176,0.171c0.003,0.097-0.074,0.178-0.17,0.181L26.66,45.715  C26.657,45.715,26.655,45.715,26.654,45.715z"/><path d="M48.67,59.606c-0.019,0-0.038-0.003-0.058-0.01c-0.092-0.032-0.14-0.132-0.109-0.224l6.843-19.756  c0.032-0.091,0.133-0.139,0.224-0.109c0.092,0.032,0.14,0.132,0.109,0.224l-6.843,19.756C48.812,59.561,48.743,59.606,48.67,59.606z  "/><path d="M47.848,32.408c-0.036,0-0.071-0.011-0.103-0.033L34.47,22.843c-0.078-0.057-0.096-0.166-0.04-0.245  c0.056-0.08,0.166-0.098,0.246-0.041l13.275,9.532c0.078,0.057,0.096,0.166,0.04,0.245C47.957,32.382,47.903,32.408,47.848,32.408z"/><path d="M47.848,32.408c-0.007,0-0.015-0.001-0.022-0.001l-11.97-1.504c-0.096-0.012-0.165-0.1-0.153-0.196  c0.012-0.096,0.1-0.166,0.196-0.153l11.97,1.504c0.096,0.012,0.165,0.1,0.153,0.196C48.012,32.343,47.936,32.408,47.848,32.408z"/><path d="M65.536,34.06c-0.005,0-0.011,0-0.016-0.001l-17.688-1.652c-0.096-0.009-0.168-0.095-0.158-0.192  c0.008-0.097,0.1-0.174,0.191-0.159l17.688,1.652c0.096,0.009,0.168,0.095,0.158,0.192C65.702,33.991,65.625,34.06,65.536,34.06z"/><path d="M88.955,56.898c-0.085,0-0.159-0.061-0.173-0.147l-2.963-17.664c-0.016-0.096,0.048-0.186,0.144-0.202  c0.089-0.022,0.186,0.048,0.202,0.144l2.963,17.664c0.016,0.096-0.048,0.186-0.144,0.202C88.974,56.897,88.965,56.898,88.955,56.898  z"/><path d="M81.734,56.293c-0.014,0-0.029-0.001-0.043-0.005c-0.095-0.023-0.151-0.119-0.128-0.213l4.258-17.059  c0.022-0.094,0.122-0.157,0.213-0.128c0.095,0.023,0.151,0.119,0.128,0.213L81.904,56.16C81.885,56.24,81.812,56.293,81.734,56.293z  "/><path d="M81.734,56.293c-0.037,0-0.074-0.012-0.106-0.035c-0.077-0.058-0.093-0.169-0.034-0.247l10.594-14.085  c0.058-0.078,0.169-0.091,0.246-0.035c0.077,0.058,0.093,0.169,0.034,0.247L81.874,56.223C81.84,56.269,81.788,56.293,81.734,56.293  z"/><path d="M60.011,60.816c-0.081,0-0.155-0.057-0.172-0.14c-0.021-0.095,0.041-0.188,0.136-0.208l21.723-4.522  c0.098-0.014,0.188,0.041,0.207,0.137c0.021,0.095-0.041,0.188-0.136,0.208l-21.723,4.522  C60.034,60.814,60.023,60.816,60.011,60.816z"/><path d="M61.245,67.392c-0.027,0-0.056-0.006-0.082-0.021c-0.085-0.045-0.118-0.151-0.073-0.237l7.672-14.549  c0.045-0.085,0.151-0.12,0.238-0.074c0.085,0.045,0.118,0.151,0.073,0.237L61.4,67.298C61.368,67.358,61.308,67.392,61.245,67.392z"/><path d="M61.245,67.392c-0.062,0-0.122-0.033-0.155-0.092c-0.045-0.085-0.014-0.192,0.071-0.238L81.65,55.963  c0.082-0.046,0.19-0.016,0.239,0.071c0.045,0.085,0.014,0.192-0.071,0.238L61.328,67.371C61.302,67.385,61.273,67.392,61.245,67.392  z"/><path d="M61.245,67.392c-0.084,0-0.157-0.059-0.173-0.144l-1.234-6.577c-0.018-0.096,0.045-0.188,0.14-0.205  c0.091-0.019,0.187,0.045,0.206,0.141l1.234,6.577c0.018,0.095-0.045,0.188-0.14,0.205C61.267,67.391,61.256,67.392,61.245,67.392z"/><path d="M52.853,66.159c-0.018,0-0.037-0.003-0.056-0.009c-0.092-0.031-0.142-0.131-0.11-0.223l4.426-13.178  c0.03-0.092,0.124-0.143,0.223-0.111c0.092,0.031,0.142,0.131,0.11,0.223l-4.426,13.178C52.994,66.113,52.926,66.159,52.853,66.159z  "/><path d="M38.441,59.195c-0.044,0-0.088-0.016-0.122-0.05c-0.07-0.067-0.071-0.179-0.004-0.249l7.255-7.447  c0.067-0.067,0.179-0.071,0.249-0.003c0.07,0.067,0.071,0.179,0.004,0.249l-7.255,7.447C38.533,59.177,38.487,59.195,38.441,59.195z  "/><path d="M38.441,59.195c-0.074,0-0.143-0.047-0.168-0.121c-0.03-0.092,0.021-0.192,0.113-0.222l18.838-6.214  c0.093-0.03,0.192,0.021,0.223,0.112c0.03,0.092-0.021,0.192-0.113,0.222l-18.838,6.214C38.478,59.192,38.459,59.195,38.441,59.195z  "/><path d="M55.513,39.851c-0.089,0-0.166-0.068-0.175-0.159L53.492,20.25c-0.01-0.097,0.062-0.182,0.158-0.192  c0.095-0.013,0.183,0.062,0.191,0.159l1.847,19.441c0.01,0.097-0.062,0.182-0.158,0.192C55.524,39.851,55.519,39.851,55.513,39.851z  "/><path d="M55.513,39.851c-0.026,0-0.054-0.006-0.078-0.019c-0.087-0.043-0.122-0.148-0.08-0.236l5.49-11.051  c0.045-0.086,0.153-0.12,0.236-0.079c0.087,0.043,0.122,0.148,0.08,0.236l-5.49,11.051C55.64,39.815,55.578,39.851,55.513,39.851z"/><path d="M47.848,32.408c-0.077,0-0.148-0.052-0.169-0.129c-0.026-0.094,0.029-0.19,0.122-0.216l13.154-3.608  c0.091-0.027,0.191,0.03,0.216,0.123c0.026,0.094-0.029,0.19-0.122,0.216l-13.154,3.608C47.88,32.406,47.863,32.408,47.848,32.408z"/><path d="M61.003,28.8c-0.062,0-0.121-0.032-0.154-0.09c-0.047-0.085-0.016-0.192,0.067-0.239l15.611-8.744  c0.087-0.05,0.191-0.018,0.24,0.067c0.047,0.085,0.016,0.192-0.067,0.239l-15.611,8.744C61.062,28.793,61.032,28.8,61.003,28.8z"/><path d="M64.971,21.848c-0.034,0-0.069-0.01-0.099-0.03L49.514,11.433c-0.08-0.054-0.102-0.164-0.047-0.244  c0.055-0.082,0.165-0.101,0.245-0.047L65.07,21.527c0.08,0.054,0.102,0.164,0.047,0.244C65.083,21.822,65.028,21.848,64.971,21.848z  "/><path d="M67.924,14.935c-0.011,0-0.022-0.001-0.033-0.003L49.58,11.46c-0.095-0.019-0.158-0.111-0.14-0.206  c0.018-0.096,0.11-0.162,0.206-0.14l18.311,3.472c0.095,0.019,0.158,0.111,0.14,0.206C68.081,14.876,68.007,14.935,67.924,14.935z"/><path d="M41.162,17.301c-0.007,0-0.014-0.001-0.021-0.001l-11.232-1.292c-0.096-0.011-0.165-0.098-0.154-0.194  c0.011-0.098,0.104-0.168,0.195-0.155l11.232,1.292c0.096,0.011,0.165,0.098,0.154,0.194C41.327,17.235,41.25,17.301,41.162,17.301z  "/><path d="M35.878,30.904c-0.06,0-0.118-0.031-0.151-0.087c-0.049-0.084-0.022-0.192,0.062-0.24l17.788-10.494  c0.082-0.052,0.19-0.021,0.24,0.062c0.049,0.084,0.022,0.192-0.062,0.24L35.968,30.879C35.94,30.896,35.909,30.904,35.878,30.904z"/><path d="M55.513,39.851c-0.014,0-0.027-0.001-0.041-0.005l-12.877-3.095c-0.095-0.023-0.153-0.117-0.129-0.212  c0.023-0.094,0.122-0.153,0.212-0.13l12.877,3.095c0.095,0.023,0.153,0.117,0.129,0.212C55.664,39.796,55.593,39.851,55.513,39.851z  "/><path d="M57.279,52.981c-0.047,0-0.093-0.019-0.128-0.055l-7.497-7.931c-0.067-0.071-0.063-0.182,0.007-0.249  c0.071-0.066,0.183-0.064,0.249,0.007l7.497,7.931c0.067,0.071,0.063,0.182-0.007,0.249C57.366,52.965,57.323,52.981,57.279,52.981z  "/><path d="M61.825,48.444c-0.093,0-0.172-0.074-0.176-0.168l-0.822-19.644c-0.004-0.098,0.071-0.179,0.169-0.183  c0.001,0,0.004,0,0.007,0c0.093,0,0.172,0.074,0.176,0.168L62,48.261c0.004,0.098-0.071,0.179-0.169,0.183  C61.83,48.444,61.827,48.444,61.825,48.444z"/><path d="M60.011,60.816c-0.008,0-0.016-0.001-0.026-0.002c-0.096-0.014-0.162-0.103-0.148-0.199l1.814-12.371  c0.014-0.096,0.091-0.164,0.201-0.148c0.096,0.014,0.162,0.103,0.148,0.199l-1.814,12.371  C60.171,60.752,60.097,60.816,60.011,60.816z"/><path d="M49.782,45.05c-0.049,0-0.099-0.021-0.133-0.061l-7.145-8.294c-0.063-0.074-0.055-0.185,0.018-0.248  c0.074-0.065,0.186-0.056,0.249,0.019l7.145,8.294c0.063,0.074,0.055,0.185-0.018,0.248C49.863,45.036,49.823,45.05,49.782,45.05z"/><path d="M42.636,36.756c-0.098,0-0.176-0.079-0.176-0.176V21.092c0-0.097,0.078-0.176,0.176-0.176c0.098,0,0.176,0.079,0.176,0.176  V36.58C42.812,36.677,42.734,36.756,42.636,36.756z"/><path d="M47.848,32.408c-0.004,0-0.01,0-0.015-0.001c-0.096-0.008-0.168-0.093-0.161-0.19l1.764-20.945  c0.008-0.092,0.085-0.161,0.176-0.161c0.004,0,0.01,0,0.015,0.001c0.096,0.008,0.168,0.093,0.161,0.19l-1.764,20.945  C48.016,32.338,47.939,32.408,47.848,32.408z"/><path d="M42.636,21.268c-0.022,0-0.045-0.004-0.067-0.013l-12.706-5.259c-0.089-0.038-0.132-0.14-0.095-0.23  c0.036-0.089,0.137-0.131,0.229-0.096l12.706,5.259c0.089,0.038,0.132,0.14,0.095,0.23C42.771,21.227,42.705,21.268,42.636,21.268z"/><path d="M35.878,30.904c-0.059,0-0.115-0.03-0.15-0.082L25.186,13.943c-0.051-0.082-0.026-0.191,0.056-0.243  c0.084-0.05,0.191-0.025,0.243,0.056l10.542,16.878c0.051,0.082,0.026,0.191-0.056,0.243C35.943,30.895,35.91,30.904,35.878,30.904z  "/><path d="M78.34,38.482c-0.041,0-0.084-0.014-0.117-0.045l-9.571-8.541c-0.073-0.065-0.08-0.176-0.015-0.248  c0.065-0.073,0.176-0.081,0.249-0.014l9.571,8.541c0.073,0.065,0.08,0.176,0.014,0.248C78.436,38.462,78.388,38.482,78.34,38.482z"/><path d="M78.684,45.756c-0.048,0-0.096-0.02-0.132-0.059c-0.065-0.072-0.058-0.183,0.015-0.248l7.309-6.522  c0.07-0.066,0.183-0.058,0.249,0.014c0.065,0.072,0.058,0.183-0.015,0.248L78.8,45.711C78.767,45.742,78.725,45.756,78.684,45.756z"/><text x="0" y="115" fill="#000000" font-size="5px" font-weight="bold" font-family="'Helvetica Neue', Helvetica, Arial-Unicode, Arial, Sans-serif">Created by Clockwise</text><text x="0" y="120" fill="#000000" font-size="5px" font-weight="bold" font-family="'Helvetica Neue', Helvetica, Arial-Unicode, Arial, Sans-serif">from the Noun Project</text></svg>