<svg xmlns="http://www.w3.org/2000/svg" xmlns:xlink="http://www.w3.org/1999/xlink" xml:space="preserve" version="1.1" style="shape-rendering:geometricPrecision;text-rendering:geometricPrecision;image-rendering:optimizeQuality;" viewBox="0 0 273 397.5" x="0px" y="0px" fill-rule="evenodd" clip-rule="evenodd"><defs><style type="text/css">
   
    .fil0 {fill:black;fill-rule:nonzero}
   
  </style></defs><g><path class="fil0" d="M20 308c0,13 -20,13 -20,0 0,-76 61,-137 136,-137 76,0 137,61 137,137 0,13 -20,13 -20,0 0,-65 -52,-117 -117,-117 -64,0 -116,52 -116,117z"/><path class="fil0" d="M136 0c43,0 78,35 78,78l0 6c0,43 -35,78 -78,78 -43,0 -78,-35 -78,-78l0 -6c0,-43 35,-78 78,-78zm0 20c-31,0 -58,26 -58,58l0 6c0,32 27,58 58,58 32,0 58,-26 58,-58l0 -6c0,-32 -26,-58 -58,-58z"/></g><text x="0" y="333" fill="#000000" font-size="5px" font-weight="bold" font-family="'Helvetica Neue', Helvetica, Arial-Unicode, Arial, Sans-serif">Created by Humantech</text><text x="0" y="338" fill="#000000" font-size="5px" font-weight="bold" font-family="'Helvetica Neue', Helvetica, Arial-Unicode, Arial, Sans-serif">from the Noun Project</text></svg>