<svg xmlns="http://www.w3.org/2000/svg" xmlns:xlink="http://www.w3.org/1999/xlink" version="1.1" x="0px" y="0px" viewBox="0 0 100 125" enable-background="new 0 0 100 100" xml:space="preserve"><path d="M97.837,6.409c-0.129-0.568-0.472-1.052-0.965-1.362l-4.748-2.985c-1.017-0.64-2.368-0.333-3.01,0.686l-1.978,3.146  L74.357,26.215V5.024c0-0.276-0.224-0.5-0.5-0.5H2.608c-0.276,0-0.5,0.224-0.5,0.5v73.875c0,0.065,0.013,0.13,0.039,0.19  c0.025,0.063,0.062,0.117,0.108,0.164l18.874,18.873c0.046,0.047,0.102,0.084,0.163,0.109c0.061,0.025,0.126,0.038,0.191,0.038  h52.375c0.276,0,0.5-0.224,0.5-0.5V44.946L95.578,11.2l1.978-3.145C97.866,7.562,97.967,6.977,97.837,6.409z M91.974,9.524  l-25.44,40.457l-1.765-1.109L90.21,8.415l1.15,0.724L91.974,9.524z M64.586,54.209l-2.784-1.75l0.235-4.123l1.776,1.117l0,0  l2.611,1.642l0,0l1.773,1.115L64.586,54.209z M61.736,53.6l1.85,1.162l-1.979,1.096L61.736,53.6z M63.923,48.34l-1.646-1.035  l25.44-40.458l1.646,1.035L63.923,48.34z M20.983,96.567L3.815,79.399h17.168V96.567z M73.357,97.274H21.983V78.899  c0-0.276-0.224-0.5-0.5-0.5H3.108V5.524h70.25v22.281L61.164,47.196c-0.002,0.004-0.002,0.008-0.005,0.012  c-0.021,0.036-0.033,0.076-0.045,0.118c-0.008,0.027-0.017,0.052-0.02,0.079c-0.001,0.01-0.006,0.019-0.007,0.029l-0.53,9.271  c-0.001,0.014,0.005,0.025,0.006,0.038c0,0.034,0.006,0.066,0.014,0.1s0.017,0.064,0.03,0.095c0.005,0.013,0.005,0.026,0.012,0.038  s0.02,0.017,0.026,0.027c0.036,0.054,0.08,0.099,0.134,0.136c0.015,0.01,0.025,0.023,0.041,0.031  c0.063,0.034,0.132,0.059,0.208,0.063c0.01,0.001,0.02,0.001,0.028,0.001c0.079,0,0.151-0.023,0.219-0.057  c0.008-0.004,0.016-0.002,0.023-0.006l3.507-1.94c0.002-0.001,0.003-0.002,0.005-0.003l4.613-2.553  c0.07-0.039,0.123-0.095,0.165-0.156c0.005-0.007,0.012-0.009,0.016-0.015l3.753-5.968V97.274z M69.024,51.548l-1.645-1.034  l25.44-40.457l1.646,1.035L69.024,51.548z M96.71,7.523l-1.711,2.722L92.145,8.45l-1.825-1.148c0,0-0.001,0-0.001,0L88.249,6  l1.711-2.721c0.348-0.552,1.084-0.717,1.632-0.372l4.748,2.985c0.267,0.168,0.452,0.43,0.522,0.737  C96.932,6.938,96.878,7.255,96.71,7.523z"/><path d="M12.045,17.233h54.187c0.276,0,0.5-0.224,0.5-0.5s-0.224-0.5-0.5-0.5H12.045c-0.276,0-0.5,0.224-0.5,0.5  S11.769,17.233,12.045,17.233z"/><path d="M12.045,27.233h54.187c0.276,0,0.5-0.224,0.5-0.5s-0.224-0.5-0.5-0.5H12.045c-0.276,0-0.5,0.224-0.5,0.5  S11.769,27.233,12.045,27.233z"/><path d="M12.045,37.233h54.187c0.276,0,0.5-0.224,0.5-0.5s-0.224-0.5-0.5-0.5H12.045c-0.276,0-0.5,0.224-0.5,0.5  S11.769,37.233,12.045,37.233z"/><path d="M49.233,56.233H12.045c-0.276,0-0.5,0.224-0.5,0.5s0.224,0.5,0.5,0.5h37.188c0.276,0,0.5-0.224,0.5-0.5  S49.509,56.233,49.233,56.233z"/><path d="M58.233,46.233H12.045c-0.276,0-0.5,0.224-0.5,0.5s0.224,0.5,0.5,0.5h46.188c0.276,0,0.5-0.224,0.5-0.5  S58.51,46.233,58.233,46.233z"/><text x="0" y="115" fill="#000000" font-size="5px" font-weight="bold" font-family="'Helvetica Neue', Helvetica, Arial-Unicode, Arial, Sans-serif">Created by Gacem Tachfin</text><text x="0" y="120" fill="#000000" font-size="5px" font-weight="bold" font-family="'Helvetica Neue', Helvetica, Arial-Unicode, Arial, Sans-serif">from the Noun Project</text></svg>