<svg xmlns:dc="http://purl.org/dc/elements/1.1/" xmlns:cc="http://creativecommons.org/ns#" xmlns:rdf="http://www.w3.org/1999/02/22-rdf-syntax-ns#" xmlns:svg="http://www.w3.org/2000/svg" xmlns="http://www.w3.org/2000/svg" xmlns:sodipodi="http://sodipodi.sourceforge.net/DTD/sodipodi-0.dtd" xmlns:inkscape="http://www.inkscape.org/namespaces/inkscape" version="1.1" x="0px" y="0px" viewBox="0 0 100 125"><g transform="translate(0,-952.36218)"><path style="text-indent:0;text-transform:none;direction:ltr;block-progression:tb;baseline-shift:baseline;color:#000000;enable-background:accumulate;" d="m 49.737525,959.38064 a 1.000046,1.000154 0 0 0 -0.68899,0.65625 l -10.26925,30.84389 -32.8747304,0 a 1.000046,1.000154 0 0 0 -0.59056,1.80469 l 26.7066104,19.52353 -10.26925,31.8611 a 1.000046,1.000154 0 0 0 1.54203,1.1156 l 26.70661,-19.5235 26.70662,19.5235 a 1.000046,1.000154 0 0 0 1.54203,-1.1156 l -10.26925,-31.8611 26.70661,-19.52353 a 1.000046,1.000154 0 0 0 -0.59056,-1.80469 l -32.87473,0 -10.26925,-30.84389 a 1.000046,1.000154 0 0 0 -1.21394,-0.65625 z m 0.26247,4.1672 9.54746,28.64544 a 1.000046,1.000154 0 0 0 0.95146,0.65626 l 30.54528,0 -24.8365,18.14536 a 1.000046,1.000154 0 0 0 -0.3609,1.1156 l 9.54746,29.6299 -24.80369,-18.1454 a 1.000046,1.000154 0 0 0 -1.18113,0 l -24.80369,18.1454 9.54745,-29.6299 a 1.000046,1.000154 0 0 0 -0.3609,-1.1156 l -24.8364905,-18.14536 30.5452805,0 a 1.000046,1.000154 0 0 0 0.95146,-0.65626 l 9.54745,-28.64544 z" fill="#000000" fill-opacity="1" fill-rule="evenodd" stroke="none" marker="none" visibility="visible" display="inline" overflow="visible"/></g><text x="0" y="115" fill="#000000" font-size="5px" font-weight="bold" font-family="'Helvetica Neue', Helvetica, Arial-Unicode, Arial, Sans-serif">Created by AliWijaya</text><text x="0" y="120" fill="#000000" font-size="5px" font-weight="bold" font-family="'Helvetica Neue', Helvetica, Arial-Unicode, Arial, Sans-serif">from the Noun Project</text></svg>