<svg xmlns="http://www.w3.org/2000/svg" xmlns:xlink="http://www.w3.org/1999/xlink" version="1.1" x="0px" y="0px" viewBox="0 0 100 125" enable-background="new 0 0 100 100" xml:space="preserve"><g><path d="M94,90.8c-0.6,0-1,0.5-1,1v1.1H82.4v-1.1c0-0.6-0.5-1-1-1s-1,0.5-1,1v1.1H69.8v-1.1c0-0.6-0.5-1-1-1s-1,0.5-1,1v1.1H57.3   v-1.1c0-0.6-0.5-1-1-1s-1,0.5-1,1v1.1H44.7v-1.1c0-0.6-0.5-1-1-1c-0.6,0-1,0.5-1,1v1.1H32.2v-1.1c0-0.6-0.5-1-1-1c-0.6,0-1,0.5-1,1   v1.1H19.6v-1.1c0-0.6-0.5-1-1-1c-0.6,0-1,0.5-1,1v1.1H7.7l10.2-20.5c0.2,0,0.4,0.1,0.7,0.1c1,0,2-0.4,2.6-1.1l6.3,3.3   c-0.1,0.2-0.1,0.5-0.1,0.8c0,2,1.7,3.7,3.7,3.7c2,0,3.7-1.7,3.7-3.7c0-0.7-0.2-1.3-0.5-1.8l20.1-20.4c0.5,0.3,1.1,0.4,1.8,0.4   c0.9,0,1.7-0.3,2.3-0.8l6.7,4.8c-0.1,0.4-0.2,0.8-0.2,1.2c0,2,1.7,3.7,3.7,3.7s3.7-1.7,3.7-3.7c0-1.3-0.7-2.4-1.7-3.1l10.4-33.5   h0.1c2,0,3.7-1.7,3.7-3.7c0-2-1.7-3.7-3.7-3.7s-3.7,1.7-3.7,3.7c0,1.3,0.7,2.4,1.7,3.1L68.8,55.2h-0.1c-0.9,0-1.7,0.3-2.3,0.8   l-6.7-4.8c0.1-0.4,0.2-0.8,0.2-1.2c0-2-1.7-3.7-3.7-3.7c-2,0-3.7,1.7-3.7,3.7c0,0.7,0.2,1.3,0.5,1.8L32.9,72.2   c-0.5-0.3-1.1-0.4-1.8-0.4c-1,0-2,0.4-2.7,1.1l-6.3-3.3c0-0.2,0.1-0.5,0.1-0.8c0-2-1.7-3.7-3.7-3.7c-2,0-3.7,1.7-3.7,3.7   c0,1.1,0.5,2,1.2,2.7v0l-9,18v-7.1h1.1c0.6,0,1-0.5,1-1c0-0.6-0.5-1-1-1H7.1V69.8h1.1c0.6,0,1-0.5,1-1c0-0.6-0.5-1-1-1H7.1V57.3   h1.1c0.6,0,1-0.5,1-1c0-0.6-0.5-1-1-1H7.1V44.7h1.1c0.6,0,1-0.5,1-1c0-0.6-0.5-1-1-1H7.1V32.2h1.1c0.6,0,1-0.5,1-1c0-0.6-0.5-1-1-1   H7.1V19.6h1.1c0.6,0,1-0.5,1-1c0-0.6-0.5-1-1-1H7.1V7.1h1.1c0.6,0,1-0.5,1-1c0-0.6-0.5-1-1-1H6C5.5,5,5.1,5.4,5,5.9   C5,5.9,5,6,5,6.1v87.8c0,0.1,0,0.2,0,0.3c0,0.1,0,0.1,0.1,0.2c0,0,0,0,0,0.1c0,0,0,0.1,0.1,0.1c0,0.1,0.1,0.1,0.2,0.2   c0.1,0.1,0.1,0.1,0.2,0.1c0,0,0,0,0,0h0c0.1,0,0.1,0.1,0.2,0.1c0.1,0,0.1,0,0.2,0h88c0.1,0,0.1,0,0.2,0c0.1,0,0.3-0.1,0.4-0.2   c0.1-0.1,0.1-0.1,0.2-0.2c0-0.1,0.1-0.1,0.1-0.2c0-0.1,0.1-0.1,0.1-0.2c0-0.1,0.1-0.2,0.1-0.3v-2.1C95,91.3,94.5,90.8,94,90.8z    M81.3,17c0.9,0,1.6,0.7,1.6,1.6c0,0.7-0.4,1.3-1,1.5c-0.2,0.1-0.4,0.1-0.6,0.1c-0.6,0-1.1-0.3-1.4-0.7c-0.2-0.3-0.3-0.6-0.3-0.9   C79.7,17.7,80.4,17,81.3,17z M68.8,57.3c0.6,0,1.1,0.3,1.4,0.7c0.2,0.3,0.3,0.6,0.3,0.9c0,0.9-0.7,1.6-1.6,1.6   c-0.9,0-1.6-0.7-1.6-1.5c0,0,0-0.1,0-0.1C67.1,58,67.9,57.3,68.8,57.3z M56.2,48.3c0.9,0,1.6,0.7,1.6,1.5c0,0,0,0.1,0,0.1   c0,0.8-0.5,1.4-1.2,1.6c-0.1,0-0.3,0.1-0.4,0.1c-0.1,0-0.1,0-0.2,0c-0.8-0.1-1.4-0.7-1.5-1.4c0-0.1,0-0.1,0-0.2   C54.6,49.1,55.3,48.3,56.2,48.3z M30.5,74c0.2-0.1,0.4-0.1,0.6-0.1c0.1,0,0.1,0,0.1,0c0.8,0.1,1.4,0.7,1.5,1.5c0,0.1,0,0.1,0,0.2   c0,0.9-0.7,1.6-1.6,1.6c-0.8,0-1.5-0.6-1.6-1.3c0-0.1,0-0.2,0-0.3C29.5,74.8,29.9,74.2,30.5,74z M18.6,67.2c0.8,0,1.4,0.6,1.6,1.3   v0c0,0.1,0,0.2,0,0.3c0,0.7-0.4,1.3-1,1.5c-0.1,0-0.2,0.1-0.3,0.1c-0.1,0-0.2,0-0.4,0c-0.7,0-1.2-0.4-1.5-1   c-0.1-0.2-0.1-0.4-0.1-0.7C16.9,67.9,17.7,67.2,18.6,67.2z"/></g><text x="0" y="115" fill="#000000" font-size="5px" font-weight="bold" font-family="'Helvetica Neue', Helvetica, Arial-Unicode, Arial, Sans-serif">Created by Garrett Knoll</text><text x="0" y="120" fill="#000000" font-size="5px" font-weight="bold" font-family="'Helvetica Neue', Helvetica, Arial-Unicode, Arial, Sans-serif">from the Noun Project</text></svg>