<svg xmlns="http://www.w3.org/2000/svg" xmlns:xlink="http://www.w3.org/1999/xlink" version="1.1" x="0px" y="0px" viewBox="0 0 64 80" style="enable-background:new 0 0 64 64;" xml:space="preserve"><path d="M3,55h6h46c0.286,0,0.559-0.123,0.748-0.336s0.279-0.499,0.245-0.783L54.687,43H61c0.553,0,1-0.448,1-1V28  c0-0.413-0.254-0.783-0.639-0.932l-9.377-3.638l3.722-3.722l3.5-3.5c1.769-1.769,1.769-4.646,0-6.414  c-1.768-1.769-4.646-1.769-6.414,0l-3.5,3.5l-6.081,6.081l-4.782-2.277c-0.38-0.183-0.838-0.103-1.137,0.196L26.586,28H16h-3.537  c-1.312,0-2.462,0.84-2.859,2.091l-6.37,20.032C2.476,50.851,2,51.869,2,53v1C2,54.552,2.447,55,3,55z M4.719,51.477  c0.006-0.004,0.012-0.006,0.018-0.01c0.179-0.147,0.445-0.314,0.785-0.402c0.016-0.004,0.031-0.011,0.048-0.015  c0.069-0.016,0.147-0.02,0.221-0.028c0.061-0.006,0.12-0.018,0.182-0.018c0.478,0.017,0.952,0.191,1.331,0.561  C7.699,51.95,7.933,52.466,7.98,53H4C4,52.387,4.283,51.844,4.719,51.477z M60,28.685V41h-6.44H34c-0.36,0-0.707-0.101-1.033-0.299  c-0.271-0.165-0.506-0.403-0.723-0.77c-0.058-0.107-0.104-0.221-0.139-0.334c-0.002-0.005-0.038-0.118-0.04-0.124  C32.021,39.296,32,39.142,32,39c0-1.103,0.897-2,2-2h4h9c0.347,0,0.668-0.18,0.851-0.474c0.183-0.295,0.199-0.663,0.044-0.973  l-2.678-5.355l5.223-5.223L60,28.685z M27.248,44.663l-3.789,1.624l1.083-4.331L27.248,44.663z M43.726,31.688L45.382,35h-4.968  L43.726,31.688z M49.486,23.1l-6.193,6.193L37.586,35H34c-2.206,0-4,1.794-4,4c0,0.188,0.021,0.38,0.052,0.575  c0.016,0.109,0.037,0.215,0.062,0.322c0.004,0.018,0.006,0.036,0.01,0.054c0.015,0.062,0.035,0.126,0.065,0.219  c0.163,0.529,0.421,1.021,0.786,1.439L29,43.586L25.414,40l4.293-4.293L50,15.414L53.586,19L49.486,23.1z M54.207,11.207  c0.988-0.988,2.598-0.988,3.586,0c0.988,0.989,0.988,2.597,0,3.586L55,17.586L51.414,14L54.207,11.207z M38.208,19.207l3.503,1.668  L28.293,34.293c-0.713,0.713-1.873,0.713-2.586,0c-0.089-0.089-0.166-0.184-0.233-0.285c-0.01-0.015-0.016-0.032-0.025-0.047  c-0.054-0.088-0.105-0.178-0.143-0.272c-0.005-0.013-0.007-0.026-0.012-0.039c-0.037-0.098-0.069-0.198-0.089-0.301  c-0.004-0.022-0.003-0.046-0.007-0.068c-0.029-0.187-0.029-0.377,0-0.564c0.003-0.022,0.002-0.046,0.007-0.068  c0.02-0.102,0.052-0.202,0.089-0.301c0.005-0.013,0.007-0.026,0.012-0.039c0.038-0.094,0.088-0.184,0.143-0.272  c0.009-0.015,0.015-0.032,0.025-0.047c0.067-0.101,0.144-0.196,0.233-0.285L38.208,19.207z M24.293,30.293  c-1.493,1.493-1.493,3.921,0,5.414c0.214,0.215,0.452,0.39,0.7,0.542c0.077,0.047,0.157,0.083,0.236,0.124  c0.179,0.094,0.361,0.175,0.55,0.238c0.047,0.016,0.089,0.045,0.136,0.059l-2.622,2.622c-0.001,0.001-0.001,0.003-0.002,0.004  c-0.082,0.083-0.144,0.183-0.193,0.29c-0.013,0.029-0.024,0.057-0.034,0.086c-0.01,0.029-0.026,0.054-0.033,0.084l-2,8  c-0.093,0.369,0.032,0.758,0.321,1.004C21.536,48.918,21.767,49,22,49c0.133,0,0.268-0.026,0.394-0.081l6.988-2.995  c0.001,0,0.002-0.001,0.002-0.001l0.01-0.004c0.107-0.046,0.198-0.114,0.281-0.19c0.01-0.009,0.023-0.012,0.033-0.022l2.947-2.947  c0.035,0.013,0.073,0.017,0.108,0.029c0.141,0.047,0.284,0.085,0.428,0.116c0.063,0.013,0.124,0.029,0.187,0.04  C33.584,42.978,33.791,43,34,43h18.673l1.2,10H10.318l6.44-23h7.827L24.293,30.293z M5.995,49c-0.03,0-0.06,0-0.09,0.001  c-0.074,0.001-0.146,0.005-0.22,0.011l5.824-18.316C11.643,30.28,12.025,30,12.463,30h2.219L8.981,50.359  c-0.578-0.652-1.356-1.118-2.247-1.285c-0.053-0.011-0.109-0.008-0.163-0.016C6.383,49.03,6.195,49,6,49c-0.001,0-0.002,0-0.002,0  S5.996,49,5.995,49z"/><rect x="8.159" y="39" transform="matrix(0.2676 -0.9635 0.9635 0.2676 -25.7245 46.1558)" width="18.682" height="2.001"/><text x="0" y="79" fill="#000000" font-size="5px" font-weight="bold" font-family="'Helvetica Neue', Helvetica, Arial-Unicode, Arial, Sans-serif">Created by Becris</text><text x="0" y="84" fill="#000000" font-size="5px" font-weight="bold" font-family="'Helvetica Neue', Helvetica, Arial-Unicode, Arial, Sans-serif">from the Noun Project</text></svg>