<svg xmlns="http://www.w3.org/2000/svg" xmlns:xlink="http://www.w3.org/1999/xlink" version="1.1" x="0px" y="0px" viewBox="0 0 1024 1280" style="enable-background:new 0 0 1024 1024;" xml:space="preserve"><g><g><g><path d="M777,364.5c0-24.8,0-49.5,0-74.3c0-8.6-4.7-17.4-12.4-21.6c-56.2-31.1-117.5-50.2-181.2-57.4     c-61-6.9-123.9-1.3-182.9,15.8c-34.7,10-68.3,24.2-99.9,41.6c-7.7,4.2-12.4,12.9-12.4,21.6c0,24.8,0,49.5,0,74.3     c12.5-7.2,25.1-14.4,37.6-21.6c-18.9-9.7-37.9-19.4-56.8-29c-30.3-15.5-60.7-31-91-46.5c-6.9-3.5-13.8-7.1-20.8-10.6     c0,14.4,0,28.8,0,43.2c12.9-6.6,25.8-13.2,38.8-19.8c30.9-15.8,61.7-31.6,92.6-47.3c37.3-19.1,74.6-38.2,112-57.2     c32.3-16.5,64.5-33,96.8-49.5c15.7-8,31.7-15.6,47.2-24.1c0.2-0.1,0.5-0.2,0.7-0.4c-8.4,0-16.8,0-25.2,0     c12.9,6.6,25.8,13.2,38.8,19.8c30.9,15.8,61.7,31.6,92.6,47.3c37.3,19.1,74.6,38.2,112,57.2c32.3,16.5,64.5,33,96.8,49.5     c15.7,8,31.2,16.6,47.2,24.1c0.2,0.1,0.5,0.2,0.7,0.4c0-14.4,0-28.8,0-43.2c-18.9,9.7-37.9,19.4-56.8,29     c-30.3,15.5-60.7,31-91,46.5c-6.9,3.5-13.8,7.1-20.8,10.6c-11.7,6-16,23.3-9,34.2c7.7,11.9,21.7,15.3,34.2,9     c18.9-9.7,37.9-19.4,56.8-29c30.3-15.5,60.7-31,91-46.5c6.9-3.5,13.8-7.1,20.8-10.6c16.3-8.3,16.3-34.8,0-43.2     c-12.9-6.6-25.8-13.2-38.8-19.8c-31-15.9-62-31.7-93-47.6c-37.6-19.2-75.2-38.5-112.8-57.7c-32.2-16.5-64.5-33-96.7-49.4     c-15.4-7.9-30.6-16.1-46.1-23.6c-9-4.4-17.3-4.4-26.3,0c-1.7,0.8-3.4,1.7-5,2.6c-8,4.1-15.9,8.1-23.9,12.2     c-29.2,14.9-58.5,29.9-87.7,44.8c-37.3,19.1-74.5,38.1-111.8,57.2c-33.8,17.3-67.6,34.5-101.4,51.8     c-18.4,9.4-36.7,18.8-55.1,28.2c-0.8,0.4-1.7,0.9-2.5,1.3c-16.3,8.3-16.3,34.8,0,43.2c18.9,9.7,37.9,19.4,56.8,29     c30.3,15.5,60.7,31,91,46.5c6.9,3.5,13.8,7.1,20.8,10.6c16.6,8.5,37.6-1.8,37.6-21.6c0-24.8,0-49.5,0-74.3     c-4.1,7.2-8.3,14.4-12.4,21.6c13.4-7.4,27.1-14.1,41.1-20.2c5.7-2.5-5.1,2,0.7-0.3c1.7-0.7,3.4-1.4,5.1-2     c2.8-1.1,5.6-2.2,8.5-3.3c7.3-2.7,14.8-5.3,22.2-7.7c13.7-4.3,27.7-8,41.7-11c7-1.5,14.1-2.8,21.1-4c3.5-0.6,7.1-1.5,10.6-1.6     c-7,0.3-1.1,0.1,0.4,0c2.4-0.3,4.7-0.6,7.1-0.8c28.4-3,57.1-3.4,85.6-1c7,0.6,14.4,0.9,21.3,2.3c-7-1.3-1-0.1,0.4,0.1     c1.8,0.3,3.5,0.5,5.3,0.8c4.1,0.7,8.2,1.4,12.4,2.1c14.1,2.7,28.1,6,41.9,10c15.7,4.5,31,10,46.1,16.1c5.8,2.3-5-2.2,0.7,0.3     c2.2,1,4.5,1.9,6.7,2.9c3.9,1.7,7.8,3.5,11.6,5.4c7.7,3.7,15.3,7.7,22.8,11.8c-4.1-7.2-8.3-14.4-12.4-21.6c0,24.8,0,49.5,0,74.3     c0,13.1,11.5,25.6,25,25C765.6,388.9,777,378.5,777,364.5z"/></g></g><g><g><path d="M727,290.3c0,22.7,0,45.3,0,68c0,36.3,0,72.7,0,109c0,8.3,0,16.6,0,24.9c8.3-8.3,16.7-16.7,25-25     c-14.6,0-29.2,0-43.9,0c-34.8,0-69.5,0-104.3,0c-42.4,0-84.7,0-127.1,0c-36.5,0-73,0-109.5,0c-17.7,0-35.6-0.6-53.3,0     c-0.3,0-0.5,0-0.8,0c8.3,8.3,16.7,16.7,25,25c0-22.7,0-45.3,0-68c0-36.3,0-72.7,0-109c0-8.3,0-16.6,0-24.9     c-4.1,7.2-8.3,14.4-12.4,21.6c13.4-7.4,27.1-14.1,41.1-20.2c5.7-2.5-5.1,2,0.7-0.3c1.7-0.7,3.4-1.4,5.1-2     c2.8-1.1,5.6-2.2,8.5-3.3c7.3-2.7,14.8-5.3,22.2-7.7c13.7-4.3,27.7-8,41.7-11c7-1.5,14.1-2.8,21.1-4c3.5-0.6,7.1-1.5,10.6-1.6     c-7,0.3-1.1,0.1,0.4,0c2.4-0.3,4.7-0.6,7.1-0.8c28.4-3,57.1-3.4,85.6-1c7,0.6,14.4,0.9,21.3,2.3c-7-1.3-1-0.1,0.4,0.1     c1.8,0.3,3.5,0.5,5.3,0.8c4.1,0.7,8.2,1.4,12.4,2.1c14.1,2.7,28.1,6,41.9,10c15.7,4.5,31,10,46.1,16.1c5.8,2.3-5-2.2,0.7,0.3     c2.2,1,4.5,1.9,6.7,2.9c3.9,1.7,7.8,3.5,11.6,5.4c7.7,3.7,15.3,7.7,22.8,11.8c11.4,6.3,27.8,3.2,34.2-9c6.2-11.7,3.3-27.4-9-34.2     c-56.2-31.1-117.5-50.2-181.2-57.4c-61-6.9-123.9-1.3-182.9,15.8c-34.7,10-68.3,24.2-99.9,41.6c-7.7,4.2-12.4,12.9-12.4,21.6     c0,22.7,0,45.3,0,68c0,36.3,0,72.7,0,109c0,8.3,0,16.6,0,24.9c0,13.5,11.5,25,25,25c14.6,0,29.2,0,43.9,0c34.8,0,69.5,0,104.3,0     c42.4,0,84.7,0,127.1,0c36.5,0,73,0,109.5,0c17.7,0,35.5,0.4,53.3,0c0.3,0,0.5,0,0.8,0c13.5,0,25-11.5,25-25c0-22.7,0-45.3,0-68     c0-36.3,0-72.7,0-109c0-8.3,0-16.6,0-24.9c0-13.1-11.5-25.6-25-25C738.5,265.9,727,276.3,727,290.3z"/></g></g><g><g><path d="M119.7,278.3c0,37.5,0,75.1,0,112.6c0,5.3,0,10.6,0,16c0,13.1,11.5,25.6,25,25c13.5-0.6,25-11,25-25     c0-37.5,0-75.1,0-112.6c0-5.3,0-10.6,0-16c0-13.1-11.5-25.6-25-25C131.1,253.9,119.7,264.3,119.7,278.3L119.7,278.3z"/></g></g><g><g><path d="M909.2,773.3c0,31.7,0,63.4,0,95.1c0,18.4,0,36.8,0,55.2c0,3.6-0.4,7.4,0,10.9     c-0.5-4.6,3.8-11.2,8.1-13.6c0.4-0.2,6.7-2.7,7.5-1.9c-0.1-0.1-0.8,0-0.9,0c-13.1-0.8-26.4,0-39.5,0c-28.8,0-57.5,0-86.3,0     c-39,0-78,0-117.1,0c-44.4,0-88.8,0-133.2,0c-44.5,0-89,0-133.4,0c-39.3,0-78.5,0-117.8,0c-29.2,0-58.3,0-87.5,0     c-13.7,0-27.4-0.4-41.1,0c-0.4,0-0.8,0-1.1,0c6.5-0.7,17,7.7,15.5,15.7c0.6-2.8,0-6.2,0-9.1c0-17.8,0-35.6,0-53.3     c0-21.6,0-43.2,0-64.9c0-7.8,0-15.7,0-23.5c0-2.4,0-4.8,0-7.2c0-0.7,0.4-2.7,0-3.3c0,0,0-0.1,0-0.1c1.1,6.4-6.1,13.7-11.7,15.2     c-20,5.2-4.9,0.4-3.8,0.5c0.3,0,0.7,0,1,0c1.6,0.1,3.2,0,4.8,0c6.8,0,13.5,0,20.3,0c25.4,0,50.8,0,76.2,0c37,0,74,0,110.9,0     c43.6,0,87.2,0,130.8,0c44.9,0,89.9,0,134.8,0c41.1,0,82.2,0,123.3,0c32,0,64,0,95.9,0c17.9,0,35.8,0,53.7,0c1.6,0,3.3,0.1,4.9,0     c0.3,0,0.8,0.1,1.1,0c0,0,0.2,0,0.2,0c0-0.1,69.4,9.9-2-0.2C915.1,787.6,909.7,781,909.2,773.3c1,13,10.8,25.6,25,25     c12.7-0.6,26-11,25-25c-1.4-19.1-14.7-33.6-34.3-34.3c-0.2,0-0.4,0-0.6,0c-1.3,0-2.7,0-4,0c-6.4,0-12.9,0-19.3,0     c-25.5,0-50.9,0-76.4,0c-37.5,0-75.1,0-112.6,0c-44.4,0-88.8,0-133.3,0c-45.6,0-91.1,0-136.7,0c-41.4,0-82.9,0-124.3,0     c-31.9,0-63.9,0-95.8,0c-17,0-34,0-51.1,0c-1.3,0-2.5,0-3.8,0c-19.2,0.6-34.2,15-34.7,34.4c-0.3,11.2,0,22.4,0,33.6     c0,39.9,0,79.7,0,119.6c0,3.2-0.1,6.3,0.1,9.5c1.1,18.9,16.2,32.5,34.9,32.9c4.1,0.1,8.2,0,12.3,0c21.6,0,43.3,0,64.9,0     c35.1,0,70.2,0,105.3,0c43.1,0,86.2,0,129.4,0c45.9,0,91.8,0,137.7,0c42.9,0,85.9,0,128.8,0c34.8,0,69.7,0,104.5,0     c21.1,0,42.1,0,63.2,0c3.7,0,7.5,0.1,11.2,0c19.2-0.4,34.1-15.2,34.7-34.4c0.1-3.5,0-7,0-10.5c0-40.2,0-80.5,0-120.7     c0-10,0-20,0-30c0-13.1-11.5-25.6-25-25C920.6,748.9,909.2,759.3,909.2,773.3z"/></g></g><g><g><path d="M831.7,622.8c0,31.8,0,63.7,0,95.5c0,8.2,0,16.5,0,24.7c0,3.6-0.5,7.5,0,11.1c-1-7.5,8.2-16.5,15.6-15.6     c-0.3,0-0.6,0-0.9,0c-1.5-0.1-3,0-4.5,0c-16.6,0-33.2,0-49.7,0c-30,0-59.9,0-89.9,0c-38.7,0-77.4,0-116.1,0     c-42.8,0-85.6,0-128.3,0c-42.2,0-84.4,0-126.7,0c-37,0-74.1,0-111.1,0c-27.2,0-54.4,0-81.6,0c-12.7,0-25.4-0.4-38.1,0     c-0.3,0-0.7,0-1.1,0c6.8-0.8,16.9,7.8,15.5,15.7c0.5-3.1,0-6.8,0-10c0-18.4,0-36.8,0-55.2c0-18.5,0-37.1,0-55.6     c0-0.6,0.3-10.5,0-10.5c0.9,0.1-2.1,7.8-1.9,7.5c-2.6,4-8.5,9-13.8,8.1c0,0,0.1,0,0.1,0c0.1,0.1,0.8,0,1,0     c12.6,0.6,25.3,0,37.9,0c27.1,0,54.3,0,81.4,0c37,0,74,0,111,0c42.2,0,84.4,0,126.6,0c42.6,0,85.2,0,127.9,0     c38.7,0,77.5,0,116.2,0c30,0,60.1,0,90.1,0c16.7,0,33.4,0,50.1,0c1.5,0,3,0.1,4.5,0c0.3,0,0.8,0.1,1.1,0c0,0,0.2,0,0.2,0     c0,0,0,0,0,0c0.4-0.1,124.6,17.8-2-0.2C837.6,637.1,832.3,630.4,831.7,622.8c1,13,10.8,25.6,25,25c12.7-0.6,26-11,25-25     c-1.4-19.1-14.7-33.6-34.3-34.3c-0.2,0-0.3,0-0.5,0c-1.2,0-2.5,0-3.7,0c-6,0-12,0-18,0c-23.7,0-47.5,0-71.2,0     c-35.2,0-70.5,0-105.7,0c-41.9,0-83.8,0-125.7,0c-43.9,0-87.8,0-131.7,0c-40.8,0-81.6,0-122.5,0c-32.7,0-65.4,0-98.2,0     c-20,0-39.9,0-59.9,0c-3.6,0-7.2-0.1-10.8,0c-19.2,0.4-34.2,15.1-34.7,34.3c-0.1,3.4,0,6.9,0,10.3c0,37.3,0,74.6,0,111.9     c0,3.5-0.1,7.1,0.1,10.6c1.1,18.7,16.1,32.6,34.7,32.9c3.8,0.1,7.5,0,11.3,0c20.1,0,40.2,0,60.3,0c33,0,66,0,98.9,0     c40.7,0,81.5,0,122.2,0c43.9,0,87.8,0,131.7,0c42,0,84,0,126,0c35.1,0,70.2,0,105.3,0c23.5,0,47.1,0,70.6,0c5.8,0,11.7,0,17.5,0     c1.2,0,2.4,0,3.5,0c19.3-0.6,34-15.1,34.7-34.4c0.4-11.9,0-23.9,0-35.8c0-21.1,0-42.2,0-63.2c0-10.8,0-21.5,0-32.3     c0-13.1-11.5-25.6-25-25C843.1,598.4,831.7,608.8,831.7,622.8z"/></g></g><g><g><path d="M263.1,867.8c0.4,0,0.8,0,1.2,0.1c-2.2-0.3-4.4-0.6-6.6-0.9c0.2,0,2.3,0.3,2.3,0.5     c-1.3-0.5-2.6-1-3.9-1.6c-3.3-2.8-4.2-3.5-2.8-2.1c0.9,0.9,0.6,0.5-0.9-1.2c-1-1-1.7-2.2-2.1-3.5c-1.7-4.1-0.5-0.7-0.3,0.4     c-0.3-2.2-0.6-4.4-0.9-6.6c0.1,0.8,0.1,1.6,0,2.4c0.3-2.2,0.6-4.4,0.9-6.6c0,0.2-0.3,2.3-0.5,2.3c0.5-1.3,1-2.6,1.6-3.9     c2.8-3.3,3.5-4.2,2.1-2.8c-0.9,0.9-0.5,0.6,1.2-0.9c1-1,2.2-1.7,3.5-2.1c4.1-1.7,0.7-0.5-0.4-0.3c2.2-0.3,4.4-0.6,6.6-0.9     c-0.8,0.1-1.6,0.1-2.4,0c2.2,0.3,4.4,0.6,6.6,0.9c-0.2,0-2.3-0.3-2.3-0.5c1.3,0.5,2.6,1,3.9,1.6c3.3,2.8,4.2,3.5,2.8,2.1     c-0.9-0.9-0.6-0.5,0.9,1.2c1,1,1.7,2.2,2.1,3.5c1.7,4.1,0.5,0.7,0.3-0.4c0.3,2.2,0.6,4.4,0.9,6.6c-0.1-0.8-0.1-1.6,0-2.4     c-0.3,2.2-0.6,4.4-0.9,6.6c0-0.2,0.3-2.3,0.5-2.3c-0.5,1.3-1,2.6-1.6,3.9c-2.8,3.3-3.5,4.2-2.1,2.8c0.9-0.9,0.5-0.6-1.2,0.9     c-1,1-2.2,1.7-3.5,2.1c-4.1,1.7-0.7,0.5,0.4,0.3c-2.2,0.3-4.4,0.6-6.6,0.9C262.3,867.8,262.7,867.8,263.1,867.8     c13-0.7,25.6-11,25-25c-0.6-12.9-11-25.8-25-25c-19.6,1.1-36.2,15.8-36.2,36.2c0,20,16.6,35.7,36.2,36.2     c19.6,0.5,35.7-16.5,36.2-35.6c0.2-9.3-3.6-19.2-10.2-25.8c-7.2-7.2-16-10.5-26-11c-13.1-0.7-25.6,12-25,25     C238.7,857,249.1,867.1,263.1,867.8z"/></g></g><g><g><path d="M828.3,944c0-20.2,0-40.4,0-60.6c0-32.4,0-64.8,0-97.2c0-7.4,0-14.8,0-22.2c0-13.1-11.5-25.6-25-25     c-13.5,0.6-25,11-25,25c0,20.2,0,40.4,0,60.6c0,32.4,0,64.8,0,97.2c0,7.4,0,14.8,0,22.2c0,13.1,11.5,25.6,25,25     C816.8,968.4,828.3,958,828.3,944L828.3,944z"/></g></g><g><g><path d="M184.8,613.5c0,43.8,0,87.5,0,131.3c0,6.3,0,12.5,0,18.8c0,13.1,11.5,25.6,25,25c13.5-0.6,25-11,25-25     c0-43.8,0-87.5,0-131.3c0-6.3,0-12.5,0-18.8c0-13.1-11.5-25.6-25-25C196.3,589.1,184.8,599.5,184.8,613.5L184.8,613.5z"/></g></g><g><g><path d="M761.7,763.5c0-43.8,0-87.5,0-131.3c0-6.3,0-12.5,0-18.8c0-13.1-11.5-25.6-25-25c-13.5,0.6-25,11-25,25     c0,43.8,0,87.5,0,131.3c0,6.3,0,12.5,0,18.8c0,13.1,11.5,25.6,25,25C750.2,787.9,761.7,777.5,761.7,763.5L761.7,763.5z"/></g></g></g><text x="0" y="1039" fill="#000000" font-size="5px" font-weight="bold" font-family="'Helvetica Neue', Helvetica, Arial-Unicode, Arial, Sans-serif">Created by shashank singh</text><text x="0" y="1044" fill="#000000" font-size="5px" font-weight="bold" font-family="'Helvetica Neue', Helvetica, Arial-Unicode, Arial, Sans-serif">from the Noun Project</text></svg>