<svg xmlns:x="http://ns.adobe.com/Extensibility/1.0/" xmlns:i="http://ns.adobe.com/AdobeIllustrator/10.0/" xmlns:graph="http://ns.adobe.com/Graphs/1.0/" xmlns="http://www.w3.org/2000/svg" xmlns:xlink="http://www.w3.org/1999/xlink" xmlns:a="http://ns.adobe.com/AdobeSVGViewerExtensions/3.0/" version="1.1" x="0px" y="0px" viewBox="0 0 100 125" enable-background="new 0 0 100 100" xml:space="preserve"><metadata><?xpacket begin="&#65279;" id="W5M0MpCehiHzreSzNTczkc9d"?><x:xmpmeta xmlns:x="adobe:ns:meta/" x:xmptk="Adobe XMP Core 5.5-c014 79.151739, 2013/04/03-12:12:15        "/><?xpacket end="w"?></metadata><path d="M49.25,12.5v5c0,0.4140625,0.3359375,0.75,0.75,0.75s0.75-0.3359375,0.75-0.75v-5c0-0.4140625-0.3359375-0.75-0.75-0.75  S49.25,12.0859375,49.25,12.5z"/><path d="M17.5,45.75h5c0.4140625,0,0.75-0.3359375,0.75-0.75s-0.3359375-0.75-0.75-0.75h-5c-0.4140625,0-0.75,0.3359375-0.75,0.75  S17.0859375,45.75,17.5,45.75z"/><path d="M77.5,45.75h5c0.4140625,0,0.75-0.3359375,0.75-0.75s-0.3359375-0.75-0.75-0.75h-5c-0.4140625,0-0.75,0.3359375-0.75,0.75  S77.0859375,45.75,77.5,45.75z"/><path d="M69.4453125,26.3046875c0.1918945,0,0.3837891-0.0732422,0.5302734-0.2197266l3.5356445-3.5356445  c0.2929688-0.2929688,0.2929688-0.7675781,0-1.0605469s-0.7675781-0.2929688-1.0605469,0l-3.5356445,3.5356445  c-0.2929688,0.2929688-0.2929688,0.7675781,0,1.0605469C69.0615234,26.2314453,69.253418,26.3046875,69.4453125,26.3046875z"/><path d="M26.4887695,22.5493164l3.5356445,3.5356445c0.1464844,0.1464844,0.3383789,0.2197266,0.5302734,0.2197266  s0.3837891-0.0732422,0.5302734-0.2197266c0.2929688-0.2929688,0.2929688-0.7675781,0-1.0605469l-3.5356445-3.5356445  c-0.2929688-0.2929688-0.7675781-0.2929688-1.0605469,0S26.1958008,22.2563477,26.4887695,22.5493164z"/><path d="M68.9150391,63.9150391c-0.2929688,0.2929688-0.2929688,0.7675781,0,1.0605469l3.5356445,3.5356445  c0.1464844,0.1464844,0.3383789,0.2197266,0.5302734,0.2197266s0.3837891-0.0732422,0.5302734-0.2197266  c0.2929688-0.2929688,0.2929688-0.7675781,0-1.0605469l-3.5356445-3.5356445  C69.6826172,63.6220703,69.2080078,63.6220703,68.9150391,63.9150391z"/><path d="M30.0244141,63.9150391l-3.5356445,3.5356445c-0.2929688,0.2929688-0.2929688,0.7675781,0,1.0605469  c0.1464844,0.1464844,0.3383789,0.2197266,0.5302734,0.2197266s0.3837891-0.0732422,0.5302734-0.2197266l3.5356445-3.5356445  c0.2929688-0.2929688,0.2929688-0.7675781,0-1.0605469S30.3173828,63.6220703,30.0244141,63.9150391z"/><path d="M39.25,68.3999023v3.4484253C38.0580444,72.1199341,36.75,73.0425415,36.75,75  c0,1.1792603,0.4768677,1.9847412,1.1155396,2.5C37.2268677,78.0152588,36.75,78.8207397,36.75,80  c0,2.3842773,1.9433594,3.25,3.25,3.25h1.8064575c0.5608521,3.9299316,5.5043335,5,8.1935425,5s7.6326904-1.0700684,8.1935425-5H60  c1.3066406,0,3.25-0.8657227,3.25-3.25c0-1.1792603-0.4768677-1.9847412-1.1155396-2.5  C62.7731323,76.9847412,63.25,76.1792603,63.25,75c0-1.9574585-1.3079834-2.8800049-2.5-3.1516724v-3.4484253  c9.1289063-4.1982422,15-13.3291016,15-23.3999023c0-14.1987305-11.5512695-25.75-25.75-25.75S24.25,30.8012695,24.25,45  C24.25,55.0708008,30.1210938,64.2016602,39.25,68.3999023z M49.9997559,86.75c-0.0653687,0-5.9274292-0.0441284-6.6714478-3.5H50  h6.6710205C55.9249268,86.6950684,50.0650024,86.75,49.9997559,86.75z M60,81.75h-2.5H50h-7.5H40  c-0.1791992,0-1.75-0.0493164-1.75-1.75c0-1.6425781,1.4619141-1.7460938,1.75-1.75h10h10c0.1791992,0,1.75,0.0493164,1.75,1.75  C61.75,81.6425781,60.2880859,81.7460938,60,81.75z M61.75,75c0,1.6425781-1.4619141,1.7460938-1.75,1.75H50H40  c-0.1791992,0-1.75-0.0493164-1.75-1.75c0-1.6425781,1.4619141-1.7460938,1.75-1.75h7.4995117h5.0009766H60  C60.1791992,73.25,61.75,73.2993164,61.75,75z M50,20.75c13.371582,0,24.25,10.878418,24.25,24.25  c0,9.6391602-5.7114258,18.3637695-14.550293,22.2270508C59.4262695,67.3461914,59.25,67.6162109,59.25,67.9140625V71.75h-5.7556763  l4.7268677-16.5439453c0.1137695-0.3984375-0.1166992-0.8134766-0.5151367-0.9272461  c-0.3969727-0.112793-0.8134766,0.1162109-0.9272461,0.5151367L51.9342041,71.75h-3.8684082l-4.8446045-16.9560547  c-0.1142578-0.3989258-0.5307617-0.6293945-0.9272461-0.5151367c-0.3984375,0.1137695-0.6289063,0.5288086-0.5151367,0.9272461  L46.5056763,71.75H40.75v-3.8359375c0-0.2978516-0.1762695-0.5678711-0.449707-0.6870117  C31.4614258,63.3637695,25.75,54.6391602,25.75,45C25.75,31.628418,36.628418,20.75,50,20.75z"/><path d="M50,30.75c0.4140625,0,0.75-0.3359375,0.75-0.75v-2.5c0-0.4140625-0.3359375-0.75-0.75-0.75s-0.75,0.3359375-0.75,0.75V30  C49.25,30.4140625,49.5859375,30.75,50,30.75z"/><path d="M35.75,45c0-0.4140625-0.3359375-0.75-0.75-0.75h-2.5c-0.4140625,0-0.75,0.3359375-0.75,0.75s0.3359375,0.75,0.75,0.75H35  C35.4140625,45.75,35.75,45.4140625,35.75,45z"/><path d="M65,45.75h2.5c0.4140625,0,0.75-0.3359375,0.75-0.75s-0.3359375-0.75-0.75-0.75H65c-0.4140625,0-0.75,0.3359375-0.75,0.75  S64.5859375,45.75,65,45.75z"/><path d="M60.6064453,35.1435547c0.1918945,0,0.3837891-0.0732422,0.5302734-0.2197266l1.7680664-1.7680664  c0.2929688-0.2929688,0.2929688-0.7675781,0-1.0605469s-0.7675781-0.2929688-1.0605469,0l-1.7680664,1.7680664  c-0.2929688,0.2929688-0.2929688,0.7675781,0,1.0605469C60.2226563,35.0703125,60.4145508,35.1435547,60.6064453,35.1435547z"/><path d="M38.8632813,34.9238281c0.1464844,0.1464844,0.3383789,0.2197266,0.5302734,0.2197266  s0.3837891-0.0732422,0.5302734-0.2197266c0.2929688-0.2929688,0.2929688-0.7675781,0-1.0605469l-1.7680664-1.7680664  c-0.2929688-0.2929688-0.7675781-0.2929688-1.0605469,0s-0.2929688,0.7675781,0,1.0605469L38.8632813,34.9238281z"/><path d="M61.1367188,55.0761719c-0.2929688-0.2929688-0.7675781-0.2929688-1.0605469,0s-0.2929688,0.7675781,0,1.0605469  l1.7680664,1.7680664c0.1464844,0.1464844,0.3383789,0.2197266,0.5302734,0.2197266s0.3837891-0.0732422,0.5302734-0.2197266  c0.2929688-0.2929688,0.2929688-0.7675781,0-1.0605469L61.1367188,55.0761719z"/><path d="M37.6254883,58.1245117c0.1918945,0,0.3837891-0.0732422,0.5302734-0.2197266l1.7680664-1.7680664  c0.2929688-0.2929688,0.2929688-0.7675781,0-1.0605469s-0.7675781-0.2929688-1.0605469,0l-1.7680664,1.7680664  c-0.2929688,0.2929688-0.2929688,0.7675781,0,1.0605469C37.2416992,58.0512695,37.4335938,58.1245117,37.6254883,58.1245117z"/><path d="M41.8212891,48.1787109c0.2661133,1.2485352,1.2514648,2.2338867,2.5,2.5  C44.6342773,52.1459961,45.9404297,53.25,47.5,53.25c1.010498,0,1.9034424-0.4733276,2.5-1.1989746  C50.5965576,52.7766724,51.489502,53.25,52.5,53.25c1.5595703,0,2.8657227-1.1040039,3.1787109-2.5712891  c1.2485352-0.2661133,2.2338867-1.2514648,2.5-2.5C59.6459961,47.8657227,60.75,46.5595703,60.75,45  s-1.1040039-2.8657227-2.5712891-3.1787109c-0.2661133-1.2485352-1.2514648-2.2338867-2.5-2.5  C55.3657227,37.8540039,54.0595703,36.75,52.5,36.75c-1.010498,0-1.9034424,0.4733276-2.5,1.1989746  C49.4034424,37.2233276,48.510498,36.75,47.5,36.75c-1.5595703,0-2.8657227,1.1040039-3.1787109,2.5712891  c-1.2485352,0.2661133-2.2338867,1.2514648-2.5,2.5C40.3540039,42.1342773,39.25,43.4404297,39.25,45  S40.3540039,47.8657227,41.8212891,48.1787109z M52.5,38.25c0.9648438,0,1.75,0.7851563,1.75,1.75  c0,0.4140625,0.3359375,0.75,0.75,0.75c0.9648438,0,1.75,0.7851563,1.75,1.75c0,0.4140625,0.3359375,0.75,0.75,0.75  c0.9648438,0,1.75,0.7851563,1.75,1.75s-0.7851563,1.75-1.75,1.75c-0.4140625,0-0.75,0.3359375-0.75,0.75  c0,0.9648438-0.7851563,1.75-1.75,1.75c-0.4140625,0-0.75,0.3359375-0.75,0.75c0,0.9648438-0.7851563,1.75-1.75,1.75  s-1.75-0.7851563-1.75-1.75s0.7851563-1.75,1.75-1.75c0.4140625,0,0.75-0.3359375,0.75-0.75c0-0.9648438,0.7851563-1.75,1.75-1.75  c0.4140625,0,0.75-0.3359375,0.75-0.75s-0.3359375-0.75-0.75-0.75c-0.9648438,0-1.75-0.7851563-1.75-1.75  c0-0.4140625-0.3359375-0.75-0.75-0.75c-0.9648438,0-1.75-0.7851563-1.75-1.75S51.5351563,38.25,52.5,38.25z M50,42.0718994  c0.4584351,0.5522461,1.0947266,0.9518433,1.8212891,1.1068115C51.9760742,43.9047852,52.3740234,44.5415039,52.925293,45  c-0.5512695,0.4584961-0.9492188,1.0952148-1.1040039,1.8212891C51.0947266,46.9762573,50.4584351,47.3758545,50,47.9281006  c-0.4584351-0.5522461-1.0947266-0.9518433-1.8212891-1.1068115C48.0239258,46.0952148,47.6259766,45.4584961,47.074707,45  c0.5512695-0.4584961,0.9492188-1.0952148,1.1040039-1.8212891C48.9052734,43.0237427,49.5415649,42.6241455,50,42.0718994z   M42.5,43.25c0.4140625,0,0.75-0.3359375,0.75-0.75c0-0.9648438,0.7851563-1.75,1.75-1.75c0.4140625,0,0.75-0.3359375,0.75-0.75  c0-0.9648438,0.7851563-1.75,1.75-1.75s1.75,0.7851563,1.75,1.75s-0.7851563,1.75-1.75,1.75c-0.4140625,0-0.75,0.3359375-0.75,0.75  c0,0.9648438-0.7851563,1.75-1.75,1.75c-0.4140625,0-0.75,0.3359375-0.75,0.75s0.3359375,0.75,0.75,0.75  c0.9648438,0,1.75,0.7851563,1.75,1.75c0,0.4140625,0.3359375,0.75,0.75,0.75c0.9648438,0,1.75,0.7851563,1.75,1.75  s-0.7851563,1.75-1.75,1.75s-1.75-0.7851563-1.75-1.75c0-0.4140625-0.3359375-0.75-0.75-0.75c-0.9648438,0-1.75-0.7851563-1.75-1.75  c0-0.4140625-0.3359375-0.75-0.75-0.75c-0.9648438,0-1.75-0.7851563-1.75-1.75S41.5351563,43.25,42.5,43.25z"/><text x="0" y="115" fill="#000000" font-size="5px" font-weight="bold" font-family="'Helvetica Neue', Helvetica, Arial-Unicode, Arial, Sans-serif">Created by scribble.glyph</text><text x="0" y="120" fill="#000000" font-size="5px" font-weight="bold" font-family="'Helvetica Neue', Helvetica, Arial-Unicode, Arial, Sans-serif">from the Noun Project</text></svg>