<svg xmlns="http://www.w3.org/2000/svg" data-name="Layer 1" viewBox="0 0 100 125" x="0px" y="0px"><title>Laurel_Wreaths</title><path d="M23.93,69.8a10,10,0,0,0-2.68-10.24C18.9,63.48,21.38,68,23.93,69.8Z"/><path d="M17.31,53.7c-1.22,1.25-3,6.29,1,10.38C19.58,61.13,19.86,56.6,17.31,53.7Z"/><path d="M13.77,17.61c-5.06,5.07-5.73,9.07-4.29,14C11.72,29.57,13.6,23.59,13.77,17.61Z"/><path d="M13.61,56.82c1.83-2.44,3.16-5.47.81-9.21C11.69,49.17,12,54.2,13.61,56.82Z"/><path d="M13.92,41.51a6.56,6.56,0,0,0-3.31,8.11C12.71,48,15.24,44.51,13.92,41.51Z"/><path d="M13.8,34.66c-1.22.33-4.7,3.11-4.07,8.07C12,41.48,14.75,39.1,13.8,34.66Z"/><path d="M14.42,28c-2.18.63-4.93,4.51-4.8,8.2C11.78,35.2,15,31.21,14.42,28Z"/><path d="M24.44,70.63c-3.26-3-8.46-4.08-10.92-3.11A7.87,7.87,0,0,0,24.44,70.63Z"/><path d="M26.31,65.86c-.82,1.5-1,5.77,4.2,8.34C30.81,71.45,29.67,66.75,26.31,65.86Z"/><path d="M20.14,74.1a9.25,9.25,0,0,0,11.53,1C29.33,73.93,23.71,72.35,20.14,74.1Z"/><path d="M37.72,77.25c-.25-2.79-1.78-6.42-6-7.29C31.29,71.48,31.88,75.61,37.72,77.25Z"/><path d="M38.9,77.93c-2.6-.7-9.7-1.53-12.79.87A10.14,10.14,0,0,0,38.9,77.93Z"/><path d="M39,73.24c-.26,3.56,3.5,5.56,7.53,5.85C45.76,75.51,42,73.91,39,73.24Z"/><path d="M46.5,79.58c-2.7-.22-9.15-.59-10.72,1.56C43.4,84,46.47,81.29,46.5,79.58Z"/><path d="M18.58,65.19c-1-1.28-6.34-5.92-9.36-5.8C8.94,65.48,15.5,65.15,18.58,65.19Z"/><path d="M14,58.33C12.72,55.94,9.41,51.39,5.78,51,5.57,55.92,9.84,58.41,14,58.33Z"/><path d="M10.57,50.8C10,48.66,9.19,44.87,5.6,43,4.25,47.48,8.22,50.51,10.57,50.8Z"/><path d="M9.46,43.76c-.19-2.32-1.71-6.94-4-7.67C3.6,41.54,7.87,43.32,9.46,43.76Z"/><path d="M9.25,37.83c.18-2.12.4-7.07-2.53-10C4.64,34.53,8.11,37.28,9.25,37.83Z"/><path d="M76.07,69.8c2.55-1.84,5-6.32,2.68-10.24A10,10,0,0,0,76.07,69.8Z"/><path d="M82.69,53.7c-2.55,2.9-2.27,7.43-1,10.38C85.74,60,83.91,55,82.69,53.7Z"/><path d="M86.23,17.61c.17,6,2,12,4.29,14C92,26.68,91.29,22.68,86.23,17.61Z"/><path d="M85.58,47.61c-2.35,3.74-1,6.77.81,9.21C88,54.2,88.31,49.17,85.58,47.61Z"/><path d="M86.08,41.51c-1.32,3,1.21,6.47,3.31,8.11A6.56,6.56,0,0,0,86.08,41.51Z"/><path d="M86.2,34.66c-1,4.44,1.78,6.82,4.07,8.07C90.9,37.77,87.42,35,86.2,34.66Z"/><path d="M85.58,28c-.59,3.25,2.64,7.24,4.8,8.2C90.51,32.47,87.76,28.59,85.58,28Z"/><path d="M86.48,67.52c-2.46-1-7.66.14-10.92,3.11A7.87,7.87,0,0,0,86.48,67.52Z"/><path d="M69.49,74.2c5.17-2.57,5-6.84,4.2-8.34C70.33,66.75,69.19,71.45,69.49,74.2Z"/><path d="M79.86,74.1c-3.57-1.75-9.19-.17-11.53,1A9.25,9.25,0,0,0,79.86,74.1Z"/><path d="M62.28,77.25c5.84-1.64,6.43-5.77,6-7.29C64.06,70.83,62.53,74.46,62.28,77.25Z"/><path d="M61.1,77.93a10.14,10.14,0,0,0,12.79.87C70.8,76.4,63.7,77.23,61.1,77.93Z"/><path d="M61,73.24c-3,.67-6.79,2.27-7.53,5.85C57.53,78.8,61.29,76.8,61,73.24Z"/><path d="M53.5,79.58c0,1.71,3.1,4.42,10.72,1.56C62.65,79,56.2,79.36,53.5,79.58Z"/><path d="M90.78,59.39c-3-.12-8.39,4.52-9.36,5.8C84.5,65.15,91.06,65.48,90.78,59.39Z"/><path d="M94.22,51c-3.63.43-6.94,5-8.18,7.37C90.16,58.41,94.43,55.92,94.22,51Z"/><path d="M94.4,43c-3.59,1.84-4.39,5.63-5,7.77C91.78,50.51,95.75,47.48,94.4,43Z"/><path d="M94.54,36.09c-2.29.73-3.81,5.35-4,7.67C92.13,43.32,96.4,41.54,94.54,36.09Z"/><path d="M90.75,37.83c1.14-.55,4.61-3.3,2.53-10C90.35,30.76,90.57,35.71,90.75,37.83Z"/><text x="0" y="115" fill="#000000" font-size="5px" font-weight="bold" font-family="'Helvetica Neue', Helvetica, Arial-Unicode, Arial, Sans-serif">Created by prasong tadoungsorn</text><text x="0" y="120" fill="#000000" font-size="5px" font-weight="bold" font-family="'Helvetica Neue', Helvetica, Arial-Unicode, Arial, Sans-serif">from the Noun Project</text></svg>