<svg xmlns="http://www.w3.org/2000/svg" xmlns:xlink="http://www.w3.org/1999/xlink" version="1.1" x="0px" y="0px" viewBox="0 0 62 77.5" enable-background="new 0 0 62 62" xml:space="preserve"><path d="M55.4200134,28l-6.1400146-2.6900024c-0.3300171-1.1099854-0.7799683-2.1900024-1.3300171-3.2199707l2.4299927-6.2300415  c0.1500244-0.3699951,0.0599976-0.789978-0.2199707-1.0699463l-2.960022-2.960022  c-0.2799683-0.2800293-0.7099609-0.3699951-1.0700073-0.2200317l-6.2099609,2.4500122  c-1.0300293-0.5499878-2.1099854-0.9899902-3.2399902-1.3299561l-2.6700439-6.1300049  C33.8600159,6.2300415,33.5000305,6,33.1000061,6h-4.1900024c-0.4000244,0-0.7600098,0.2300415-0.9199829,0.6000366  l-2.6700439,6.1099854C24.230011,13.0599976,23.1499939,13.5,22.1000061,14.0400391l-6.2200317-2.4300537  c-0.3699951-0.1499634-0.789978-0.0599976-1.0699463,0.2200317l-2.960022,2.960022  c-0.2800293,0.2799683-0.3699951,0.6999512-0.2299805,1.0699463l2.4400024,6.2400513  c-0.5400391,1.0299683-0.9800415,2.0999756-1.3300171,3.2099609L6.5899963,28  c-0.3599854,0.1600342-0.5999756,0.5200195-0.5999756,0.9100342v4.1699829c0,0.4000244,0.2399902,0.7600098,0.5999756,0.9099731  l6.1400146,2.6900024c0.3499756,1.1100464,0.7999878,2.1900024,1.3300171,3.2200317l-2.4400024,6.2299805  C11.480011,46.5,11.5699768,46.9200439,11.8500061,47.210022l2.960022,2.9299927  c0.2799683,0.2800293,0.6999512,0.3699951,1.0699463,0.2199707l6.2200317-2.4099731  c1.0499878,0.539978,2.1300049,0.9799805,3.2199707,1.3300171l2.6700439,6.1199951  C28.1499939,55.7600098,28.5099792,56,28.9100037,56h4.1900024c0.4000244,0,0.7600098-0.2399902,0.9099731-0.6099854  l2.6700439-6.1300049c1.1300049-0.3399658,2.2099609-0.7799683,3.2399902-1.3300171l6.2099609,2.4299927  c0.3700562,0.1500244,0.7900391,0.0600586,1.0700073-0.2199707l2.960022-2.9299927  c0.2799683-0.289978,0.3699951-0.710022,0.2199707-1.0800171l-2.4299927-6.2299805  c0.5500488-1.0300293,1-2.1099854,1.3300171-3.2200317l6.1400146-2.6900024  c0.3599854-0.1499634,0.5899658-0.5099487,0.5899658-0.9099731v-4.1699829  C56.0099792,28.5200195,55.7799988,28.1600342,55.4200134,28z M31.0000305,42.25c-6.2000122,0-11.25-5.0499878-11.25-11.25  c0-6.2099609,5.0499878-11.25,11.25-11.25c6.2099609,0,11.25,5.0400391,11.25,11.25  C42.2500305,37.2000122,37.2099915,42.25,31.0000305,42.25z"/><text x="0" y="77" fill="#000000" font-size="5px" font-weight="bold" font-family="'Helvetica Neue', Helvetica, Arial-Unicode, Arial, Sans-serif">Created by DinosoftLab</text><text x="0" y="82" fill="#000000" font-size="5px" font-weight="bold" font-family="'Helvetica Neue', Helvetica, Arial-Unicode, Arial, Sans-serif">from the Noun Project</text></svg>