<svg xmlns="http://www.w3.org/2000/svg" xmlns:xlink="http://www.w3.org/1999/xlink" version="1.1" x="0px" y="0px" viewBox="0 0 100 125" style="enable-background:new 0 0 100 100;" xml:space="preserve"><g><path d="M11.994,62.484c-0.174,0.909-0.262,1.827-0.262,2.741c0,8.062,6.541,14.624,14.594,14.658   c2.423,5.098,7.502,8.335,13.221,8.335l0.137-0.001c4.516-0.041,8.424-2.76,10.316-6.667c1.891,3.907,5.794,6.626,10.295,6.667   l0.159,0.001c5.719,0,10.798-3.237,13.221-8.335c8.053-0.034,14.594-6.597,14.594-14.658c0-0.914-0.088-1.832-0.262-2.741   C92.349,59.83,95,55.147,95,50s-2.651-9.83-6.994-12.484c0.174-0.909,0.262-1.827,0.262-2.741c0-8.062-6.541-14.624-14.594-14.658   c-2.423-5.098-7.502-8.335-13.221-8.335l-0.137,0.001C55.8,11.823,51.892,14.543,50,18.449c-1.891-3.907-5.794-6.626-10.295-6.667   l-0.159-0.001c-5.719,0-10.798,3.237-13.221,8.335c-8.053,0.034-14.594,6.597-14.594,14.658c0,0.914,0.088,1.832,0.262,2.741   C7.651,40.17,5,44.853,5,50S7.651,59.83,11.994,62.484z M51.782,23.724c0-4.888,3.841-8.898,8.562-8.941   c0.007,0,0.102-0.001,0.109-0.001c4.836,0,9.097,2.911,10.854,7.417c0.232,0.598,0.833,0.972,1.459,0.954l0.32-0.017   c0.174-0.01,0.347-0.02,0.524-0.02c6.428,0,11.657,5.229,11.657,11.658c0,1.035-0.143,2.079-0.423,3.103   c-0.189,0.688,0.132,1.413,0.768,1.735C89.553,41.61,92,45.591,92,50s-2.447,8.39-6.387,10.388   c-0.636,0.322-0.957,1.048-0.768,1.735c0.281,1.023,0.423,2.067,0.423,3.103c0,6.429-5.229,11.658-11.657,11.658   c-0.177,0-0.35-0.01-0.524-0.02l-0.32-0.017c-0.615-0.035-1.227,0.356-1.459,0.954c-1.757,4.506-6.018,7.417-10.854,7.417   l-0.109-0.001c-4.721-0.043-8.562-4.054-8.562-8.941V23.724z M14.387,39.612c0.636-0.322,0.957-1.048,0.768-1.735   c-0.281-1.023-0.423-2.067-0.423-3.103c0-6.429,5.229-11.658,11.657-11.658c0.177,0,0.35,0.01,0.524,0.02l0.32,0.017   c0.63,0.028,1.227-0.356,1.459-0.954c1.757-4.506,6.018-7.417,10.854-7.417l0.109,0.001c4.721,0.043,8.562,4.054,8.562,8.941   v52.553c0,4.888-3.841,8.898-8.583,8.941l-0.087,0.001c-4.836,0-9.097-2.911-10.854-7.417c-0.225-0.578-0.781-0.955-1.397-0.955   c-0.021,0-0.042,0-0.063,0.001l-0.32,0.017c-0.174,0.01-0.347,0.02-0.524,0.02c-6.428,0-11.657-5.229-11.657-11.658   c0-1.035,0.143-2.079,0.423-3.103c0.189-0.688-0.132-1.413-0.768-1.735C10.447,58.39,8,54.409,8,50S10.447,41.61,14.387,39.612z"/><path d="M59.436,35.611v3.514c0,0.553,0.448,1,1,1s1-0.447,1-1v-3.514c1.767-0.449,3.083-2.04,3.083-3.944   c0-2.252-1.832-4.084-4.083-4.084s-4.083,1.832-4.083,4.084C56.352,33.571,57.669,35.162,59.436,35.611z M60.436,29.583   c1.149,0,2.083,0.935,2.083,2.084c0,1.148-0.935,2.083-2.083,2.083s-2.083-0.935-2.083-2.083   C58.352,30.518,59.287,29.583,60.436,29.583z"/><path d="M59.436,53.153V63c0,0.553,0.448,1,1,1s1-0.447,1-1v-5.468c2.199,2.571,5.778,4.448,8.62,4.448H71   c0.054,0,0.101-0.023,0.152-0.031c0.652,1.391,2.055,2.364,3.69,2.364c0.656,0,1.309-0.16,1.888-0.462   c0.49-0.256,0.679-0.86,0.423-1.35c-0.255-0.489-0.858-0.68-1.349-0.424c-0.299,0.156-0.622,0.235-0.962,0.235   c-1.149,0-2.083-0.935-2.083-2.083c0-1.149,0.935-2.084,2.083-2.084c1.148,0,2.083,0.935,2.083,2.084   c0,0.153-0.017,0.305-0.049,0.45c-0.12,0.539,0.22,1.074,0.759,1.194c0.541,0.115,1.074-0.219,1.193-0.759   c0.064-0.288,0.097-0.586,0.097-0.886c0-2.252-1.832-4.084-4.083-4.084c-2.166,0-3.926,1.7-4.058,3.834h-0.729   c-3.263,0-8.255-3.513-8.62-6.804v-0.023c1.767-0.449,3.083-2.04,3.083-3.945c0-1.904-1.317-3.495-3.083-3.944v-3.201   c0-0.553-0.448-1-1-1s-1,0.447-1,1v3.201c-1.767,0.449-3.083,2.04-3.083,3.944C56.352,51.113,57.669,52.704,59.436,53.153z    M60.436,47.125c1.149,0,2.083,0.935,2.083,2.083c0,1.149-0.935,2.084-2.083,2.084s-2.083-0.935-2.083-2.084   C58.352,48.06,59.287,47.125,60.436,47.125z"/><path d="M71.642,42.521c0.279,0,0.562-0.028,0.845-0.088c0.169-0.035,0.323-0.098,0.483-0.153l2.068,3.133   c-0.935,0.942-1.399,2.319-1.108,3.713c0.394,1.882,2.074,3.248,3.995,3.248c0.28,0,0.562-0.029,0.838-0.087   c2.204-0.461,3.622-2.629,3.162-4.833c-0.394-1.882-2.074-3.248-3.995-3.248c-0.28,0-0.562,0.029-0.838,0.087   c-0.115,0.024-0.218,0.071-0.328,0.104l-2.114-3.204c0.86-0.938,1.279-2.256,1-3.593c-0.461-2.203-2.633-3.629-4.833-3.16   c-0.985,0.205-1.855,0.764-2.451,1.573c-0.328,0.444-0.232,1.07,0.212,1.398c0.445,0.326,1.071,0.232,1.398-0.213   c0.304-0.412,0.747-0.696,1.25-0.802c1.124-0.229,2.23,0.488,2.466,1.612c0.235,1.125-0.489,2.231-1.613,2.467   c-1.096,0.233-2.172-0.444-2.447-1.534c-0.135-0.536-0.683-0.86-1.214-0.726c-0.536,0.135-0.86,0.679-0.726,1.214   C68.158,41.283,69.807,42.521,71.642,42.521z M77.929,46.207c0.979,0,1.836,0.697,2.037,1.657c0.235,1.125-0.489,2.231-1.612,2.467   c-1.111,0.232-2.236-0.513-2.466-1.613c-0.235-1.125,0.489-2.231,1.612-2.467C77.641,46.222,77.786,46.207,77.929,46.207z"/><path d="M60.436,76.726c2.251,0,4.083-1.832,4.083-4.083c0-1.905-1.317-3.496-3.083-3.945v-2.885c0-0.553-0.448-1-1-1s-1,0.447-1,1   v2.885c-1.767,0.449-3.083,2.04-3.083,3.945C56.352,74.894,58.184,76.726,60.436,76.726z M60.436,70.559   c1.149,0,2.083,0.935,2.083,2.084c0,1.148-0.935,2.083-2.083,2.083s-2.083-0.935-2.083-2.083   C58.352,71.493,59.287,70.559,60.436,70.559z"/><path d="M17.586,46.146h1.515c0.196,0.645,0.452,1.264,0.767,1.855l-1.073,1.073c-0.369,0.368-0.571,0.858-0.571,1.381   c0,0.523,0.203,1.014,0.571,1.382l1.61,1.61c0.381,0.381,0.881,0.571,1.381,0.571c0.5,0,1-0.19,1.381-0.571l1.073-1.073   c0.59,0.315,1.21,0.571,1.855,0.767v1.515c0,1.078,0.877,1.955,1.956,1.955h2.271c1.078,0,1.955-0.877,1.955-1.955v-1.515   c0.645-0.196,1.264-0.452,1.855-0.767l1.073,1.073c0.38,0.381,0.881,0.571,1.381,0.571c0.5,0,1.001-0.19,1.382-0.571l1.61-1.61   c0.762-0.762,0.762-2.001,0-2.763l-1.073-1.073c0.315-0.59,0.571-1.21,0.767-1.855h1.515c1.078,0,1.956-0.877,1.956-1.955V41.92   c0-1.078-0.877-1.955-1.956-1.955h-1.515c-0.196-0.645-0.452-1.265-0.767-1.855l1.073-1.073c0.762-0.762,0.762-2.001,0-2.763   l-1.611-1.611c-0.762-0.761-2.002-0.76-2.762,0.001l-1.073,1.073c-0.591-0.315-1.21-0.571-1.855-0.767v-1.515   c0-1.078-0.877-1.955-1.955-1.955h-2.271c-1.078,0-1.956,0.877-1.956,1.955v1.515c-0.645,0.196-1.264,0.452-1.855,0.767   l-1.073-1.073c-0.762-0.763-2-0.761-2.762,0l-1.61,1.61c-0.369,0.368-0.571,0.858-0.571,1.382c0,0.522,0.203,1.013,0.571,1.381   l1.073,1.073c-0.315,0.59-0.571,1.21-0.767,1.855h-1.515c-1.078,0-1.956,0.877-1.956,1.955v2.271   C15.631,45.27,16.508,46.146,17.586,46.146z M19.868,41.965C19.868,41.965,19.868,41.965,19.868,41.965   C19.869,41.965,19.869,41.965,19.868,41.965c0.127,0,0.248-0.028,0.362-0.073c0.039-0.015,0.071-0.04,0.108-0.06   c0.07-0.038,0.136-0.078,0.195-0.131c0.035-0.032,0.063-0.067,0.093-0.104c0.047-0.056,0.088-0.115,0.122-0.181   c0.023-0.045,0.041-0.091,0.058-0.14c0.011-0.033,0.032-0.061,0.039-0.096c0.214-0.967,0.589-1.874,1.115-2.694   c0.017-0.027,0.019-0.058,0.034-0.087c0.032-0.061,0.055-0.122,0.073-0.187c0.017-0.061,0.03-0.12,0.036-0.183   c0.005-0.064,0.003-0.125-0.004-0.189c-0.007-0.064-0.017-0.124-0.036-0.186c-0.018-0.06-0.044-0.115-0.074-0.171   c-0.032-0.06-0.067-0.115-0.112-0.168c-0.02-0.024-0.028-0.054-0.051-0.076l-1.616-1.551l1.544-1.61l1.616,1.616   c0.004,0.004,0.009,0.005,0.012,0.008c0.085,0.083,0.184,0.145,0.29,0.192c0.024,0.011,0.047,0.019,0.071,0.027   c0.107,0.038,0.218,0.064,0.332,0.065c0.001,0,0.001,0,0.002,0c0,0,0,0,0.001,0c0.113,0,0.225-0.026,0.334-0.065   c0.032-0.011,0.061-0.027,0.092-0.042c0.037-0.018,0.077-0.028,0.112-0.051c0.822-0.526,1.729-0.901,2.695-1.115   c0.031-0.007,0.054-0.027,0.084-0.037c0.066-0.021,0.125-0.048,0.183-0.081c0.056-0.031,0.107-0.064,0.155-0.104   c0.049-0.041,0.09-0.087,0.13-0.137c0.04-0.05,0.076-0.1,0.106-0.157c0.029-0.055,0.049-0.112,0.068-0.172   c0.02-0.065,0.034-0.129,0.04-0.199c0.003-0.031,0.018-0.057,0.018-0.089L28.051,31.5l2.226-0.045v2.282   c0,0.031,0.015,0.058,0.018,0.089c0.006,0.069,0.02,0.133,0.04,0.199c0.019,0.061,0.039,0.117,0.068,0.172   c0.03,0.057,0.066,0.107,0.106,0.157c0.04,0.05,0.081,0.095,0.13,0.137c0.048,0.041,0.099,0.073,0.155,0.104   c0.059,0.033,0.118,0.06,0.183,0.081c0.03,0.01,0.053,0.03,0.084,0.037c0.967,0.214,1.874,0.589,2.695,1.115   c0.036,0.023,0.075,0.033,0.112,0.051c0.031,0.015,0.06,0.031,0.092,0.042c0.109,0.039,0.221,0.065,0.334,0.065c0,0,0,0,0.001,0   c0.001,0,0.001,0,0.002,0c0.114,0,0.225-0.027,0.332-0.065c0.024-0.009,0.047-0.017,0.071-0.027   c0.106-0.047,0.204-0.109,0.29-0.192c0.004-0.004,0.009-0.005,0.012-0.008l1.55-1.616l1.61,1.545l-1.616,1.616   c-0.023,0.023-0.031,0.052-0.051,0.076c-0.044,0.053-0.08,0.108-0.112,0.168c-0.03,0.056-0.055,0.111-0.074,0.171   c-0.019,0.062-0.029,0.122-0.036,0.186c-0.007,0.064-0.01,0.125-0.004,0.189c0.005,0.063,0.018,0.122,0.036,0.183   c0.018,0.065,0.041,0.126,0.073,0.187c0.014,0.028,0.016,0.059,0.034,0.087c0.526,0.82,0.901,1.728,1.115,2.694   c0.008,0.035,0.028,0.063,0.039,0.096c0.016,0.049,0.034,0.095,0.058,0.14c0.034,0.066,0.075,0.125,0.122,0.181   c0.03,0.036,0.058,0.072,0.093,0.104c0.059,0.053,0.125,0.093,0.194,0.131c0.037,0.02,0.069,0.044,0.108,0.06   c0.114,0.045,0.234,0.073,0.361,0.073c0,0,0,0,0.001,0c0,0,0,0,0,0l2.237-0.045l0.044,2.227h-2.282   c-0.032,0-0.059,0.015-0.09,0.018c-0.068,0.006-0.131,0.02-0.196,0.039c-0.062,0.019-0.119,0.039-0.175,0.069   c-0.056,0.03-0.105,0.065-0.155,0.105c-0.051,0.041-0.096,0.082-0.138,0.131c-0.041,0.048-0.073,0.099-0.104,0.154   c-0.033,0.059-0.061,0.118-0.082,0.184c-0.01,0.03-0.03,0.052-0.037,0.083c-0.214,0.967-0.589,1.874-1.115,2.694   c-0.017,0.027-0.019,0.058-0.034,0.087c-0.032,0.061-0.055,0.122-0.073,0.187c-0.017,0.061-0.03,0.12-0.036,0.183   c-0.005,0.064-0.003,0.125,0.004,0.189c0.007,0.064,0.017,0.124,0.036,0.186c0.018,0.06,0.044,0.115,0.074,0.171   c0.032,0.06,0.067,0.115,0.112,0.168c0.02,0.024,0.028,0.054,0.051,0.076l1.616,1.551l-1.545,1.61l-1.616-1.616   c-0.022-0.022-0.051-0.03-0.075-0.05c-0.055-0.046-0.111-0.082-0.173-0.115c-0.054-0.028-0.106-0.053-0.164-0.071   c-0.065-0.02-0.128-0.031-0.195-0.038c-0.061-0.006-0.119-0.009-0.179-0.004c-0.065,0.005-0.127,0.019-0.19,0.037   c-0.064,0.018-0.123,0.041-0.184,0.072c-0.028,0.015-0.059,0.016-0.086,0.034c-0.822,0.526-1.729,0.901-2.695,1.115   c-0.031,0.007-0.054,0.027-0.083,0.037c-0.066,0.021-0.125,0.048-0.184,0.081c-0.056,0.031-0.107,0.064-0.155,0.104   c-0.049,0.042-0.09,0.087-0.13,0.137c-0.04,0.05-0.076,0.1-0.106,0.157c-0.029,0.055-0.049,0.112-0.068,0.173   c-0.02,0.065-0.034,0.129-0.04,0.199c-0.003,0.031-0.018,0.057-0.018,0.089l0.045,2.237l-2.227,0.045v-2.282   c0-0.031-0.015-0.058-0.018-0.089c-0.006-0.069-0.02-0.133-0.04-0.199c-0.019-0.061-0.039-0.117-0.068-0.173   c-0.03-0.057-0.066-0.107-0.106-0.157c-0.04-0.05-0.081-0.095-0.13-0.137c-0.048-0.041-0.099-0.073-0.155-0.104   c-0.059-0.033-0.118-0.06-0.184-0.081c-0.03-0.009-0.052-0.03-0.083-0.037c-0.966-0.214-1.873-0.589-2.695-1.115   c-0.027-0.017-0.058-0.019-0.086-0.034c-0.06-0.031-0.12-0.054-0.185-0.072c-0.063-0.018-0.124-0.032-0.189-0.037   c-0.062-0.005-0.12-0.002-0.182,0.004c-0.066,0.007-0.129,0.017-0.193,0.037c-0.058,0.018-0.111,0.043-0.166,0.072   c-0.061,0.032-0.117,0.069-0.172,0.114c-0.024,0.02-0.053,0.028-0.075,0.05l-1.55,1.616l-1.61-1.545l1.616-1.616   c0.023-0.023,0.031-0.052,0.051-0.076c0.044-0.053,0.08-0.108,0.112-0.168c0.03-0.056,0.055-0.111,0.074-0.171   c0.019-0.062,0.029-0.122,0.036-0.186c0.007-0.064,0.01-0.125,0.004-0.189c-0.005-0.063-0.018-0.122-0.036-0.183   c-0.018-0.065-0.041-0.126-0.073-0.187c-0.014-0.028-0.016-0.059-0.034-0.087c-0.526-0.82-0.901-1.728-1.115-2.694   c-0.007-0.031-0.027-0.054-0.037-0.083c-0.021-0.066-0.048-0.126-0.082-0.185c-0.031-0.055-0.063-0.105-0.103-0.153   c-0.042-0.05-0.089-0.092-0.14-0.133c-0.049-0.039-0.097-0.073-0.152-0.102c-0.057-0.031-0.116-0.052-0.18-0.071   c-0.063-0.019-0.125-0.032-0.192-0.039c-0.032-0.003-0.059-0.018-0.091-0.018l-2.237,0.045l-0.044-2.227H19.868z"/><path d="M25.485,47.389c0.238,0,0.478-0.085,0.669-0.257c0.41-0.37,0.443-1.002,0.074-1.412c-0.66-0.732-1.022-1.678-1.022-2.664   c0-2.195,1.786-3.981,3.981-3.981c0.555,0,1.091,0.111,1.594,0.332c0.506,0.222,1.095-0.009,1.317-0.515   c0.222-0.506-0.009-1.096-0.515-1.317c-0.758-0.332-1.564-0.5-2.397-0.5c-3.298,0-5.981,2.684-5.981,5.981   c0,1.481,0.545,2.902,1.536,4.002C24.939,47.277,25.212,47.389,25.485,47.389z"/><path d="M33.167,43.056c0,2.195-1.786,3.981-3.981,3.981c-0.449,0-0.888-0.074-1.305-0.22c-0.524-0.183-1.092,0.093-1.274,0.615   c-0.182,0.521,0.093,1.092,0.615,1.273c0.63,0.22,1.291,0.331,1.964,0.331c3.298,0,5.981-2.684,5.981-5.981   c0-1.298-0.409-2.532-1.182-3.571c-0.33-0.443-0.957-0.534-1.399-0.204c-0.443,0.33-0.535,0.956-0.205,1.399   C32.896,41.37,33.167,42.191,33.167,43.056z"/><path d="M40.712,63.563c-0.546-0.036-1.029,0.375-1.068,0.926c-0.044,0.629-0.552,1.089-1.174,1.044   c-0.604-0.044-1.061-0.57-1.017-1.174c0.021-0.292,0.154-0.56,0.376-0.751c0.222-0.192,0.504-0.285,0.797-0.266   c0.127,0.01,0.25,0.039,0.363,0.09c0.503,0.22,1.095-0.005,1.319-0.511c0.223-0.505-0.005-1.096-0.51-1.319   c-0.325-0.144-0.671-0.229-1.029-0.254c-0.823-0.063-1.624,0.206-2.25,0.748c-0.625,0.542-1.002,1.295-1.061,2.12   c-0.122,1.703,1.166,3.188,2.87,3.311c0.074,0.006,0.147,0.008,0.22,0.008c1.61,0,2.975-1.26,3.092-2.903   C41.678,64.08,41.263,63.603,40.712,63.563z"/><path d="M40.32,57.476l-0.412,0.608c-0.296-0.063-0.595-0.109-0.896-0.13c-0.303-0.022-0.606-0.019-0.907,0.002l-0.322-0.662   c-0.191-0.391-0.522-0.685-0.933-0.827c-0.414-0.143-0.857-0.117-1.247,0.074l-1.445,0.701c-0.808,0.395-1.146,1.372-0.753,2.18   l0.32,0.661c-0.407,0.45-0.748,0.954-1.014,1.498l-0.73-0.052c-0.439-0.033-0.856,0.108-1.186,0.394   c-0.33,0.285-0.529,0.682-0.56,1.117l-0.114,1.601c-0.031,0.435,0.109,0.855,0.395,1.186c0.286,0.329,0.683,0.527,1.116,0.558   l0.732,0.054c0.186,0.576,0.452,1.123,0.791,1.627l-0.411,0.607c-0.245,0.361-0.334,0.796-0.251,1.225s0.328,0.799,0.688,1.042   l1.329,0.899c0.279,0.189,0.597,0.279,0.911,0.279c0.524,0,1.04-0.251,1.355-0.717l0.41-0.604c0.294,0.063,0.594,0.105,0.899,0.127   c0.303,0.023,0.606,0.02,0.907-0.001l0.32,0.66c0.282,0.579,0.865,0.918,1.471,0.918c0.239,0,0.481-0.053,0.71-0.164l1.442-0.701   c0.393-0.19,0.687-0.522,0.83-0.935c0.143-0.411,0.116-0.854-0.075-1.247l-0.32-0.66c0.407-0.451,0.749-0.955,1.015-1.498   l0.732,0.053c0.039,0.003,0.077,0.005,0.115,0.005c0.848,0,1.566-0.658,1.627-1.517l0.115-1.6c0.064-0.896-0.614-1.679-1.512-1.744   l-0.732-0.054c-0.186-0.575-0.452-1.122-0.791-1.626l0.412-0.609c0.244-0.36,0.333-0.795,0.25-1.223s-0.327-0.799-0.688-1.042   l-1.329-0.899C41.842,56.535,40.825,56.73,40.32,57.476z M44.892,65.327l-0.953-0.069c-0.082-0.005-0.164-0.007-0.243-0.002   c-0.003,0-0.005,0.002-0.008,0.002c-0.111,0.006-0.216,0.038-0.318,0.08c-0.019,0.008-0.041,0.007-0.06,0.016   c-0.232,0.111-0.422,0.311-0.513,0.573c-0.253,0.73-0.699,1.39-1.288,1.904c-0.001,0.001-0.001,0.002-0.002,0.003   c-0.217,0.191-0.331,0.469-0.328,0.761c0.001,0.104,0.008,0.209,0.041,0.309c0.001,0.002,0,0.004,0.001,0.006   c0.026,0.076,0.057,0.151,0.095,0.233l0.416,0.854l-0.781,0.379l-0.416-0.856c-0.038-0.077-0.08-0.15-0.125-0.22   c-0.001-0.001-0.002-0.002-0.003-0.003c-0.072-0.11-0.164-0.204-0.271-0.277c-0.064-0.044-0.138-0.063-0.209-0.09   c-0.049-0.019-0.093-0.05-0.145-0.061c-0.125-0.026-0.256-0.028-0.384-0.005c-0.004,0.001-0.008-0.001-0.012,0   c-0.378,0.071-0.767,0.093-1.157,0.066c-0.394-0.029-0.776-0.106-1.134-0.23c-0.385-0.132-0.81-0.02-1.078,0.285   c-0.054,0.062-0.106,0.128-0.158,0.203l-0.533,0.788l-0.719-0.487l0.534-0.788c0.047-0.069,0.089-0.143,0.126-0.216   c0.18-0.352,0.143-0.791-0.131-1.108c-0.51-0.591-0.857-1.306-1.004-2.067c-0.001-0.004-0.004-0.007-0.005-0.012   c-0.018-0.087-0.06-0.163-0.099-0.241c-0.02-0.039-0.028-0.084-0.052-0.119c-0.027-0.04-0.069-0.066-0.102-0.102   c-0.055-0.06-0.104-0.124-0.171-0.168c-0.017-0.011-0.038-0.014-0.056-0.024c-0.096-0.056-0.197-0.102-0.307-0.124   c-0.003-0.001-0.005-0.003-0.008-0.003c-0.08-0.015-0.163-0.026-0.241-0.031l-0.949-0.068l0.062-0.866l0.954,0.068   c0.065,0.004,0.127,0.003,0.189,0.002c0.003,0,0.006,0.001,0.008,0.001c0.003,0,0.005-0.001,0.008-0.001   c0.012,0,0.025,0.001,0.037,0c0.023-0.001,0.041-0.013,0.064-0.016c0.094-0.01,0.183-0.032,0.269-0.067   c0.036-0.015,0.068-0.031,0.101-0.05c0.077-0.043,0.146-0.095,0.21-0.157c0.02-0.02,0.041-0.036,0.059-0.057   c0.082-0.094,0.153-0.199,0.196-0.324c0.254-0.732,0.7-1.391,1.289-1.904c0.002-0.002,0.003-0.005,0.005-0.007   c0.071-0.063,0.121-0.143,0.171-0.222c0.02-0.032,0.051-0.057,0.068-0.091c0.012-0.024,0.011-0.052,0.021-0.077   c0.037-0.096,0.07-0.193,0.076-0.294c0-0.007-0.003-0.014-0.003-0.021c0.005-0.124-0.011-0.249-0.052-0.368   c-0.001-0.002,0-0.003-0.001-0.005c-0.026-0.075-0.058-0.151-0.093-0.225l-0.416-0.855l0.781-0.38l0.412,0.848   c0.038,0.08,0.082,0.156,0.129,0.229c0,0,0.001,0.001,0.001,0.001c0.073,0.112,0.166,0.208,0.275,0.281   c0.075,0.051,0.161,0.077,0.246,0.105c0.037,0.013,0.068,0.037,0.107,0.045c0.125,0.026,0.256,0.029,0.384,0.005   c0.004-0.001,0.008,0.001,0.012,0c0.379-0.072,0.769-0.094,1.159-0.066c0.388,0.027,0.77,0.105,1.135,0.23   c0.002,0.001,0.004,0,0.006,0.001c0.013,0.004,0.026,0.003,0.039,0.006c0.093,0.027,0.187,0.046,0.28,0.046   c0.013,0,0.024-0.005,0.037-0.006c0.035-0.001,0.067-0.011,0.102-0.016c0.083-0.012,0.162-0.031,0.239-0.063   c0.038-0.015,0.072-0.033,0.108-0.053c0.076-0.043,0.144-0.096,0.207-0.157c0.018-0.018,0.042-0.025,0.059-0.045   c0.013-0.015,0.024-0.032,0.036-0.047c0.005-0.006,0.009-0.011,0.013-0.017c0.037-0.046,0.076-0.091,0.108-0.139l0.533-0.787   l0.719,0.487l-0.533,0.788c-0.047,0.069-0.089,0.143-0.127,0.216c-0.001,0.001-0.001,0.003-0.001,0.005   c-0.177,0.35-0.139,0.787,0.133,1.103c0.51,0.594,0.857,1.31,1.004,2.068c0.001,0.005,0.004,0.008,0.005,0.013   c0.007,0.035,0.027,0.065,0.038,0.099c0.028,0.085,0.057,0.168,0.104,0.24c0.023,0.036,0.055,0.063,0.083,0.095   c0.051,0.06,0.103,0.117,0.166,0.163c0.038,0.028,0.08,0.047,0.122,0.069c0.068,0.036,0.137,0.066,0.213,0.086   c0.024,0.006,0.042,0.023,0.067,0.027c0.08,0.015,0.163,0.026,0.242,0.031l0.948,0.068L44.892,65.327z"/></g><text x="0" y="115" fill="#000000" font-size="5px" font-weight="bold" font-family="'Helvetica Neue', Helvetica, Arial-Unicode, Arial, Sans-serif">Created by Maxim Kulikov</text><text x="0" y="120" fill="#000000" font-size="5px" font-weight="bold" font-family="'Helvetica Neue', Helvetica, Arial-Unicode, Arial, Sans-serif">from the Noun Project</text></svg>