<svg id="other" xmlns="http://www.w3.org/2000/svg" width="43.083" height="47" viewBox="0 0 43.083 47">
  <path id="Path_1" data-name="Path 1" d="M38.187,47h-23.5a4.9,4.9,0,0,1-4.9-4.9V12.729a4.9,4.9,0,0,1,4.9-4.9h23.5a4.9,4.9,0,0,1,4.9,4.9V42.1A4.9,4.9,0,0,1,38.187,47ZM14.687,9.792a2.941,2.941,0,0,0-2.937,2.938V42.1a2.941,2.941,0,0,0,2.938,2.938h23.5A2.941,2.941,0,0,0,41.125,42.1V12.729a2.941,2.941,0,0,0-2.937-2.938Z"/>
  <path id="Path_2" data-name="Path 2" d="M6.854,41.125H4.9a4.9,4.9,0,0,1-4.9-4.9V4.9A4.9,4.9,0,0,1,4.9,0H28.4a4.9,4.9,0,0,1,4.9,4.9.979.979,0,0,1-1.958,0A2.941,2.941,0,0,0,28.4,1.958H4.9A2.941,2.941,0,0,0,1.958,4.9V36.229A2.941,2.941,0,0,0,4.9,39.167H6.854a.979.979,0,1,1,0,1.958Z"/>
  <path id="Path_3" data-name="Path 3" d="M34.271,33.292H18.6a.979.979,0,1,1,0-1.958H34.271a.979.979,0,1,1,0,1.958Z"/>
  <path id="Path_4" data-name="Path 4" d="M34.271,41.125H18.6a.979.979,0,1,1,0-1.958H34.271a.979.979,0,0,1,0,1.958Z"/>
  <path id="Path_5" data-name="Path 5" d="M34.271,25.458H18.6a.979.979,0,1,1,0-1.958H34.271a.979.979,0,1,1,0,1.958Z"/>
  <path id="Path_6" data-name="Path 6" d="M34.271,17.625H18.6a.979.979,0,1,1,0-1.958H34.271a.979.979,0,0,1,0,1.958Z"/>
</svg>
