<?xml version="1.0"?>
<svg xmlns="http://www.w3.org/2000/svg" id="Outline" viewBox="0 0 512 512" width="512" height="512"><path d="M488,376h-8V352a8,8,0,0,0-8-8h-8V112a40.045,40.045,0,0,0-40-40H136a40.045,40.045,0,0,0-40,40V212.338L58.573,265.8a32.074,32.074,0,1,0,13.293,8.91L96,240.238V344H88a8,8,0,0,0-8,8v24H72a8,8,0,0,0-8,8v48a8,8,0,0,0,8,8H488a8,8,0,0,0,8-8V384A8,8,0,0,0,488,376ZM48,312a16,16,0,1,1,16-16A16.019,16.019,0,0,1,48,312Zm368,64V360h48v16ZM152,344h-8V171.662L180.165,120H232V297.013a32,32,0,1,0,16,0V120h48V297.013a32,32,0,1,0,16,0V120h48V297.013a32,32,0,1,0,16,0V120h32a8.009,8.009,0,0,1,8,8V344h-8a8,8,0,0,0-8,8v24H160V352A8,8,0,0,0,152,344Zm-8-200.238V128a8.009,8.009,0,0,1,8-8h8.634ZM240,312a16,16,0,1,1-16,16A16.019,16.019,0,0,1,240,312Zm64,0a16,16,0,1,1-16,16A16.019,16.019,0,0,1,304,312Zm64,0a16,16,0,1,1-16,16A16.019,16.019,0,0,1,368,312ZM112,112a24.028,24.028,0,0,1,24-24H424a24.028,24.028,0,0,1,24,24V344H432V128a24.027,24.027,0,0,0-24-24H152a24.027,24.027,0,0,0-24,24V344H112ZM96,360h48v16H96Zm384,64H80V392H480Z"/></svg>
