<svg xmlns="http://www.w3.org/2000/svg" width="158.218" height="123.867" viewBox="0 0 158.218 123.867">
  <g id="studying" transform="translate(-24.158 -12.979)">
    <path id="Path_190" data-name="Path 190" d="M27.551,122.424q8.9.4,17.8.384a.18.18,0,0,0,0-.36q-8.9.018-17.8-.384C27.322,122.052,27.322,122.412,27.551,122.424Z" fill="#e8e8e8"/>
    <path id="Path_191" data-name="Path 191" d="M45.717,113.5q1.393,5.2,2.593,10.464c.048.228.4.132.35-.1-.808-3.5-1.665-7-2.593-10.464A.182.182,0,0,0,45.717,113.5Z" fill="#e8e8e8"/>
    <path id="Path_192" data-name="Path 192" d="M61.881,113.76c-.338,3.3-.675,6.612-1,9.912-.024.228.338.228.362,0,.338-3.3.675-6.612,1-9.912C62.255,113.532,61.893,113.532,61.881,113.76Z" fill="#e8e8e8"/>
    <path id="Path_193" data-name="Path 193" d="M48.407,124.284a31.687,31.687,0,0,0,6.393.48,22.376,22.376,0,0,0,6.248-.864c.217-.072.121-.42-.1-.348a22.194,22.194,0,0,1-6.152.852,31.605,31.605,0,0,1-6.3-.468C48.274,123.888,48.178,124.236,48.407,124.284Z" fill="#e8e8e8"/>
    <path id="Path_194" data-name="Path 194" d="M45.862,113.616a29.762,29.762,0,0,0,7.792.72,68.419,68.419,0,0,0,8.3-.444c.229-.024.229-.384,0-.36a67.024,67.024,0,0,1-8.058.444,30.906,30.906,0,0,1-7.937-.708A.181.181,0,0,0,45.862,113.616Z" fill="#e8e8e8"/>
    <path id="Path_195" data-name="Path 195" d="M44.824,112.38c.024.228.048.468.072.7a1.442,1.442,0,0,0,.072.456c.145.312.627.2.9.2a.18.18,0,0,0,0-.36h-.41c-.181,0-.181-.036-.193-.216-.024-.264-.048-.516-.072-.78C45.162,112.152,44.8,112.14,44.824,112.38Z" fill="#e8e8e8"/>
    <path id="Path_196" data-name="Path 196" d="M45.066,112.572a85.014,85.014,0,0,0,9.083.54c1.5.012,2.992-.012,4.5-.06.748-.024,1.5-.06,2.244-.1a5.583,5.583,0,0,1,1.182-.06c.422.072.4.432.446.8.036-.072.084-.144.121-.216h-.47c-.229-.048-.326.3-.1.348a1.491,1.491,0,0,0,.651,0,.168.168,0,0,0,.121-.216c-.06-.42-.012-.948-.519-1.056a3.914,3.914,0,0,0-.989.024c-.4.024-.784.036-1.182.06-1.689.072-3.389.12-5.09.12a84.754,84.754,0,0,1-10.024-.552C44.836,112.188,44.836,112.548,45.066,112.572Z" fill="#e8e8e8"/>
    <path id="Path_197" data-name="Path 197" d="M47.683,121.3a16.509,16.509,0,0,0,3.377,3.288c.193.132.374-.18.181-.312a15.941,15.941,0,0,1-3.257-3.168C47.852,120.924,47.538,121.1,47.683,121.3Z" fill="#e8e8e8"/>
    <path id="Path_198" data-name="Path 198" d="M46.875,117.636a29.205,29.205,0,0,0,6.876,7c.193.132.374-.18.181-.312a28.984,28.984,0,0,1-6.743-6.864C47.056,117.264,46.742,117.444,46.875,117.636Z" fill="#e8e8e8"/>
    <path id="Path_199" data-name="Path 199" d="M46.139,114.42a48.09,48.09,0,0,0,11.194,10.092.18.18,0,0,0,.181-.312,47.236,47.236,0,0,1-11.122-10.032C46.248,113.988,45.994,114.252,46.139,114.42Z" fill="#e8e8e8"/>
    <path id="Path_200" data-name="Path 200" d="M49.6,114.216a63.53,63.53,0,0,0,10.374,9.8c.193.132.374-.18.181-.312a63.214,63.214,0,0,1-10.3-9.744C49.7,113.784,49.444,114.036,49.6,114.216Z" fill="#e8e8e8"/>
    <path id="Path_201" data-name="Path 201" d="M53.558,114.468a39.263,39.263,0,0,0,7.189,6.792c.193.132.374-.18.181-.312a38.524,38.524,0,0,1-7.117-6.732C53.666,114.036,53.413,114.288,53.558,114.468Z" fill="#e8e8e8"/>
    <path id="Path_202" data-name="Path 202" d="M56.79,114.336a22.016,22.016,0,0,0,4.608,3.9c.193.12.374-.192.181-.312a21.7,21.7,0,0,1-4.536-3.84C56.887,113.9,56.633,114.156,56.79,114.336Z" fill="#e8e8e8"/>
    <path id="Path_203" data-name="Path 203" d="M40.1,94.56a19.4,19.4,0,0,1,1.616,5.172.168.168,0,0,0,.169.132c.072,0,.458-.012.482.108.012.048-.229.324-.253.384a.889.889,0,0,0,0,.612.859.859,0,0,0,.494.468.791.791,0,0,0,.241.06.659.659,0,0,0,.217,0c.1-.012.084,0-.024.048-.121.18-.29.2-.338.468a1.321,1.321,0,0,0,.181.708c.4.84.627,1.728.953,2.6a18.539,18.539,0,0,0,5.694,7.464c.181.144.434-.108.253-.252a17.84,17.84,0,0,1-5.766-7.776c-.133-.408-.253-.816-.4-1.212-.121-.348-.35-.708-.458-1.056a.526.526,0,0,1,.048-.624l.145-.108c.036-.06.109-.1.145-.168a.314.314,0,0,0-.084-.348c-.157-.156-.4-.072-.6-.132-.784-.228-.145-.756-.084-1.14.084-.5-.543-.444-.881-.468a2.071,2.071,0,0,1,.169.132,19.612,19.612,0,0,0-1.653-5.256C40.313,94.164,40,94.344,40.1,94.56Z" fill="#e8e8e8"/>
    <path id="Path_204" data-name="Path 204" d="M40.228,94.476a19.385,19.385,0,0,1,9.855,6.84,27.723,27.723,0,0,1,5.2,11.484c.048.228.4.132.35-.1a28.117,28.117,0,0,0-5.283-11.64A19.7,19.7,0,0,0,40.337,94.14.177.177,0,1,0,40.228,94.476Z" fill="#e8e8e8"/>
    <path id="Path_205" data-name="Path 205" d="M41.652,95.964a44.13,44.13,0,0,1,10.784,16.62c.084.216.434.12.35-.1a44.648,44.648,0,0,0-10.88-16.776C41.748,95.544,41.483,95.8,41.652,95.964Z" fill="#e8e8e8"/>
    <path id="Path_206" data-name="Path 206" d="M43.787,103.512a11.216,11.216,0,0,1,2.943.708,5.274,5.274,0,0,1,2.5,1.644c.133.192.446.012.314-.18a5.238,5.238,0,0,0-2.4-1.68,11.562,11.562,0,0,0-3.365-.852C43.558,103.128,43.558,103.488,43.787,103.512Z" fill="#e8e8e8"/>
    <path id="Path_207" data-name="Path 207" d="M45.584,96.936a12.151,12.151,0,0,0,.663,4.044c.072.216.422.12.35-.1a12.155,12.155,0,0,1-.651-3.948A.181.181,0,0,0,45.584,96.936Z" fill="#e8e8e8"/>
    <path id="Path_208" data-name="Path 208" d="M52.206,103.464c.591-2.2,2.557-3.5,4.234-4.848,1.785-1.428,3.51-2.952,5.151-4.536-.1-.06-.2-.12-.3-.18a12.176,12.176,0,0,0-.627,4.512c.024,1.536.374,3.3-.121,4.788a2.072,2.072,0,0,0,.169-.132c-.386.024-.772.06-1.158.084-.121.012-.241.156-.157.276.278.372.6.492.591,1.044a3.644,3.644,0,0,1-.229,1.188c-.133.372-.482.624-.6.972-.1.312.145.576.145.888a2.559,2.559,0,0,1-.627,1.356,11.7,11.7,0,0,0-.688,1.188,13.4,13.4,0,0,0-.977,2.5.181.181,0,0,0,.35.1,12.922,12.922,0,0,1,1.3-3.06c.386-.648,1.11-1.4,1.025-2.22-.036-.324-.205-.42-.06-.792.012-.012.229-.3.241-.324a3.36,3.36,0,0,0,.41-1.212,3.572,3.572,0,0,0,.1-1.008c-.072-.444-.41-.48-.663-.816-.048.1-.109.18-.157.276.386-.024.772-.06,1.158-.084a.181.181,0,0,0,.169-.132,13.114,13.114,0,0,0,.133-4.452,12.521,12.521,0,0,1,.6-4.86c.072-.18-.181-.288-.3-.18a72.39,72.39,0,0,1-5.5,4.824c-1.64,1.3-3.414,2.616-3.981,4.728C51.8,103.6,52.146,103.692,52.206,103.464Z" fill="#e8e8e8"/>
    <path id="Path_209" data-name="Path 209" d="M60.252,95.64c-1.182,2.052-2.388,4.08-3.522,6.156a21.836,21.836,0,0,0-2.449,6.06c-.048.228.3.324.35.1a22.17,22.17,0,0,1,2.521-6.168c1.11-2,2.28-3.972,3.414-5.964C60.674,95.628,60.361,95.436,60.252,95.64Z" fill="#e8e8e8"/>
    <path id="Path_210" data-name="Path 210" d="M56.694,98.976a7.947,7.947,0,0,1,.205,2.064c-.012.228.35.228.362,0a8.161,8.161,0,0,0-.217-2.16A.181.181,0,0,0,56.694,98.976Z" fill="#e8e8e8"/>
    <path id="Path_211" data-name="Path 211" d="M58.66,96.684a4.133,4.133,0,0,1,.1,1.536c-.024.228.338.228.362,0a4.142,4.142,0,0,0-.109-1.632A.182.182,0,0,0,58.66,96.684Z" fill="#e8e8e8"/>
    <path id="Path_212" data-name="Path 212" d="M58.744,99.072a17.207,17.207,0,0,1,2.207-1.1c.217-.084.121-.432-.1-.348a18.66,18.66,0,0,0-2.3,1.14A.184.184,0,0,0,58.744,99.072Z" fill="#e8e8e8"/>
    <path id="Path_213" data-name="Path 213" d="M55.632,105.1c.458-.384.917-.756,1.387-1.116a7.417,7.417,0,0,1,1.64-1.14c.217-.084.121-.432-.1-.348a5.725,5.725,0,0,0-1.448.96c-.591.456-1.17.912-1.737,1.392C55.2,104.988,55.451,105.24,55.632,105.1Z" fill="#e8e8e8"/>
    <path id="Path_214" data-name="Path 214" d="M41.664,98.364c.844.084,1.689.168,2.533.24.229.024.229-.336,0-.36-.844-.084-1.689-.168-2.533-.24C41.435,97.98,41.435,98.34,41.664,98.364Z" fill="#e8e8e8"/>
    <path id="Path_215" data-name="Path 215" d="M63.8,122.3H121.9a.18.18,0,0,0,0-.36H63.8A.18.18,0,1,0,63.8,122.3Z" fill="#e8e8e8"/>
    <path id="Path_216" data-name="Path 216" d="M114.919,92.9V98.16a.181.181,0,0,0,.362,0V92.9A.181.181,0,0,0,114.919,92.9Z" fill="#e8e8e8"/>
    <path id="Path_217" data-name="Path 217" d="M106.6,98.964h17.551a.18.18,0,0,0,0-.36H106.6A.18.18,0,0,0,106.6,98.964Z" fill="#e8e8e8"/>
    <path id="Path_218" data-name="Path 218" d="M110.529,99.06v4.548a.181.181,0,0,0,.362,0V99.06A.181.181,0,0,0,110.529,99.06Z" fill="#e8e8e8"/>
    <path id="Path_219" data-name="Path 219" d="M119.576,98.964v4.008a.181.181,0,0,0,.362,0V98.964A.181.181,0,0,0,119.576,98.964Z" fill="#e8e8e8"/>
    <path id="Path_220" data-name="Path 220" d="M113.846,103.956h13.425a.18.18,0,0,0,0-.36H113.846A.18.18,0,0,0,113.846,103.956Z" fill="#e8e8e8"/>
    <path id="Path_221" data-name="Path 221" d="M103.725,125.784h29.638a.18.18,0,0,0,0-.36H103.725A.18.18,0,0,0,103.725,125.784Z" fill="#e8e8e8"/>
    <path id="Path_222" data-name="Path 222" d="M144.581,122.676h37.285a.18.18,0,0,0,0-.36H144.581A.18.18,0,0,0,144.581,122.676Z" fill="#e8e8e8"/>
    <path id="Path_223" data-name="Path 223" d="M24.33,128.82h29.83a.18.18,0,0,0,0-.36H24.33A.18.18,0,0,0,24.33,128.82Z" fill="#e8e8e8"/>
    <path id="Path_224" data-name="Path 224" d="M44.378,132.42H68.732a.18.18,0,0,0,0-.36H44.378A.18.18,0,1,0,44.378,132.42Z" fill="#e8e8e8"/>
    <path id="Path_225" data-name="Path 225" d="M167.789,29.82V19.788a.181.181,0,0,0-.362,0V29.82A.181.181,0,0,0,167.789,29.82Z" fill="#e8e8e8"/>
    <path id="Path_226" data-name="Path 226" d="M167.729,19.716h13.064a.18.18,0,0,0,0-.36H167.729A.18.18,0,0,0,167.729,19.716Z" fill="#e8e8e8"/>
    <path id="Path_227" data-name="Path 227" d="M180.612,19.56q-.036,5.094-.085,10.188a.181.181,0,0,0,.362,0q.036-5.094.085-10.188A.181.181,0,0,0,180.612,19.56Z" fill="#e8e8e8"/>
    <path id="Path_228" data-name="Path 228" d="M167.789,30h12.883a.18.18,0,0,0,0-.36H167.789A.18.18,0,0,0,167.789,30Z" fill="#e8e8e8"/>
    <path id="Path_229" data-name="Path 229" d="M168.139,20.484v8.448a.181.181,0,0,0,.362,0V20.484A.181.181,0,0,0,168.139,20.484Z" fill="#e8e8e8"/>
    <path id="Path_230" data-name="Path 230" d="M168.4,20.664h11.423a.18.18,0,0,0,0-.36H168.4A.18.18,0,1,0,168.4,20.664Z" fill="#e8e8e8"/>
    <path id="Path_231" data-name="Path 231" d="M179.635,20.568q-.018,4.14-.036,8.292a.181.181,0,0,0,.362,0q.018-4.14.036-8.292A.181.181,0,0,0,179.635,20.568Z" fill="#e8e8e8"/>
    <path id="Path_232" data-name="Path 232" d="M168.477,29.16h11.254a.18.18,0,0,0,0-.36H168.477A.18.18,0,0,0,168.477,29.16Z" fill="#e8e8e8"/>
    <path id="Path_233" data-name="Path 233" d="M168.4,26.676a6.916,6.916,0,0,1,4.2.348,36.679,36.679,0,0,1,4.041,1.428c.217.084.314-.264.1-.348a37.225,37.225,0,0,0-4.476-1.548,6.665,6.665,0,0,0-3.956-.228C168.091,26.4,168.187,26.748,168.4,26.676Z" fill="#e8e8e8"/>
    <path id="Path_234" data-name="Path 234" d="M172.988,27.084c2.28-.132,4.415-1.044,6.671-1.3.229-.024.229-.384,0-.36-2.256.252-4.391,1.152-6.671,1.3C172.747,26.748,172.747,27.108,172.988,27.084Z" fill="#e8e8e8"/>
    <path id="Path_235" data-name="Path 235" d="M177.307,22.692c-.507-.288-.049-1.236.494-1.008a.485.485,0,0,1,.193.72.7.7,0,0,1-.808.24.181.181,0,0,0-.1.348,1.066,1.066,0,0,0,1.266-.48.846.846,0,0,0-.41-1.164c-.941-.4-1.713,1.164-.82,1.656C177.319,23.112,177.512,22.8,177.307,22.692Z" fill="#e8e8e8"/>
    <path id="Path_236" data-name="Path 236" d="M173.616,19.476a2.5,2.5,0,0,1,.084-.6c.048-.156.169-.528.35-.6.326-.12.446,1.02.47,1.236s.386.228.362,0c-.036-.42-.132-1.74-.808-1.644-.289.036-.494.36-.6.6a2.577,2.577,0,0,0-.2,1A.175.175,0,1,0,173.616,19.476Z" fill="#e8e8e8"/>
    <path id="Path_237" data-name="Path 237" d="M175.642,75.456v4.332a.181.181,0,0,0,.362,0V75.456A.181.181,0,0,0,175.642,75.456Z" fill="#e8e8e8"/>
    <path id="Path_238" data-name="Path 238" d="M171.263,80.316h9.856a.18.18,0,0,0,0-.36h-9.856A.18.18,0,0,0,171.263,80.316Z" fill="#e8e8e8"/>
    <path id="Path_239" data-name="Path 239" d="M172.651,80.424v2.04a.181.181,0,0,0,.362,0v-2.04A.181.181,0,0,0,172.651,80.424Z" fill="#e8e8e8"/>
    <path id="Path_240" data-name="Path 240" d="M177.922,80.532v2.424a.181.181,0,0,0,.362,0V80.532A.181.181,0,0,0,177.922,80.532Z" fill="#e8e8e8"/>
    <path id="Path_241" data-name="Path 241" d="M175.365,83.424H182.2a.18.18,0,0,0,0-.36h-6.839A.18.18,0,0,0,175.365,83.424Z" fill="#e8e8e8"/>
    <path id="Path_242" data-name="Path 242" d="M91.9,118.512a66.288,66.288,0,0,1,6.2-4c1.206-.384,5.115-1.62,8.529.456,2.448,1.488,4.7,4.716,3.763,6.876-.675,1.536-2.738,2.016-4.608,2.46a14.174,14.174,0,0,1-6.453-.024,7.389,7.389,0,0,1-2.521,1.62c-1.942.744-4.186.612-4.294.168-.048-.228.434-.672,2.774-1.584a3.775,3.775,0,0,0-1.267-.912,4.636,4.636,0,0,0-3.751.132c1.677.972,2.039,1.476,1.954,1.752-.217.7-3.631.924-4.548-.672a2.321,2.321,0,0,1-.145-1.716C87.972,121.2,89.54,120.108,91.9,118.512Z" fill="#161616"/>
    <path id="Path_243" data-name="Path 243" d="M108.454,121.176c.386-.792,2.123-.6,2.8-.528a3.846,3.846,0,0,1,2.34.792c.531.456,1.3,1.452,1.026,2.256-.254.768-1.206.708-3.052,1.608-.314.156-3.329,1.632-3.124,2.6.084.4.627.384,2.352,1.116a7.624,7.624,0,0,1,3.112,1.848c.362.42,1.086,1.248.893,2.088-.362,1.548-3.6,1.812-3.679,1.572-.073-.2,2.195-.768,2.219-1.824.024-.8-1.242-1.452-2.038-1.872-2.341-1.212-3.921-.78-4.536-1.944a2.11,2.11,0,0,1-.121-1.5c.181-.648.688-1.2,3.161-2.436,2.256-1.128,3.257-1.392,3.245-1.9-.012-.468-.881-.852-1.412-.984-1.5-.4-2.593.54-3.1.012A.889.889,0,0,1,108.454,121.176Z" fill="#161616"/>
    <path id="Path_244" data-name="Path 244" d="M87.851,115.368l2.28,1.692c1.086-.108,2.159-.2,3.245-.312.675-.648,1.351-1.308,2.026-1.956.048.408.145,1.332.181,1.776.422,4,.458,4.344.205,4.8-.832,1.476-3.643,2.076-5.259,1.044-.784-.5-1.086-1.26-1.653-2.712A15.8,15.8,0,0,1,87.851,115.368Z" fill="#161616"/>
    <path id="Path_245" data-name="Path 245" d="M90.915,119.52a.932.932,0,0,1-.989.528c-.109-.024-.157.156-.048.168a1.1,1.1,0,0,0,1.194-.612C91.12,119.508,90.975,119.412,90.915,119.52Z" fill="#fff"/>
    <path id="Path_246" data-name="Path 246" d="M92.592,119.4a1.714,1.714,0,0,0,1.472.468c.121-.012.06-.192-.048-.168a1.536,1.536,0,0,1-1.3-.42A.085.085,0,1,0,92.592,119.4Z" fill="#fff"/>
    <path id="Path_247" data-name="Path 247" d="M91.952,120.54c-.036,0-.06-.012-.1-.012.012-.012.012-.036.024-.048.024.024.06.048.085.072,0-.024-.012-.036-.012-.06-.036-.108-.205-.06-.169.048.06.264.157.672-.169.8-.109.048-.06.216.048.168.434-.18.386-.648.3-1.032-.06.012-.121.036-.169.048,0,.024.012.036.012.06a.1.1,0,0,0,.084.072c.314-.024.06-.456-.084-.2C91.747,120.54,91.892,120.636,91.952,120.54Z" fill="#fff"/>
    <path id="Path_248" data-name="Path 248" d="M91.832,120.624a1.837,1.837,0,0,0,.205.612.453.453,0,0,0,.458.18c.109-.024.06-.192-.048-.168-.338.072-.386-.456-.446-.672C91.977,120.468,91.808,120.516,91.832,120.624Z" fill="#fff"/>
    <path id="Path_249" data-name="Path 249" d="M91.253,120.792a2.3,2.3,0,0,0-1.1-.2c-.121.012-.121.192,0,.18a2.041,2.041,0,0,1,1,.18C91.265,121,91.361,120.84,91.253,120.792Z" fill="#fff"/>
    <path id="Path_250" data-name="Path 250" d="M90.939,121.032a1.211,1.211,0,0,0-.772.348c-.084.084.048.2.133.132a1.094,1.094,0,0,1,.651-.3C91.048,121.2,91.048,121.02,90.939,121.032Z" fill="#fff"/>
    <path id="Path_251" data-name="Path 251" d="M92.664,120.708a2.336,2.336,0,0,1,1.074-.144c.121.012.121-.168,0-.18a2.551,2.551,0,0,0-1.122.156C92.507,120.576,92.544,120.756,92.664,120.708Z" fill="#fff"/>
    <path id="Path_252" data-name="Path 252" d="M92.905,121.032a1.542,1.542,0,0,1,.772.084c.109.036.157-.132.048-.168a1.735,1.735,0,0,0-.82-.084C92.785,120.864,92.785,121.056,92.905,121.032Z" fill="#fff"/>
    <path id="Path_253" data-name="Path 253" d="M90.059,118.992a.558.558,0,0,1,.579,0c.1.06.193-.1.1-.156a.779.779,0,0,0-.76,0A.089.089,0,1,0,90.059,118.992Z" fill="#fff"/>
    <path id="Path_254" data-name="Path 254" d="M92.592,118.752a1.024,1.024,0,0,1,.6-.1c.109.012.169-.156.048-.168a1.2,1.2,0,0,0-.736.12C92.387,118.644,92.483,118.8,92.592,118.752Z" fill="#fff"/>
    <path id="Path_255" data-name="Path 255" d="M89.709,114.984c.374-.156.748-.312,1.11-.48a2.319,2.319,0,0,1-.205-.156,4.116,4.116,0,0,1-.651,1.248c-.072.1.048.24.157.2.41-.156.82-.3,1.23-.456.157-.06.1-.324-.072-.264-.41.156-.82.3-1.23.456a2.3,2.3,0,0,0,.157.2,4.125,4.125,0,0,0,.688-1.308c.036-.12-.1-.192-.205-.156-.374.156-.748.312-1.11.48C89.407,114.828,89.552,115.056,89.709,114.984Z" fill="#161616"/>
    <path id="Path_256" data-name="Path 256" d="M90.312,112.8a2.713,2.713,0,0,1,.784-.3,2.321,2.321,0,0,0-.157-.2,4,4,0,0,1-.4.7.139.139,0,0,0,.121.2,1.271,1.271,0,0,0,.881-.252c.133-.108,0-.336-.133-.228a1.012,1.012,0,0,1-.736.216,1.8,1.8,0,0,0,.121.2,4.492,4.492,0,0,0,.4-.7.143.143,0,0,0-.157-.2,2.744,2.744,0,0,0-.856.324A.137.137,0,0,0,90.312,112.8Z" fill="#161616"/>
    <path id="Path_257" data-name="Path 257" d="M92.3,115.7c-.4-.4.289-.624.362-.972.072-.408-.41-.792.133-1.1.157-.084.012-.324-.133-.228a.766.766,0,0,0-.4.5c-.072.384.265.612-.024.96-.133.168-.289.216-.338.444a.646.646,0,0,0,.205.588C92.242,116.016,92.435,115.824,92.3,115.7Z" fill="#161616"/>
    <path id="Path_258" data-name="Path 258" d="M125.607,81.444Q80.246,84.7,34.9,87.948,33.667,55.224,32.448,22.5l91.12-1.224Q124.582,51.354,125.607,81.444Z" fill="#fff" stroke="#161616" stroke-miterlimit="10" stroke-width="3.5"/>
    <path id="Path_259" data-name="Path 259" d="M58.141,33.12h17.6a.18.18,0,0,0,0-.36h-17.6A.18.18,0,0,0,58.141,33.12Z" fill="#161616"/>
    <path id="Path_260" data-name="Path 260" d="M64.728,34.6h18.13a.18.18,0,0,0,0-.36H64.728A.18.18,0,1,0,64.728,34.6Z" fill="#161616"/>
    <path id="Path_261" data-name="Path 261" d="M36.115,69.8q.326,7.524.651,15.06c.012.228.374.228.362,0Q36.8,77.34,36.477,69.8C36.465,69.576,36.1,69.576,36.115,69.8Z" fill="#161616"/>
    <path id="Path_262" data-name="Path 262" d="M62.689,66.876h1.568a.18.18,0,0,0,0-.36H62.689A.18.18,0,0,0,62.689,66.876Z" fill="#161616"/>
    <path id="Path_263" data-name="Path 263" d="M65.62,66.876h4a.18.18,0,0,0,0-.36h-4A.18.18,0,0,0,65.62,66.876Z" fill="#161616"/>
    <path id="Path_264" data-name="Path 264" d="M72.653,66.684h4.789a.18.18,0,0,0,0-.36H72.653A.18.18,0,0,0,72.653,66.684Z" fill="#161616"/>
    <path id="Path_265" data-name="Path 265" d="M64.848,69.4h5.862a.18.18,0,0,0,0-.36H64.848A.18.18,0,1,0,64.848,69.4Z" fill="#161616"/>
    <path id="Path_266" data-name="Path 266" d="M67.671,68.04H74.51a.18.18,0,0,0,0-.36H67.671A.18.18,0,0,0,67.671,68.04Z" fill="#161616"/>
    <path id="Path_267" data-name="Path 267" d="M79.782,80.868H91.3a.18.18,0,0,0,0-.36H79.782A.18.18,0,0,0,79.782,80.868Z" fill="#161616"/>
    <path id="Path_268" data-name="Path 268" d="M89.251,81.84h6.055a.18.18,0,0,0,0-.36H89.251A.18.18,0,0,0,89.251,81.84Z" fill="#161616"/>
    <path id="Path_269" data-name="Path 269" d="M94.522,80.376h5.959a.18.18,0,0,0,0-.36H94.522A.18.18,0,0,0,94.522,80.376Z" fill="#161616"/>
    <path id="Path_270" data-name="Path 270" d="M104.678,47.844h11.038a.18.18,0,0,0,0-.36H104.678A.18.18,0,0,0,104.678,47.844Z" fill="#161616"/>
    <path id="Path_271" data-name="Path 271" d="M101.265,48.42h3.51a.18.18,0,0,0,0-.36h-3.51A.18.18,0,1,0,101.265,48.42Z" fill="#161616"/>
    <path id="Path_272" data-name="Path 272" d="M101.94,49.392h11.809a.18.18,0,0,0,0-.36H101.94A.18.18,0,0,0,101.94,49.392Z" fill="#161616"/>
    <path id="Path_273" data-name="Path 273" d="M116.5,48.516h2.243a.18.18,0,0,0,0-.36H116.5A.18.18,0,1,0,116.5,48.516Z" fill="#161616"/>
    <path id="Path_274" data-name="Path 274" d="M113.569,63.18h3.317a.18.18,0,0,0,0-.36h-3.317A.18.18,0,1,0,113.569,63.18Z" fill="#161616"/>
    <path id="Path_275" data-name="Path 275" d="M111.421,64.152h3.607a.18.18,0,0,0,0-.36h-3.607A.18.18,0,1,0,111.421,64.152Z" fill="#161616"/>
    <path id="Path_276" data-name="Path 276" d="M113.171,65.124H120.3a.18.18,0,0,0,0-.36h-7.129A.18.18,0,0,0,113.171,65.124Z" fill="#161616"/>
    <path id="Path_277" data-name="Path 277" d="M117.67,63.96h2.147a.18.18,0,0,0,0-.36H117.67A.18.18,0,1,0,117.67,63.96Z" fill="#161616"/>
    <path id="Path_278" data-name="Path 278" d="M67.984,49h5.054a.18.18,0,0,0,0-.36H67.984A.18.18,0,0,0,67.984,49Z" fill="#161616"/>
    <path id="Path_279" data-name="Path 279" d="M71.663,50.028H79.13a.18.18,0,0,0,0-.36H71.663A.18.18,0,0,0,71.663,50.028Z" fill="#161616"/>
    <path id="Path_280" data-name="Path 280" d="M78.213,48.648h4.246a.18.18,0,0,0,0-.36H78.213A.18.18,0,0,0,78.213,48.648Z" fill="#161616"/>
    <path id="Path_281" data-name="Path 281" d="M35.042,29.5q.4,13.662.8,27.336c.072,2.592.145,5.172.229,7.764.012.228.374.228.362,0q-.4-13.662-.8-27.336c-.072-2.592-.145-5.172-.229-7.764A.181.181,0,0,0,35.042,29.5Z" fill="#161616"/>
    <path id="Path_282" data-name="Path 282" d="M122.724,59.268q.271,9.036.543,18.06c.012.228.374.228.362,0q-.271-9.036-.543-18.06A.181.181,0,0,0,122.724,59.268Z" fill="#161616"/>
    <path id="Path_283" data-name="Path 283" d="M97.742,56.508c.072.732.145,1.476.205,2.208.7-.18,1.387-.372,2.086-.552-.1-.732-.181-1.476-.277-2.208C99.081,56.136,98.418,56.328,97.742,56.508Z" fill="#ec615b"/>
    <path id="Path_284" data-name="Path 284" d="M97.32,62.112c.724-.1,1.435-.18,2.159-.276.1.876.181,1.752.277,2.628l-1.942.072C97.646,63.72,97.489,62.916,97.32,62.112Z" fill="#ec615b"/>
    <path id="Path_285" data-name="Path 285" d="M99.962,67.428c.229.756.459,1.524.7,2.28.651-.3,1.3-.6,1.942-.9-.2-.672-.422-1.332-.627-2C101.313,67.02,100.638,67.224,99.962,67.428Z" fill="#ec615b"/>
    <path id="Path_286" data-name="Path 286" d="M52.279,74.58q.235,3.492.47,6.972c4.1-.264,8.2-.516,12.3-.78.072-2.088.157-4.188.229-6.276C60.952,74.532,56.61,74.556,52.279,74.58Z" fill="#5222d0"/>
    <path id="Path_287" data-name="Path 287" d="M103.267,27.216a.721.721,0,1,0-.856-.708A.793.793,0,0,0,103.267,27.216Z" fill="#5222d0"/>
    <path id="Path_288" data-name="Path 288" d="M45.066,32.52c.393,0,.712-.209.712-.468s-.319-.468-.712-.468-.712.21-.712.468S44.673,32.52,45.066,32.52Z" fill="#ec615b"/>
    <path id="Path_289" data-name="Path 289" d="M56.392,46.092a.656.656,0,1,0-.555-.648A.607.607,0,0,0,56.392,46.092Z" fill="#ec615b"/>
    <path id="Path_290" data-name="Path 290" d="M51.3,29.928c.217-.036.639,1.968,1.677,5.6,1.363,4.788,2.714,8.652,3.691,11.292a18.127,18.127,0,0,1-16.538,1.308,34.072,34.072,0,0,0,6.948.084c2.618-.24,2.159-.516,4.137-.612a5.817,5.817,0,0,0,2.992-.7,4.632,4.632,0,0,0,.881-.7,39.277,39.277,0,0,1-2.557-6.828C51.266,34.644,50.988,29.988,51.3,29.928Z" fill="#6d6c6c" opacity="0.21"/>
    <path id="Path_291" data-name="Path 291" d="M62.6,42.948A28.605,28.605,0,0,0,63.726,48a29.927,29.927,0,0,0,6.538,11.16,23.632,23.632,0,0,1-4.68,2.688,25.379,25.379,0,0,1-13.8,1.644l-.326-1.908c1.206.036,2.485.012,3.824-.06a43.5,43.5,0,0,0,12.147-2.556,46.192,46.192,0,0,1-2.3-4.4,23.679,23.679,0,0,1-2.509-7.548A17.441,17.441,0,0,1,62.6,42.948Z" fill="#6d6c6c" opacity="0.25"/>
    <path id="Path_292" data-name="Path 292" d="M100.951,50.892a60.335,60.335,0,0,0,.664,6.636c.591,3.744,1.025,6.336,2.569,9.252a19.816,19.816,0,0,0,2.835,4.008,23.119,23.119,0,0,1-5.549,3.54,24.471,24.471,0,0,1-14.053,1.7c-.133-.588-.265-1.176-.4-1.776.326.024.832.048,1.448.06A32.154,32.154,0,0,0,99.685,72.8a28.835,28.835,0,0,0,5.476-2.5,23.074,23.074,0,0,1-2.437-4.068A25.677,25.677,0,0,1,100.951,50.892Z" fill="#6d6c6c" opacity="0.14"/>
    <path id="Path_293" data-name="Path 293" d="M110.191,23.976c.241,1.116.591,2.82.941,4.944.651,4.1.6,5.592,1.363,8.016a20.5,20.5,0,0,0,2.449,5.088,19.823,19.823,0,0,1-4.246,2.652,21.869,21.869,0,0,1-13.534,1.356c.024-.48.048-.96.072-1.428.314.084.784.192,1.363.288.76.12,3.571.528,8.854-.792a40.8,40.8,0,0,0,5.681-1.86,24.969,24.969,0,0,1-1.652-3.5,27.118,27.118,0,0,1-1.653-10.308A32.131,32.131,0,0,1,110.191,23.976Z" fill="#6d6c6c" opacity="0.18"/>
    <path id="Path_294" data-name="Path 294" d="M38.082,29.244c-1.194,6.288.012,12.648,1.218,18.84.048.228.4.132.35-.1-1.194-6.12-2.388-12.42-1.218-18.648C38.467,29.124,38.118,29.016,38.082,29.244Z" fill="#161616"/>
    <path id="Path_295" data-name="Path 295" d="M38.419,29.2a9.178,9.178,0,0,0,5.85,1.212c2.328-.168,4.632-.66,6.936-1.044.229-.036.133-.384-.1-.348-2.207.36-4.415.828-6.646,1.008A8.971,8.971,0,0,1,38.6,28.872C38.407,28.752,38.226,29.064,38.419,29.2Z" fill="#161616"/>
    <path id="Path_296" data-name="Path 296" d="M50.964,29.616c.338,5.736,1.206,11.592,4.125,16.632a.181.181,0,0,0,.314-.18c-2.883-4.992-3.739-10.788-4.077-16.452C51.314,29.388,50.952,29.388,50.964,29.616Z" fill="#161616"/>
    <path id="Path_297" data-name="Path 297" d="M39.6,48.18c2.738.792,5.681.312,8.468.084,2.473-.2,5.127-.3,7.25-1.74.193-.132.012-.444-.181-.312-2.135,1.452-4.813,1.5-7.3,1.7-2.678.216-5.5.66-8.142-.1A.187.187,0,0,0,39.6,48.18Z" fill="#161616"/>
    <path id="Path_298" data-name="Path 298" d="M44.233,32.124c-.241-.108.024-.336.169-.372.181-.048.531-.072.615.132a.35.35,0,0,1-.181.42.588.588,0,0,1-.639-.18.179.179,0,1,0-.253.252.914.914,0,0,0,1.17.18.7.7,0,0,0,.157-.984,1,1,0,0,0-1.23-.048.531.531,0,0,0,.024.9C44.27,32.532,44.451,32.22,44.233,32.124Z" fill="#161616"/>
    <path id="Path_299" data-name="Path 299" d="M49.07,48.228c-.868,4.38.06,8.808,1,13.1.048.228.4.132.35-.1-.929-4.224-1.846-8.592-1-12.912C49.468,48.1,49.119,48,49.07,48.228Z" fill="#161616"/>
    <path id="Path_300" data-name="Path 300" d="M54.052,43.632a37.52,37.52,0,0,1,8.432-.612l-.181-.18c-.567,5.784,1.918,11.292,4.934,16.08.121.192.434.012.314-.18C64.571,54,62.1,48.564,62.665,42.84c.012-.1-.1-.18-.181-.18a38.332,38.332,0,0,0-8.528.624C53.727,43.332,53.823,43.68,54.052,43.632Z" fill="#161616"/>
    <path id="Path_301" data-name="Path 301" d="M50.265,61.584a34.056,34.056,0,0,0,17.237-2.5c.217-.1.024-.4-.181-.312a33.73,33.73,0,0,1-17.056,2.448C50.035,61.2,50.035,61.56,50.265,61.584Z" fill="#161616"/>
    <path id="Path_302" data-name="Path 302" d="M56.32,45.108a.824.824,0,0,0,.036-.1.31.31,0,0,1,.084-.132.5.5,0,0,1,.253-.12.35.35,0,0,1,.4.252.279.279,0,0,1-.193.36.286.286,0,0,1-.326-.24c-.036-.228-.386-.132-.35.1a.655.655,0,0,0,.953.42.692.692,0,0,0,.036-1.092.8.8,0,0,0-1.17.264.437.437,0,0,0,.133.6.343.343,0,0,0,.495-.216C56.706,44.976,56.356,44.88,56.32,45.108Z" fill="#161616"/>
    <path id="Path_303" data-name="Path 303" d="M39.276,35.772a23.079,23.079,0,0,0,9.469-1.092.181.181,0,0,0-.1-.348,22.8,22.8,0,0,1-9.276,1.092C39.143,35.388,39.046,35.736,39.276,35.772Z" fill="#161616"/>
    <path id="Path_304" data-name="Path 304" d="M39.879,38.124a12.063,12.063,0,0,0,4.934-.492c.217-.072.133-.42-.1-.348a11.987,11.987,0,0,1-4.837.48C39.65,37.74,39.65,38.1,39.879,38.124Z" fill="#161616"/>
    <path id="Path_305" data-name="Path 305" d="M39.879,41.028a25.741,25.741,0,0,0,9.481-.66.181.181,0,0,0-.1-.348,25.24,25.24,0,0,1-9.385.648C39.65,40.632,39.65,40.992,39.879,41.028Z" fill="#161616"/>
    <path id="Path_306" data-name="Path 306" d="M51.8,59.448A28.626,28.626,0,0,0,61.253,58.3a.181.181,0,0,0-.1-.348,28.362,28.362,0,0,1-9.361,1.14C51.555,59.076,51.555,59.436,51.8,59.448Z" fill="#161616"/>
    <path id="Path_307" data-name="Path 307" d="M52.412,56.7c1.423-.048,2.847-.156,4.27-.312.229-.024.229-.384,0-.36-1.423.156-2.835.264-4.27.312C52.182,56.352,52.182,56.712,52.412,56.7Z" fill="#161616"/>
    <path id="Path_308" data-name="Path 308" d="M53.57,51.756a10.847,10.847,0,0,0,2.847-.252c1.025-.156,2.039-.3,3.064-.456.229-.036.133-.384-.1-.348-.941.144-1.894.288-2.835.42a10.867,10.867,0,0,1-2.979.276C53.341,51.36,53.341,51.72,53.57,51.756Z" fill="#161616"/>
    <path id="Path_309" data-name="Path 309" d="M96.2,24.852a54,54,0,0,0-.4,19.488c.036.228.386.132.35-.1a53.761,53.761,0,0,1,.4-19.3C96.6,24.72,96.247,24.624,96.2,24.852Z" fill="#161616"/>
    <path id="Path_310" data-name="Path 310" d="M96.609,24.936a37.631,37.631,0,0,1,13.365-.6c.229.036.326-.312.1-.348a38.166,38.166,0,0,0-13.559.6A.181.181,0,0,0,96.609,24.936Z" fill="#161616"/>
    <path id="Path_311" data-name="Path 311" d="M109.866,24.012c-.133,6.18-.049,12.708,3.1,18.24a.181.181,0,0,0,.313-.18c-3.112-5.472-3.184-11.94-3.052-18.06C110.239,23.784,109.878,23.784,109.866,24.012Z" fill="#161616"/>
    <path id="Path_312" data-name="Path 312" d="M96.078,44.532a14.966,14.966,0,0,0,4.2.444,31.8,31.8,0,0,0,4.523-.288,32.909,32.909,0,0,0,8.384-2.292c.217-.084.024-.4-.181-.312a32.506,32.506,0,0,1-8.42,2.268,30.865,30.865,0,0,1-4.077.252,14.89,14.89,0,0,1-4.318-.432C95.945,44.124,95.861,44.472,96.078,44.532Z" fill="#161616"/>
    <path id="Path_313" data-name="Path 313" d="M103.46,25.32a.779.779,0,0,0-.446,1.008.7.7,0,0,0,1.074.288.721.721,0,0,0,.132-1.128.842.842,0,0,0-1.146.012c-.157.168.1.42.254.252.361-.384,1.073.156.579.54-.193.144-.471.144-.555-.108a.422.422,0,0,1,.205-.528C103.774,25.584,103.677,25.236,103.46,25.32Z" fill="#161616"/>
    <path id="Path_314" data-name="Path 314" d="M96.379,30.432q4.94.126,9.856-.192c.229-.012.229-.372,0-.36-3.282.216-6.575.288-9.856.192A.18.18,0,1,0,96.379,30.432Z" fill="#161616"/>
    <path id="Path_315" data-name="Path 315" d="M96.705,32.256l3.679.144c.229.012.229-.348,0-.36L96.705,31.9C96.464,31.884,96.464,32.244,96.705,32.256Z" fill="#161616"/>
    <path id="Path_316" data-name="Path 316" d="M96.367,34.8a34.4,34.4,0,0,0,9.289-.36c.229-.048.132-.4-.1-.348a34.185,34.185,0,0,1-9.192.348C96.138,34.428,96.138,34.788,96.367,34.8Z" fill="#161616"/>
    <path id="Path_317" data-name="Path 317" d="M51.4,73.812a48.2,48.2,0,0,0-.29,7.224c.012.228.374.228.362,0a48.174,48.174,0,0,1,.29-7.224C51.784,73.584,51.423,73.584,51.4,73.812Z" fill="#161616"/>
    <path id="Path_318" data-name="Path 318" d="M51.519,73.956c4.294,0,8.6-.06,12.895-.192.229-.012.229-.372,0-.36-4.294.132-8.6.192-12.895.192A.18.18,0,0,0,51.519,73.956Z" fill="#161616"/>
    <path id="Path_319" data-name="Path 319" d="M64.378,73.6c.036,2.088.072,4.164.109,6.252a.181.181,0,0,0,.362,0c-.036-2.088-.072-4.164-.109-6.252C64.74,73.368,64.366,73.368,64.378,73.6Z" fill="#161616"/>
    <path id="Path_320" data-name="Path 320" d="M51.073,80.772c.024.78,1.387.432,1.833.408,1.279-.084,2.557-.168,3.824-.264,2.593-.18,5.187-.348,7.78-.528.229-.012.229-.372,0-.36-2.207.144-4.4.3-6.61.444l-3.148.216c-.314.024-3.317.312-3.329.084C51.435,80.544,51.073,80.544,51.073,80.772Z" fill="#161616"/>
    <path id="Path_321" data-name="Path 321" d="M52.5,75.576a50.911,50.911,0,0,1,8.661.336c.229.024.229-.336,0-.36a50.931,50.931,0,0,0-8.661-.336C52.255,75.228,52.255,75.588,52.5,75.576Z" fill="#161616"/>
    <path id="Path_322" data-name="Path 322" d="M52.6,77.4c1.616-.12,3.245-.252,4.861-.372.229-.012.229-.372,0-.36-1.616.12-3.245.252-4.861.372C52.376,77.052,52.376,77.412,52.6,77.4Z" fill="#161616"/>
    <path id="Path_323" data-name="Path 323" d="M53.147,79.236c2.328-.3,4.861-.912,7.2-.492.229.036.326-.3.1-.348-2.388-.432-4.922.168-7.3.48C52.93,78.912,52.918,79.272,53.147,79.236Z" fill="#161616"/>
    <path id="Path_324" data-name="Path 324" d="M84.522,53.388A34.346,34.346,0,0,0,85.2,74.112c.072.216.422.12.35-.1a34.1,34.1,0,0,1-.675-20.532A.181.181,0,0,0,84.522,53.388Z" fill="#161616"/>
    <path id="Path_325" data-name="Path 325" d="M84.763,53.508a64.169,64.169,0,0,0,15.911-2.076.181.181,0,0,0-.1-.348,63.882,63.882,0,0,1-15.814,2.064A.18.18,0,1,0,84.763,53.508Z" fill="#161616"/>
    <path id="Path_326" data-name="Path 326" d="M100.577,51.216a40.849,40.849,0,0,0,.531,10,22.726,22.726,0,0,0,1.327,4.9,17.144,17.144,0,0,0,2.654,4.236c.144.18.41-.072.253-.252a16.622,16.622,0,0,1-2.678-4.344,22.909,22.909,0,0,1-1.23-4.728,41.049,41.049,0,0,1-.507-9.8C100.951,50.988,100.589,50.988,100.577,51.216Z" fill="#161616"/>
    <path id="Path_327" data-name="Path 327" d="M85.246,74.3c6.827.48,13.956-.288,19.939-3.792A.18.18,0,0,0,105,70.2c-5.947,3.48-13,4.212-19.758,3.744C85.017,73.92,85.017,74.28,85.246,74.3Z" fill="#161616"/>
    <path id="Path_328" data-name="Path 328" d="M92.508,54.588a.381.381,0,0,1,.555-.5c.374.3-.024.78-.422.624-.217-.084-.314.264-.1.348a.787.787,0,0,0,.917-.3.7.7,0,0,0-.181-.96.744.744,0,0,0-1.086.972A.181.181,0,0,0,92.508,54.588Z" fill="#161616"/>
    <path id="Path_329" data-name="Path 329" d="M84.884,58.728a105.251,105.251,0,0,0,10.808-.744c.229-.024.229-.384,0-.36a101.534,101.534,0,0,1-10.808.744C84.655,58.38,84.655,58.74,84.884,58.728Z" fill="#161616"/>
    <path id="Path_330" data-name="Path 330" d="M96.983,56.316c.109.552.217,1.116.326,1.668.048.228.4.132.35-.1-.109-.552-.217-1.116-.326-1.668C97.3,55.992,96.946,56.088,96.983,56.316Z" fill="#161616"/>
    <path id="Path_331" data-name="Path 331" d="M97.224,56.268c.663-.1,1.327-.192,2-.3.229-.036.133-.384-.1-.348-.663.1-1.327.192-2,.3C96.9,55.956,96.995,56.3,97.224,56.268Z" fill="#161616"/>
    <path id="Path_332" data-name="Path 332" d="M99.118,55.86c.1.516.181,1.032.278,1.536.036.228.386.132.35-.1-.1-.516-.181-1.032-.278-1.536C99.431,55.548,99.081,55.644,99.118,55.86Z" fill="#161616"/>
    <path id="Path_333" data-name="Path 333" d="M97.61,58.26a12.3,12.3,0,0,0,2.063-.6c.217-.084.121-.432-.1-.348a13.95,13.95,0,0,1-2.063.6C97.284,57.96,97.381,58.308,97.61,58.26Z" fill="#161616"/>
    <path id="Path_334" data-name="Path 334" d="M97.67,56.676a1.841,1.841,0,0,0,.579.744c.1.072.277.072.3-.084a3.962,3.962,0,0,1,.712-1.764c.133-.192-.181-.372-.314-.18A4.142,4.142,0,0,0,98.2,57.24a2.833,2.833,0,0,0,.3-.084,1.689,1.689,0,0,1-.519-.672C97.887,56.28,97.574,56.46,97.67,56.676Z" fill="#161616"/>
    <path id="Path_335" data-name="Path 335" d="M97.8,61.824a3.978,3.978,0,0,0,.241,2.508c.1.216.4.024.314-.18a3.544,3.544,0,0,1-.205-2.232C98.2,61.692,97.851,61.6,97.8,61.824Z" fill="#161616"/>
    <path id="Path_336" data-name="Path 336" d="M98.044,61.944c.724-.12,1.448-.228,2.171-.348L100,61.38a4,4,0,0,0,.266,2.22c.084.216.434.12.349-.1a3.658,3.658,0,0,1-.265-2.028.176.176,0,0,0-.217-.216c-.724.108-1.448.228-2.171.348C97.718,61.632,97.815,61.98,98.044,61.944Z" fill="#161616"/>
    <path id="Path_337" data-name="Path 337" d="M98.2,64.344a7.541,7.541,0,0,0,2.3-.444c.217-.084.121-.432-.1-.348a6.931,6.931,0,0,1-2.207.432A.18.18,0,0,0,98.2,64.344Z" fill="#161616"/>
    <path id="Path_338" data-name="Path 338" d="M98.31,62.676a1.225,1.225,0,0,0,.579.7.189.189,0,0,0,.277-.156,6.122,6.122,0,0,1,.507-1.836c.1-.2-.217-.4-.314-.18a6.967,6.967,0,0,0-.555,2.016c.1-.048.181-.108.277-.156a.875.875,0,0,1-.41-.492C98.587,62.364,98.237,62.46,98.31,62.676Z" fill="#161616"/>
    <path id="Path_339" data-name="Path 339" d="M98.551,67.392a6.54,6.54,0,0,0,.664,2.28c.1.2.41.024.314-.18a6.09,6.09,0,0,1-.6-2.1C98.888,67.164,98.527,67.164,98.551,67.392Z" fill="#161616"/>
    <path id="Path_340" data-name="Path 340" d="M98.719,67.356a4.851,4.851,0,0,0,2.63-.492c-.084-.036-.181-.072-.265-.108a4.119,4.119,0,0,0,.989,1.932c.157.168.41-.084.253-.252a3.781,3.781,0,0,1-.892-1.764.185.185,0,0,0-.266-.108,4.652,4.652,0,0,1-2.449.444C98.49,66.984,98.49,67.344,98.719,67.356Z" fill="#161616"/>
    <path id="Path_341" data-name="Path 341" d="M99.54,69.8c.941-.348,1.87-.72,2.774-1.128.217-.1.024-.408-.181-.312-.88.4-1.785.756-2.69,1.092C99.226,69.54,99.323,69.888,99.54,69.8Z" fill="#161616"/>
    <path id="Path_342" data-name="Path 342" d="M99.347,67.992c.289.252.953,1.116,1.291.48a5.442,5.442,0,0,0,.217-1.008,3.494,3.494,0,0,1,.7-1.236c.145-.18-.108-.432-.253-.252a3.76,3.76,0,0,0-.76,1.332,4.679,4.679,0,0,0-.169.708c-.048.3-.132.228-.362.084a3.844,3.844,0,0,1-.41-.36C99.431,67.584,99.178,67.836,99.347,67.992Z" fill="#161616"/>
    <path id="Path_343" data-name="Path 343" d="M85.21,64.6a68.983,68.983,0,0,0,10.072-.84c.229-.036.133-.384-.1-.348a67.784,67.784,0,0,1-9.976.816A.187.187,0,0,0,85.21,64.6Z" fill="#161616"/>
    <path id="Path_344" data-name="Path 344" d="M84.824,59.724a59.183,59.183,0,0,0,6.526-.192c.229-.024.229-.384,0-.36a62.359,62.359,0,0,1-6.526.192C84.595,59.352,84.595,59.712,84.824,59.724Z" fill="#161616"/>
    <path id="Path_345" data-name="Path 345" d="M85.342,65.3a39.585,39.585,0,0,0,6.852-.264c.229-.024.229-.384,0-.36a40.922,40.922,0,0,1-6.852.264C85.113,64.932,85.113,65.292,85.342,65.3Z" fill="#161616"/>
    <path id="Path_346" data-name="Path 346" d="M92.966,64.872a5.8,5.8,0,0,0,1.918-.276c.217-.072.121-.42-.1-.348a5.492,5.492,0,0,1-1.822.264A.18.18,0,0,0,92.966,64.872Z" fill="#161616"/>
    <path id="Path_347" data-name="Path 347" d="M86.573,69.816c2.75-.168,5.488-.42,8.215-.792.229-.036.229-.4,0-.36q-4.089.54-8.215.792C86.331,69.468,86.331,69.828,86.573,69.816Z" fill="#161616"/>
    <path id="Path_348" data-name="Path 348" d="M86.886,70.656H89.6a.18.18,0,0,0,0-.36H86.886A.18.18,0,0,0,86.886,70.656Z" fill="#161616"/>
    <path id="Path_349" data-name="Path 349" d="M87.67,71.46c1.411-.084,2.823-.216,4.234-.384a7.419,7.419,0,0,0,3.329-.864c.193-.132.012-.444-.181-.312a7.861,7.861,0,0,1-3.595.864c-1.255.144-2.521.252-3.776.336C87.441,71.112,87.429,71.472,87.67,71.46Z" fill="#161616"/>
    <path id="Path_350" data-name="Path 350" d="M101.446,61.764a41.486,41.486,0,0,0,6.537-.852c-.072-.036-.144-.084-.217-.12a29.321,29.321,0,0,0,4.427,8.328c.133.18.459,0,.314-.18a29.273,29.273,0,0,1-4.391-8.232.178.178,0,0,0-.217-.12,40.1,40.1,0,0,1-6.441.84A.169.169,0,1,0,101.446,61.764Z" fill="#161616"/>
    <path id="Path_351" data-name="Path 351" d="M101.82,71.892a8.217,8.217,0,0,1,.82,1.452.173.173,0,0,0,.205.084c1.773-.588,3.522-1.236,5.235-1.968.869-.372,1.725-.756,2.581-1.164.411-.192.821-.4,1.219-.6.241-.12.518-.192.6-.456a.177.177,0,0,0-.085-.2.236.236,0,0,0-.277,0,.176.176,0,0,0-.084.2c0,.012.012.024.012.036a.181.181,0,0,0,.349-.1c0-.012-.012-.024-.012-.036-.024.072-.06.132-.084.2h-.084c-.025-.072-.061-.132-.085-.2-.072.216-.832.444-1.037.552-.338.168-.676.324-1.026.492-.808.384-1.628.744-2.46,1.092-1.593.672-3.221,1.272-4.862,1.812.073.024.133.06.206.084a7.533,7.533,0,0,0-.821-1.452C102,71.52,101.687,71.7,101.82,71.892Z" fill="#161616"/>
    <path id="Path_352" data-name="Path 352" d="M103.919,62.7c-.025-.156.265-.3.374-.192.144.144-.1.408-.266.348-.217-.084-.313.264-.1.348a.6.6,0,0,0,.627-.948.583.583,0,0,0-.676-.06.547.547,0,0,0-.3.6C103.605,63.024,103.955,62.916,103.919,62.7Z" fill="#161616"/>
    <path id="Path_353" data-name="Path 353" d="M50.47,53.1a26.433,26.433,0,0,0,4.017-.216,23.361,23.361,0,0,1,4.174-.528c.229.012.229-.348,0-.36a20.43,20.43,0,0,0-3.812.468,24.4,24.4,0,0,1-4.391.276C50.24,52.74,50.24,53.1,50.47,53.1Z" fill="#161616"/>
    <path id="Path_354" data-name="Path 354" d="M50.663,49.128a18.6,18.6,0,0,0,6.092-.54.181.181,0,0,0-.1-.348,18.342,18.342,0,0,1-6,.528C50.433,48.756,50.433,49.116,50.663,49.128Z" fill="#161616"/>
    <path id="Path_355" data-name="Path 355" d="M97.079,39.024a5.093,5.093,0,0,0,.458,3.9c.133.192.446.012.314-.18a4.781,4.781,0,0,1-.422-3.624C97.465,38.892,97.115,38.8,97.079,39.024Z" fill="#161616"/>
    <path id="Path_356" data-name="Path 356" d="M97.188,39.012a31.954,31.954,0,0,0,8.54-.828c-.072-.036-.145-.084-.217-.12a10.153,10.153,0,0,0,1.411,3.444c.121.192.434.012.314-.18a9.979,9.979,0,0,1-1.375-3.36.178.178,0,0,0-.217-.12,31.684,31.684,0,0,1-8.444.816C96.959,38.64,96.959,39,97.188,39.012Z" fill="#161616"/>
    <path id="Path_357" data-name="Path 357" d="M97.839,42.912a39.481,39.481,0,0,0,9.18-1.368.181.181,0,0,0-.1-.348,38.126,38.126,0,0,1-9.083,1.356C97.6,42.564,97.6,42.924,97.839,42.912Z" fill="#161616"/>
    <path id="Path_358" data-name="Path 358" d="M140.371,126.732v4.056c-9.65,3.8-11.616,5.16-11.471,5.652.036.12.289.48,5.356-.108a97.042,97.042,0,0,0,11.9-2.136c-.494-2.772-1-5.544-1.495-8.316C143.23,126.168,141.795,126.456,140.371,126.732Z" fill="#161616"/>
    <path id="Path_359" data-name="Path 359" d="M144.7,69.336a4.26,4.26,0,0,0-.4,1.032c-1.725,7.3-3.981,11.6-5.453,20.064-2.81,16.3-.386,34.812-.156,36.552a9.5,9.5,0,0,0,7.84-.144,63.678,63.678,0,0,1,1.846-19.116c2.255-8.868,5.114-11.808,7.683-22.176,1.906-7.68,4.114-16.62.3-19.272C153.447,64.212,146.607,65.724,144.7,69.336Z" fill="#ec615b"/>
    <path id="Path_360" data-name="Path 360" d="M151.372,73.164c-1.93,8.76-3.727,18.1-5.247,27.972-1.435,9.288-2.509,18.18-3.3,26.628l3.643-.756a66.7,66.7,0,0,1,.253-9.348,58.963,58.963,0,0,1,3.981-17.1c.386-.9.88-1.992,1.688-4.044,1.363-3.4,2.353-6.3,2.8-7.668a101.747,101.747,0,0,0,3.474-16.6C156.221,72.54,153.8,72.852,151.372,73.164Z" fill="#6d6c6c" opacity="0.2"/>
    <path id="Path_361" data-name="Path 361" d="M155.353,88.416a47.181,47.181,0,0,0-8.046,15.42,70.316,70.316,0,0,0-2.038,10.284A125.941,125.941,0,0,0,144,127.608c.8-.192,1.58-.4,2.376-.588a74.88,74.88,0,0,1,.591-11.712,54.555,54.555,0,0,1,2.968-13.056c.7-1.86,1.037-2.388,2.629-6.408C153.8,92.7,154.738,90.12,155.353,88.416Z" fill="#6d6c6c" opacity="0.19"/>
    <path id="Path_362" data-name="Path 362" d="M166.426,125.352c.676,1.668,1.363,3.336,2.039,5.016q-8.5,5.382-8.046,6.288.561,1.134,14.692-4.476c-1-3.24-2-6.468-3-9.708Z" fill="#161616"/>
    <path id="Path_363" data-name="Path 363" d="M161.77,69.48c2.955,2.688,2.859,6.456,3.233,12.7,0,0,.917,15.348,3.993,27.684a80.273,80.273,0,0,0,4.764,13.608,7.973,7.973,0,0,1-8.3,2.76,166.734,166.734,0,0,1-8-15.3c-7.829-17.064-8.456-26.052-8.456-30.744,0-4.824.084-10.608,3.691-12.54C155.413,66.192,159.394,67.32,161.77,69.48Z" fill="#ec615b"/>
    <path id="Path_364" data-name="Path 364" d="M153.4,71.316q2.009,7.686,4.33,15.612c4.029,13.7,8.408,26.652,13,38.8a10.4,10.4,0,0,0,1.544-.96,9.4,9.4,0,0,0,1.351-1.248c-.628-1.452-1.5-3.552-2.413-6.132A98.7,98.7,0,0,1,166.4,96.5c-1.122-9.288-1.689-13.932-1.64-16.86.036-2.412.253-7.32-2.883-9.96a7.148,7.148,0,0,0-1.737-1.056Q156.758,69.978,153.4,71.316Z" fill="#6d6c6c" opacity="0.15"/>
    <path id="Path_365" data-name="Path 365" d="M164.906,82.764a86,86,0,0,0,6.683,42.636c.688-.564,1.375-1.128,2.063-1.7-.821-1.932-1.894-4.62-2.968-7.908a105.168,105.168,0,0,1-3.727-15.684A163.271,163.271,0,0,1,164.906,82.764Z" fill="#6d6c6c" opacity="0.22"/>
    <path id="Path_366" data-name="Path 366" d="M108.43,25.644a4.5,4.5,0,0,0-1.665,1.38,2.878,2.878,0,0,0-.663,1.56,1.675,1.675,0,0,0,.338,1.272c.108.12.4.348,1.821.3,1.267-.048,1.906-.072,2.232-.408a2.4,2.4,0,0,0,0-2.6A3.176,3.176,0,0,0,108.43,25.644Z" fill="#fff" stroke="#161616" stroke-miterlimit="10" stroke-width="2"/>
    <path id="Path_367" data-name="Path 367" d="M115.716,28.656c1.7,1.932,4.427,3.084,9.432,5.136,6.309,2.592,9.47,3.888,13.209,4.344,4.041.492,6.2-.024,6.948,1.284.977,1.692-1.315,4.86-3.679,7.512a53.446,53.446,0,0,1-5.464-1.488A56.95,56.95,0,0,1,113.5,31.1a5.728,5.728,0,0,1-2.859-.1c-1.025-.3-2.473-1.068-2.388-1.68.108-.744,2.726-.876,2.883-.888a15.293,15.293,0,0,1-3.185-1.776c-.362-.264-2.436-1.788-2.183-2.268.217-.42,2.1.156,3.872.7a13.228,13.228,0,0,1,3.969,1.68A10.28,10.28,0,0,1,115.716,28.656Z" fill="#fff" stroke="#161616" stroke-miterlimit="10" stroke-width="2"/>
    <path id="Path_368" data-name="Path 368" d="M107.368,25.776c.29.324.35.756.6,1.092a2.537,2.537,0,0,0,.856.7c.977.54,2.014.984,3.016,1.476.168.084.386-.144.217-.288a13.493,13.493,0,0,0-1.653-1.2.18.18,0,0,0-.181.312,13.467,13.467,0,0,1,1.58,1.14l.218-.288c-.953-.456-1.906-.9-2.847-1.392a2.229,2.229,0,0,1-1.074-.948,3.464,3.464,0,0,0-.482-.876C107.465,25.356,107.212,25.608,107.368,25.776Z" fill="#fff"/>
    <path id="Path_369" data-name="Path 369" d="M108.309,27.036a7.351,7.351,0,0,1,1.568.924c.181.144.435-.108.254-.252a7.832,7.832,0,0,0-1.641-.984C108.273,26.628,108.092,26.94,108.309,27.036Z" fill="#fff"/>
    <path id="Path_370" data-name="Path 370" d="M106.886,25.56a6.067,6.067,0,0,0,1.773,1.812c.193.132.374-.18.181-.312a5.506,5.506,0,0,1-1.64-1.692C107.079,25.188,106.765,25.368,106.886,25.56Z" fill="#fff"/>
    <path id="Path_371" data-name="Path 371" d="M107.429,26.544a5.635,5.635,0,0,0,.808.888c.217.192,1.17.876.675,1.224-.1.06,0,.216.1.156.338-.228.2-.636,0-.912a4.163,4.163,0,0,0-.579-.54,6.576,6.576,0,0,1-.844-.9C107.513,26.352,107.356,26.448,107.429,26.544Z" fill="#161616"/>
    <path id="Path_372" data-name="Path 372" d="M107.175,27.792c.362.492,1.05,1.188,1.725.984.109-.036.061-.2-.048-.168-.579.18-1.218-.48-1.52-.9C107.26,27.612,107.1,27.7,107.175,27.792Z" fill="#161616"/>
    <path id="Path_373" data-name="Path 373" d="M106.645,28.632a2.147,2.147,0,0,0,1.652.888c.121.012.121-.168,0-.18a2,2,0,0,1-1.5-.8C106.729,28.44,106.572,28.536,106.645,28.632Z" fill="#161616"/>
    <path id="Path_374" data-name="Path 374" d="M106.258,29.712a1.431,1.431,0,0,0,2.075,0c.085-.084-.048-.216-.132-.132a1.242,1.242,0,0,1-1.81,0C106.307,29.5,106.174,29.628,106.258,29.712Z" fill="#161616"/>
    <path id="Path_375" data-name="Path 375" d="M106.379,25.536c1.339.876,2.3,2.352,3.981,2.64.108.024.169-.156.048-.168-1.653-.276-2.618-1.752-3.932-2.616C106.367,25.308,106.283,25.464,106.379,25.536Z" fill="#161616"/>
    <path id="Path_376" data-name="Path 376" d="M106.235,29.46c-.435-.588-.073-1.848.977-3.036,1.182.684,2.352,1.38,3.534,2.064-.217,0-2.123.024-2.256.612-.024.1,0,.24.181.444a7.246,7.246,0,0,0,2.919.708,7.034,7.034,0,0,0,1.725-.18,41.58,41.58,0,0,0,13.16,8.916,41.867,41.867,0,0,0,13.933,3.252l-.326,4.236A58.721,58.721,0,0,1,119.853,36.8a56.752,56.752,0,0,1-6.489-5.664,5.37,5.37,0,0,1-3.4-.348,3.987,3.987,0,0,0-1.677-.708,3.3,3.3,0,0,1-1.459-.18A1.736,1.736,0,0,1,106.235,29.46Z" fill="#6d6c6c" opacity="0.2"/>
    <path id="Path_377" data-name="Path 377" d="M121.771,37.932a41.764,41.764,0,0,0,5.874,2.592,42.41,42.41,0,0,0,12.63,2.376c-.048,1.224-.085,2.46-.133,3.684A48.359,48.359,0,0,1,127.6,41.748,47.47,47.47,0,0,1,121.771,37.932Z" fill="#6d6c6c" opacity="0.14"/>
    <path id="Path_378" data-name="Path 378" d="M140.842,41.352c-.688,1.548-.724,2.832-.784,5.136-.049,1.74.072,3.612,1.013,8.532,1.146,5.952,1.689,6.912,1.869,10.068a30.264,30.264,0,0,1-.229,5.844,18.337,18.337,0,0,0,7.4,2.208,19,19,0,0,0,11.736-3.12c.181-3.768.362-7.548.555-11.316a60.313,60.313,0,0,0-2.014-7.392c-1.785-5.22-3.45-7.692-2.389-10.308a6.135,6.135,0,0,1,2.57-2.832c-.567-.432-6.514-4.812-13-2.544C146.885,35.856,142.615,37.356,140.842,41.352Z" fill="#fff" stroke="#161616" stroke-miterlimit="10" stroke-width="2"/>
    <path id="Path_379" data-name="Path 379" d="M147.536,35.616a32.4,32.4,0,0,1,3.4,7.2,44.514,44.514,0,0,1,.76,20.064,52.73,52.73,0,0,1-2.811,9.912,12.686,12.686,0,0,0,2.147.276,17.5,17.5,0,0,0,2.69-.12,28.557,28.557,0,0,0,8.227-2.928c.06-4.02.121-8.028.181-12.048-.893-3.4-1.8-6.12-2.473-8.028-1.628-4.548-2.774-6.684-1.833-8.94a6.146,6.146,0,0,1,2.846-2.916,17.289,17.289,0,0,0-13.136-2.472Z" fill="#6d6c6c" opacity="0.19"/>
    <path id="Path_380" data-name="Path 380" d="M149.189,35.34A30.651,30.651,0,0,1,154.8,45.756c3.968,13.056-2.557,24.5-4.065,27.012a24.28,24.28,0,0,0,11.206-2.844q.09-5.616.181-11.22c-1.026-3.468-1.991-6.756-3.3-11.22-.893-3.06-1.593-5.568-.278-7.572a5.183,5.183,0,0,1,2.208-1.824C156.9,37.164,153.037,36.252,149.189,35.34Z" fill="#6d6c6c" opacity="0.11"/>
    <path id="Path_381" data-name="Path 381" d="M148.3,59.856c-.036-2.568-.06-5.124-.1-7.692l18.576-.936q.325,3.564.664,7.128Q157.869,59.112,148.3,59.856Z" fill="#fff" stroke="#161616" stroke-miterlimit="10" stroke-width="2"/>
    <path id="Path_382" data-name="Path 382" d="M146.415,59.016V56.208q11.924-.882,23.847-1.776c.061,1.152.121,2.316.193,3.468Q158.441,58.44,146.415,59.016Z" fill="#fff" stroke="#161616" stroke-miterlimit="10" stroke-width="2"/>
    <path id="Path_383" data-name="Path 383" d="M147.078,54.792c.1,1.38.193,2.748.278,4.128q11.037-.882,22.062-1.776c.06-1.248.12-2.5.193-3.756Z" fill="#fff" stroke="#161616" stroke-miterlimit="10" stroke-width="2"/>
    <path id="Path_384" data-name="Path 384" d="M145.281,57.888q.325,8.208.663,16.416,12.3-1.368,24.608-2.724.379-8.064.76-16.128Q158.285,56.676,145.281,57.888Z" fill="#fff" stroke="#161616" stroke-miterlimit="10" stroke-width="2"/>
    <path id="Path_385" data-name="Path 385" d="M146.68,60.024c3.727-.492,7.455-.84,11.206-1.056.169-.012.169-.276,0-.276q-5.627.324-11.206,1.056C146.511,59.772,146.511,60.048,146.68,60.024Z" fill="#161616"/>
    <path id="Path_386" data-name="Path 386" d="M150.842,60.756c2.859-.36,5.717-.732,8.588-1.092.169-.024.169-.288,0-.276-2.859.36-5.717.732-8.588,1.092C150.673,60.516,150.673,60.78,150.842,60.756Z" fill="#161616"/>
    <path id="Path_387" data-name="Path 387" d="M164.581,68.436a14.229,14.229,0,0,0,.024,2.28c.012.168.289.168.277,0a13.154,13.154,0,0,1-.024-2.28C164.87,68.268,164.593,68.268,164.581,68.436Z" fill="#161616"/>
    <path id="Path_388" data-name="Path 388" d="M164.7,68.46a29.219,29.219,0,0,0,4.464-.24l-.133-.132a19.674,19.674,0,0,0,.048,2.064c.012.168.29.168.277,0a16.935,16.935,0,0,1-.048-2.064.126.126,0,0,0-.132-.132,30.834,30.834,0,0,1-4.464.24A.132.132,0,1,0,164.7,68.46Z" fill="#161616"/>
    <path id="Path_389" data-name="Path 389" d="M164.81,70.932a18.639,18.639,0,0,0,4.391-.456c.168-.036.1-.3-.073-.264a18.65,18.65,0,0,1-4.318.444C164.641,70.656,164.641,70.92,164.81,70.932Z" fill="#161616"/>
    <path id="Path_390" data-name="Path 390" d="M165.377,69.3a12.331,12.331,0,0,0,2.738-.132c.169-.024.1-.288-.072-.264a11.659,11.659,0,0,1-2.666.12C165.208,69.012,165.208,69.288,165.377,69.3Z" fill="#161616"/>
    <path id="Path_391" data-name="Path 391" d="M165.956,70.056a8.807,8.807,0,0,0,2.774-.528c.157-.06.1-.324-.072-.264a8.647,8.647,0,0,1-2.7.528A.132.132,0,0,0,165.956,70.056Z" fill="#161616"/>
    <path id="Path_392" data-name="Path 392" d="M149.177,73.68q.325-7.6.639-15.2,10.567-.846,21.146-1.68-.236,7.2-.483,14.4Z" fill="#6d6c6c" opacity="0.2"/>
    <path id="Path_393" data-name="Path 393" d="M168.308,53.52a22.146,22.146,0,0,1-.4,4.884,22.515,22.515,0,0,1-4.5,9.6c.989,1.308,1.978,2.616,2.979,3.924l-9.083,1.044q.724-8.244,1.448-16.476c-.157-.72-.326-1.44-.483-2.16C161.613,54.048,164.967,53.784,168.308,53.52Z" fill="#6d6c6c" opacity="0.2"/>
    <path id="Path_394" data-name="Path 394" d="M159.913,37.848c2.521-.336,5.524,5.424,6.718,9.564a22.218,22.218,0,0,1,.278,11.052,22.685,22.685,0,0,1-4.222,8.88,6.574,6.574,0,0,1-.1,4.26c-1.086,2.772-4.029,4.1-4.259,3.852-.072-.084.073-.432,1.219-1.74-.241.252-1.979,1.968-3.933,1.56a1.537,1.537,0,0,1-1-.492c-.567-.816.374-2.664,2.376-4.716-2.183.54-2.762.4-2.87.156-.278-.576,1.954-2.208,2.762-2.808a21.517,21.517,0,0,1,3-1.848,16.437,16.437,0,0,0,1.773-9.144,27.266,27.266,0,0,0-1.3-5.292c-.483-1.38-.712-1.692-1.677-4.176-1.556-3.984-1.556-4.668-1.5-5.2C157.4,40.176,158.477,38.04,159.913,37.848Z" fill="#fff" stroke="#161616" stroke-miterlimit="10" stroke-width="2"/>
    <path id="Path_395" data-name="Path 395" d="M154.665,74.448a12.5,12.5,0,0,0,3.487-2.9c.144-.18-.109-.432-.254-.252a12.215,12.215,0,0,1-3.414,2.856C154.279,74.244,154.46,74.556,154.665,74.448Z" fill="#161616"/>
    <path id="Path_396" data-name="Path 396" d="M155.848,75.252a10.17,10.17,0,0,0,3.377-2.808c.145-.18-.169-.36-.314-.18a9.571,9.571,0,0,1-3.244,2.676C155.462,75.048,155.642,75.36,155.848,75.252Z" fill="#161616"/>
    <path id="Path_397" data-name="Path 397" d="M158.9,38.424c-2.4,2.076,7.4,11.184,5.718,21.528a23.017,23.017,0,0,1-5.9,11.724c-1.326,1.32-3.823,2.94-3.522,3.5.217.408,1.725.036,2.268-.132A5.826,5.826,0,0,0,159.6,73.86c-.6.672-1.291,1.5-1.146,1.668.205.216,1.918-.672,2.992-1.92,1.857-2.16,1.592-5.16,1.411-6.384a21.086,21.086,0,0,0,1.58-2.364,23.072,23.072,0,0,0,2.726-7.524,23.637,23.637,0,0,0-2.2-14.172c-.869-1.86-2.34-4.944-4.572-5.076A2.033,2.033,0,0,0,158.9,38.424Z" fill="#6d6c6c" opacity="0.17"/>
    <path id="Path_398" data-name="Path 398" d="M167.03,57.144c-.652,1.884-1.424,3.864-2.34,5.94-.652,1.476-1.315,2.856-1.991,4.164a14.215,14.215,0,0,1-2.243,4.368,14.05,14.05,0,0,1-3.764,3.432,3.4,3.4,0,0,0,.989-.108,3.934,3.934,0,0,0,1.882-1.044c-.362.456-.736.9-1.1,1.356a4.931,4.931,0,0,0,1.255-.36c2.654-1.188,3.208-4.416,3.245-4.632a6.5,6.5,0,0,0-.205-2.844,18.311,18.311,0,0,0,4.27-10.272Z" fill="#6d6c6c" opacity="0.22"/>
    <path id="Path_399" data-name="Path 399" d="M138.067,29.952c-1.942,2.208-.6,5.292-.422,5.712.676,1.56,2.425,3.78,4.644,3.6a4.268,4.268,0,0,0,2.9-1.86c1.786-2.556,1.195-7.44-1.821-8.7A4.81,4.81,0,0,0,138.067,29.952Z" fill="#5222d0"/>
    <path id="Path_400" data-name="Path 400" d="M142.964,31.92c.085.948,1.086,1.152,1.762,2.712a6.033,6.033,0,0,1,.4,3.024,8.526,8.526,0,0,0,6.61-2.208c-.253-.564-.627-1.392-1.074-2.376-1.93-4.188-2.243-4.548-2.714-4.728C146.065,27.636,142.808,30.156,142.964,31.92Z" fill="#fff" stroke="#161616" stroke-miterlimit="10" stroke-width="2"/>
    <path id="Path_401" data-name="Path 401" d="M136.017,19.524c-.41.576-.664,1.284-.7,4.32a57.312,57.312,0,0,0,.362,7.056l1.628-.936a7.556,7.556,0,0,0,1.351,2.172,7.673,7.673,0,0,0,3.824,2.268,7.857,7.857,0,0,0,4.222-2.628,7.337,7.337,0,0,0,1.363-2.712,6.823,6.823,0,0,0-.217-3.936,2.743,2.743,0,0,0,1.074-.84c.711-.96.9-2.676.024-3.252a2.287,2.287,0,0,0-2.678.708,8.162,8.162,0,0,0-.977-1.692,7.928,7.928,0,0,0-2.135-1.944C141.023,16.884,137.488,17.46,136.017,19.524Z" fill="#fff" stroke="#161616" stroke-miterlimit="10" stroke-width="2"/>
    <path id="Path_402" data-name="Path 402" d="M135.136,23.292a2.566,2.566,0,0,1-1.8-1.068c-.724-1.236.338-3.12.6-3.588.217-.4.8-1.344,3.257-3.06a15.066,15.066,0,0,1,3.824-2.268,10.049,10.049,0,0,1,7.5,1.128,13.178,13.178,0,0,1,2.762,2.148c1,.96,2.123,2.064,3.377,3.336a24.471,24.471,0,0,1,4.813,10.212c.519,2.568,1.05,5.184-.494,6.72s-4.367,1.224-6.092.492c-2.4-1.02-3.426-3.18-4.222-4.848a14.644,14.644,0,0,1-1.3-7.368,1.987,1.987,0,0,0,1.544-2.328,1.624,1.624,0,0,0-1.858-1.1,1.559,1.559,0,0,0-1.062,1.608,6.318,6.318,0,0,1-3.594-1.248,6.193,6.193,0,0,1-1.87-2.292,7.217,7.217,0,0,0-3.329,1.284A6.784,6.784,0,0,0,135.136,23.292Z" fill="#5222d0"/>
    <path id="Path_403" data-name="Path 403" d="M143.121,25.584a10.03,10.03,0,0,1,1.906,3.576,7.387,7.387,0,0,1-.506,4.524c.76-.576,1.532-1.152,2.292-1.728.53,1.752,1.049,3.492,1.58,5.244a4.276,4.276,0,0,0,2.038-.756,4.507,4.507,0,0,0,1.207-1.284,12.87,12.87,0,0,1-3.7-6.024,12.508,12.508,0,0,1-.422-3.864,2.155,2.155,0,0,0,1.436-2.4,1.672,1.672,0,0,0-1.689-1.308,1.619,1.619,0,0,0-1.291,1.656,6.088,6.088,0,0,1-5.464-3.336,7.032,7.032,0,0,0,1.411,4.428C142.337,24.852,142.53,24.876,143.121,25.584Z" fill="#6d6c6c" opacity="0.24"/>
    <path id="Path_404" data-name="Path 404" d="M137.512,25.08a2.269,2.269,0,0,0,.061,1.44.183.183,0,0,0,.35,0,2.156,2.156,0,0,0,.012-1.32c-.073-.216-.423-.132-.35.1a1.85,1.85,0,0,1-.012,1.14h.35a1.929,1.929,0,0,1-.061-1.248A.183.183,0,0,0,137.512,25.08Z" fill="#161616"/>
    <path id="Path_405" data-name="Path 405" d="M137.078,24.336a.786.786,0,0,1,.965.1c.169.156.422-.1.253-.252a1.152,1.152,0,0,0-1.4-.156C136.7,24.144,136.885,24.456,137.078,24.336Z" fill="#161616"/>
    <path id="Path_406" data-name="Path 406" d="M138.381,27.384a.18.18,0,0,0,0-.36A.18.18,0,1,0,138.381,27.384Z" fill="#161616"/>
    <path id="Path_407" data-name="Path 407" d="M139.177,26.34v.036a.181.181,0,0,0,.362,0V26.34a.185.185,0,0,0-.181-.18A.177.177,0,0,0,139.177,26.34Z" fill="#161616"/>
    <path id="Path_408" data-name="Path 408" d="M139.213,27.24a.18.18,0,0,0,0-.36A.18.18,0,0,0,139.213,27.24Z" fill="#161616"/>
    <path id="Path_409" data-name="Path 409" d="M134.243,25.632a2.274,2.274,0,0,0,.036,1.44.185.185,0,0,0,.35,0,2.236,2.236,0,0,0,.036-1.32.181.181,0,0,0-.349.1,1.805,1.805,0,0,1-.037,1.128h.35a1.926,1.926,0,0,1-.036-1.248A.182.182,0,0,0,134.243,25.632Z" fill="#161616"/>
    <path id="Path_410" data-name="Path 410" d="M134.038,24.732a.618.618,0,0,1,.773.168c.132.18.446,0,.313-.18a1,1,0,0,0-1.266-.3C133.652,24.528,133.833,24.84,134.038,24.732Z" fill="#161616"/>
    <path id="Path_411" data-name="Path 411" d="M138.1,31.26a3.919,3.919,0,0,0,2.34-1.392c.108-.132-.085-.324-.193-.192a3.7,3.7,0,0,1-2.22,1.32C137.862,31.032,137.935,31.3,138.1,31.26Z" fill="#161616"/>
    <path id="Path_412" data-name="Path 412" d="M139.985,29.7a1.382,1.382,0,0,1,.555.336c.121.12.314-.072.193-.192a1.7,1.7,0,0,0-.675-.408A.137.137,0,0,0,139.985,29.7Z" fill="#161616"/>
    <path id="Path_413" data-name="Path 413" d="M147.5,14a60.524,60.524,0,0,1,5.368,8.916c1.978,4.032,3.426,7.068,2.3,8.268-1.484,1.6-6.61-.936-7.431-1.356a10.618,10.618,0,0,0,1.834,4.572,7.867,7.867,0,0,0,3.751,3.144,6.78,6.78,0,0,0,2.726.372,4.348,4.348,0,0,0,1.93-.468,4.587,4.587,0,0,0,1.557-1.5c.952-1.536.446-3.612-.23-6.216a31.876,31.876,0,0,0-2.955-7.248,12.726,12.726,0,0,0-1.086-1.776,18.145,18.145,0,0,0-2.448-2.568,24.651,24.651,0,0,0-3.39-3.036A14.589,14.589,0,0,0,147.5,14Z" fill="#371b9b" opacity="0.45"/>
    <path id="Path_414" data-name="Path 414" d="M144.593,34.416a2.924,2.924,0,0,1,0,1.92,3.108,3.108,0,0,1-1.978,1.776,4.41,4.41,0,0,1-4.608-1.92,4.823,4.823,0,0,0,1.315,1.872,4.022,4.022,0,0,0,2.919,1.128,3.256,3.256,0,0,0,2.629-1.548A3.054,3.054,0,0,0,144.593,34.416Z" fill="#371b9b" opacity="0.43"/>
  </g>
</svg>
