<svg id="Table" xmlns="http://www.w3.org/2000/svg" width="45" height="40.645" viewBox="0 0 45 40.645">
  <path id="Path_1" data-name="Path 1" d="M44.274,15.968H42.1V6.532a.726.726,0,0,0-.726-.726h-8.71a.726.726,0,0,0-.726.726v9.435H18.712l-.363-1.452h5.239a2.543,2.543,0,0,0,2.54-2.54V2.54A2.543,2.543,0,0,0,23.589,0H5.444A2.543,2.543,0,0,0,2.9,2.54v9.435a2.543,2.543,0,0,0,2.54,2.54h5.239l-.363,1.452H.726A.726.726,0,0,0,0,16.694V39.919a.726.726,0,0,0,.726.726H2.9a.726.726,0,0,0,.726-.726V26.129h22.5v13.79a.726.726,0,0,0,.726.726h2.178a.726.726,0,0,0,.726-.726V37.742H41.371v2.177a.726.726,0,0,0,.726.726h2.177A.726.726,0,0,0,45,39.919V16.694a.726.726,0,0,0-.726-.726Zm-6.532-8.71h2.9v8.71h-2.9Zm-4.355,0h2.9v8.71h-2.9ZM4.355,2.54A1.09,1.09,0,0,1,5.444,1.452H23.589A1.09,1.09,0,0,1,24.677,2.54v8.347H4.355ZM5.444,13.064a1.09,1.09,0,0,1-1.025-.726h20.2a1.09,1.09,0,0,1-1.025.726Zm11.772,2.9h-5.4l.363-1.452h4.672ZM2.177,39.194H1.452V20.323h.726ZM26.129,24.677H3.629V20.323h22.5Zm2.177,14.516h-.726V20.323h.726Zm13.064-2.9H29.758V31.935H41.371Zm0-5.806H29.758V26.129H41.371Zm0-5.806H29.758V20.323H41.371Zm2.177,14.516h-.726V20.323h.726Zm0-20.323H1.452V17.419h42.1Z"/>
  <path id="Path_2" data-name="Path 2" d="M33.387,23.226h4.355a.726.726,0,0,0,0-1.452H33.387a.726.726,0,0,0,0,1.452Z"/>
  <path id="Path_3" data-name="Path 3" d="M37.742,27.581H33.387a.726.726,0,0,0,0,1.452h4.355a.726.726,0,0,0,0-1.452Z"/>
  <path id="Path_4" data-name="Path 4" d="M37.742,33.387H33.387a.726.726,0,0,0,0,1.452h4.355a.726.726,0,0,0,0-1.452Z"/>
  <path id="Path_5" data-name="Path 5" d="M16.694,21.774H12.339a.726.726,0,0,0,0,1.452h4.355a.726.726,0,0,0,0-1.452Z"/>
</svg>
