<svg id="Flat" enable-background="new 0 0 64 64" height="512" viewBox="0 0 64 64" width="512" xmlns="http://www.w3.org/2000/svg"><path d="m3 45v13h58s-.419-9.419-2-11c-2-2-7-3-10-5s-5-7.721-10-10.721c-4.618-2.771-16.582-5.239-24-1-7 4-6 13.721-12 14.721z" fill="#4ac3ed"/><path d="m7 50v-8.005c-.96 1.55-2.145 2.696-4 3.005v5z" fill="#e89d43"/><circle cx="17" cy="55" fill="#454a6d" r="6"/><circle cx="17" cy="55" fill="#dbd8d5" r="4"/><circle cx="47" cy="55" fill="#454a6d" r="6"/><circle cx="47" cy="55" fill="#dbd8d5" r="4"/><path d="m42.7 41c-.181-.249-.362-.493-.544-.747-1.5-2.087-3.051-4.246-5.213-5.544-2.19-1.313-7.124-2.709-11.956-2.709-3.229 0-5.997.606-8.003 1.752-2.313 1.322-3.445 3.84-4.645 6.504-.109.243-.223.494-.337.744z" fill="#f7f4f0"/><path d="m27 31h2v11h-2z" fill="#4ac3ed"/><g fill="#454a6d"><path d="m8 33c-3.309 0-6-2.691-6-6s2.691-6 6-6h43.5c4.687 0 8.5-3.813 8.5-8.5s-3.813-8.5-8.5-8.5h-25.5v-2h25.5c5.79 0 10.5 4.71 10.5 10.5s-4.71 10.5-10.5 10.5h-43.5c-2.206 0-4 1.794-4 4s1.794 4 4 4z"/><path d="m21 2h3v2h-3z"/><path d="m15 2h3v2h-3z"/><path d="m10 2h3v2h-3z"/><path d="m6 2h2v2h-2z"/><path d="m2 2h2v2h-2z"/></g><path d="m59 47c-.888-.888-2.367-1.578-4-2.247v4.247h4.877c-.243-.918-.53-1.653-.877-2z" fill="#eae8e5"/></svg>