<svg xmlns="http://www.w3.org/2000/svg" width="192.526" height="147.776" viewBox="0 0 192.526 147.776">
  <g id="workingMan" transform="translate(-36.139 -16.669)">
    <path id="Path_7" data-name="Path 7" d="M73.648,139.45H177.854a.214.214,0,0,0,0-.427H73.648A.214.214,0,0,0,73.648,139.45Z" fill="#e8e8e8"/>
    <path id="Path_8" data-name="Path 8" d="M180.594,130.587a45.883,45.883,0,0,0,1.289,12.212c.059.271.489.157.429-.114a45,45,0,0,1-1.259-12.1C181.039,130.316,180.594,130.316,180.594,130.587Z" fill="#e8e8e8"/>
    <path id="Path_9" data-name="Path 9" d="M198.236,130.915a32.773,32.773,0,0,1-.741,11.328.223.223,0,0,0,.43.114,32.7,32.7,0,0,0,.755-11.442C198.65,130.644,198.206,130.644,198.236,130.915Z" fill="#e8e8e8"/>
    <path id="Path_10" data-name="Path 10" d="M182.06,143.2a28.893,28.893,0,0,0,15.568-.513c.267-.085.148-.5-.118-.413a28.455,28.455,0,0,1-15.331.513C181.9,142.728,181.779,143.141,182.06,143.2Z" fill="#e8e8e8"/>
    <path id="Path_11" data-name="Path 11" d="M180.8,130.787a42.743,42.743,0,0,0,17.479-.072c.281-.057.163-.47-.118-.413a42.346,42.346,0,0,1-17.242.071C180.638,130.316,180.52,130.73,180.8,130.787Z" fill="#e8e8e8"/>
    <path id="Path_12" data-name="Path 12" d="M184.312,130.943c-.77-1.667-.074-3.7.5-5.344a19.759,19.759,0,0,1,2.473-4.788l-.355.043a3.561,3.561,0,0,0,1.17.841c.178.071.37-.043.326-.242a3.4,3.4,0,0,1-.133-2.3c.252-.541.607-1.083.9-1.6a2.451,2.451,0,0,1-.311.072c.311.185.622.356.933.541.208.128.386-.114.311-.3a1.884,1.884,0,0,1-.088-1.967c.251-.4.577-.755.859-1.125.622-.8,1.274-1.6,1.925-2.38q1.868-2.244,3.866-4.375l-.355-.043a16.152,16.152,0,0,1,3.422,8.251,14.732,14.732,0,0,1-.149,4.346,15.111,15.111,0,0,1-.562,2.138c-.045.142-.1.285-.149.413a1.023,1.023,0,0,1-.859.656c-.3.057-.459.014-.711.2a.219.219,0,0,0-.044.342c.326.328.459.385.341.827a5.5,5.5,0,0,1-.386.869c-.266.57-.562,1.126-.873,1.667a23.319,23.319,0,0,1-2.178,3.164c-.178.213.133.513.311.3a25.171,25.171,0,0,0,3.748-6.341.2.2,0,0,0-.06-.214c-.192-.185-.385-.385-.592-.57-.015.114-.03.228-.044.342.34-.228.725-.071,1.081-.214a.943.943,0,0,0,.548-.556,11.138,11.138,0,0,0,.711-2.151,15.7,15.7,0,0,0,.37-4.774,16.388,16.388,0,0,0-3.525-8.906.237.237,0,0,0-.356-.043q-2.466,2.629-4.74,5.415a30.609,30.609,0,0,0-2,2.551,2.31,2.31,0,0,0,.089,2.408l.311-.3c-.311-.186-.623-.357-.934-.542a.24.24,0,0,0-.311.071,10.946,10.946,0,0,0-1.155,2.109,4.752,4.752,0,0,0,.341,2.109c.1-.085.222-.156.326-.242a3.02,3.02,0,0,1-1.082-.769.228.228,0,0,0-.355.042,20.394,20.394,0,0,0-2.681,5.373c-.534,1.653-1.052,3.534-.3,5.187A.231.231,0,0,0,184.312,130.943Z" fill="#e8e8e8"/>
    <path id="Path_13" data-name="Path 13" d="M196.369,111.264c-.592,6.455-5.184,11.628-7.1,17.7-.089.271.341.371.43.114,1.911-6.113,6.517-11.3,7.11-17.812C196.843,110.979,196.384,110.993,196.369,111.264Z" fill="#e8e8e8"/>
    <path id="Path_14" data-name="Path 14" d="M190.771,114.7c.474,2.352,1.022,4.674,1.644,6.983a.222.222,0,0,0,.429-.114c-.622-2.309-1.17-4.646-1.644-6.983C191.156,114.314,190.726,114.428,190.771,114.7Z" fill="#e8e8e8"/>
    <path id="Path_15" data-name="Path 15" d="M195.777,116.209A15.3,15.3,0,0,0,199.139,113c.178-.213-.207-.427-.385-.213a14.5,14.5,0,0,1-3.2,3.049C195.332,116.009,195.555,116.38,195.777,116.209Z" fill="#e8e8e8"/>
    <path id="Path_16" data-name="Path 16" d="M194.4,110.11c.4,1.225.637,2.721,1.615,3.648.207.2.518-.114.311-.3-.9-.869-1.141-2.337-1.511-3.462C194.74,109.739,194.31,109.853,194.4,110.11Z" fill="#e8e8e8"/>
    <path id="Path_17" data-name="Path 17" d="M183.423,130.829a6.616,6.616,0,0,1-1.911-2.636c-.518-1.169-.962-2.366-1.362-3.577a40.726,40.726,0,0,1-1.63-7.125c-.666-5.044-.133-10.146-.77-15.2-.133.043-.281.072-.415.114,1.659,3.591,5.54,5.743,8.769,7.881a2.342,2.342,0,0,1-.074-.3L184.7,111.82a.216.216,0,0,0,.193.327,4.876,4.876,0,0,0,1.629-.256c-.089-.029-.163-.071-.252-.1l1.644,2.437a1.5,1.5,0,0,0,.03-.257,5.459,5.459,0,0,0-.711.813.214.214,0,0,0,.133.313c1.215.171,1.645,1.283,1.956,2.28.089.257.518.157.429-.114-.37-1.126-.9-2.394-2.266-2.579.044.1.089.214.133.313a3.726,3.726,0,0,1,.637-.712.192.192,0,0,0,.03-.257l-1.644-2.436a.234.234,0,0,0-.252-.1,4.579,4.579,0,0,1-1.511.228c.059.114.133.214.192.328l1.334-1.839a.223.223,0,0,0-.074-.3c-3.17-2.1-6.977-4.189-8.607-7.723-.088-.186-.444-.1-.414.114.651,5.244.074,10.545.844,15.774a39.886,39.886,0,0,0,1.822,7.41c.681,1.953,1.392,4.332,3.125,5.658C183.334,131.3,183.645,131,183.423,130.829Z" fill="#e8e8e8"/>
    <path id="Path_18" data-name="Path 18" d="M177.424,102.714a80.159,80.159,0,0,0,3.822,9.59c.8,1.5,1.673,2.964,2.429,4.489.815,1.653,1.54,3.334,2.281,5,.1.256.489.028.385-.214-.7-1.6-1.407-3.192-2.163-4.76-.74-1.539-1.6-3.006-2.429-4.5a77.988,77.988,0,0,1-3.91-9.7C177.75,102.343,177.32,102.457,177.424,102.714Z" fill="#e8e8e8"/>
    <path id="Path_19" data-name="Path 19" d="M177.987,113.544c1.6.185,3.348.271,4.563,1.425.207.2.518-.114.311-.3-1.3-1.226-3.155-1.34-4.874-1.539C177.706,113.088,177.706,113.515,177.987,113.544Z" fill="#e8e8e8"/>
    <path id="Path_20" data-name="Path 20" d="M182.268,107.773a14.193,14.193,0,0,0-.518,2.85,6.362,6.362,0,0,0,.133,2.593c.089.257.518.143.429-.114a6.146,6.146,0,0,1-.118-2.494,14.433,14.433,0,0,1,.5-2.736C182.772,107.616,182.342,107.5,182.268,107.773Z" fill="#e8e8e8"/>
    <path id="Path_21" data-name="Path 21" d="M178.995,121.31a14.318,14.318,0,0,1,3.392.342c1.111.3,2.207.613,3.318.927a.215.215,0,1,0,.118-.414c-1.185-.327-2.355-.684-3.555-.983a14.756,14.756,0,0,0-3.273-.285C178.713,120.868,178.713,121.3,178.995,121.31Z" fill="#e8e8e8"/>
    <path id="Path_22" data-name="Path 22" d="M195.2,130.43a11.48,11.48,0,0,1,2.963,0c-.044-.1-.089-.214-.133-.313-.089.128-.978.142-1.156.156-.4.057-.814.114-1.214.2a2.065,2.065,0,0,0-.474.1c.029-.072.622-.057.711-.057.429,0,.859.042,1.288.071v-.428a3.417,3.417,0,0,0-1.066.129.21.21,0,0,0,.059.413,6.568,6.568,0,0,0,1.659-.257.215.215,0,1,0-.118-.413,6.219,6.219,0,0,1-1.541.242c.015.143.045.285.059.414a3.5,3.5,0,0,1,.948-.114.214.214,0,0,0,0-.428c-.651-.028-1.6-.256-2.192.1-.237.142-.578.513-.267.741.134.1.282.043.445.028.444-.085.874-.185,1.318-.256.519-.086,1.555.043,1.911-.428a.214.214,0,0,0-.133-.313,11.684,11.684,0,0,0-3.081-.014C194.918,130.031,194.918,130.459,195.2,130.43Z" fill="#e8e8e8"/>
    <path id="Path_23" data-name="Path 23" d="M180.994,130.7a3.158,3.158,0,0,1,.622-.114,2.088,2.088,0,0,1,.3,0,1.687,1.687,0,0,1,.267,0c-.015-.071-.044-.143-.059-.214a.052.052,0,0,1-.015.029c.089-.043.178-.1.267-.143h-.03l.148.143c0-.015,0-.029-.015-.029a.222.222,0,0,0-.429.114c0,.014,0,.029.014.029a.209.209,0,0,0,.149.142h.029a.22.22,0,0,0,.267-.142.048.048,0,0,1,.015-.029.2.2,0,0,0-.06-.214c-.163-.156-.518-.128-.725-.128a3.72,3.72,0,0,0-.889.128A.228.228,0,0,0,180.994,130.7Z" fill="#e8e8e8"/>
    <path id="Path_24" data-name="Path 24" d="M181.335,133.565c5.406.9,11.02,1.325,16.353-.214a.215.215,0,0,0-.119-.413c-5.243,1.511-10.783,1.1-16.116.214C181.172,133.109,181.053,133.522,181.335,133.565Z" fill="#e8e8e8"/>
    <path id="Path_25" data-name="Path 25" d="M199.954,139.422h28.5a.214.214,0,0,0,0-.427h-28.5A.214.214,0,1,0,199.954,139.422Z" fill="#e8e8e8"/>
    <path id="Path_26" data-name="Path 26" d="M192.77,148.585h26.855a.214.214,0,0,0,0-.428H192.77A.214.214,0,0,0,192.77,148.585Z" fill="#e8e8e8"/>
    <path id="Path_27" data-name="Path 27" d="M196.843,148.542c-1.066.855-2.133,1.7-3.184,2.551-.222.171.089.47.311.3,1.066-.855,2.133-1.7,3.184-2.551C197.377,148.67,197.051,148.357,196.843,148.542Z" fill="#e8e8e8"/>
    <path id="Path_28" data-name="Path 28" d="M193.792,151.549a.214.214,0,0,0,0-.428A.214.214,0,0,0,193.792,151.549Z" fill="#e8e8e8"/>
    <path id="Path_29" data-name="Path 29" d="M198.31,151.121H171.247a.214.214,0,0,0,0,.428H198.31A.214.214,0,0,0,198.31,151.121Z" fill="#e8e8e8"/>
    <path id="Path_30" data-name="Path 30" d="M171.2,155.539c1.6-1.283,3.244-2.508,4.933-3.691.222-.157.015-.527-.222-.371q-2.578,1.8-5.022,3.748C170.67,155.411,170.981,155.71,171.2,155.539Z" fill="#e8e8e8"/>
    <path id="Path_31" data-name="Path 31" d="M36.35,147.758H76.61a.214.214,0,0,0,0-.427H36.35A.214.214,0,0,0,36.35,147.758Z" fill="#e8e8e8"/>
    <path id="Path_32" data-name="Path 32" d="M41.816,151.477c1.407-1.154,2.829-2.308,4.236-3.462.222-.186-.1-.485-.311-.3-1.407,1.155-2.829,2.309-4.236,3.463C41.283,151.349,41.608,151.663,41.816,151.477Z" fill="#e8e8e8"/>
    <path id="Path_33" data-name="Path 33" d="M36.72,151.891H65.871a.214.214,0,0,0,0-.428H36.72A.214.214,0,0,0,36.72,151.891Z" fill="#e8e8e8"/>
    <path id="Path_34" data-name="Path 34" d="M62.479,151.8c-1.111,1.2-2.251,2.366-3.407,3.534a.216.216,0,0,0,.311.3c1.155-1.169,2.281-2.337,3.407-3.534C63,151.9,62.672,151.606,62.479,151.8Z" fill="#e8e8e8"/>
    <path id="Path_35" data-name="Path 35" d="M54.9,156.023H80.521a.214.214,0,0,0,0-.427H54.9A.214.214,0,0,0,54.9,156.023Z" fill="#e8e8e8"/>
    <path id="Path_36" data-name="Path 36" d="M48.837,140.59H59.694a.214.214,0,0,0,0-.427H48.837A.214.214,0,0,0,48.837,140.59Z" fill="#e8e8e8"/>
    <path id="Path_37" data-name="Path 37" d="M62.435,141.987h3.348a.214.214,0,0,0,0-.428H62.435A.214.214,0,1,0,62.435,141.987Z" fill="#e8e8e8"/>
    <path id="Path_38" data-name="Path 38" d="M54.392,65.792v6.982a.223.223,0,0,0,.444,0V65.792A.223.223,0,0,0,54.392,65.792Z" fill="#e8e8e8"/>
    <path id="Path_39" data-name="Path 39" d="M46.941,73.117H64.8a.214.214,0,0,0,0-.427H46.941A.214.214,0,0,0,46.941,73.117Z" fill="#e8e8e8"/>
    <path id="Path_40" data-name="Path 40" d="M59.413,73.316v5.372a.223.223,0,0,0,.444,0V73.316A.222.222,0,0,0,59.413,73.316Z" fill="#e8e8e8"/>
    <path id="Path_41" data-name="Path 41" d="M54.48,79.429H68.715a.214.214,0,0,0,0-.427H54.48A.214.214,0,1,0,54.48,79.429Z" fill="#e8e8e8"/>
    <path id="Path_42" data-name="Path 42" d="M174.017,60.791v1.7a.223.223,0,0,0,.445,0v-1.7A.223.223,0,0,0,174.017,60.791Z" fill="#e8e8e8"/>
    <path id="Path_43" data-name="Path 43" d="M174.373,61.132h30.573a.214.214,0,0,0,0-.427H174.373A.214.214,0,0,0,174.373,61.132Z" fill="#e8e8e8"/>
    <path id="Path_44" data-name="Path 44" d="M174.64,62.7h30.291a.214.214,0,0,0,0-.428H174.64A.214.214,0,0,0,174.64,62.7Z" fill="#e8e8e8"/>
    <path id="Path_45" data-name="Path 45" d="M204.872,60.791a6.33,6.33,0,0,0,.074,1.753c.044.271.474.157.43-.114a5.533,5.533,0,0,1-.06-1.639C205.346,60.52,204.9,60.52,204.872,60.791Z" fill="#e8e8e8"/>
    <path id="Path_46" data-name="Path 46" d="M176.461,60.8V48.877a.223.223,0,0,0-.444,0V60.8A.222.222,0,0,0,176.461,60.8Z" fill="#e8e8e8"/>
    <path id="Path_47" data-name="Path 47" d="M176.461,48.949a4.313,4.313,0,0,1,3.763.257.216.216,0,1,0,.222-.37,4.772,4.772,0,0,0-4.1-.3C176.076,48.635,176.2,49.048,176.461,48.949Z" fill="#e8e8e8"/>
    <path id="Path_48" data-name="Path 48" d="M180.15,49.105V60.577a.223.223,0,0,0,.444,0V49.105A.223.223,0,0,0,180.15,49.105Z" fill="#e8e8e8"/>
    <path id="Path_49" data-name="Path 49" d="M180.653,52.3a3,3,0,0,1,2.7.2.216.216,0,1,0,.222-.37,3.454,3.454,0,0,0-3.036-.242C180.268,51.984,180.387,52.4,180.653,52.3Z" fill="#e8e8e8"/>
    <path id="Path_50" data-name="Path 50" d="M183.26,52.483v8.023a.223.223,0,0,0,.444,0V52.483A.223.223,0,0,0,183.26,52.483Z" fill="#e8e8e8"/>
    <path id="Path_51" data-name="Path 51" d="M176.52,52.226a6.876,6.876,0,0,1,3.718.228.215.215,0,0,0,.119-.413,7.461,7.461,0,0,0-3.955-.228C176.135,51.87,176.254,52.283,176.52,52.226Z" fill="#e8e8e8"/>
    <path id="Path_52" data-name="Path 52" d="M180.342,57.171A6.252,6.252,0,0,1,183.2,57.1c.282.057.4-.356.119-.413a6.691,6.691,0,0,0-3.1.071A.215.215,0,0,0,180.342,57.171Z" fill="#e8e8e8"/>
    <path id="Path_53" data-name="Path 53" d="M188.859,60.662V58.268a.223.223,0,0,0-.444,0v2.394A.223.223,0,0,0,188.859,60.662Z" fill="#e8e8e8"/>
    <path id="Path_54" data-name="Path 54" d="M188.637,58.4h14.428a.214.214,0,0,0,0-.427H188.637A.214.214,0,1,0,188.637,58.4Z" fill="#e8e8e8"/>
    <path id="Path_55" data-name="Path 55" d="M203.213,58.625a.214.214,0,0,0,0-.428A.214.214,0,1,0,203.213,58.625Z" fill="#e8e8e8"/>
    <path id="Path_56" data-name="Path 56" d="M202.991,58.411v2.18a.223.223,0,0,0,.444,0v-2.18A.223.223,0,0,0,202.991,58.411Z" fill="#e8e8e8"/>
    <path id="Path_57" data-name="Path 57" d="M191.659,58.111V55.86a.223.223,0,0,0-.444,0v2.251A.223.223,0,0,0,191.659,58.111Z" fill="#e8e8e8"/>
    <path id="Path_58" data-name="Path 58" d="M191.437,56h14.19a.214.214,0,0,0,0-.427h-14.19A.214.214,0,0,0,191.437,56Z" fill="#e8e8e8"/>
    <path id="Path_59" data-name="Path 59" d="M205.479,55.789V57.67a.223.223,0,0,0,.444,0V55.789A.222.222,0,0,0,205.479,55.789Z" fill="#e8e8e8"/>
    <path id="Path_60" data-name="Path 60" d="M202.9,58.468h2.577a.214.214,0,0,0,0-.428H202.9A.214.214,0,1,0,202.9,58.468Z" fill="#e8e8e8"/>
    <path id="Path_61" data-name="Path 61" d="M205.45,57.684a.889.889,0,0,0,.014.442.209.209,0,0,0,.267.142.2.2,0,0,0,.148-.257.552.552,0,0,1-.015-.214c.015-.114-.029-.242-.148-.257C205.613,57.513,205.464,57.57,205.45,57.684Z" fill="#e8e8e8"/>
    <path id="Path_62" data-name="Path 62" d="M194.814,55.889a5.619,5.619,0,0,1,.134,2.223c-.03.271.414.271.444,0a6.224,6.224,0,0,0-.148-2.337C195.17,55.518,194.74,55.632,194.814,55.889Z" fill="#e8e8e8"/>
    <path id="Path_63" data-name="Path 63" d="M198.162,58.368a5.257,5.257,0,0,1-.134,2.095.223.223,0,0,0,.43.114,5.591,5.591,0,0,0,.133-2.323C198.562,57.983,198.132,58.1,198.162,58.368Z" fill="#e8e8e8"/>
    <path id="Path_64" data-name="Path 64" d="M195.259,75.71v3.363a.223.223,0,0,0,.444,0V75.71A.222.222,0,0,0,195.259,75.71Z" fill="#e8e8e8"/>
    <path id="Path_65" data-name="Path 65" d="M191.822,79.13h8.887a.214.214,0,0,0,0-.427h-8.887A.214.214,0,0,0,191.822,79.13Z" fill="#e8e8e8"/>
    <path id="Path_66" data-name="Path 66" d="M186.771,31.193V38.9a.223.223,0,0,0,.444,0V31.193A.223.223,0,0,0,186.771,31.193Z" fill="#e8e8e8"/>
    <path id="Path_67" data-name="Path 67" d="M187.334,31.179h10.117a.214.214,0,0,0,0-.428H187.334A.214.214,0,0,0,187.334,31.179Z" fill="#e8e8e8"/>
    <path id="Path_68" data-name="Path 68" d="M197.465,31.121v7.424a.223.223,0,0,0,.445,0V31.121A.223.223,0,0,0,197.465,31.121Z" fill="#e8e8e8"/>
    <path id="Path_69" data-name="Path 69" d="M186.934,39.145h10.754a.214.214,0,0,0,0-.427H186.934A.214.214,0,0,0,186.934,39.145Z" fill="#e8e8e8"/>
    <path id="Path_70" data-name="Path 70" d="M187.763,32.077v5.843a.223.223,0,0,0,.445,0V32.077A.223.223,0,0,0,187.763,32.077Z" fill="#e8e8e8"/>
    <path id="Path_71" data-name="Path 71" d="M188.089,32.248h8.325a.214.214,0,0,0,0-.427h-8.325A.214.214,0,0,0,188.089,32.248Z" fill="#e8e8e8"/>
    <path id="Path_72" data-name="Path 72" d="M196.251,32.077v5.415a.223.223,0,0,0,.444,0V32.077A.223.223,0,0,0,196.251,32.077Z" fill="#e8e8e8"/>
    <path id="Path_73" data-name="Path 73" d="M188.089,38.133h8.28a.214.214,0,0,0,0-.427h-8.28A.214.214,0,0,0,188.089,38.133Z" fill="#e8e8e8"/>
    <path id="Path_74" data-name="Path 74" d="M193.333,35.568c-1.17-.855.578-2.636,1.392-1.568.756.969-.474,2.138-1.525,1.6-.252-.128-.474.242-.222.37a1.678,1.678,0,0,0,2.073-.356,1.5,1.5,0,0,0-.192-2.095,1.521,1.521,0,0,0-2.074.428,1.385,1.385,0,0,0,.326,1.995C193.348,36.1,193.555,35.725,193.333,35.568Z" fill="#e8e8e8"/>
    <path id="Path_75" data-name="Path 75" d="M191.926,37.677c-.06-1.126,1.377-1.553,2.281-1.553,1.111,0,1.466.955,1.925,1.767a.221.221,0,0,0,.385-.214,5.35,5.35,0,0,0-1.125-1.653,2.24,2.24,0,0,0-1.63-.285c-1.036.114-2.355.727-2.281,1.938C191.5,37.948,191.94,37.948,191.926,37.677Z" fill="#e8e8e8"/>
    <path id="Path_76" data-name="Path 76" d="M188.282,36.651c.326-.584,1.526-.356,1.97-.128a1.656,1.656,0,0,1,.844,1.126c.059.271.489.157.43-.114a2.15,2.15,0,0,0-1.481-1.568c-.652-.2-1.763-.214-2.133.456A.217.217,0,0,0,188.282,36.651Z" fill="#e8e8e8"/>
    <path id="Path_77" data-name="Path 77" d="M189.141,35.6c-.489-.014-.37-.713-.163-.955a.787.787,0,0,1,1.111-.057.716.716,0,0,1,.118.926.693.693,0,0,1-.607.242c-.089,0-.459.014-.518-.057-.163-.228-.548-.014-.385.214.177.257.548.271.844.271a1.212,1.212,0,0,0,.948-.328,1.149,1.149,0,0,0-.252-1.71,1.246,1.246,0,0,0-1.763.456c-.266.556-.074,1.4.667,1.411C189.437,36.038,189.437,35.611,189.141,35.6Z" fill="#e8e8e8"/>
    <path id="Path_78" data-name="Path 78" d="M98.488,69.07a1.734,1.734,0,0,0,2.207-.214,4.906,4.906,0,0,0,1.556-3.064c.459-2.793-.711-5.443-1.17-8.151A14.047,14.047,0,0,1,106.768,44.2c2.059-1.482,5.451-3.064,4.652-6.1a.223.223,0,0,0-.43.114c.755,2.893-2.74,4.361-4.651,5.757A14.708,14.708,0,0,0,100.5,54.492a22.851,22.851,0,0,0,1.022,7.054,10.647,10.647,0,0,1,.252,4.375,5.619,5.619,0,0,1-.741,1.91c-.415.627-1.407,1.6-2.237.955C98.592,68.6,98.266,68.9,98.488,69.07Z" fill="#e8e8e8"/>
    <path id="Path_79" data-name="Path 79" d="M111.257,37.933a2.81,2.81,0,0,1-3.052-2.836,3.436,3.436,0,0,1,4-2.864,3.247,3.247,0,0,1,2.429,3.691c-.4,1.582-2.252,1.924-3.674,2.152-.281.043-.162.456.119.413,1.837-.285,3.97-.912,4.088-3.049a3.741,3.741,0,0,0-3.377-3.691,3.887,3.887,0,0,0-4.029,3.363,3.253,3.253,0,0,0,3.5,3.263C111.538,38.347,111.538,37.919,111.257,37.933Z" fill="#e8e8e8"/>
    <path id="Path_80" data-name="Path 80" d="M109.064,36.822c.711-1.724,4.5-2.009,4.948.043.059.271.488.157.429-.114-.548-2.508-4.947-2.138-5.806-.043C108.531,36.964,108.961,37.064,109.064,36.822Z" fill="#e8e8e8"/>
    <path id="Path_81" data-name="Path 81" d="M111.286,34.9a.689.689,0,0,1-.222-.94.843.843,0,0,1,1.126-.228.534.534,0,0,1,.178.784,1.011,1.011,0,0,1-1.067.285c-.281-.057-.4.356-.118.413a1.424,1.424,0,0,0,1.6-.556.953.953,0,0,0-.459-1.339,1.287,1.287,0,0,0-1.644.413,1.115,1.115,0,0,0,.385,1.525C111.3,35.44,111.523,35.069,111.286,34.9Z" fill="#e8e8e8"/>
    <path id="Path_82" data-name="Path 82" d="M117.567,30.509c1.555-3.962,6.028-5.985,10.191-6.256a33.08,33.08,0,0,1,8.206.727c2.548.484,5.2,1.254,7.806,1.168,2.148-.071,4.355-.926,5.362-2.85a.221.221,0,0,0-.385-.214c-1.17,2.223-3.866,2.793-6.251,2.608-2.785-.214-5.525-1.012-8.265-1.454-4.444-.712-9.184-.812-13.139,1.6a9.451,9.451,0,0,0-3.97,4.56C117.033,30.652,117.463,30.766,117.567,30.509Z" fill="#e8e8e8"/>
    <path id="Path_83" data-name="Path 83" d="M150.924,23.056h11.747a.214.214,0,0,0,0-.427H150.924A.214.214,0,1,0,150.924,23.056Z" fill="#e8e8e8"/>
    <path id="Path_84" data-name="Path 84" d="M150.762,22.6c-.7-.656.059-1.767.607-2.266a2.332,2.332,0,0,1,2.474-.527.221.221,0,0,0,.251-.1,3.392,3.392,0,0,1,3.17-2.009,3.3,3.3,0,0,1,3.007,2.408.229.229,0,0,0,.326.128,1.136,1.136,0,0,1,1.585.656,3.438,3.438,0,0,1,.118,1.739c-.029.271.415.271.445,0a2.855,2.855,0,0,0-.563-2.522,1.488,1.488,0,0,0-1.792-.242c.1.043.222.085.326.128a3.721,3.721,0,0,0-6.992-.5c.089-.028.163-.071.252-.1a2.831,2.831,0,0,0-3.2.969c-.577.7-1.081,1.824-.3,2.551C150.658,23.1,150.969,22.8,150.762,22.6Z" fill="#e8e8e8"/>
    <path id="Path_85" data-name="Path 85" d="M159.19,24.7c1.822-.2,2.889,1.639,3.17,3.121a15.305,15.305,0,0,1-.148,4.574c-.252,2.294-.089,5.059,2.177,6.4.237.143.474-.228.222-.37-3.095-1.824-1.807-5.885-1.688-8.678.089-2.123-.785-5.785-3.733-5.472C158.909,24.3,158.909,24.724,159.19,24.7Z" fill="#e8e8e8"/>
    <path id="Path_86" data-name="Path 86" d="M166.848,36.38c-1.333,3.235-2.652,6.47-3.985,9.69-.1.256.326.37.43.114,1.333-3.235,2.651-6.47,3.984-9.69C167.381,36.238,166.951,36.138,166.848,36.38Z" fill="#e8e8e8"/>
    <path id="Path_87" data-name="Path 87" d="M167.055,36.651a42.944,42.944,0,0,1,6.9.2,3.25,3.25,0,0,1-.207-.271,95.268,95.268,0,0,0-2.7,10.26c-.059.271.37.385.429.114a98.908,98.908,0,0,1,2.7-10.26.218.218,0,0,0-.207-.271,42.945,42.945,0,0,0-6.9-.2C166.774,36.238,166.774,36.665,167.055,36.651Z" fill="#e8e8e8"/>
    <path id="Path_88" data-name="Path 88" d="M162.967,46.483c1.363.057,2.711.128,4.073.214a12.823,12.823,0,0,1,3.97.527c.267.1.385-.313.119-.413a12.115,12.115,0,0,0-3.792-.513c-1.452-.085-2.9-.157-4.37-.228C162.685,46.042,162.685,46.469,162.967,46.483Z" fill="#e8e8e8"/>
    <path id="Path_89" data-name="Path 89" d="M167.262,38.076a38.549,38.549,0,0,1,4.252.313c.281.043.4-.37.118-.413a37.327,37.327,0,0,0-4.37-.342A.221.221,0,1,0,167.262,38.076Z" fill="#e8e8e8"/>
    <path id="Path_90" data-name="Path 90" d="M166.833,39.045a19.293,19.293,0,0,1,2.4.057c.281.028.281-.4,0-.428a16.893,16.893,0,0,0-2.4-.057C166.551,38.632,166.551,39.059,166.833,39.045Z" fill="#e8e8e8"/>
    <path id="Path_91" data-name="Path 91" d="M165.855,40.969a16.742,16.742,0,0,1,4.992.157.215.215,0,1,0,.119-.413,17.548,17.548,0,0,0-5.111-.171A.214.214,0,1,0,165.855,40.969Z" fill="#e8e8e8"/>
    <path id="Path_92" data-name="Path 92" d="M165.93,42.223a18.306,18.306,0,0,1,2.932.014c.282.028.282-.4,0-.428a18.305,18.305,0,0,0-2.932-.014C165.648,41.824,165.633,42.251,165.93,42.223Z" fill="#e8e8e8"/>
    <path id="Path_93" data-name="Path 93" d="M165.159,43.876a20.369,20.369,0,0,1,3.955.128c.282.043.282-.385,0-.428a20.405,20.405,0,0,0-3.955-.128C164.878,43.463,164.878,43.89,165.159,43.876Z" fill="#e8e8e8"/>
    <path id="Path_94" data-name="Path 94" d="M91.452,24.752a5.39,5.39,0,0,0,2.326,1.468A8.428,8.428,0,0,1,96.533,28.1a9.551,9.551,0,0,1,2.37,6.655c.1,4.517-1.481,9.248.652,13.523.118.242.5.028.385-.214-2.237-4.5-.252-9.548-.637-14.279a9.651,9.651,0,0,0-2.148-5.657,8.473,8.473,0,0,0-2.34-1.9c-.992-.542-2.281-.784-2.977-1.7C91.674,24.325,91.289,24.538,91.452,24.752Z" fill="#e8e8e8"/>
    <path id="Path_95" data-name="Path 95" d="M86.386,18.724q-.578-.705.089-.983a2.183,2.183,0,0,1,.607-.214,3.685,3.685,0,0,1,.889-.057c.889.043,1.792.271,1.748,1.311a16.651,16.651,0,0,1-.592,3.619c-.326,1.211-.726,2.394-1.155,3.577a5.185,5.185,0,0,1-.3.8c-.267.442-.681.427-1.126.427a7.4,7.4,0,0,1-1.778-.071c-.592-.157-.726-.727-.148-1.1a1.805,1.805,0,0,1,.948-.2c.4,0,.755.086,1.1-.171.652-.484.755-1.8.9-2.494a12.5,12.5,0,0,0,.518-3.278c-.059-.784-.859-.812-1.437-1.14a.216.216,0,1,0-.222.371c.459.257,1.126.285,1.215.869a7.671,7.671,0,0,1-.326,2.294c-.133.656-.281,1.311-.459,1.952-.133.484-.193,1.069-.859,1.2-.267.057-.592-.028-.874.014-.711.1-1.407.584-1.3,1.354.133.969,1.333.8,2.074.826.918.029,1.837.157,2.252-.784a29.718,29.718,0,0,0,1.244-3.662,19.036,19.036,0,0,0,.756-3.847c.089-1.012.133-1.824-1.037-2.095-1.022-.242-2.429-.356-3.229.442-.533.527-.4,1.567.518,1.5C86.668,19.123,86.668,18.7,86.386,18.724Z" fill="#e8e8e8"/>
    <path id="Path_96" data-name="Path 96" d="M84.594,20.249l-.045-.043a.255.255,0,0,0-.222-.057c-.43.142-.592.812-.711,1.183a4.766,4.766,0,0,0-.148,2.095c.03.271.474.271.444,0a4.969,4.969,0,0,1,.015-1.482c.044-.257.5-1.254.341-1.4C84.475,20.748,84.786,20.449,84.594,20.249Z" fill="#e8e8e8"/>
    <path id="Path_97" data-name="Path 97" d="M83.1,18.682A6.481,6.481,0,0,0,81.439,24.5a.223.223,0,0,0,.43-.114,6.1,6.1,0,0,1,1.54-5.4C83.587,18.767,83.276,18.468,83.1,18.682Z" fill="#e8e8e8"/>
    <path id="Path_98" data-name="Path 98" d="M81.231,16.758a13.876,13.876,0,0,0-2.948,10.075c.03.271.474.271.444,0a13.55,13.55,0,0,1,2.888-9.861C81.78,16.758,81.394,16.544,81.231,16.758Z" fill="#e8e8e8"/>
    <path id="Path_99" data-name="Path 99" d="M78.077,31.322a9.709,9.709,0,0,0-3.051,2.166,5.141,5.141,0,0,0-1.259,3.178c-.3,2.807-1.377,5.885-4.31,7.068-.267.1-.148.513.118.413a7.491,7.491,0,0,0,4.281-5.387c.341-1.382.178-3.021.933-4.261A8.008,8.008,0,0,1,78.3,31.678C78.565,31.578,78.343,31.208,78.077,31.322Z" fill="#e8e8e8"/>
    <path id="Path_100" data-name="Path 100" d="M63.19,51.3a2.426,2.426,0,0,1-2.444-1.339c-.415-1.14.474-2.252,1.422-2.836a13,13,0,0,1,6.443-1.61,6.343,6.343,0,0,1,3.259.556,1.877,1.877,0,0,1,.474,3.064c-1.437,1.539-3.91,1.7-5.9,1.838-.281.014-.281.442,0,.427,1.985-.142,4.207-.313,5.807-1.6,1.466-1.168,1.57-3.106-.148-4.118-1.778-1.04-4.488-.7-6.414-.3-1.852.385-4.384,1.083-5.214,2.921-.859,1.881.785,3.449,2.74,3.392C63.486,51.713,63.486,51.286,63.19,51.3Z" fill="#e8e8e8"/>
    <path id="Path_101" data-name="Path 101" d="M63.116,51.471c-.37.57-.726,1.14-1.1,1.7-.118.185.119.385.311.3.9-.47,1.881-.769,2.8-1.183a11.8,11.8,0,0,0,1.466-.755c.163-.1.355-.157.4-.356a.2.2,0,0,0-.148-.257A.056.056,0,0,1,66.8,50.9c-.1-.014-.252.028-.267.142v.028c-.059.271.37.385.43.114v-.028c-.089.043-.178.1-.267.142a.056.056,0,0,1,.044.014c-.044-.086-.1-.171-.148-.257-.045.142-.874.47-1.052.57a14.739,14.739,0,0,1-1.378.6,19.614,19.614,0,0,0-2.029.869l.311.3c.37-.57.726-1.14,1.1-1.7A.248.248,0,0,0,63.116,51.471Z" fill="#e8e8e8"/>
    <path id="Path_102" data-name="Path 102" d="M63.6,49.006c-.015-.028-.015-.085.03-.085.118,0-.015.142-.03.157-.074.043-.326.1-.311-.043.015-.171.355-.356.415-.1a.157.157,0,0,1-.118.171.09.09,0,0,1-.1-.014c-.015-.014-.045-.029-.015-.029.281.014.281-.413,0-.427a.433.433,0,0,0-.444.542.55.55,0,0,0,.667.342.613.613,0,0,0,.474-.57.6.6,0,0,0-.474-.556c-.548-.128-1.126.641-.652,1.026.385.313,1.155.028,1.111-.5a.512.512,0,0,0-.652-.413.5.5,0,0,0-.267.712C63.353,49.462,63.738,49.248,63.6,49.006Z" fill="#e8e8e8"/>
    <path id="Path_103" data-name="Path 103" d="M66.878,48.621c-.015-.085-.059-.2.03-.271a.256.256,0,0,1,.178-.043c.148.028.118.185.015.257a.107.107,0,0,1-.163-.014c-.044-.057-.03-.071.015-.1s-.059,0,.015-.014c.178-.028-.118.171-.074.028-.089.271.341.371.43.114a.393.393,0,0,0-.444-.47.371.371,0,0,0-.193.627.4.4,0,0,0,.637-.071.413.413,0,0,0-.222-.613.487.487,0,0,0-.622.328.545.545,0,0,0,.43.641c.533.114.978-.584.592-.969a.7.7,0,0,0-.741-.1.64.64,0,0,0-.282.784C66.493,49.006,66.923,48.892,66.878,48.621Z" fill="#e8e8e8"/>
    <path id="Path_104" data-name="Path 104" d="M70.167,47.666c.059,0,.118.014.192.014v-.014c.015-.014.015-.043.03-.057a.216.216,0,0,1,.089-.071.144.144,0,0,1,.193.043c.059.114-.044.328-.193.242-.089-.057-.1-.2.03-.171a.078.078,0,0,1,.059.028h0c0-.028,0,.014-.015.014-.044.028-.059.057-.1.028a.239.239,0,0,0-.311.071.235.235,0,0,0,.074.3c.43.3,1.007-.3.667-.7a.546.546,0,0,0-.948.342.585.585,0,0,0,.444.513A.6.6,0,0,0,71,47.994a.587.587,0,0,0-.667-.883.614.614,0,0,0-.444.6.349.349,0,0,0,.637.157C70.67,47.638,70.3,47.424,70.167,47.666Z" fill="#e8e8e8"/>
    <path id="Path_105" data-name="Path 105" d="M79.114,35.24a16.057,16.057,0,0,0,4.725-3.8c.178-.214-.133-.513-.311-.3a15.689,15.689,0,0,1-4.636,3.734C78.64,35,78.862,35.368,79.114,35.24Z" fill="#e8e8e8"/>
    <path id="Path_106" data-name="Path 106" d="M101.273,35.611a23.809,23.809,0,0,0-.37,5.429c.014.271.459.271.444,0a22.873,22.873,0,0,1,.355-5.315C101.747,35.454,101.317,35.34,101.273,35.611Z" fill="#e8e8e8"/>
    <path id="Path_107" data-name="Path 107" d="M99.006,77.263a6.859,6.859,0,0,1,2.889-5.557c.222-.157,0-.527-.222-.37a7.261,7.261,0,0,0-3.1,5.928C98.562,77.534,99.006,77.534,99.006,77.263Z" fill="#e8e8e8"/>
    <path id="Path_108" data-name="Path 108" d="M123.818,134.8a55.094,55.094,0,0,0,1.2,6.74,56.062,56.062,0,0,0,2.844,8.593,4.143,4.143,0,0,1-2.37.969,4.244,4.244,0,0,1-1.763-.256c-.533-1.782-1.052-3.634-1.526-5.558-.977-3.961-1.688-7.738-2.207-11.257Q121.93,134.42,123.818,134.8Z" fill="#191919"/>
    <path id="Path_109" data-name="Path 109" d="M157.072,133.466a53.62,53.62,0,0,1-1.067,6.74,55.085,55.085,0,0,1-2.829,8.963,3.194,3.194,0,0,0,4.326,0c.34-1.724.666-3.463.992-5.2.711-3.805,1.348-7.553,1.955-11.258C159.323,132.953,158.2,133.209,157.072,133.466Z" fill="#191919"/>
    <path id="Path_110" data-name="Path 110" d="M130.587,127.78q.511,3.27,1.2,6.74c.666,3.349,1.422,6.541,2.222,9.562a4.428,4.428,0,0,1-3.718.327c-.445-2.023-.874-4.075-1.3-6.127-.785-3.8-1.511-7.553-2.207-11.258C128.054,127.267,129.313,127.523,130.587,127.78Z" fill="#191919"/>
    <path id="Path_111" data-name="Path 111" d="M151.488,127.352c-.4,2.152-.756,4.4-1.067,6.741q-.644,4.83-.9,9.234a3.37,3.37,0,0,0,3.51.071,42.033,42.033,0,0,1-.118-5.543,43.9,43.9,0,0,1,1.955-11.258C153.739,126.839,152.613,127.1,151.488,127.352Z" fill="#191919"/>
    <path id="Path_112" data-name="Path 112" d="M177.809,79.672c2.593,4.446.593,9.362-4.266,21.574-2.34,5.871-6.621,16.659-12.664,32.034a70.454,70.454,0,0,1-27.937,3.834,69.257,69.257,0,0,1-17.478-3.449c-.667-1.154-2.978-5.472-1.245-9.661.963-2.323,2.9-3.99,7.022-5.957a55.644,55.644,0,0,1,21.611-5.158c-4.073-19.509,2.9-35.5,13.761-39.188C163.738,71.293,174.24,73.559,177.809,79.672Z" fill="#fff" stroke="#191919" stroke-miterlimit="10" stroke-width="2"/>
    <path id="Path_113" data-name="Path 113" d="M176.861,81.282c-4.295,5.23-5.273,12.255-6.917,18.539a108.978,108.978,0,0,1-6.829,19.751,57,57,0,0,1-6,9.875c-.163.228.222.442.385.214a65.218,65.218,0,0,0,9.3-17.884c2.281-6.441,3.792-13.081,5.569-19.651,1.007-3.733,2.3-7.467,4.814-10.531C177.35,81.368,177.039,81.068,176.861,81.282Z" fill="#191919"/>
    <path id="Path_114" data-name="Path 114" d="M115.553,130.573a64.716,64.716,0,0,0,39.86,1.012.215.215,0,1,0-.118-.414,64.589,64.589,0,0,1-31.2,1.34,63.471,63.471,0,0,1-8.428-2.351C115.4,130.06,115.286,130.473,115.553,130.573Z" fill="#191919"/>
    <path id="Path_115" data-name="Path 115" d="M150.332,119.372a11.281,11.281,0,0,1,6.029,4.5c.148.228.533.014.385-.214a11.813,11.813,0,0,0-6.295-4.7A.215.215,0,1,0,150.332,119.372Z" fill="#191919"/>
    <path id="Path_116" data-name="Path 116" d="M105.776,137.826c1.185,1.71,2.37,3.434,3.54,5.144-7.584,6.555-8.562,8.422-8,8.878,1.126.9,9.2-3.092,10.028-3.505a56.2,56.2,0,0,0,6.785-3.948,30.351,30.351,0,0,0-2.222-4.617,34.47,34.47,0,0,0-4.059-5.514C109.82,135.432,107.79,136.629,105.776,137.826Z" fill="#191919"/>
    <path id="Path_117" data-name="Path 117" d="M150.1,104.239a11.958,11.958,0,0,1,1.185,4.6,12.232,12.232,0,0,1-1.585,6.5,16.517,16.517,0,0,1-2.163,2.223,25.121,25.121,0,0,1-6.176,3.576c-3.866,1.6-15.109,3.52-30.381,3.891a23.871,23.871,0,0,0,2.666,6.469,26.974,26.974,0,0,0,2.489,3.506,11.7,11.7,0,0,1-5.347,3.662,17.14,17.14,0,0,1-6.992.883,35.15,35.15,0,0,1-4.77-5.1,27.6,27.6,0,0,1-5.732-15.376,47.419,47.419,0,0,1,4.873-2.95,59.192,59.192,0,0,1,11.865-4.588c5.762-1.625,11.272-2.75,23.952-4.817C137.949,106.077,143.444,105.194,150.1,104.239Z" fill="#fff" stroke="#191919" stroke-miterlimit="10" stroke-width="2"/>
    <path id="Path_118" data-name="Path 118" d="M136.023,106.689a11.331,11.331,0,0,1-5.406,8.451c-3.659,2.137-6.725,1.268-14.058,2.978-5.273,1.225-12.249,2.85-14.19,6.455-2.029,3.791,1.807,9.134,8.517,13.523a8.963,8.963,0,0,0,2.03-.5,6.73,6.73,0,0,0,3.244-2.48,26.94,26.94,0,0,1-2.563-3.477,23.47,23.47,0,0,1-2.844-6.655c7.851-.313,14.442-.969,19.449-1.6,6.028-.755,10.206-1.51,14.19-3.676a14.043,14.043,0,0,0,5.14-4.275,9.277,9.277,0,0,0,1.615-5.073,11.237,11.237,0,0,0-1.482-6.071Z" fill="#6c6d6d" opacity="0.19"/>
    <path id="Path_119" data-name="Path 119" d="M149.814,104.6a14.6,14.6,0,0,1-5.54,10.146c-2.578,2.038-5.348,2.95-16.22,5.771-4.8,1.24-10.606,2.708-17.212,4.3a167.92,167.92,0,0,0,20.13-1.4c5.081-.67,7.569-1.254,10.147-2.323,2.444-1.011,7.376-3.063,9.391-7.381A9.875,9.875,0,0,0,149.814,104.6Z" fill="#6c6d6d" opacity="0.19"/>
    <path id="Path_120" data-name="Path 120" d="M110.886,125.03a34.378,34.378,0,0,0,.4,6.4,36.247,36.247,0,0,0,1.556,6.256,11.306,11.306,0,0,0,1.644-1.14,10.739,10.739,0,0,0,1.555-1.582,31,31,0,0,1-2.548-3.748A26.642,26.642,0,0,1,110.886,125.03Z" fill="#6c6d6d" opacity="0.22"/>
    <path id="Path_121" data-name="Path 121" d="M110.205,146.005c1.141,2.152,2.266,4.3,3.407,6.47-7.288,8.236-8.236,10.573-7.688,11.143,1.082,1.14,8.843-3.89,9.643-4.4a54.478,54.478,0,0,0,6.532-4.959,44.851,44.851,0,0,0-2.147-5.814,45.524,45.524,0,0,0-3.9-6.94Q113.123,143.769,110.205,146.005Z" fill="#191919"/>
    <path id="Path_122" data-name="Path 122" d="M152.806,103.8a18.728,18.728,0,0,1,1.14,5.785,19.091,19.091,0,0,1-1.525,8.166,20.231,20.231,0,0,1-2.074,2.807,23.736,23.736,0,0,1-5.925,4.5c-3.718,2-14.531,4.432-29.195,4.888a35.143,35.143,0,0,0,2.562,8.122,34.491,34.491,0,0,0,2.4,4.4,11.874,11.874,0,0,1-5.14,4.6,12.56,12.56,0,0,1-6.725,1.1,40.394,40.394,0,0,1-4.577-6.412,41.668,41.668,0,0,1-5.51-19.323,46.889,46.889,0,0,1,4.68-3.7,49.7,49.7,0,0,1,11.406-5.771c5.525-2.038,10.843-3.449,23.033-6.057C141.119,106.091,146.422,104.994,152.806,103.8Z" fill="#fff" stroke="#191919" stroke-miterlimit="10" stroke-width="2"/>
    <path id="Path_123" data-name="Path 123" d="M139.282,106.874c-.415,3.42-1.585,7.852-5.2,10.617-3.511,2.693-6.473,1.6-13.509,3.747-5.066,1.539-11.776,3.591-13.643,8.123-1.955,4.759,1.733,11.485,8.177,16.986a6.91,6.91,0,0,0,1.955-.627,7.046,7.046,0,0,0,3.111-3.121,34.679,34.679,0,0,1-5.2-12.739,174.036,174.036,0,0,0,18.708-2c5.806-.941,9.806-1.9,13.642-4.617a15.387,15.387,0,0,0,4.933-5.373,14.446,14.446,0,0,0,1.555-6.369,17.745,17.745,0,0,0-1.422-7.624Q145.836,105.356,139.282,106.874Z" fill="#6c6d6d" opacity="0.19"/>
    <path id="Path_124" data-name="Path 124" d="M152.524,104.239c-.281,3.32-1.288,8.592-5.317,12.753-2.489,2.565-5.14,3.705-15.583,7.254-4.622,1.567-10.191,3.4-16.546,5.415a124.324,124.324,0,0,0,19.36-1.753c4.888-.841,7.288-1.568,9.747-2.907,2.355-1.283,7.08-3.848,9.036-9.291A15.72,15.72,0,0,0,152.524,104.239Z" fill="#6c6d6d" opacity="0.19"/>
    <path id="Path_125" data-name="Path 125" d="M115.123,129.931a55.665,55.665,0,0,0,.385,8.037,56.99,56.99,0,0,0,1.5,7.852,11.8,11.8,0,0,0,1.585-1.439,12.9,12.9,0,0,0,1.5-1.981,41.1,41.1,0,0,1-4.962-12.469Z" fill="#6c6d6d" opacity="0.22"/>
    <path id="Path_126" data-name="Path 126" d="M109.361,81.652c-.282-.128-.845-.37-.83-.641.03-.442,1.555-.741,2.7-.727a6.864,6.864,0,0,1,3.851,1.268A8.785,8.785,0,0,1,109.361,81.652Z" fill="#fff" stroke="#191919" stroke-miterlimit="10" stroke-width="2"/>
    <path id="Path_127" data-name="Path 127" d="M144.985,63.17c-2.815-.356-5.347,3.7-5.584,4.075-.86,1.411-.963,2.351-1.556,4.931-1.437,6.284-2.207,9.476-4.34,11.4a9.473,9.473,0,0,1-4.769,2.223c-2.533.385-4.829-.527-9.3-2.366-3.777-1.553-4.236-2.123-6.295-2.351-1.052-.114-4.118-.442-6.147,1.454-1.3,1.211-1.881,3.149-1.407,3.548.607.513,3.1-1.3,3.125-1.254a5.814,5.814,0,0,0-1.363,1.112c-.311.356-.844,1.126-.651,1.325.34.4,2.429-2.023,4.725-1.6,1.57.285,1.866,1.653,3.688,1.91a4.644,4.644,0,0,0,2.592-.427,19.418,19.418,0,0,0,5.17,3.876,18.831,18.831,0,0,0,12.842,1.81,18.456,18.456,0,0,0,11.05-8.137c.593-.9,4.948-7.6,2.844-15.1C149.236,68.386,147.888,63.541,144.985,63.17Z" fill="#fff" stroke="#191919" stroke-miterlimit="10" stroke-width="2"/>
    <path id="Path_128" data-name="Path 128" d="M144.689,63.213c-.963.485.9,3.848.666,8.664a20.546,20.546,0,0,1-3.2,9.619,16.22,16.22,0,0,1-6.162,6.612,16.455,16.455,0,0,1-13.731.413c-1.156-.484-2.326-2.052-4.874-3.007a17.467,17.467,0,0,0-3.007-.784c-2.5-.47-4.725-.9-6.784.1a4.334,4.334,0,0,0-1.733,1.325,9.2,9.2,0,0,0,2.207-.983c-1.214,1.553-1.407,1.995-1.318,2.08.1.086.474-.242,1.422-.755a4.849,4.849,0,0,1,2.666-.855,3.446,3.446,0,0,1,1.022.271c.815.342,1.007.741,1.822,1.14a4.687,4.687,0,0,0,1.141.385,5.1,5.1,0,0,0,2.74-.214c1.126,1.14,6.295,6.185,13.864,6.085a18.076,18.076,0,0,0,7.881-2.009,19.828,19.828,0,0,0,9.258-10.089c1.925-4.674,2.607-11.6-.919-15.946C146.807,64.21,145.355,62.885,144.689,63.213Z" fill="#6c6d6d" opacity="0.25"/>
    <path id="Path_129" data-name="Path 129" d="M105.85,86.084a6.177,6.177,0,0,1,2.237-1.952c.192-.1.014-.371-.163-.271a6.606,6.606,0,0,0-2.356,2.066C105.435,86.1,105.731,86.255,105.85,86.084Z" fill="#191919"/>
    <path id="Path_130" data-name="Path 130" d="M106.028,84.246a5.573,5.573,0,0,1,2.444-1.767c.193-.085.03-.37-.163-.271a5.7,5.7,0,0,0-2.577,1.881C105.628,84.26,105.909,84.417,106.028,84.246Z" fill="#191919"/>
    <path id="Path_131" data-name="Path 131" d="M148.94,68.343a47.756,47.756,0,0,1-1.333,5.971c-1.393,4.845-2.652,9.206-5.94,12.668-4.074,4.275-9.6,5.443-12.769,5.8a15.173,15.173,0,0,0,5.377.271c8.888-1.2,13.687-10.388,14.991-14.407a14.806,14.806,0,0,0,.755-4.189A15.084,15.084,0,0,0,148.94,68.343Z" fill="#6c6d6d" opacity="0.29"/>
    <path id="Path_132" data-name="Path 132" d="M111.716,85.5a13.694,13.694,0,0,0,3.422,1.1,14.082,14.082,0,0,0,2.933.214c-2.03,1.04-3.081.912-3.674.57-.37-.214-.785-.641-1.925-1.4C112.16,85.771,111.894,85.6,111.716,85.5Z" fill="#6c6d6d" opacity="0.26"/>
    <path id="Path_133" data-name="Path 133" d="M81.765,108.927v20.534a.668.668,0,0,0,1.333,0V108.927A.669.669,0,0,0,81.765,108.927Z" fill="#161616"/>
    <path id="Path_134" data-name="Path 134" d="M106,108.656v3.292a.668.668,0,0,0,1.333,0v-3.292A.668.668,0,0,0,106,108.656Z" fill="#161616"/>
    <path id="Path_135" data-name="Path 135" d="M63.368,108.086q10.776-9.768,21.567-19.551l34.868.6q-2.844,9.491-5.688,18.966Q88.742,108.079,63.368,108.086Z" fill="#fff" stroke="#191919" stroke-miterlimit="10" stroke-width="2"/>
    <path id="Path_136" data-name="Path 136" d="M63.8,108.827h49.874a.641.641,0,1,0,0-1.282H63.8A.641.641,0,1,0,63.8,108.827Z" fill="#161616"/>
    <path id="Path_137" data-name="Path 137" d="M67.6,108.613v54.435a.668.668,0,0,0,1.333,0V108.613A.668.668,0,0,0,67.6,108.613Z" fill="#161616"/>
    <path id="Path_138" data-name="Path 138" d="M108.235,108.613v54.435a.668.668,0,0,0,1.333,0V108.613A.668.668,0,0,0,108.235,108.613Z" fill="#161616"/>
    <path id="Path_139" data-name="Path 139" d="M68.271,135.076h40.26a.642.642,0,1,0,0-1.283H68.271A.642.642,0,1,0,68.271,135.076Z" fill="#161616"/>
    <path id="Path_140" data-name="Path 140" d="M119.625,89.134c-1.688,6.341-3.629,12.625-5.85,18.81-.193.527.666.741.859.228q3.333-9.3,5.851-18.81A.446.446,0,0,0,119.625,89.134Z" fill="#161616"/>
    <path id="Path_141" data-name="Path 141" d="M48.7,164.445H72.285a.641.641,0,1,0,0-1.282H48.7A.641.641,0,1,0,48.7,164.445Z" fill="#161616"/>
    <path id="Path_142" data-name="Path 142" d="M75.588,164.16h5.436a.642.642,0,1,0,0-1.283H75.588A.642.642,0,1,0,75.588,164.16Z" fill="#161616"/>
    <path id="Path_143" data-name="Path 143" d="M99.17,164.345h21.256a.641.641,0,1,0,0-1.282H99.17A.641.641,0,1,0,99.17,164.345Z" fill="#161616"/>
    <path id="Path_144" data-name="Path 144" d="M125.269,163.889h3.792a.641.641,0,1,0,0-1.282h-3.792A.641.641,0,1,0,125.269,163.889Z" fill="#161616"/>
    <path id="Path_145" data-name="Path 145" d="M41.564,159.928h9.184a.642.642,0,1,0,0-1.283H41.564A.642.642,0,1,0,41.564,159.928Z" fill="#161616"/>
    <path id="Path_146" data-name="Path 146" d="M106.354,105.393q-13.71-.342-27.433-.67,8.132-7.481,16.249-14.976l18.768.941C111.4,95.6,108.887,100.491,106.354,105.393Z" fill="#fff" stroke="#191919" stroke-miterlimit="10" stroke-width="2"/>
    <path id="Path_147" data-name="Path 147" d="M94.859,89.647Q86.883,97.064,78.906,104.5q-.355-11.884-.726-23.783L94.356,70.88Q94.578,80.263,94.859,89.647Z" fill="#fff" stroke="#191919" stroke-miterlimit="10" stroke-width="2"/>
    <path id="Path_148" data-name="Path 148" d="M78.669,81.467q.644,10.581.859,21.19a.111.111,0,0,0,.222,0q-.222-10.6-.859-21.19C78.877,81.339,78.654,81.339,78.669,81.467Z" fill="#191919"/>
    <path id="Path_149" data-name="Path 149" d="M78.788,81.5l14.887-9.319a.11.11,0,0,0-.118-.185l-14.887,9.32A.11.11,0,1,0,78.788,81.5Z" fill="#191919"/>
    <path id="Path_150" data-name="Path 150" d="M93.615,72.162c-.015,5.686.163,11.386.548,17.057.015.143.237.143.222,0-.37-5.686-.563-11.372-.548-17.057C93.837,72.034,93.615,72.034,93.615,72.162Z" fill="#191919"/>
    <path id="Path_151" data-name="Path 151" d="M79.676,102.956q7.288-6.775,14.59-13.537c.1-.1-.059-.242-.163-.157q-7.288,6.776-14.59,13.538C79.425,102.9,79.573,103.056,79.676,102.956Z" fill="#191919"/>
    <path id="Path_152" data-name="Path 152" d="M102.176,100.534c.9-1.382,1.807-2.779,2.681-4.19.074-.114-.118-.228-.192-.114-.874,1.411-1.778,2.807-2.681,4.19C101.895,100.534,102.088,100.648,102.176,100.534Z" fill="#191919"/>
    <path id="Path_153" data-name="Path 153" d="M104.8,96.3c1.17.043,2.34.043,3.51-.014a.107.107,0,1,0,0-.214c-1.17.043-2.34.043-3.51.014A.107.107,0,1,0,104.8,96.3Z" fill="#191919"/>
    <path id="Path_154" data-name="Path 154" d="M108.161,96.23c-.666,1.4-1.348,2.793-2.029,4.19-.059.128.133.228.192.114.682-1.4,1.363-2.793,2.03-4.19C108.413,96.2,108.22,96.1,108.161,96.23Z" fill="#191919"/>
    <path id="Path_155" data-name="Path 155" d="M102.1,100.648a22.062,22.062,0,0,0,4,.043.107.107,0,1,0,0-.214,22.74,22.74,0,0,1-3.94-.029C102.014,100.42,101.955,100.634,102.1,100.648Z" fill="#191919"/>
    <path id="Path_156" data-name="Path 156" d="M106.961,96.244a36.089,36.089,0,0,1-2.044,4.146c-.074.114.119.228.193.114a41.2,41.2,0,0,0,2.073-4.2C107.228,96.173,107.02,96.116,106.961,96.244Z" fill="#191919"/>
    <path id="Path_157" data-name="Path 157" d="M85.5,102.7q4.888-5.814,10.117-11.372c.089-.1-.059-.257-.163-.157q-5.222,5.536-10.117,11.371C85.246,102.657,85.409,102.8,85.5,102.7Z" fill="#191919"/>
    <path id="Path_158" data-name="Path 158" d="M89.438,102.942q4.377-5.878,9.228-11.386c.089-.1-.059-.257-.163-.157q-4.866,5.536-9.258,11.428C89.157,102.942,89.349,103.056,89.438,102.942Z" fill="#191919"/>
    <path id="Path_159" data-name="Path 159" d="M93.674,103.526a126.605,126.605,0,0,1,8.295-11.785c.089-.114-.1-.214-.192-.114a126.5,126.5,0,0,0-8.3,11.785C93.408,103.526,93.6,103.64,93.674,103.526Z" fill="#191919"/>
    <path id="Path_160" data-name="Path 160" d="M97.229,103.882a73.835,73.835,0,0,1,8.814-12.54c.089-.1-.06-.257-.163-.157a74.465,74.465,0,0,0-8.858,12.582C96.963,103.9,97.155,104.011,97.229,103.882Z" fill="#191919"/>
    <path id="Path_161" data-name="Path 161" d="M87.394,100.391a49.868,49.868,0,0,1,11.361.556c.148.014.133-.2,0-.214a48.925,48.925,0,0,0-11.361-.555C87.261,100.192,87.261,100.406,87.394,100.391Z" fill="#191919"/>
    <path id="Path_162" data-name="Path 162" d="M89.3,98.311A48.918,48.918,0,0,1,100,99.095c.133.029.193-.185.059-.2A49.45,49.45,0,0,0,89.3,98.111C89.171,98.1,89.171,98.311,89.3,98.311Z" fill="#191919"/>
    <path id="Path_163" data-name="Path 163" d="M91.023,96.3a35.031,35.031,0,0,1,10.265.884c.133.029.193-.171.059-.2a34.906,34.906,0,0,0-10.324-.9C90.875,96.1,90.875,96.316,91.023,96.3Z" fill="#191919"/>
    <path id="Path_164" data-name="Path 164" d="M92.8,94.292a51.856,51.856,0,0,1,9.85.983c.134.029.193-.185.06-.2a52.489,52.489,0,0,0-9.91-.983C92.667,94.078,92.667,94.292,92.8,94.292Z" fill="#191919"/>
    <path id="Path_165" data-name="Path 165" d="M94.563,92.425a47.945,47.945,0,0,1,9.362,1.083c.133.029.192-.171.059-.2a47.6,47.6,0,0,0-9.421-1.083A.1.1,0,1,0,94.563,92.425Z" fill="#191919"/>
    <path id="Path_166" data-name="Path 166" d="M104.725,94.591c-1.452,2.052-2.889,4.1-4.34,6.157-.074.114.118.228.192.114,1.452-2.052,2.889-4.1,4.34-6.157C105.006,94.577,104.813,94.478,104.725,94.591Z" fill="#191919"/>
    <path id="Path_167" data-name="Path 167" d="M80.195,91.485c1.852-.755,3.851-.328,5.806-.356a9.492,9.492,0,0,0,4.622-1.254.11.11,0,0,0-.118-.185A10.02,10.02,0,0,1,84.95,90.9a11.247,11.247,0,0,0-4.873.413C79.958,91.357,80.062,91.542,80.195,91.485Z" fill="#191919"/>
    <path id="Path_168" data-name="Path 168" d="M85.187,90.6c3.17-1.724,4.636-5.358,7.939-6.883.133-.057.015-.242-.118-.185-3.318,1.539-4.77,5.159-7.939,6.883A.11.11,0,0,0,85.187,90.6Z" fill="#191919"/>
    <path id="Path_169" data-name="Path 169" d="M89.216,80.441a1.169,1.169,0,0,1-.148-1.61,2.009,2.009,0,0,1,.622-.684,1.014,1.014,0,0,1,1.244.242c.1.086.267-.057.163-.157a1.284,1.284,0,0,0-2.044.228,1.469,1.469,0,0,0,0,2.137C89.171,80.684,89.334,80.527,89.216,80.441Z" fill="#191919"/>
    <path id="Path_170" data-name="Path 170" d="M134.838,70.024a23.682,23.682,0,0,0-5.747,11.785c-1.081,4.988.059,6.983.133,16.459.03,4.033-.148,7.3-.281,9.348a19.026,19.026,0,0,0,14.205,3.42,18.093,18.093,0,0,0,10.087-5.529c.252-1.354.608-3.349,1.022-5.771,2.193-13.067,3.274-19.694,1.911-24.439-.814-2.878-2.829-7.438-8.547-12.155A24.166,24.166,0,0,0,134.838,70.024Z" fill="#ec615b"/>
    <path id="Path_171" data-name="Path 171" d="M138.971,67.4a64.2,64.2,0,0,1,2.607,10.046c1.17,6.712,2.933,16.772-2.03,26.519a30.5,30.5,0,0,1-4.74,6.8,20.021,20.021,0,0,0,9.184-.1,19.72,19.72,0,0,0,9.1-5.115c.963-5.3,1.733-9.847,2.326-13.4,1.022-6.242,1.259-8.137,1.155-10.8-.119-3.42-.282-7.011-2.415-10.887a20.038,20.038,0,0,0-6.68-7.068,17.478,17.478,0,0,0-5.614,1.952A18.69,18.69,0,0,0,138.971,67.4Z" fill="#6c6d6d" opacity="0.19"/>
    <path id="Path_172" data-name="Path 172" d="M155.8,74.2c-.267.014.3,3.962-.578,9.4a42.351,42.351,0,0,1-8.8,19.536,43.362,43.362,0,0,1-8.132,7.724,16.462,16.462,0,0,0,5.317-.1,17.393,17.393,0,0,0,9.377-5.116c.311-1.738.814-4.46,1.451-7.823,1.5-7.866,1.793-8.807,2.03-11.257C157.116,79.885,156.109,74.2,155.8,74.2Z" fill="#6c6d6d" opacity="0.18"/>
    <path id="Path_173" data-name="Path 173" d="M108.738,84.787c-.281-.185-.844-.527-.785-.812.119-.456,1.822-.527,3.052-.328a7.572,7.572,0,0,1,3.925,1.981C113.153,85.87,110.59,85.942,108.738,84.787Z" fill="#fff" stroke="#191919" stroke-miterlimit="10" stroke-width="2"/>
    <path id="Path_174" data-name="Path 174" d="M150.554,71.136c-2.977-.841-6.458,3.021-6.769,3.391-1.185,1.354-1.467,2.323-2.578,4.945-2.7,6.413-4.1,9.647-6.769,11.329a10.654,10.654,0,0,1-5.555,1.567c-2.8-.014-5.11-1.354-9.613-4.033-3.792-2.266-4.177-2.95-6.369-3.52-1.111-.285-4.37-1.14-6.9.527-1.614,1.054-2.607,3.021-2.162,3.52.562.641,3.584-.869,3.6-.812a6.309,6.309,0,0,0-1.674.955c-.4.328-1.111,1.04-.948,1.3.3.484,2.992-1.739,5.392-.912,1.629.556,1.718,2.052,3.629,2.636A5.213,5.213,0,0,0,116.708,92a20.444,20.444,0,0,0,4.873,4.945,19.715,19.715,0,0,0,26.944-2.736c.815-.841,6.725-7.211,5.821-15.5C154.213,77.349,153.635,72.02,150.554,71.136Z" fill="#fff" stroke="#191919" stroke-miterlimit="10" stroke-width="2"/>
    <path id="Path_175" data-name="Path 175" d="M150.229,71.135c-1.126.356.281,4.218-.86,9.277a21.922,21.922,0,0,1-5.214,9.633c-1.733,2.009-4,4.631-7.865,5.971a18.359,18.359,0,0,1-14.9-1.824c-1.156-.713-2.133-2.551-4.726-3.99a18.554,18.554,0,0,0-3.11-1.325c-2.607-.912-4.948-1.739-7.332-1.012a4.634,4.634,0,0,0-2.1,1.112,9.787,9.787,0,0,0,2.563-.67c-1.585,1.439-1.881,1.881-1.807,1.995s.563-.185,1.673-.556a5.328,5.328,0,0,1,3.037-.456,3.746,3.746,0,0,1,1.067.456c.814.484.948.955,1.747,1.51a4.9,4.9,0,0,0,1.171.6,5.614,5.614,0,0,0,2.992.228c1.007,1.4,5.673,7.581,13.864,8.721a20.065,20.065,0,0,0,8.873-.827,21.993,21.993,0,0,0,11.835-9.134c2.933-4.617,4.933-11.827,1.911-17.015C152.332,72.532,151,70.893,150.229,71.135Z" fill="#6c6d6d" opacity="0.25"/>
    <path id="Path_176" data-name="Path 176" d="M104.1,88.906a6.816,6.816,0,0,1,2.77-1.7.163.163,0,1,0-.089-.313,7.433,7.433,0,0,0-2.918,1.781A.164.164,0,0,0,104.1,88.906Z" fill="#191919"/>
    <path id="Path_177" data-name="Path 177" d="M104.636,87a6.01,6.01,0,0,1,2.977-1.468.163.163,0,0,0-.089-.314,6.515,6.515,0,0,0-3.111,1.553C104.25,86.925,104.487,87.139,104.636,87Z" fill="#191919"/>
    <path id="Path_178" data-name="Path 178" d="M153.887,77.263a54.287,54.287,0,0,1-2.518,6.1c-2.385,4.888-4.533,9.291-8.725,12.412-5.169,3.848-11.361,4.175-14.842,4.019a16.744,16.744,0,0,0,5.762,1.183c9.806.2,16.679-8.736,18.812-12.754a15.536,15.536,0,0,0,1.511-10.958Z" fill="#6c6d6d" opacity="0.29"/>
    <path id="Path_179" data-name="Path 179" d="M110.56,89.248a15.087,15.087,0,0,0,3.5,1.724,15.381,15.381,0,0,0,3.125.7c-2.384.755-3.5.456-4.073,0-.355-.285-.726-.812-1.837-1.8C110.99,89.6,110.738,89.39,110.56,89.248Z" fill="#6c6d6d" opacity="0.26"/>
    <path id="Path_180" data-name="Path 180" d="M127.6,42.394c-.163.912-.326,1.824-.459,2.779a76.367,76.367,0,0,0-.83,10.944c.815-.086,1.615-.171,2.43-.242a9.323,9.323,0,0,0,1.5,6.256,9.846,9.846,0,0,0,4.992,3.776c-.089,1.4-.163,2.779-.252,4.175a34.682,34.682,0,0,1,6.547-4.417A34.069,34.069,0,0,1,147.34,63.3a14.143,14.143,0,0,1-2.948-5.672,17.325,17.325,0,0,1-.325-5.6,24.963,24.963,0,0,1,.577-4.019,9.424,9.424,0,0,0-4.755-9.619C136.3,36.665,130.958,38.119,127.6,42.394Z" fill="#fff" stroke="#161616" stroke-miterlimit="10" stroke-width="2"/>
    <path id="Path_181" data-name="Path 181" d="M128.4,55.974c.414-.057.844-.1,1.259-.142.148-.014.148-.228,0-.214-.445.043-.874.1-1.319.157C128.2,55.775,128.261,55.988,128.4,55.974Z" fill="#161616"/>
    <path id="Path_182" data-name="Path 182" d="M141.756,44.6c-1.793.442-2.119,1.938-4.385,5.059-2.3,3.163-3.747,5.144-6.34,6.3-1.673.741-2.5.542-3.243,1.5-1.274,1.653-.415,4.375.34,5.771a10.327,10.327,0,0,0,3.3,3.377,15.144,15.144,0,0,0,2.7,1.553c-.726-1.069-.77-1.4-.681-1.5.237-.228,1.244,1,2.429.841.341-.043.948-.228,2.3-2.266a13.379,13.379,0,0,0,1.955-3.705c.9-2.936-.37-3.734,0-7.6.06-.584.474-5.159,2.163-5.458a1.785,1.785,0,0,1,1.526.741,2.624,2.624,0,0,1-.223,3.121c.252-.171,2.667-1.738,2.637-4.289a3.619,3.619,0,0,0-1.17-2.821A4.112,4.112,0,0,0,141.756,44.6Z" fill="#161616" stroke="#161616" stroke-miterlimit="10" stroke-width="2"/>
    <path id="Path_183" data-name="Path 183" d="M129.817,51.086c.344,0,.622-.479.622-1.069s-.278-1.069-.622-1.069-.622.479-.622,1.069S129.473,51.086,129.817,51.086Z" fill="#161616"/>
    <path id="Path_184" data-name="Path 184" d="M125.077,51.585c.344,0,.622-.479.622-1.069s-.278-1.069-.622-1.069-.622.479-.622,1.069S124.733,51.585,125.077,51.585Z" fill="#161616"/>
    <path id="Path_185" data-name="Path 185" d="M124.144,48.764a.988.988,0,0,1,1.466-.057c.207.2.518-.114.311-.3a1.468,1.468,0,0,0-2.1.057C123.655,48.678,123.966,48.977,124.144,48.764Z" fill="#161616"/>
    <path id="Path_186" data-name="Path 186" d="M129,48.023a1.187,1.187,0,0,1,1.644.114.216.216,0,0,0,.311-.3,1.675,1.675,0,0,0-2.281-.114C128.469,47.894,128.78,48.194,129,48.023Z" fill="#161616"/>
    <path id="Path_187" data-name="Path 187" d="M127.091,44.09a11.4,11.4,0,0,1,1.718-4.446,9.3,9.3,0,0,1,2.622-2.793,8.909,8.909,0,0,1,9.539.513,9.232,9.232,0,0,1,3.659,9.163Q135.853,45.329,127.091,44.09Z" fill="#5222d0"/>
    <path id="Path_188" data-name="Path 188" d="M117.522,44.218q13.488,1.667,26.989,3.32c.844.1.844-1.183,0-1.282q-13.486-1.667-26.989-3.32C116.678,42.821,116.678,44.1,117.522,44.218Z" fill="#161616"/>
    <path id="Path_189" data-name="Path 189" d="M134.705,35.81a5.424,5.424,0,0,1,4.355,4.432,5.247,5.247,0,0,1-2.222,4.959c2.563.328,5.14.67,7.7,1a8.426,8.426,0,0,0,.088-2.821,9.161,9.161,0,0,0-8.22-7.667A8.272,8.272,0,0,0,134.705,35.81Z" fill="#321693"/>
  </g>
</svg>
