<?xml version="1.0" standalone="no"?>
<!DOCTYPE svg PUBLIC "-//W3C//DTD SVG 20010904//EN"
 "http://www.w3.org/TR/2001/REC-SVG-20010904/DTD/svg10.dtd">
<svg version="1.0" xmlns="http://www.w3.org/2000/svg"
 width="433.000000pt" height="577.000000pt" viewBox="0 0 433.000000 577.000000"
 preserveAspectRatio="xMidYMid meet">
<metadata>
Created by potrace 1.16, written by Peter Selinger 2001-2019
</metadata>
<g transform="translate(0.000000,577.000000) scale(0.100000,-0.100000)"
fill="#000000" stroke="none">
<path d="M2050 5229 c-212 -170 -425 -363 -681 -619 -255 -254 -449 -464 -449
-487 0 -6 15 -14 33 -18 17 -4 439 -106 937 -227 498 -121 997 -242 1110 -269
113 -27 364 -88 558 -136 194 -47 355 -83 358 -80 10 10 -133 246 -240 397
-314 442 -856 1001 -1381 1425 -60 49 -115 92 -121 97 -7 5 -55 -28 -124 -83z"/>
<path d="M640 3773 c-27 -38 -50 -73 -50 -80 0 -14 -7 -12 230 -68 107 -25
211 -49 230 -55 31 -8 1714 -418 1995 -485 61 -15 321 -78 579 -141 259 -63
476 -114 484 -114 16 0 10 50 -17 139 -16 53 -17 54 -66 66 -28 7 -203 49
-390 95 -187 45 -412 99 -500 120 -88 22 -218 53 -290 70 -71 17 -258 63 -415
101 -267 66 -450 110 -735 179 -66 16 -273 65 -460 110 -187 45 -353 85 -370
90 -35 11 -158 40 -168 40 -4 0 -30 -30 -57 -67z"/>
<path d="M375 3329 c-41 -86 -42 -97 -12 -104 12 -3 348 -84 747 -181 399 -96
1180 -285 1735 -420 556 -134 1062 -257 1125 -273 63 -16 119 -26 123 -22 8 8
41 160 36 165 -4 3 -150 39 -574 141 -126 30 -264 64 -305 74 -41 11 -113 29
-160 40 -47 11 -188 45 -315 76 -126 31 -277 67 -335 81 -144 34 -620 150
-960 233 -113 27 -261 63 -330 80 -248 58 -710 172 -725 177 -11 5 -24 -14
-50 -67z"/>
<path d="M226 2922 c-2 -4 -12 -60 -22 -123 -79 -538 220 -1010 732 -1151 117
-32 364 -32 483 0 148 40 276 109 402 217 48 41 54 44 57 26 2 -11 -6 -55 -17
-96 -96 -347 -406 -651 -796 -779 -90 -29 -229 -56 -293 -56 -55 0 -125 -34
-162 -78 -81 -98 -51 -255 60 -312 39 -20 61 -20 1493 -20 l1454 0 44 23 c141
74 139 285 -2 358 -25 12 -77 24 -132 30 -299 32 -571 162 -782 374 -164 164
-261 347 -299 562 l-5 32 52 -50 c107 -102 265 -190 415 -231 103 -29 360 -31
466 -5 200 50 416 181 525 319 46 57 51 78 19 78 -12 0 -54 9 -92 19 -39 10
-114 29 -166 41 -89 21 -268 64 -810 196 -124 30 -290 71 -370 90 -80 19 -208
50 -285 69 -77 19 -216 52 -310 75 -191 46 -422 102 -660 160 -171 42 -375 91
-680 164 -104 26 -213 53 -241 61 -58 17 -71 18 -78 7z"/>
</g>
</svg>
